<?xml version="1.0" encoding="UTF-8"?>
<svg width="253px" height="36px" viewBox="0 0 253 36" version="1.1" xmlns="http://www.w3.org/2000/svg" xmlns:xlink="http://www.w3.org/1999/xlink">
    <title>groundwork_logo_white</title>
    <g id="groundwork_logo_white" stroke="none" stroke-width="1" fill="none" fill-rule="evenodd">
        <path d="M42.176,30.28 C49.491,30.28 54.076,25.52 54.076,17.785 C54.076,17.19 54.076,16.595 54.041,15.93 L42.351,15.93 L42.351,19.395 L49.876,19.395 C49.666,24.295 46.796,26.78 42.351,26.78 C37.486,26.78 34.406,23.14 34.406,17.295 C34.406,11.555 37.591,7.81 42.351,7.81 C45.606,7.81 47.741,9 48.966,11.59 L52.921,10.75 C51.206,6.34 47.636,4.275 42.281,4.275 C35.176,4.275 30.346,9.525 30.346,17.26 C30.346,25.17 34.966,30.28 42.176,30.28 Z M62.2025,30 L62.2025,20.095 C62.2025,15.195 64.3375,12.78 68.8175,13.62 L69.2375,9.84 C65.0725,9.245 62.9725,11.205 62.2025,13.34 L62.2025,9.98 L58.2825,9.98 L58.2825,30 L62.2025,30 Z M79.3695,30.455 C84.4795,30.455 89.4845,27.27 89.4845,19.99 C89.4845,12.78 84.4445,9.595 79.3345,9.595 C74.2245,9.595 69.2195,12.78 69.2195,19.99 C69.2195,27.27 74.2245,30.455 79.3695,30.455 Z M79.3695,27.095 C75.6245,27.095 73.1395,24.435 73.1395,19.99 C73.1395,15.58 75.6245,12.92 79.3345,12.92 C83.0445,12.92 85.5645,15.615 85.5645,19.99 C85.5645,24.4 83.0795,27.095 79.3695,27.095 Z M101.174,30.385 C104.499,30.385 106.809,28.845 107.684,26.36 L107.684,30 L111.604,30 L111.604,9.98 L107.684,9.98 L107.684,20.06 C107.684,24.47 106.144,26.955 102.364,26.955 C98.584,26.955 97.009,24.89 97.009,20.55 L97.009,9.98 L93.089,9.98 L93.089,20.865 C93.089,27.165 95.644,30.385 101.174,30.385 Z M120.4025,30 L120.4025,19.92 C120.4025,15.51 121.9425,13.025 125.7225,13.025 C129.4325,13.025 131.1125,15.09 131.1125,19.465 L131.1125,30 L135.0325,30 L135.0325,19.15 C135.0325,12.815 132.4775,9.63 126.9475,9.63 C123.5875,9.63 121.3125,11.135 120.4025,13.62 L120.4025,9.98 L116.4825,9.98 L116.4825,30 L120.4025,30 Z M147.842,30.455 C150.957,30.455 153.792,28.88 154.912,26.185 L154.912,29.965 L158.832,29.965 L158.832,3.47 L154.912,3.47 L154.912,13.9 C153.792,11.135 150.957,9.595 147.807,9.595 C142.837,9.595 138.637,13.095 138.637,19.99 C138.637,26.92 142.872,30.455 147.842,30.455 Z M148.822,27.095 C145.077,27.095 142.557,24.435 142.557,19.99 C142.557,15.58 145.077,12.92 148.752,12.92 C152.497,12.92 155.017,15.615 155.017,19.99 C155.017,24.4 152.532,27.095 148.822,27.095 Z M173.9025,30 L179.6425,10.505 L185.4175,30 L189.2675,30 L197.8425,4.695 L193.4675,4.695 L187.1675,24.26 L181.3575,4.695 L177.9275,4.695 L172.1525,24.26 L165.8875,4.695 L161.5125,4.695 L170.0525,30 L173.9025,30 Z M206.5465,30.455 C211.6565,30.455 216.6615,27.27 216.6615,19.99 C216.6615,12.78 211.6215,9.595 206.5115,9.595 C201.4015,9.595 196.3965,12.78 196.3965,19.99 C196.3965,27.27 201.4015,30.455 206.5465,30.455 Z M206.5465,27.095 C202.8015,27.095 200.3165,24.435 200.3165,19.99 C200.3165,15.58 202.8015,12.92 206.5115,12.92 C210.2215,12.92 212.7415,15.615 212.7415,19.99 C212.7415,24.4 210.2565,27.095 206.5465,27.095 Z M224.5185,30 L224.5185,20.095 C224.5185,15.195 226.6535,12.78 231.1335,13.62 L231.5535,9.84 C227.3885,9.245 225.2885,11.205 224.5185,13.34 L224.5185,9.98 L220.5985,9.98 L220.5985,30 L224.5185,30 Z M238.3255,30 L238.3255,20.13 L247.5655,30 L252.8155,30 L242.5605,19.605 L252.3955,9.98 L247.1805,9.98 L238.3255,19.185 L238.3255,3.47 L234.4055,3.47 L234.4055,30 L238.3255,30 Z" id="GroundWork" fill="#FFFFFF" fill-rule="nonzero"></path>
        <g id="Hot-Air-Balloon" transform="translate(0.890147, 0.710704)" fill="#FFFFFF">
            <path d="M5.42705293,16.3960961 C3.77805293,15.2470961 2.64305293,13.5530961 2.22405293,11.5680961 C1.32605293,7.31409606 4.05805293,3.12309606 8.31305293,2.22509606 C12.5670529,1.32809606 16.7580529,4.05909606 17.6560529,8.31309606 C18.0730529,10.2900961 17.7200529,12.3050961 16.6770529,14.0230961 L19.2230529,13.4860961 C19.9030529,11.7160961 20.0660529,9.78809606 19.6650529,7.88909606 C18.5330529,2.52609606 13.2510529,-0.915903941 7.88905293,0.215096059 C2.52705293,1.34709606 -0.91594707,6.62909606 0.21505293,11.9920961 C0.61705293,13.9000961 1.54805293,15.5910961 2.88405293,16.9320961 L5.42705293,16.3960961 Z" id="Fill-9"></path>
            <polygon id="Fill-11" points="16.8382529 15.8511961 15.1192529 23.9741961 13.3742529 21.3951961 14.1352529 16.4211961 13.2292529 16.6131961 12.3322529 16.8021961 11.8962529 19.2111961 10.5232529 17.1831961 9.62625293 17.3721961 8.72125293 17.5641961 11.4262529 21.8061961 10.8702529 24.8711961 6.01725293 18.1341961 3.73525293 18.6161961 10.4052529 28.0951961 12.4142529 27.6711961 12.9462529 24.1921961 14.8392529 27.1611961 16.8472529 26.7371961 19.1202529 15.3701961"></polygon>
            <path d="M4.72885293,11.4458961 C4.02685293,8.11689606 5.64385293,5.41489606 8.73185293,4.76289606 C11.1418529,4.25589606 12.9208529,4.85589606 14.0218529,6.71589606 L11.7638529,7.64889606 C11.1628529,6.81489606 10.3208529,6.55289606 9.18985293,6.79189606 C7.48885293,7.14989606 6.66885293,8.78589606 7.12985293,10.9698961 C7.59385293,13.1698961 8.98285293,14.3078961 10.7308529,13.9388961 C12.2218529,13.6248961 13.0358529,12.5568961 12.7798529,10.8958961 L10.1718529,11.4458961 L9.78485293,9.60789606 L14.8328529,8.54389606 C14.9308529,8.86889606 14.9948529,9.16989606 15.0588529,9.46989606 C15.7668529,12.8298961 14.2418529,15.2918961 11.0478529,15.9658961 C7.91485293,16.6268961 5.44785293,14.8498961 4.72885293,11.4458961" id="Fill-13"></path>
            <path d="M17.1936529,30.4917961 L17.1896529,30.4917961 L17.1906529,30.4877961 L13.7786529,28.2647961 L11.5556529,31.6767961 C11.5556529,31.6767961 11.5576529,31.6797961 11.5586529,31.6797961 L11.5536529,31.6807961 L12.1726529,34.6127961 L17.8116529,33.4237961 L17.1936529,30.4917961 Z" id="Fill-15"></path>
        </g>
    </g>
</svg>