<?xml version="1.0" encoding="UTF-8"?>
<svg width="21px" height="36px" viewBox="0 0 21 36" version="1.1" xmlns="http://www.w3.org/2000/svg" xmlns:xlink="http://www.w3.org/1999/xlink">
    <title>groundwork_mark</title>
    <g id="groundwork_mark" stroke="none" stroke-width="1" fill="none" fill-rule="evenodd">
        <g id="Hot-Air-Balloon" fill="#D16720" transform="translate(0.890147, 0.710704)">
            <path d="M5.42705293,16.3960961 C3.77805293,15.2470961 2.64305293,13.5530961 2.22405293,11.5680961 C1.32605293,7.31409606 4.05805293,3.12309606 8.31305293,2.22509606 C12.5670529,1.32809606 16.7580529,4.05909606 17.6560529,8.31309606 C18.0730529,10.2900961 17.7200529,12.3050961 16.6770529,14.0230961 L19.2230529,13.4860961 C19.9030529,11.7160961 20.0660529,9.78809606 19.6650529,7.88909606 C18.5330529,2.52609606 13.2510529,-0.915903941 7.88905293,0.215096059 C2.52705293,1.34709606 -0.91594707,6.62909606 0.21505293,11.9920961 C0.61705293,13.9000961 1.54805293,15.5910961 2.88405293,16.9320961 L5.42705293,16.3960961 Z" id="Fill-9"></path>
            <polygon id="Fill-11" points="16.8382529 15.8511961 15.1192529 23.9741961 13.3742529 21.3951961 14.1352529 16.4211961 13.2292529 16.6131961 12.3322529 16.8021961 11.8962529 19.2111961 10.5232529 17.1831961 9.62625293 17.3721961 8.72125293 17.5641961 11.4262529 21.8061961 10.8702529 24.8711961 6.01725293 18.1341961 3.73525293 18.6161961 10.4052529 28.0951961 12.4142529 27.6711961 12.9462529 24.1921961 14.8392529 27.1611961 16.8472529 26.7371961 19.1202529 15.3701961"></polygon>
            <path d="M4.72885293,11.4458961 C4.02685293,8.11689606 5.64385293,5.41489606 8.73185293,4.76289606 C11.1418529,4.25589606 12.9208529,4.85589606 14.0218529,6.71589606 L11.7638529,7.64889606 C11.1628529,6.81489606 10.3208529,6.55289606 9.18985293,6.79189606 C7.48885293,7.14989606 6.66885293,8.78589606 7.12985293,10.9698961 C7.59385293,13.1698961 8.98285293,14.3078961 10.7308529,13.9388961 C12.2218529,13.6248961 13.0358529,12.5568961 12.7798529,10.8958961 L10.1718529,11.4458961 L9.78485293,9.60789606 L14.8328529,8.54389606 C14.9308529,8.86889606 14.9948529,9.16989606 15.0588529,9.46989606 C15.7668529,12.8298961 14.2418529,15.2918961 11.0478529,15.9658961 C7.91485293,16.6268961 5.44785293,14.8498961 4.72885293,11.4458961" id="Fill-13"></path>
            <path d="M17.1936529,30.4917961 L17.1896529,30.4917961 L17.1906529,30.4877961 L13.7786529,28.2647961 L11.5556529,31.6767961 C11.5556529,31.6767961 11.5576529,31.6797961 11.5586529,31.6797961 L11.5536529,31.6807961 L12.1726529,34.6127961 L17.8116529,33.4237961 L17.1936529,30.4917961 Z" id="Fill-15"></path>
        </g>
    </g>
</svg>