<svg xmlns="http://www.w3.org/2000/svg" viewBox="0 0 346.82 45.3"><defs><style>.cls-1{fill:#231f20;}.cls-2{fill:#8baa3e;}.cls-3{fill:#939598;}</style></defs><title>opentreemap_RGB</title><g id="Layer_2" data-name="Layer 2"><g id="Layer_1-2" data-name="Layer 1"><path class="cls-1" d="M59.27,23.34c0-7.22,4.75-13,12.33-13s12.32,5.82,12.32,13-4.74,13.1-12.32,13.1S59.27,30.56,59.27,23.34Zm20.57,0c0-5.05-2.93-9.59-8.24-9.59s-8.25,4.54-8.25,9.59S66.29,33,71.6,33,79.84,28.44,79.84,23.34Z"/><path class="cls-1" d="M92.79,32.05V45.3H88.93V10.91h3.86v3.72a10.41,10.41,0,0,1,8.41-4.33c6.54,0,11.08,4.95,11.08,13s-4.54,13.1-11.08,13.1A10.44,10.44,0,0,1,92.79,32.05Zm15.42-8.71c0-5.52-3-9.59-8-9.59a9.21,9.21,0,0,0-7.43,4V29a9.28,9.28,0,0,0,7.43,4C105.22,33,108.21,28.85,108.21,23.34Z"/><path class="cls-1" d="M115.69,23.34c0-7.22,5.16-13,12.27-13,7.53,0,12,5.87,12,13.35v1h-20.1c.31,4.69,3.55,8.61,8.92,8.61a10.85,10.85,0,0,0,7.73-3.2l1.86,2.53a13.77,13.77,0,0,1-9.9,3.87C121,36.44,115.69,31.12,115.69,23.34Zm12.22-9.85c-5.31,0-7.94,4.49-8.15,8.25h16.35C136.06,18.08,133.58,13.49,127.91,13.49Z"/><path class="cls-1" d="M161.74,35.82V19.52c0-4.43-2.27-5.77-5.62-5.77a9.69,9.69,0,0,0-7.37,3.87v18.2h-3.87V10.91h3.87v3.61a12.18,12.18,0,0,1,8.92-4.22c5.15,0,7.88,2.63,7.88,8V35.82Z"/><path class="cls-2" d="M172.83,30.61V14.32h-4.12V10.91h4.12V4.11h3.92v6.8h5.05v3.41h-5.05V29.78c0,1.86.82,3.2,2.47,3.2a3.63,3.63,0,0,0,2.63-1.08L183,34.84a6.31,6.31,0,0,1-4.59,1.6C174.69,36.44,172.83,34.32,172.83,30.61Z"/><path class="cls-2" d="M185.93,35.82V10.91h3.86v4a10.77,10.77,0,0,1,8.31-4.53v4a11.22,11.22,0,0,0-1.5-.11,9.14,9.14,0,0,0-6.81,4V35.82Z"/><path class="cls-2" d="M200.21,23.34c0-7.22,5.16-13,12.27-13,7.53,0,12,5.87,12,13.35v1h-20.1c.31,4.69,3.56,8.61,8.92,8.61A10.85,10.85,0,0,0,221,30l1.86,2.53a13.77,13.77,0,0,1-9.9,3.87C205.52,36.44,200.21,31.12,200.21,23.34Zm12.22-9.85c-5.31,0-7.94,4.49-8.14,8.25h16.34C220.58,18.08,218.1,13.49,212.43,13.49Z"/><path class="cls-2" d="M228,23.34c0-7.22,5.15-13,12.27-13,7.52,0,12,5.87,12,13.35v1H232.08c.31,4.69,3.56,8.61,8.92,8.61a10.84,10.84,0,0,0,7.73-3.2l1.86,2.53a13.77,13.77,0,0,1-9.9,3.87C233.27,36.44,228,31.12,228,23.34Zm12.22-9.85c-5.31,0-8,4.49-8.15,8.25h16.34C248.32,18.08,245.85,13.49,240.18,13.49Z"/><path class="cls-3" d="M287.21,35.82V18.9c0-3.14-1.35-5.15-4.59-5.15a8.54,8.54,0,0,0-6.6,3.81V35.82h-3.87V18.9c0-3.14-1.29-5.15-4.59-5.15-2.53,0-5.21,1.86-6.55,3.87v18.2h-3.86V10.91H261v3.61a10.94,10.94,0,0,1,8.1-4.22c3.76,0,5.93,2.06,6.65,4.64a10.47,10.47,0,0,1,8.35-4.64c4.54,0,7,2.52,7,7.52v18Z"/><path class="cls-3" d="M313.1,35.82V33a10.7,10.7,0,0,1-8.25,3.46c-4.18,0-8.67-2.84-8.67-8.25,0-5.63,4.44-8.2,8.67-8.2a10.54,10.54,0,0,1,8.25,3.35V18.85c0-3.3-2.69-5.2-6.3-5.2a9.7,9.7,0,0,0-7.62,3.45l-1.81-2.68a13,13,0,0,1,9.95-4.12c5.31,0,9.64,2.37,9.64,8.4V35.82Zm0-5.26V25.81a8.43,8.43,0,0,0-6.81-3c-3.66,0-6.19,2.27-6.19,5.42s2.53,5.46,6.19,5.46A8.33,8.33,0,0,0,313.1,30.56Z"/><path class="cls-3" d="M327.33,32.05V45.3h-3.87V10.91h3.87v3.72a10.41,10.41,0,0,1,8.41-4.33c6.54,0,11.08,4.95,11.08,13s-4.54,13.1-11.08,13.1A10.42,10.42,0,0,1,327.33,32.05Zm15.42-8.71c0-5.52-3-9.59-8-9.59a9.19,9.19,0,0,0-7.43,4V29a9.26,9.26,0,0,0,7.43,4C339.76,33,342.75,28.85,342.75,23.34Z"/><path class="cls-2" d="M27.12,28.32c-12.77,0-15.92,1.53-15.92,1.53s.11-7,8.47-7.58c0,0-3.27-4.67-11.34-3.15-6.5,1.22-8.1,8.25-6.54,13.63,24.61,8.52,32.5-1.15,32.5-1.15-5,9.5-17.8,8.65-29.62,5.31a22.26,22.26,0,0,0,39-14C43.55,23.12,39.65,28.32,27.12,28.32Z"/><path class="cls-2" d="M16.57,16.22c12.78,0,15.93-1.52,15.93-1.52s-.11,7-8.47,7.57c0,0,3.27,4.67,11.34,3.15,6.5-1.22,8.1-8.25,6.54-13.63C17.3,3.27,9.41,13,9.41,13c5-9.51,17.8-8.66,29.62-5.32a22.26,22.26,0,0,0-39,14C.15,21.42,4.05,16.22,16.57,16.22Z"/></g></g></svg>