<svg xmlns="http://www.w3.org/2000/svg" viewBox="0 0 125.58 128"><defs><style>.cls-1{fill:#8aaa3e;}</style></defs><title>opentreemap_RGB_mark</title><g id="Layer_2" data-name="Layer 2"><g id="Layer_1-2" data-name="Layer 1"><path class="cls-1" d="M78,81.39c-36.72,0-45.75,4.37-45.75,4.37S32.49,65.55,56.53,64c0,0-9.42-13.43-32.61-9.06C5.26,58.46.66,78.65,5.14,94.11,75.87,118.6,98.53,90.8,98.53,90.8c-14.26,27.3-51.15,24.87-85.11,15.28A64,64,0,0,0,125.58,65.84C125.14,66.44,113.93,81.39,78,81.39Z"/><path class="cls-1" d="M47.63,46.61c36.72,0,45.75-4.37,45.75-4.37S93.09,62.45,69.05,64c0,0,9.41,13.43,32.6,9.06,18.66-3.52,23.27-23.71,18.78-39.17C49.71,9.4,27.05,37.2,27.05,37.2,41.3,9.9,78.2,12.33,112.16,21.92A64,64,0,0,0,0,62.16C.44,61.56,11.65,46.61,47.63,46.61Z"/></g></g></svg>