<?xml version="1.0" standalone="no"?>
<!DOCTYPE svg PUBLIC "-//W3C//DTD SVG 20010904//EN"
 "http://www.w3.org/TR/2001/REC-SVG-20010904/DTD/svg10.dtd">
<svg version="1.0" xmlns="http://www.w3.org/2000/svg"
 width="260.000000pt" height="260.000000pt" viewBox="0 0 260.000000 260.000000"
 preserveAspectRatio="xMidYMid meet">
<metadata>
Created by potrace 1.11, written by Peter Selinger 2001-2013
</metadata>
<g transform="translate(0.000000,260.000000) scale(0.100000,-0.100000)"
fill="#000000" stroke="none">
<path d="M1237 2530 c-24 -19 -50 -59 -109 -170 -14 -25 -36 -65 -50 -90 -33
-57 -221 -397 -261 -470 -47 -88 -348 -631 -373 -675 -12 -22 -34 -61 -48 -87
-14 -26 -73 -134 -132 -240 -59 -106 -136 -246 -171 -311 -85 -154 -89 -208
-22 -273 l30 -29 1190 -1 c1069 -1 1194 1 1221 15 48 25 70 61 70 117 1 44
-12 71 -117 259 -64 116 -135 244 -157 285 -23 41 -44 80 -48 85 -4 6 -25 44
-47 85 -22 41 -108 197 -190 345 -82 149 -163 295 -180 325 -16 30 -103 188
-193 350 -90 162 -174 315 -188 340 -13 25 -33 61 -43 82 -10 20 -31 46 -45
57 -35 28 -102 28 -137 1z m150 -1114 c31 -55 65 -117 76 -136 11 -19 35 -62
53 -95 18 -33 78 -141 133 -240 56 -99 101 -190 101 -202 0 -12 -9 -27 -19
-33 -13 -6 -163 -10 -429 -10 -431 1 -441 2 -444 46 -2 24 407 760 430 773 27
15 40 2 99 -103z"/>
</g>
</svg>
