<svg xmlns="http://www.w3.org/2000/svg" viewBox="0 0 181.69 167.9"><defs><style>.cls-1{fill:#0098cc;}</style></defs><title>geophilly_RGB</title><g id="Layer_2" data-name="Layer 2"><g id="Layer_1-2" data-name="Layer 1"><path class="cls-1" d="M0,26.61C0,19.38,1.53,0,27.49,0c23,0,26.83,15.11,27.38,23.66A3.22,3.22,0,0,1,52,27.27L39.64,30c-2.19.45-3.39-.54-3.61-2.84-.44-5.26-2.3-8.32-8.54-8.32-8.11,0-8.65,5.14-8.65,13.57V48.18c0,8.44.54,13.59,8.65,13.59s8.65-5.15,8.65-10.52H29.79A3,3,0,0,1,26.5,48V39.2a3,3,0,0,1,3.29-3.28h21.9C53.88,35.92,55,37,55,39.2V54c0,7.23-1.54,26.61-27.49,26.61S0,61.22,0,54Z"/><path class="cls-1" d="M115,2c2.2,0,3.29,1.1,3.29,3.29V17.52A3,3,0,0,1,115,20.81H88.49a2.94,2.94,0,0,0-3.28,3.28V27.6a3,3,0,0,0,3.28,3.28h17q3.28,0,3.28,3.29V46.43a3,3,0,0,1-3.28,3.29h-17A2.94,2.94,0,0,0,85.21,53v3.51a3,3,0,0,0,3.28,3.28H115c2.2,0,3.29,1.1,3.29,3.29V75.34c0,2.19-1.09,3.29-3.29,3.29H69a3,3,0,0,1-3.29-3.29V5.26A3,3,0,0,1,69,2Z"/><path class="cls-1" d="M27.49,91.24c19.49,0,27.37,8.32,27.37,26.28S47,143.81,27.49,143.81H22.23A2.94,2.94,0,0,0,19,147.09v17.52q0,3.28-3.29,3.29H3.4a3,3,0,0,1-3.29-3.29v-70c0-2.19,1.1-3.29,3.29-3.4ZM28.15,125c5.25,0,7.88-.66,7.88-7.45s-2.63-7.44-7.88-7.44H22.23A2.94,2.94,0,0,0,19,113.36v8.32A3,3,0,0,0,22.23,125Z"/><path class="cls-1" d="M80.17,91.24a3,3,0,0,1,3.29,3.29V121.9a3,3,0,0,0,3.28,3.29H97.26a2.94,2.94,0,0,0,3.28-3.29V94.53a3,3,0,0,1,3.28-3.29h12.27q3.28,0,3.29,3.29v70.08a3,3,0,0,1-3.29,3.29H103.82a3,3,0,0,1-3.28-3.29v-17.3q0-3.28-3.28-3.28H86.74a2.94,2.94,0,0,0-3.28,3.28v17.3a3,3,0,0,1-3.29,3.29H67.91a3,3,0,0,1-3.29-3.29V94.53c0-2.19,1.09-3.29,3.29-3.29Z"/><path class="cls-1" d="M144.84,91.24q3.28,0,3.29,3.29v51.25a3,3,0,0,0,3.28,3.28h24.43c2.18,0,3.28,1.1,3.28,3.29v12.26c0,2.19-1.1,3.29-3.28,3.29H132.57a3,3,0,0,1-3.28-3.29V94.53a3,3,0,0,1,3.28-3.29Z"/><path class="cls-1" d="M154.21,0c-26,0-27.49,19.38-27.49,26.61V54c0,7.23,1.53,26.61,27.49,26.61S181.69,61.22,181.69,54V26.61C181.69,19.38,180.16,0,154.21,0Zm.51,59.59s-12.06-15-12.06-26.52a12.06,12.06,0,1,1,24.12,0C166.78,44.58,154.72,59.59,154.72,59.59Z"/><path class="cls-1" d="M154.72,26.7a6.51,6.51,0,1,0,6.51,6.51A6.5,6.5,0,0,0,154.72,26.7Z"/></g></g></svg>