<svg xmlns="http://www.w3.org/2000/svg" viewBox="0 0 514.85 80.6"><defs><style>.cls-1{fill:#0098cc;}</style></defs><title>geophilly_RGB</title><g id="Layer_2" data-name="Layer 2"><g id="Layer_1-2" data-name="Layer 1"><path class="cls-1" d="M0,26.61C0,19.38,1.53,0,27.49,0c23,0,26.83,15.11,27.38,23.66A3.22,3.22,0,0,1,52,27.27L39.64,30c-2.19.45-3.39-.54-3.61-2.84-.44-5.26-2.3-8.32-8.54-8.32-8.11,0-8.65,5.14-8.65,13.57V48.18c0,8.44.54,13.59,8.65,13.59s8.65-5.15,8.65-10.52H29.79A3,3,0,0,1,26.5,48V39.2a3,3,0,0,1,3.29-3.28h21.9C53.88,35.92,55,37,55,39.2V54c0,7.23-1.54,26.61-27.49,26.61S0,61.22,0,54Z"/><path class="cls-1" d="M115,2c2.2,0,3.29,1.1,3.29,3.29V17.52A3,3,0,0,1,115,20.81H88.49a2.94,2.94,0,0,0-3.28,3.28V27.6a3,3,0,0,0,3.28,3.28h17q3.28,0,3.28,3.29V46.43a3,3,0,0,1-3.28,3.29h-17A2.94,2.94,0,0,0,85.21,53v3.51a3,3,0,0,0,3.28,3.28H115c2.2,0,3.29,1.1,3.29,3.29V75.34c0,2.19-1.09,3.29-3.29,3.29H69a3,3,0,0,1-3.29-3.29V5.26A3,3,0,0,1,69,2Z"/><path class="cls-1" d="M220,2c19.49,0,27.37,8.32,27.37,26.28S239.52,54.54,220,54.54h-5.26a2.94,2.94,0,0,0-3.28,3.28V75.34q0,3.28-3.29,3.29H195.94a3,3,0,0,1-3.29-3.29v-70c0-2.19,1.1-3.29,3.29-3.4Zm.66,33.73c5.25,0,7.88-.66,7.88-7.45s-2.63-7.44-7.88-7.44h-5.92a2.94,2.94,0,0,0-3.28,3.28v8.32a3,3,0,0,0,3.28,3.29Z"/><path class="cls-1" d="M270.85,2a3,3,0,0,1,3.29,3.29V32.63a3,3,0,0,0,3.28,3.29h10.52a3,3,0,0,0,3.28-3.29V5.26A3,3,0,0,1,294.5,2h12.27q3.28,0,3.29,3.29V75.34a3,3,0,0,1-3.29,3.29H294.5a3,3,0,0,1-3.28-3.29V58q0-3.28-3.28-3.29H277.42A3,3,0,0,0,274.14,58v17.3a3,3,0,0,1-3.29,3.29H258.59a3,3,0,0,1-3.29-3.29V5.26c0-2.19,1.09-3.29,3.29-3.29Z"/><path class="cls-1" d="M337.44,2q3.29,0,3.29,3.29V75.34a3,3,0,0,1-3.29,3.29h-12a3,3,0,0,1-3.29-3.29V5.26A3,3,0,0,1,325.4,2Z"/><path class="cls-1" d="M368.33,2q3.29,0,3.28,3.29V56.51a3,3,0,0,0,3.28,3.28h24.43q3.29,0,3.28,3.29V75.34q0,3.28-3.28,3.29H356.06a3,3,0,0,1-3.28-3.29V5.26A3,3,0,0,1,356.06,2Z"/><path class="cls-1" d="M426,2c2.2,0,3.29,1.1,3.29,3.29V56.51a3,3,0,0,0,3.29,3.28H457q3.29,0,3.28,3.29V75.34q0,3.28-3.28,3.29H413.78a3,3,0,0,1-3.28-3.29V5.26A3,3,0,0,1,413.78,2Z"/><path class="cls-1" d="M471.06,2a3.56,3.56,0,0,1,3.72,2.52l8.11,20.37c.44,1,1.1,1,1.53,0l8.11-20.37A3.56,3.56,0,0,1,496.25,2h15.66c2.52,0,3.61,1.53,2.52,3.83l-19.6,43.81a2.77,2.77,0,0,0-.22,1.31V75.34a3,3,0,0,1-3.29,3.29H476a3,3,0,0,1-3.29-3.29V50.92a2.89,2.89,0,0,0-.21-1.31L452.78,5.8c-1.1-2.3,0-3.83,2.51-3.83Z"/><path class="cls-1" d="M154.21,0c-26,0-27.49,19.38-27.49,26.61V54c0,7.23,1.53,26.61,27.49,26.61S181.69,61.22,181.69,54V26.61C181.69,19.38,180.16,0,154.21,0Zm.51,59.59s-12.06-15-12.06-26.52a12.06,12.06,0,1,1,24.12,0C166.78,44.58,154.72,59.59,154.72,59.59Z"/><path class="cls-1" d="M154.72,26.7a6.51,6.51,0,1,0,6.51,6.51A6.5,6.5,0,0,0,154.72,26.7Z"/></g></g></svg>