<svg xmlns="http://www.w3.org/2000/svg" viewBox="0 0 374.43 181.08"><defs><style>.cls-1{fill:#46b6ae;}.cls-2{fill:#15514b;}</style></defs><title>temperate_RGB_centered</title><g id="Layer_2" data-name="Layer 2"><g id="Color_Logo" data-name="Color Logo"><g id="Full_logo_center-aligned" data-name="Full logo, center-aligned"><g id="Text"><path class="cls-1" d="M11.67,171.44a23.17,23.17,0,0,1,.83,3.36h.09a27.93,27.93,0,0,1,.81-3.36l1.77-5.84h2.16l-3.91,11.5C12.34,180.23,11,181,9.1,181a4.92,4.92,0,0,1-1.54-.25L7.74,179a2.91,2.91,0,0,0,1.38.32c1.13,0,1.77-.6,2.39-2.46L7.58,165.6H9.86Z"/><path class="cls-1" d="M18.76,170.85c0-3.61,1.91-5.5,4.83-5.5s4.85,1.89,4.85,5.5-1.91,5.65-4.85,5.65S18.76,174.48,18.76,170.85Zm2,0c0,2.67.94,4,2.78,4s2.8-1.33,2.8-4-1-3.84-2.8-3.84S20.81,168.27,20.81,170.87Z"/><path class="cls-1" d="M37.82,174.3a3,3,0,0,1-3.26,2.2c-1.93,0-3.22-1-3.22-3.51V165.6h2.07v7.06c0,1.57.6,2.3,1.91,2.3,1.15,0,2.46-1,2.46-3.08V165.6h2.07v10.63H38.08Z"/><path class="cls-1" d="M49.72,167.7a5.2,5.2,0,0,0-.95-.09,3,3,0,0,0-2.94,3.24v5.38H43.76V165.6h1.75l.25,2.88a3.7,3.7,0,0,1,4.12-3.11Z"/><path class="cls-1" d="M66.5,173.72c0,.81.37,1,.79,1a1.59,1.59,0,0,0,.59-.11v1.6a2.93,2.93,0,0,1-1.12.19,1.92,1.92,0,0,1-2.19-1.7,3.12,3.12,0,0,1-3.15,1.81c-1.86,0-3.17-1.05-3.17-2.87,0-2.35,1.82-3.7,6.16-3.5v-1.31c0-1.31-.78-1.81-1.91-1.81a1.73,1.73,0,0,0-1.93,1.7l-2-.3c.17-2.25,2.14-3.06,4.1-3.06s3.81.83,3.81,3.27Zm-2.09-2.23c-2.85-.07-4.09.58-4.09,1.91a1.51,1.51,0,0,0,1.7,1.54c1.1,0,2.39-.67,2.39-1.91Z"/><path class="cls-1" d="M77.31,160.87h2.1v15.36H77.57l-.23-1.84A3.2,3.2,0,0,1,74,176.5c-2.23,0-4.21-1.81-4.21-5.4s1.72-5.75,4.76-5.75a2.88,2.88,0,0,1,2.8,1.68Zm0,8.78A2.57,2.57,0,0,0,74.69,167c-1.56,0-2.85,1.08-2.85,4.07,0,2.51,1.11,3.84,2.83,3.84A2.74,2.74,0,0,0,77.34,172Z"/><path class="cls-1" d="M90.79,173.72c0,.81.37,1,.78,1a1.61,1.61,0,0,0,.6-.11v1.6a3,3,0,0,1-1.12.19,1.92,1.92,0,0,1-2.19-1.7,3.12,3.12,0,0,1-3.15,1.81c-1.86,0-3.17-1.05-3.17-2.87,0-2.35,1.81-3.7,6.16-3.5v-1.31c0-1.31-.78-1.81-1.91-1.81a1.73,1.73,0,0,0-1.93,1.7l-2-.3c.16-2.25,2.14-3.06,4.1-3.06s3.81.83,3.81,3.27Zm-2.09-2.23c-2.85-.07-4.09.58-4.09,1.91a1.51,1.51,0,0,0,1.7,1.54c1.1,0,2.39-.67,2.39-1.91Z"/><path class="cls-1" d="M97,180.9H94.89V165.6h1.7l.25,2.05a3.56,3.56,0,0,1,3.52-2.3c2.6,0,4.19,1.89,4.19,5.31,0,3.25-1.66,5.84-4.6,5.84a3,3,0,0,1-3-1.67Zm0-8.79a2.55,2.55,0,0,0,2.57,2.83c1.59,0,2.9-1.29,2.9-4.09,0-2.56-1-3.8-2.67-3.8a2.83,2.83,0,0,0-2.8,3.11Z"/><path class="cls-1" d="M113.93,175.88a5,5,0,0,1-2.57.62,2.73,2.73,0,0,1-3.06-3v-6.25h-1.54V165.6h1.54v-2.25l2.09-.25v2.5h3.15v1.66h-3.17v5.84c0,1.15.53,1.63,1.4,1.63a3,3,0,0,0,1.77-.57Z"/><path class="cls-1" d="M124.52,173.72c0,.81.37,1,.78,1a1.61,1.61,0,0,0,.6-.11v1.6a3,3,0,0,1-1.13.19,1.91,1.91,0,0,1-2.18-1.7,3.12,3.12,0,0,1-3.15,1.81c-1.86,0-3.17-1.05-3.17-2.87,0-2.35,1.81-3.7,6.16-3.5v-1.31c0-1.31-.78-1.81-1.91-1.81a1.73,1.73,0,0,0-1.93,1.7l-2-.3c.16-2.25,2.14-3.06,4.09-3.06s3.82.83,3.82,3.27Zm-2.09-2.23c-2.85-.07-4.09.58-4.09,1.91a1.51,1.51,0,0,0,1.7,1.54c1.1,0,2.39-.67,2.39-1.91Z"/><path class="cls-1" d="M134.55,175.88a5,5,0,0,1-2.58.62,2.73,2.73,0,0,1-3.05-3v-6.25h-1.55V165.6h1.55v-2.25l2.09-.25v2.5h3.15v1.66H131v5.84c0,1.15.52,1.63,1.4,1.63a3,3,0,0,0,1.77-.57Z"/><path class="cls-1" d="M138.46,160.82a1.37,1.37,0,0,1,1.44,1.38,1.4,1.4,0,0,1-1.44,1.38,1.38,1.38,0,0,1-1.38-1.38A1.35,1.35,0,0,1,138.46,160.82Zm1,4.78v10.63h-2.07V165.6Z"/><path class="cls-1" d="M142.78,170.85c0-3.61,1.91-5.5,4.83-5.5s4.85,1.89,4.85,5.5-1.91,5.65-4.85,5.65S142.78,174.48,142.78,170.85Zm2.05,0c0,2.67.94,4,2.78,4s2.8-1.33,2.8-4-1-3.84-2.8-3.84S144.83,168.27,144.83,170.87Z"/><path class="cls-1" d="M157.8,167.65a3.31,3.31,0,0,1,3.4-2.3,3,3,0,0,1,3.22,3.29v7.59h-2.07v-7c0-1.31-.6-2.11-1.86-2.11s-2.51.68-2.51,3v6.1h-2.07V165.6h1.63Z"/><path class="cls-1" d="M176.8,180.9h-2.07V165.6h1.7l.25,2.05a3.56,3.56,0,0,1,3.52-2.3c2.6,0,4.18,1.89,4.18,5.31,0,3.25-1.65,5.84-4.6,5.84a3,3,0,0,1-3-1.67Zm0-8.79a2.55,2.55,0,0,0,2.57,2.83c1.59,0,2.9-1.29,2.9-4.09,0-2.56-1-3.8-2.67-3.8a2.83,2.83,0,0,0-2.8,3.11Z"/><path class="cls-1" d="M191.49,176.23a4.93,4.93,0,0,1-1.29.18,2.19,2.19,0,0,1-2.43-2.3V160.87h2.07v12.81a.85.85,0,0,0,.94.94,2.34,2.34,0,0,0,.74-.12Z"/><path class="cls-1" d="M202.43,173.72c0,.81.36,1,.78,1a1.69,1.69,0,0,0,.6-.11v1.6a3,3,0,0,1-1.13.19,1.92,1.92,0,0,1-2.19-1.7,3.12,3.12,0,0,1-3.15,1.81c-1.86,0-3.17-1.05-3.17-2.87,0-2.35,1.82-3.7,6.16-3.5v-1.31c0-1.31-.78-1.81-1.91-1.81a1.73,1.73,0,0,0-1.93,1.7l-2-.3c.16-2.25,2.13-3.06,4.09-3.06s3.82.83,3.82,3.27Zm-2.1-2.23c-2.85-.07-4.09.58-4.09,1.91a1.51,1.51,0,0,0,1.7,1.54c1.1,0,2.39-.67,2.39-1.91Z"/><path class="cls-1" d="M208.69,167.65a3.31,3.31,0,0,1,3.4-2.3,3,3,0,0,1,3.22,3.29v7.59h-2.07v-7c0-1.31-.6-2.11-1.86-2.11s-2.51.68-2.51,3v6.1H206.8V165.6h1.63Z"/><path class="cls-1" d="M221.11,167.65a3.31,3.31,0,0,1,3.4-2.3,3,3,0,0,1,3.22,3.29v7.59h-2.07v-7c0-1.31-.6-2.11-1.86-2.11s-2.51.68-2.51,3v6.1h-2.07V165.6h1.63Z"/><path class="cls-1" d="M232.66,160.82a1.37,1.37,0,0,1,1.45,1.38,1.42,1.42,0,0,1-2.83,0A1.36,1.36,0,0,1,232.66,160.82Zm1.06,4.78v10.63h-2.07V165.6Z"/><path class="cls-1" d="M239.6,167.65a3.32,3.32,0,0,1,3.4-2.3,3,3,0,0,1,3.22,3.29v7.59h-2.07v-7c0-1.31-.59-2.11-1.86-2.11s-2.51.68-2.51,3v6.1h-2.07V165.6h1.64Z"/><path class="cls-1" d="M256.94,166.2c.5-.27.67-.83.8-1.61l1.8.62a2.3,2.3,0,0,1-1.77,1.91,3.92,3.92,0,0,1,.48,2c0,2.46-2,3.68-4.37,3.68a4.62,4.62,0,0,1-1.38-.18,1.14,1.14,0,0,0-.71,1.1c0,.6.39.88,1.13.88h2.59c2.42,0,3.71,1.05,3.71,3,0,2.78-3,3.52-5.78,3.52-2.34,0-4.64-.6-4.64-2.78,0-1.38,1-2.3,2.74-2.44a1.58,1.58,0,0,1-1.48-1.66,1.84,1.84,0,0,1,1.57-1.86,3.31,3.31,0,0,1-2.07-3.22c0-2.39,1.75-3.77,4.3-3.77A5.13,5.13,0,0,1,256.94,166.2Zm-3.29,13.41c2.16,0,3.56-.42,3.56-1.75,0-.8-.43-1.4-1.79-1.4h-2.3c-1.52,0-2.37.5-2.37,1.61S252,179.61,253.65,179.61Zm.21-8.28a2.23,2.23,0,1,0,0-4.46,2,2,0,0,0-2.23,2.23A2.06,2.06,0,0,0,253.86,171.33Z"/><path class="cls-1" d="M276.67,173.54c-.37,2.14-2.07,3-4.16,3-2.78,0-4.69-2-4.69-5.51s1.91-5.64,4.85-5.64c2.25,0,3.73,1.2,3.86,3.31l-1.88.39c-.19-1.33-.9-2-2.07-2-1.82,0-2.76,1.61-2.76,3.94s1.1,3.86,2.85,3.86a2.09,2.09,0,0,0,2.21-1.75Z"/><path class="cls-1" d="M279.07,170.85c0-3.61,1.9-5.5,4.83-5.5s4.85,1.89,4.85,5.5-1.91,5.65-4.85,5.65S279.07,174.48,279.07,170.85Zm2,0c0,2.67.95,4,2.79,4s2.8-1.33,2.8-4-1-3.84-2.8-3.84S281.11,168.27,281.11,170.87Z"/><path class="cls-1" d="M303.51,165.35a2.89,2.89,0,0,1,3.15,3.2v7.68h-2.07v-7c0-1.31-.57-2.09-1.77-2.09s-2.41.85-2.41,3v6.1h-2.07v-7c0-1.31-.58-2.09-1.77-2.09s-2.42.87-2.42,3v6.1h-2.07V165.6h1.64l.25,2.05a3.27,3.27,0,0,1,3.31-2.3,2.62,2.62,0,0,1,2.9,2.35A3.26,3.26,0,0,1,303.51,165.35Z"/><path class="cls-1" d="M312.48,180.9h-2.07V165.6h1.71l.25,2.05a3.55,3.55,0,0,1,3.52-2.3c2.6,0,4.18,1.89,4.18,5.31,0,3.25-1.65,5.84-4.6,5.84a3,3,0,0,1-3-1.67Zm0-8.79a2.55,2.55,0,0,0,2.58,2.83c1.59,0,2.9-1.29,2.9-4.09,0-2.56-1-3.8-2.67-3.8a2.84,2.84,0,0,0-2.81,3.11Z"/><path class="cls-1" d="M330.88,173.72c0,.81.37,1,.78,1a1.61,1.61,0,0,0,.6-.11v1.6a3,3,0,0,1-1.12.19,1.92,1.92,0,0,1-2.19-1.7,3.12,3.12,0,0,1-3.15,1.81c-1.86,0-3.17-1.05-3.17-2.87,0-2.35,1.81-3.7,6.16-3.5v-1.31c0-1.31-.78-1.81-1.91-1.81a1.73,1.73,0,0,0-1.93,1.7l-2-.3c.16-2.25,2.14-3.06,4.1-3.06s3.81.83,3.81,3.27Zm-2.09-2.23c-2.85-.07-4.09.58-4.09,1.91a1.51,1.51,0,0,0,1.7,1.54c1.1,0,2.39-.67,2.39-1.91Z"/><path class="cls-1" d="M337.05,167.65a3.31,3.31,0,0,1,3.4-2.3,3,3,0,0,1,3.22,3.29v7.59H341.6v-7c0-1.31-.6-2.11-1.86-2.11s-2.51.68-2.51,3v6.1h-2.07V165.6h1.63Z"/><path class="cls-1" d="M348.6,160.82a1.37,1.37,0,0,1,1.45,1.38,1.42,1.42,0,0,1-2.83,0A1.36,1.36,0,0,1,348.6,160.82Zm1.06,4.78v10.63h-2.07V165.6Z"/><path class="cls-1" d="M353.05,170.85c0-3.61,1.91-5.5,4.83-5.5s4.85,1.89,4.85,5.5-1.91,5.65-4.85,5.65S353.05,174.48,353.05,170.85Zm2,0c0,2.67,1,4,2.79,4s2.8-1.33,2.8-4-1-3.84-2.8-3.84S355.09,168.27,355.09,170.87Z"/><path class="cls-1" d="M367.81,167.65a3.33,3.33,0,0,1,3.4-2.3,3,3,0,0,1,3.22,3.29v7.59h-2.07v-7c0-1.31-.59-2.11-1.86-2.11s-2.5.68-2.5,3v6.1h-2.07V165.6h1.63Z"/><path class="cls-2" d="M36.24,112.82c-4.32-.06-8.1-.12-13.08-.12-.06,1.32-.06,2.88-.06,3.84v21.9c0,2.28.06,7,.24,8.64H13c.3-2.88.42-10.56.42-14.46V122.06c0-2.34,0-6.18-.12-9.36-5,0-9.06.06-13.32.12.18-2.4.24-5.52.24-8.28,5.7.18,11.28.3,18.06.3s12.66-.12,18.42-.3A69.23,69.23,0,0,0,36.24,112.82Z"/><path class="cls-2" d="M73,147.32c-3.84-.24-8.58-.3-13.08-.3-4.86,0-10.08.06-14.16.3.3-2.88.42-10.8.42-14.7V119.36c0-3.84-.12-11.94-.42-14.82,4,.18,8.52.3,13.5.3,4.68,0,9.06-.12,13-.3a62.82,62.82,0,0,0-.48,7.86c-3.24-.06-6.6-.12-10.44-.12-1.8,0-3.78,0-5.52.06a27.66,27.66,0,0,0-.12,3.06v6.36l13.74-.06c-.12,2-.18,4.5-.18,7.14l-13.56-.12v7.68a28.18,28.18,0,0,0,.12,3.12c1.74,0,3.72.06,5.52.06,4.44,0,8.34-.06,12.12-.18A65.12,65.12,0,0,0,73,147.32Z"/><path class="cls-2" d="M84.06,132.62l1.8-13.32c.54-3.84,1.5-11.52,1.74-14.7l6.12-.42c1.08,2.46,2.7,6.12,3.9,8.64l9.3,20.34L116,112.7c1.08-2.52,2.76-6.24,3.66-8.46h6c.36,3.42,1.38,11.22,1.86,15.06l1.86,13.32c.54,3.9,1.8,11.34,2.46,14.46l-9.6.48c-.12-1.74-.66-6.72-1-9.12l-2-15.48c-3,6.9-9.66,22.44-10.5,24.6l-4.38.36-10.5-24.6L92,138.44c-.3,2.34-.72,7-.78,8.64H81.66C82.38,143.9,83.52,136.58,84.06,132.62Z"/><path class="cls-2" d="M151.86,138.44c0,2.28.06,7,.24,8.64H141.78c.3-2.88.42-10.56.42-14.46V119.36c0-3.84-.12-11.58-.42-14.46,2.16,0,9.78-.3,13.32-.3,11.64,0,17.58,5.7,17.58,13.44,0,8.58-5.64,15.36-18.6,15.36-.72,0-1.5,0-2.22-.06Zm3.36-26.28c-1.2,0-2,0-3.48.12v13.86a18.15,18.15,0,0,0,2.52.12c5.58,0,9-2.52,9-7.14S160.68,112.16,155.22,112.16Z"/><path class="cls-2" d="M208.44,147.32c-3.84-.24-8.58-.3-13.08-.3-4.86,0-10.08.06-14.16.3.3-2.88.42-10.8.42-14.7V119.36c0-3.84-.12-11.94-.42-14.82,4,.18,8.52.3,13.5.3,4.68,0,9.06-.12,13-.3a62.82,62.82,0,0,0-.48,7.86c-3.24-.06-6.6-.12-10.44-.12-1.8,0-3.78,0-5.52.06a27.66,27.66,0,0,0-.12,3.06v6.36l13.74-.06c-.12,2-.18,4.5-.18,7.14l-13.56-.12v7.68a28.18,28.18,0,0,0,.12,3.12c1.74,0,3.72.06,5.52.06,4.44,0,8.34-.06,12.12-.18A65.12,65.12,0,0,0,208.44,147.32Z"/><path class="cls-2" d="M243.18,147.62l-9.24-15.36-.9.06h-3.9v6.12c0,2.28.06,7,.18,8.64h-10.2c.3-2.88.42-10.56.42-14.46V119.36c0-3.84-.12-11.58-.42-14.46,2.16,0,10.26-.24,13-.3,12.06-.12,18.42,5.4,18.36,12.78-.12,5.88-3,9.66-8.28,12.42l6.78,9.9c1.38,2,3.78,5.28,5.1,7Zm-9.66-22.08c4.68,0,7.5-2.88,7.5-6.78s-2.1-6.66-8-6.66c-1.38,0-2.7.06-3.9.18v13.26Z"/><path class="cls-2" d="M271.44,116.36c2.22-5,3.66-8.28,4.86-11.7l6.48-.54,13.62,30.72c1.62,3.72,3.89,8.58,5.69,12.24l-10.31.48-4.14-9.78h-16c-1,2.28-2.88,7.38-3.6,9.3H257.88Zm2.64,15h11l-5.58-14Z"/><path class="cls-2" d="M337,112.82c-4.32-.06-8.1-.12-13.08-.12-.06,1.32-.06,2.88-.06,3.84v21.9c0,2.28.06,7,.24,8.64H313.74c.3-2.88.42-10.56.42-14.46V122.06c0-2.34,0-6.18-.12-9.36-5,0-9.06.06-13.32.12.18-2.4.24-5.52.24-8.28,5.7.18,11.28.3,18.06.3s12.66-.12,18.42-.3A69.23,69.23,0,0,0,337,112.82Z"/><path class="cls-2" d="M373.67,147.32c-3.84-.24-8.58-.3-13.08-.3-4.85,0-10.07.06-14.15.3.3-2.88.42-10.8.42-14.7V119.36c0-3.84-.12-11.94-.42-14.82,4,.18,8.52.3,13.5.3,4.67,0,9.05-.12,12.95-.3a62.82,62.82,0,0,0-.48,7.86c-3.24-.06-6.6-.12-10.44-.12-1.8,0-3.78,0-5.51.06a25.55,25.55,0,0,0-.13,3.06v6.36l13.74-.06c-.12,2-.18,4.5-.18,7.14l-13.56-.12v7.68a26,26,0,0,0,.13,3.12c1.73,0,3.71.06,5.51.06,4.44,0,8.34-.06,12.12-.18A65.12,65.12,0,0,0,373.67,147.32Z"/></g><g id="Mark"><path id="Thermometer" class="cls-2" d="M191.92,65.47V46.56a2,2,0,0,0-2-2h0a2,2,0,0,0-2,2v18.9a6,6,0,0,0-4,6.22,6,6,0,0,0,5.87,5.36,6,6,0,0,0,2.1-11.58Z"/><path id="Head" class="cls-2" d="M225.89,19a35.82,35.82,0,0,0-4.57-16.65A4.9,4.9,0,0,0,214.19,1c-4.25,3.22-10.9,9.5-12.51,12.53h0a2,2,0,0,1-1.74,1.06,1.79,1.79,0,0,1-.69-.12v0A29.31,29.31,0,0,0,189.91,13h0a29.22,29.22,0,0,0-9.34,1.48v0a1.81,1.81,0,0,1-.7.12,2,2,0,0,1-1.74-1.06h0c-1.6-3-8.26-9.31-12.51-12.53a4.9,4.9,0,0,0-7.13,1.35A35.82,35.82,0,0,0,153.91,19c0,10.45,3.16,19.38,2.3,30.19-.42,5.29-.56,11.2-.58,15.86A50.06,50.06,0,0,0,157,77.51a1.39,1.39,0,0,0,2.09.79l6-3.79a.71.71,0,0,1,1.08.6l0,3a1.4,1.4,0,0,0,2.22,1.11,56.57,56.57,0,0,1,5.68-3.8.68.68,0,0,1,.95.43c.15.49.33,1.1.47,1.45h0a15.09,15.09,0,0,0,14.35,9.27h0a15.11,15.11,0,0,0,14.35-9.27h0c.14-.35.33-1,.47-1.45a.69.69,0,0,1,1-.43,56.65,56.65,0,0,1,5.67,3.8,1.4,1.4,0,0,0,2.22-1.11l0-3a.7.7,0,0,1,1.07-.6l6,3.79a1.4,1.4,0,0,0,2.1-.79A49.68,49.68,0,0,0,224.16,65c0-4.66-.15-10.57-.57-15.86C222.73,38.37,225.89,29.44,225.89,19Zm-61.3-4.31c-2.62,1.13.44,6.36-3,6.78-5.3.65-3.91-8-3.06-11.13,1.12-4.17,2.4-6.84,4.22-6.84s3.46,1.58,7.38,5.84c3,3.28,4.11,6.54,2.2,8C169.21,19.74,167.67,13.34,164.59,14.68ZM175.45,40a3.08,3.08,0,1,1-3.63-3.63A3.09,3.09,0,0,1,175.45,40ZM189.9,81a9.92,9.92,0,0,1-6-17.88V27.33a6,6,0,1,1,12,0V63.1a9.93,9.93,0,0,1-6,17.88Zm16.86-38.55a3.09,3.09,0,1,1,3.64-3.63A3.1,3.1,0,0,1,206.76,42.43Zm11.47-21c-3.47-.42-.41-5.65-3-6.78-3.08-1.34-4.62,5.06-7.71,2.67-1.92-1.48-.83-4.74,2.2-8,3.92-4.26,5.67-5.84,7.37-5.84s3.1,2.67,4.23,6.84C222.15,13.49,223.54,22.11,218.23,21.46Z"/></g></g></g></g></svg>