<svg xmlns="http://www.w3.org/2000/svg" viewBox="0 0 390.71 63.64"><defs><style>.cls-1{fill:#15514b;}</style></defs><title>temperate-logo-color</title><g id="Layer_2" data-name="Layer 2"><g id="Color_Logo" data-name="Color Logo"><g id="Full_logo_left-aligned_for_dark_background_unoutlined_" data-name="Full logo, left-aligned for dark background [unoutlined]"><g id="Text"><path class="cls-1" d="M97.9,20.68c-3.74-.05-7-.1-11.33-.1,0,1.14,0,2.49,0,3.33v19c0,2,0,6,.2,7.48H77.78c.26-2.49.36-9.15.36-12.53V28.69c0-2,0-5.36-.1-8.11-4.32,0-7.85.05-11.54.1.15-2.08.2-4.78.2-7.17,4.94.15,9.78.26,15.66.26s11-.11,16-.26A59.82,59.82,0,0,0,97.9,20.68Z"/><path class="cls-1" d="M129.73,50.58c-3.33-.21-7.44-.26-11.34-.26-4.21,0-8.74,0-12.27.26.26-2.49.36-9.36.36-12.74V26.35c0-3.33-.1-10.35-.36-12.84,3.48.15,7.38.26,11.7.26,4.06,0,7.85-.11,11.23-.26a54.43,54.43,0,0,0-.41,6.81c-2.81-.05-5.72-.11-9-.11-1.56,0-3.28,0-4.79.06a24.84,24.84,0,0,0-.1,2.65v5.51l11.91-.05c-.11,1.77-.16,3.9-.16,6.19l-11.75-.11v6.66a25.38,25.38,0,0,0,.1,2.7c1.51,0,3.23,0,4.79,0,3.85,0,7.23,0,10.5-.15A56.34,56.34,0,0,0,129.73,50.58Z"/><path class="cls-1" d="M139.35,37.84l1.56-11.54c.46-3.33,1.3-10,1.5-12.74l5.31-.37c.93,2.14,2.34,5.31,3.38,7.49l8.06,17.63,7.9-17.73c.94-2.19,2.4-5.41,3.18-7.33h5.2c.31,3,1.19,9.72,1.61,13.05l1.61,11.54c.47,3.38,1.56,9.83,2.13,12.53l-8.32.42c-.1-1.51-.57-5.82-.88-7.9l-1.77-13.42c-2.6,6-8.37,19.45-9.1,21.32l-3.8.31-9.1-21.32-1.61,13.11c-.26,2-.62,6-.68,7.48h-8.26C137.89,47.62,138.88,41.27,139.35,37.84Z"/><path class="cls-1" d="M198.11,42.89c0,2,0,6,.2,7.48h-8.94c.26-2.49.36-9.15.36-12.53V26.35c0-3.33-.1-10-.36-12.53,1.87,0,8.48-.26,11.54-.26,10.09,0,15.24,4.94,15.24,11.65,0,7.43-4.89,13.31-16.12,13.31-.62,0-1.3,0-1.92-.05ZM201,20.11c-1,0-1.72,0-3,.1v12a16.42,16.42,0,0,0,2.19.1c4.83,0,7.8-2.18,7.8-6.19S205.75,20.11,201,20.11Z"/><path class="cls-1" d="M247.14,50.58c-3.33-.21-7.43-.26-11.33-.26-4.22,0-8.74,0-12.28.26.26-2.49.37-9.36.37-12.74V26.35c0-3.33-.11-10.35-.37-12.84,3.49.15,7.39.26,11.7.26,4.06,0,7.86-.11,11.24-.26a54.33,54.33,0,0,0-.42,6.81c-2.81-.05-5.72-.11-9.05-.11-1.56,0-3.27,0-4.78.06a22.59,22.59,0,0,0-.11,2.65v5.51L244,28.38c-.1,1.77-.15,3.9-.15,6.19l-11.76-.11v6.66a23.08,23.08,0,0,0,.11,2.7c1.51,0,3.22,0,4.78,0,3.85,0,7.23,0,10.51-.15A56.24,56.24,0,0,0,247.14,50.58Z"/><path class="cls-1" d="M277.25,50.84l-8-13.31-.78,0h-3.38v5.31c0,2,.05,6,.16,7.48H256.4c.26-2.49.36-9.15.36-12.53V26.35c0-3.33-.1-10-.36-12.53,1.87,0,8.89-.21,11.23-.26,10.45-.11,16,4.68,15.91,11.07-.1,5.1-2.6,8.38-7.17,10.77L282.24,44c1.2,1.71,3.28,4.57,4.42,6.08Zm-8.37-19.13c4.05,0,6.5-2.5,6.5-5.88s-1.82-5.77-7-5.77c-1.2,0-2.34.05-3.38.15v11.5Z"/><path class="cls-1" d="M301.74,23.75c1.92-4.37,3.17-7.18,4.21-10.14l5.62-.47,11.8,26.63c1.41,3.22,3.38,7.43,4.94,10.6l-8.94.42-3.59-8.48H301.9c-.84,2-2.5,6.4-3.12,8.06H290Zm2.29,13h9.57l-4.84-12.12Z"/><path class="cls-1" d="M358.53,20.68c-3.75-.05-7-.1-11.34-.1-.05,1.14-.05,2.49-.05,3.33v19c0,2,.05,6,.2,7.48H338.4c.26-2.49.36-9.15.36-12.53V28.69c0-2,0-5.36-.1-8.11-4.32,0-7.85.05-11.54.1.15-2.08.2-4.78.2-7.17,4.94.15,9.78.26,15.66.26s11-.11,16-.26A60,60,0,0,0,358.53,20.68Z"/><path class="cls-1" d="M390.35,50.58c-3.33-.21-7.44-.26-11.34-.26-4.21,0-8.73,0-12.27.26.26-2.49.36-9.36.36-12.74V26.35c0-3.33-.1-10.35-.36-12.84,3.48.15,7.38.26,11.7.26,4.06,0,7.85-.11,11.23-.26a54.43,54.43,0,0,0-.41,6.81c-2.81-.05-5.72-.11-9.05-.11-1.56,0-3.28,0-4.79.06a24.84,24.84,0,0,0-.1,2.65v5.51l11.91-.05c-.11,1.77-.16,3.9-.16,6.19l-11.75-.11v6.66a25.38,25.38,0,0,0,.1,2.7c1.51,0,3.23,0,4.79,0,3.85,0,7.23,0,10.5-.15A56.34,56.34,0,0,0,390.35,50.58Z"/></g><g id="Mark"><path id="Thermometer" class="cls-1" d="M27.93,48.11V34.22a1.47,1.47,0,0,0-1.47-1.47h0A1.47,1.47,0,0,0,25,34.22V48.11a4.38,4.38,0,0,0-2.92,4.56,4.46,4.46,0,0,0,4.32,3.95,4.38,4.38,0,0,0,1.54-8.51Z"/><path id="Head" class="cls-1" d="M52.89,14A26.34,26.34,0,0,0,49.54,1.72a3.6,3.6,0,0,0-5.24-1c-3.13,2.37-8,7-9.2,9.21v0a1.47,1.47,0,0,1-1.27.79,1.54,1.54,0,0,1-.52-.09h0a21.64,21.64,0,0,0-6.86-1.09h0a21.64,21.64,0,0,0-6.86,1.09h0a1.54,1.54,0,0,1-.52.09,1.47,1.47,0,0,1-1.27-.79v0C16.61,7.71,11.72,3.1,8.59.73a3.6,3.6,0,0,0-5.24,1A26.34,26.34,0,0,0,0,14c0,7.67,2.32,14.23,1.69,22.17-.31,3.89-.41,8.24-.42,11.66a37,37,0,0,0,1,9.17,1,1,0,0,0,1.54.58l4.39-2.79a.52.52,0,0,1,.79.44l0,2.23a1,1,0,0,0,1.63.82,42.7,42.7,0,0,1,4.17-2.79.5.5,0,0,1,.7.31c.11.37.25.81.35,1.07h0a11.13,11.13,0,0,0,10.55,6.82h0A11.13,11.13,0,0,0,37,56.82h0c.1-.26.24-.7.35-1.07a.5.5,0,0,1,.7-.31,44,44,0,0,1,4.17,2.79,1,1,0,0,0,1.63-.82l0-2.23a.52.52,0,0,1,.79-.44l4.39,2.79A1,1,0,0,0,50.6,57a37,37,0,0,0,1-9.17c0-3.42-.11-7.77-.42-11.66C50.57,28.19,52.89,21.63,52.89,14Zm-45-3.18c-1.92.84.33,4.68-2.23,5-3.89.47-2.87-5.86-2.25-8.18.83-3.06,1.77-5,3.11-5S9,3.73,11.9,6.85c2.22,2.42,3,4.81,1.61,5.9C11.24,14.51,10.11,9.8,7.85,10.78Zm8,18.61a2.27,2.27,0,1,1-2.67-2.66A2.28,2.28,0,0,1,15.83,29.39ZM26.44,59.51a7.29,7.29,0,0,1-4.39-13.14V20.08a4.4,4.4,0,1,1,8.79,0V46.37a7.29,7.29,0,0,1-4.4,13.14Zm12.4-28.33a2.27,2.27,0,1,1,2.67-2.67A2.28,2.28,0,0,1,38.84,31.18Zm8.43-15.41c-2.56-.31-.31-4.15-2.23-5-2.26-1-3.39,3.73-5.66,2C38,11.66,38.77,9.27,41,6.85c2.88-3.12,4.17-4.28,5.42-4.28s2.28,2,3.11,5C50.14,9.91,51.16,16.24,47.27,15.77Z"/></g></g></g></g></svg>