<svg xmlns="http://www.w3.org/2000/svg" viewBox="0 0 396.53 69.52"><defs><style>.cls-1{fill:#fff;}</style></defs><title>temperate_white</title><g id="Layer_2" data-name="Layer 2"><g id="Color_Logo" data-name="Color Logo"><g id="Full_logo_left-aligned_for_dark_background_unoutlined_" data-name="Full logo, left-aligned for dark background [unoutlined]"><g id="Mark"><path id="Thermometer" class="cls-1" d="M36.72,55.15a7.28,7.28,0,0,0-2.94-5.84V23h0A4.4,4.4,0,1,0,25,23h0V49.31a7.28,7.28,0,0,0-2.94,5.84,7.19,7.19,0,0,0,.15,1.47A7.26,7.26,0,0,0,22.63,58a7.35,7.35,0,0,0,13.51,0,7.26,7.26,0,0,0,.43-1.37A7.19,7.19,0,0,0,36.72,55.15Zm-7.39,4.42a4.46,4.46,0,0,1-4.32-4,4.4,4.4,0,0,1,2.92-4.57V37.16a1.47,1.47,0,0,1,2.94,0V51.05a4.38,4.38,0,0,1-1.54,8.52Z"/><path id="Outline" class="cls-1" d="M49.41,2.93a3.57,3.57,0,0,1,3.07,1.72,26.34,26.34,0,0,1,3.36,12.24c0,7.68-2.33,14.25-1.69,22.19.3,3.89.41,8.24.42,11.66a36.72,36.72,0,0,1-1,9.16,1,1,0,0,1-1,.75,1.06,1.06,0,0,1-.56-.16L47.62,57.7a.5.5,0,0,0-.28-.08.51.51,0,0,0-.51.51l0,2.24a1,1,0,0,1-1,1,1.08,1.08,0,0,1-.6-.2A45.13,45.13,0,0,0,41,58.39a.52.52,0,0,0-.21,0,.51.51,0,0,0-.49.36c-.11.36-.25.81-.35,1.07h0a11.08,11.08,0,0,1-10.55,6.81h0a11.08,11.08,0,0,1-10.55-6.81h0c-.1-.26-.24-.71-.35-1.07a.51.51,0,0,0-.49-.36.52.52,0,0,0-.21,0,45.13,45.13,0,0,0-4.17,2.8,1.08,1.08,0,0,1-.6.2,1,1,0,0,1-1-1l0-2.24a.51.51,0,0,0-.51-.51.5.5,0,0,0-.28.08L6.77,60.49a1.06,1.06,0,0,1-.56.16,1,1,0,0,1-1-.75,36.72,36.72,0,0,1-1-9.16c0-3.42.12-7.77.43-11.66.63-7.94-1.7-14.51-1.7-22.19A26.34,26.34,0,0,1,6.29,4.65,3.57,3.57,0,0,1,9.36,2.93a3.63,3.63,0,0,1,2.17.73c3.12,2.37,8,7,9.19,9.21h0a1.48,1.48,0,0,0,1.28.79h0a1.34,1.34,0,0,0,.49-.1v0a21.47,21.47,0,0,1,6.87-1.09h0a21.47,21.47,0,0,1,6.87,1.09v0a1.34,1.34,0,0,0,.49.1h0a1.48,1.48,0,0,0,1.28-.79h0c1.18-2.22,6.07-6.84,9.19-9.21a3.63,3.63,0,0,1,2.17-.73M43.33,16.08c1.46,0,2.5-2.5,4-2.5a1.67,1.67,0,0,1,.63.14c1.92.84-.33,4.68,2.22,5l.4,0c3.43,0,2.45-6,1.85-8.2-.82-3.07-1.76-5-3.1-5s-2.54,1.16-5.42,4.29c-2.23,2.42-3,4.81-1.62,5.9a1.64,1.64,0,0,0,1,.39M8.16,18.73l.4,0c2.55-.31.3-4.15,2.22-5a1.67,1.67,0,0,1,.63-.14c1.53,0,2.57,2.5,4,2.5a1.64,1.64,0,0,0,1-.39c1.41-1.09.61-3.48-1.62-5.9C12,6.66,10.66,5.5,9.41,5.5s-2.28,2-3.1,5c-.6,2.24-1.58,8.2,1.85,8.2M42.23,34.16a2.24,2.24,0,1,0-.45,0,2.27,2.27,0,0,0,.45,0m-25.69,0a2.27,2.27,0,1,0,0-4.53,2.27,2.27,0,0,0,0,4.53M49.41,0a6.53,6.53,0,0,0-3.94,1.32c-2.4,1.83-7.21,6.07-9.36,9.14a24,24,0,0,0-6.68-.91h-.05a24.1,24.1,0,0,0-6.71.91c-2.16-3.07-7-7.31-9.37-9.14a6.55,6.55,0,0,0-9.52,1.8A29.27,29.27,0,0,0,0,16.89,70,70,0,0,0,.93,27,51.68,51.68,0,0,1,1.7,38.84c-.36,4.54-.43,9.4-.43,11.89a38.71,38.71,0,0,0,1.14,10,4,4,0,0,0,3.8,2.87A3.92,3.92,0,0,0,8.34,63l1.17-.74a4,4,0,0,0,3.5,2.1,3.9,3.9,0,0,0,2.32-.76l1.58-1.13A14,14,0,0,0,29.3,69.52h.09a14,14,0,0,0,12.47-7.09l1.58,1.13a3.9,3.9,0,0,0,2.32.76,4,4,0,0,0,3.5-2.1l1.17.74a3.92,3.92,0,0,0,2.13.62,4,4,0,0,0,3.8-2.87,38.71,38.71,0,0,0,1.14-10c0-2.49-.07-7.35-.43-11.89A52.25,52.25,0,0,1,57.84,27a70,70,0,0,0,.93-10.13A29.27,29.27,0,0,0,55,3.12,6.5,6.5,0,0,0,49.41,0Z"/></g><g id="Text"><path class="cls-1" d="M103.72,23.63c-3.74-.05-7-.1-11.33-.1,0,1.14,0,2.49,0,3.32v19c0,2,0,6,.2,7.49H83.6c.26-2.49.36-9.15.36-12.53V31.64c0-2,0-5.36-.1-8.11-4.32,0-7.85,0-11.54.1.15-2.08.2-4.78.2-7.18,4.94.16,9.78.26,15.66.26s11-.1,16-.26A60,60,0,0,0,103.72,23.63Z"/><path class="cls-1" d="M135.55,53.53c-3.33-.21-7.44-.26-11.34-.26-4.21,0-8.74,0-12.27.26.26-2.49.36-9.36.36-12.74V29.3c0-3.33-.1-10.35-.36-12.85,3.48.16,7.38.26,11.7.26,4.06,0,7.85-.1,11.23-.26a54.71,54.71,0,0,0-.41,6.82c-2.81-.06-5.72-.11-9.05-.11-1.56,0-3.28,0-4.79.05a25,25,0,0,0-.1,2.66v5.51l11.91-.05c-.11,1.76-.16,3.9-.16,6.18l-11.75-.1v6.66a25.38,25.38,0,0,0,.1,2.7c1.51,0,3.23,0,4.79,0,3.85,0,7.23,0,10.5-.15A56.34,56.34,0,0,0,135.55,53.53Z"/><path class="cls-1" d="M145.17,40.79l1.56-11.54c.46-3.33,1.3-10,1.5-12.74l5.31-.37c.93,2.13,2.34,5.31,3.38,7.49L165,41.26l7.9-17.73c.94-2.19,2.4-5.41,3.18-7.34h5.2c.31,3,1.19,9.73,1.61,13.06l1.61,11.54c.47,3.38,1.56,9.83,2.13,12.53l-8.32.42c-.1-1.51-.57-5.83-.88-7.91l-1.77-13.41c-2.6,6-8.37,19.45-9.1,21.32l-3.8.31-9.1-21.32L152,45.83c-.26,2-.62,6-.68,7.49h-8.26C143.71,50.57,144.7,44.22,145.17,40.79Z"/><path class="cls-1" d="M203.93,45.83c0,2,0,6,.2,7.49h-8.94c.26-2.49.36-9.15.36-12.53V29.3c0-3.33-.1-10-.36-12.53,1.87,0,8.48-.26,11.54-.26,10.09,0,15.24,4.94,15.24,11.64,0,7.44-4.89,13.32-16.12,13.32-.62,0-1.3,0-1.92-.06Zm2.91-22.77c-1,0-1.72,0-3,.1v12a14.94,14.94,0,0,0,2.19.11c4.83,0,7.8-2.19,7.8-6.19S211.57,23.06,206.84,23.06Z"/><path class="cls-1" d="M253,53.53c-3.33-.21-7.43-.26-11.33-.26-4.22,0-8.74,0-12.28.26.26-2.49.37-9.36.37-12.74V29.3c0-3.33-.11-10.35-.37-12.85,3.49.16,7.39.26,11.7.26,4.06,0,7.86-.1,11.24-.26a54.61,54.61,0,0,0-.42,6.82c-2.81-.06-5.72-.11-9.05-.11-1.56,0-3.27,0-4.78.05a22.76,22.76,0,0,0-.11,2.66v5.51l11.91-.05c-.1,1.76-.15,3.9-.15,6.18l-11.76-.1v6.66a23.08,23.08,0,0,0,.11,2.7c1.51,0,3.22,0,4.78,0,3.85,0,7.23,0,10.51-.15A56.24,56.24,0,0,0,253,53.53Z"/><path class="cls-1" d="M283.07,53.79l-8-13.31-.78.05H270.9v5.3c0,2,.05,6,.16,7.49h-8.84c.26-2.49.36-9.15.36-12.53V29.3c0-3.33-.1-10-.36-12.53,1.87,0,8.89-.21,11.23-.26,10.45-.11,16,4.68,15.91,11.07-.1,5.1-2.6,8.37-7.17,10.77l5.87,8.58c1.2,1.71,3.28,4.57,4.42,6.08ZM274.7,34.65c4.05,0,6.5-2.49,6.5-5.87s-1.82-5.77-7-5.77c-1.2,0-2.34,0-3.38.15V34.65Z"/><path class="cls-1" d="M307.56,26.7c1.92-4.37,3.17-7.18,4.21-10.14l5.62-.47,11.8,26.62c1.41,3.23,3.38,7.44,4.94,10.61l-8.94.42-3.59-8.48H307.72c-.84,2-2.5,6.4-3.12,8.06h-8.79Zm2.29,13h9.57l-4.84-12.12Z"/><path class="cls-1" d="M364.35,23.63c-3.75-.05-7-.1-11.34-.1C353,24.67,353,26,353,26.85v19c0,2,.05,6,.2,7.49h-8.94c.26-2.49.36-9.15.36-12.53V31.64c0-2,0-5.36-.1-8.11-4.32,0-7.85,0-11.54.1.15-2.08.2-4.78.2-7.18,4.94.16,9.78.26,15.66.26s11-.1,16-.26A60.12,60.12,0,0,0,364.35,23.63Z"/><path class="cls-1" d="M396.17,53.53c-3.33-.21-7.44-.26-11.34-.26-4.21,0-8.73,0-12.27.26.26-2.49.36-9.36.36-12.74V29.3c0-3.33-.1-10.35-.36-12.85,3.48.16,7.38.26,11.7.26,4.06,0,7.85-.1,11.23-.26a54.71,54.71,0,0,0-.41,6.82c-2.81-.06-5.72-.11-9.05-.11-1.56,0-3.28,0-4.79.05a25,25,0,0,0-.1,2.66v5.51l11.91-.05c-.11,1.76-.16,3.9-.16,6.18l-11.75-.1v6.66a25.38,25.38,0,0,0,.1,2.7c1.51,0,3.23,0,4.79,0,3.85,0,7.23,0,10.5-.15A56.34,56.34,0,0,0,396.17,53.53Z"/></g></g></g></g></svg>