<svg xmlns="http://www.w3.org/2000/svg" viewBox="0 0 416.23 92.33"><defs><style>.cls-1{fill:#fff;}</style></defs><title>temperate_white_tagline</title><g id="Layer_2" data-name="Layer 2"><g id="Color_Logo" data-name="Color Logo"><g id="Full_logo_left-aligned_for_dark_background_unoutlined_" data-name="Full logo, left-aligned for dark background [unoutlined]"><g id="Mark"><path id="Thermometer" class="cls-1" d="M48.77,73.25a9.66,9.66,0,0,0-3.91-7.76V30.57h0a5.84,5.84,0,1,0-11.67,0h0V65.49a9.66,9.66,0,0,0-3.7,9.71A10.11,10.11,0,0,0,30.05,77a9.76,9.76,0,0,0,4.34,4.75,9.74,9.74,0,0,0,12.15-2.36A9.58,9.58,0,0,0,48,77a9.39,9.39,0,0,0,.57-1.82A9.7,9.7,0,0,0,48.77,73.25ZM39,79.12a5.92,5.92,0,0,1-5.73-5.25,5.81,5.81,0,0,1,3.88-6.06V49.35a2,2,0,0,1,3.9,0V67.81a5.82,5.82,0,0,1-2,11.31Z"/><path id="Outline" class="cls-1" d="M65.63,3.9a4.78,4.78,0,0,1,4.08,2.28,35,35,0,0,1,4.45,16.26c0,10.2-3.08,18.91-2.25,29.46.42,5.16.55,10.94.57,15.49a49.06,49.06,0,0,1-1.36,12.17,1.36,1.36,0,0,1-1.32,1,1.43,1.43,0,0,1-.73-.21l-5.83-3.7a.61.61,0,0,0-.36-.11.68.68,0,0,0-.69.68l0,3A1.37,1.37,0,0,1,60,81.27a55.08,55.08,0,0,0-5.54-3.71.58.58,0,0,0-.28-.07.68.68,0,0,0-.65.49c-.14.48-.32,1.07-.46,1.42h0a14.77,14.77,0,0,1-14,9h0a14.76,14.76,0,0,1-14-9h0c-.14-.35-.32-.94-.47-1.42a.66.66,0,0,0-.64-.49.62.62,0,0,0-.29.07,55.08,55.08,0,0,0-5.54,3.71,1.33,1.33,0,0,1-.79.26,1.36,1.36,0,0,1-1.37-1.35l-.05-3a.68.68,0,0,0-.68-.68.66.66,0,0,0-.37.11L9,80.34a1.43,1.43,0,0,1-.74.21,1.36,1.36,0,0,1-1.31-1A48.58,48.58,0,0,1,5.58,67.39c0-4.55.15-10.33.56-15.49C7,41.35,3.9,32.64,3.9,22.44A35,35,0,0,1,8.35,6.18a4.78,4.78,0,0,1,7-1.31C19.46,8,26,14.14,27.52,17.1v0a2,2,0,0,0,1.7,1h0A1.75,1.75,0,0,0,29.9,18v0A28.54,28.54,0,0,1,39,16.58h0A28.54,28.54,0,0,1,48.16,18v0a1.84,1.84,0,0,0,.66.12h0a1.93,1.93,0,0,0,1.69-1v0c1.57-3,8.06-9.09,12.22-12.23a4.72,4.72,0,0,1,2.88-1M57.55,21.36c1.94,0,3.31-3.32,5.36-3.32a2.1,2.1,0,0,1,.82.18c2.56,1.11-.43,6.21,3,6.63l.53,0c4.55,0,3.26-7.92,2.46-10.9-1.1-4.07-2.35-6.67-4.13-6.67S62.18,8.85,58.36,13c-3,3.21-4,6.39-2.15,7.83a2.15,2.15,0,0,0,1.34.53M10.83,24.88l.54,0c3.39-.42.4-5.52,3-6.63a2.18,2.18,0,0,1,.83-.18c2,0,3.41,3.32,5.35,3.32a2.16,2.16,0,0,0,1.35-.53c1.87-1.44.81-4.62-2.15-7.83-3.82-4.15-5.54-5.69-7.2-5.69s-3,2.6-4.12,6.67c-.8,3-2.09,10.9,2.45,10.9M56.08,45.37a3,3,0,0,0,.59-6,3.92,3.92,0,0,0-.59,0,3,3,0,0,0,0,6M22,45.37a3,3,0,0,0,.59-.06,3,3,0,0,0-.59-6,4,4,0,0,0-.59,0,3,3,0,0,0,.59,6M65.63,0A8.61,8.61,0,0,0,60.4,1.76C57.2,4.18,50.81,9.82,48,13.89a32.23,32.23,0,0,0-8.86-1.21H39a32.28,32.28,0,0,0-8.92,1.21C27.24,9.82,20.86,4.18,17.66,1.76A8.68,8.68,0,0,0,5,4.15,38.83,38.83,0,0,0,0,22.44,93.15,93.15,0,0,0,1.24,35.89c.75,5.26,1.45,10.23,1,15.7-.48,6-.57,12.48-.58,15.79A52.56,52.56,0,0,0,3.2,80.64a5.25,5.25,0,0,0,7.88,3l1.55-1a5.31,5.31,0,0,0,4.65,2.79,5.21,5.21,0,0,0,3.08-1l2.1-1.5a18.57,18.57,0,0,0,16.45,9.41H39a18.54,18.54,0,0,0,16.56-9.41l2.11,1.5a5.19,5.19,0,0,0,3.08,1,5.29,5.29,0,0,0,4.64-2.79l1.56,1a5.25,5.25,0,0,0,7.88-3,52.13,52.13,0,0,0,1.51-13.26c0-3.31-.09-9.77-.57-15.79-.44-5.47.27-10.44,1-15.7a93.15,93.15,0,0,0,1.24-13.45A38.83,38.83,0,0,0,73,4.15,8.59,8.59,0,0,0,65.63,0Z"/></g><g id="Text"><path class="cls-1" d="M102.17,73.06a20.88,20.88,0,0,1,.72,2.92H103a23.15,23.15,0,0,1,.7-2.92L105.21,68h1.89l-3.4,10c-1,2.72-2.13,3.4-3.77,3.4a4.28,4.28,0,0,1-1.34-.22l.16-1.54a2.52,2.52,0,0,0,1.2.28c1,0,1.54-.52,2.08-2.14L98.61,68h2Z"/><path class="cls-1" d="M108.27,72.54c0-3.14,1.66-4.78,4.2-4.78s4.23,1.64,4.23,4.78-1.66,4.92-4.23,4.92S108.27,75.7,108.27,72.54Zm1.78,0c0,2.32.83,3.48,2.42,3.48s2.45-1.16,2.45-3.48-.84-3.34-2.45-3.34S110.05,70.3,110.05,72.56Z"/><path class="cls-1" d="M124.79,75.54A2.62,2.62,0,0,1,122,77.46c-1.68,0-2.8-.86-2.8-3.06V68H121v6.14c0,1.36.52,2,1.66,2s2.14-.9,2.14-2.68V68h1.8v9.24H125Z"/><path class="cls-1" d="M135.08,69.8a5,5,0,0,0-.83-.08,2.62,2.62,0,0,0-2.56,2.82v4.68h-1.8V68h1.52l.22,2.5a3.21,3.21,0,0,1,3.58-2.7Z"/><path class="cls-1" d="M149.55,75c0,.7.33.86.69.86a1.18,1.18,0,0,0,.51-.1v1.4a2.67,2.67,0,0,1-1,.16,1.66,1.66,0,0,1-1.9-1.48,2.72,2.72,0,0,1-2.74,1.58,2.47,2.47,0,0,1-2.76-2.5c0-2,1.58-3.22,5.36-3V70.78a1.45,1.45,0,0,0-1.66-1.58,1.51,1.51,0,0,0-1.68,1.48l-1.72-.26c.14-2,1.86-2.66,3.56-2.66s3.32.72,3.32,2.84Zm-1.82-1.94c-2.48-.06-3.56.5-3.56,1.66a1.31,1.31,0,0,0,1.48,1.34c1,0,2.08-.58,2.08-1.66Z"/><path class="cls-1" d="M158.89,63.86h1.82V77.22h-1.6l-.2-1.6A2.79,2.79,0,0,1,156,77.46c-1.94,0-3.66-1.58-3.66-4.7s1.5-5,4.14-5a2.52,2.52,0,0,1,2.44,1.46Zm0,7.64a2.23,2.23,0,0,0-2.3-2.34c-1.36,0-2.48.94-2.48,3.54,0,2.18,1,3.34,2.46,3.34a2.39,2.39,0,0,0,2.32-2.5Z"/><path class="cls-1" d="M170.55,75c0,.7.32.86.68.86a1.27,1.27,0,0,0,.52-.1v1.4a2.71,2.71,0,0,1-1,.16,1.66,1.66,0,0,1-1.9-1.48,2.72,2.72,0,0,1-2.74,1.58,2.47,2.47,0,0,1-2.76-2.5c0-2,1.58-3.22,5.36-3V70.78a1.45,1.45,0,0,0-1.66-1.58,1.51,1.51,0,0,0-1.68,1.48l-1.72-.26c.14-2,1.86-2.66,3.56-2.66s3.32.72,3.32,2.84Zm-1.82-1.94c-2.48-.06-3.56.5-3.56,1.66a1.31,1.31,0,0,0,1.48,1.34c1,0,2.08-.58,2.08-1.66Z"/><path class="cls-1" d="M175.85,81.28h-1.8V68h1.48l.22,1.78a3.08,3.08,0,0,1,3.06-2c2.26,0,3.65,1.64,3.65,4.62,0,2.82-1.45,5.08-4,5.08a2.59,2.59,0,0,1-2.6-1.46Zm0-7.64a2.22,2.22,0,0,0,2.24,2.46c1.38,0,2.52-1.12,2.52-3.56,0-2.22-.9-3.3-2.32-3.3a2.46,2.46,0,0,0-2.44,2.7Z"/><path class="cls-1" d="M190.57,76.92a4.37,4.37,0,0,1-2.24.54,2.38,2.38,0,0,1-2.66-2.6V69.42h-1.35V68h1.35V66l1.82-.22V68h2.74v1.44h-2.77V74.5c0,1,.46,1.42,1.23,1.42a2.58,2.58,0,0,0,1.54-.5Z"/><path class="cls-1" d="M199.73,75c0,.7.32.86.68.86a1.27,1.27,0,0,0,.52-.1v1.4a2.71,2.71,0,0,1-1,.16,1.66,1.66,0,0,1-1.9-1.48,2.72,2.72,0,0,1-2.74,1.58,2.47,2.47,0,0,1-2.76-2.5c0-2,1.58-3.22,5.36-3V70.78a1.45,1.45,0,0,0-1.66-1.58,1.51,1.51,0,0,0-1.68,1.48l-1.72-.26c.14-2,1.86-2.66,3.56-2.66s3.32.72,3.32,2.84Zm-1.82-1.94c-2.48-.06-3.56.5-3.56,1.66a1.31,1.31,0,0,0,1.48,1.34c1,0,2.08-.58,2.08-1.66Z"/><path class="cls-1" d="M208.39,76.92a4.37,4.37,0,0,1-2.24.54,2.38,2.38,0,0,1-2.66-2.6V69.42h-1.34V68h1.34V66l1.82-.22V68h2.74v1.44h-2.76V74.5c0,1,.46,1.42,1.22,1.42a2.58,2.58,0,0,0,1.54-.5Z"/><path class="cls-1" d="M211.74,63.82A1.19,1.19,0,0,1,213,65a1.22,1.22,0,0,1-1.26,1.2,1.2,1.2,0,0,1-1.2-1.2A1.18,1.18,0,0,1,211.74,63.82Zm.92,4.16v9.24h-1.8V68Z"/><path class="cls-1" d="M215.44,72.54c0-3.14,1.66-4.78,4.2-4.78s4.22,1.64,4.22,4.78-1.66,4.92-4.22,4.92S215.44,75.7,215.44,72.54Zm1.78,0c0,2.32.82,3.48,2.42,3.48s2.44-1.16,2.44-3.48-.84-3.34-2.44-3.34S217.22,70.3,217.22,72.56Z"/><path class="cls-1" d="M228.45,69.76a2.9,2.9,0,0,1,3-2,2.6,2.6,0,0,1,2.79,2.86v6.6h-1.79V71.16c0-1.14-.53-1.84-1.63-1.84s-2.18.6-2.18,2.6v5.3h-1.8V68h1.42Z"/><path class="cls-1" d="M244.85,81.28h-1.8V68h1.48l.22,1.78a3.08,3.08,0,0,1,3.06-2c2.27,0,3.65,1.64,3.65,4.62,0,2.82-1.45,5.08-4,5.08a2.59,2.59,0,0,1-2.6-1.46Zm0-7.64a2.22,2.22,0,0,0,2.24,2.46c1.38,0,2.53-1.12,2.53-3.56,0-2.22-.91-3.3-2.33-3.3a2.46,2.46,0,0,0-2.44,2.7Z"/><path class="cls-1" d="M257.59,77.22a4.4,4.4,0,0,1-1.12.16,1.91,1.91,0,0,1-2.12-2V63.86h1.8V75a.74.74,0,0,0,.82.82,2,2,0,0,0,.64-.1Z"/><path class="cls-1" d="M267.05,75c0,.7.32.86.68.86a1.27,1.27,0,0,0,.52-.1v1.4a2.71,2.71,0,0,1-1,.16,1.66,1.66,0,0,1-1.9-1.48,2.72,2.72,0,0,1-2.74,1.58,2.47,2.47,0,0,1-2.76-2.5c0-2,1.58-3.22,5.36-3V70.78a1.45,1.45,0,0,0-1.66-1.58,1.51,1.51,0,0,0-1.68,1.48l-1.72-.26c.14-2,1.86-2.66,3.56-2.66s3.32.72,3.32,2.84Zm-1.82-1.94c-2.48-.06-3.56.5-3.56,1.66a1.31,1.31,0,0,0,1.48,1.34c1,0,2.08-.58,2.08-1.66Z"/><path class="cls-1" d="M272.46,69.76a2.89,2.89,0,0,1,3-2,2.6,2.6,0,0,1,2.8,2.86v6.6h-1.8V71.16c0-1.14-.52-1.84-1.62-1.84s-2.18.6-2.18,2.6v5.3h-1.81V68h1.43Z"/><path class="cls-1" d="M283.19,69.76a2.9,2.9,0,0,1,3-2,2.6,2.6,0,0,1,2.8,2.86v6.6h-1.8V71.16c0-1.14-.52-1.84-1.62-1.84s-2.19.6-2.19,2.6v5.3h-1.8V68H283Z"/><path class="cls-1" d="M293.2,63.82a1.19,1.19,0,0,1,1.26,1.2,1.22,1.22,0,0,1-1.26,1.2A1.2,1.2,0,0,1,292,65,1.18,1.18,0,0,1,293.2,63.82Zm.92,4.16v9.24h-1.8V68Z"/><path class="cls-1" d="M299.19,69.76a2.89,2.89,0,0,1,3-2,2.6,2.6,0,0,1,2.8,2.86v6.6h-1.8V71.16c0-1.14-.52-1.84-1.62-1.84s-2.18.6-2.18,2.6v5.3h-1.8V68H299Z"/><path class="cls-1" d="M314.22,68.5c.44-.24.58-.72.7-1.4l1.56.54a2,2,0,0,1-1.54,1.66,3.4,3.4,0,0,1,.42,1.74c0,2.14-1.72,3.2-3.8,3.2a3.86,3.86,0,0,1-1.2-.16,1,1,0,0,0-.62,1c0,.52.34.76,1,.76H313c2.1,0,3.22.92,3.22,2.58,0,2.42-2.6,3.06-5,3.06-2,0-4-.52-4-2.42,0-1.2.86-2,2.38-2.12a1.37,1.37,0,0,1-1.28-1.44,1.6,1.6,0,0,1,1.36-1.62,2.89,2.89,0,0,1-1.8-2.8c0-2.08,1.52-3.28,3.74-3.28A4.43,4.43,0,0,1,314.22,68.5Zm-2.86,11.66c1.88,0,3.1-.36,3.1-1.52,0-.7-.38-1.22-1.56-1.22h-2c-1.32,0-2.06.44-2.06,1.4S309.9,80.16,311.36,80.16Zm.18-7.2a1.94,1.94,0,1,0,0-3.88A1.77,1.77,0,0,0,309.6,71,1.8,1.8,0,0,0,311.54,73Z"/><path class="cls-1" d="M331.26,74.88c-.32,1.86-1.8,2.58-3.62,2.58-2.42,0-4.08-1.72-4.08-4.8s1.66-4.9,4.22-4.9c2,0,3.24,1,3.36,2.88L329.5,71c-.16-1.16-.78-1.74-1.8-1.74-1.58,0-2.4,1.4-2.4,3.42s1,3.36,2.48,3.36a1.82,1.82,0,0,0,1.92-1.52Z"/><path class="cls-1" d="M333.28,72.54c0-3.14,1.66-4.78,4.2-4.78s4.22,1.64,4.22,4.78-1.66,4.92-4.22,4.92S333.28,75.7,333.28,72.54Zm1.78,0c0,2.32.82,3.48,2.42,3.48s2.44-1.16,2.44-3.48-.84-3.34-2.44-3.34S335.06,70.3,335.06,72.56Z"/><path class="cls-1" d="M354.48,67.76a2.51,2.51,0,0,1,2.74,2.78v6.68h-1.8V71.14c0-1.14-.5-1.82-1.54-1.82s-2.1.74-2.1,2.6v5.3H350V71.14c0-1.14-.5-1.82-1.54-1.82s-2.1.76-2.1,2.6v5.3h-1.8V68H346l.22,1.78a2.84,2.84,0,0,1,2.88-2,2.27,2.27,0,0,1,2.52,2A2.83,2.83,0,0,1,354.48,67.76Z"/><path class="cls-1" d="M362.22,81.28h-1.8V68h1.48l.22,1.78a3.08,3.08,0,0,1,3.06-2c2.26,0,3.64,1.64,3.64,4.62,0,2.82-1.44,5.08-4,5.08a2.59,2.59,0,0,1-2.6-1.46Zm0-7.64a2.22,2.22,0,0,0,2.24,2.46c1.38,0,2.52-1.12,2.52-3.56,0-2.22-.9-3.3-2.32-3.3a2.46,2.46,0,0,0-2.44,2.7Z"/><path class="cls-1" d="M378.16,75c0,.7.32.86.68.86a1.27,1.27,0,0,0,.52-.1v1.4a2.71,2.71,0,0,1-1,.16,1.66,1.66,0,0,1-1.9-1.48,2.72,2.72,0,0,1-2.74,1.58A2.47,2.47,0,0,1,371,75c0-2,1.58-3.22,5.36-3V70.78a1.45,1.45,0,0,0-1.66-1.58A1.51,1.51,0,0,0,373,70.68l-1.72-.26c.14-2,1.86-2.66,3.56-2.66s3.32.72,3.32,2.84Zm-1.82-1.94c-2.48-.06-3.56.5-3.56,1.66a1.31,1.31,0,0,0,1.48,1.34c1,0,2.08-.58,2.08-1.66Z"/><path class="cls-1" d="M383.46,69.76a2.89,2.89,0,0,1,3-2,2.6,2.6,0,0,1,2.8,2.86v6.6h-1.8V71.16c0-1.14-.52-1.84-1.62-1.84s-2.18.6-2.18,2.6v5.3h-1.8V68h1.42Z"/><path class="cls-1" d="M393.46,63.82a1.19,1.19,0,0,1,1.26,1.2,1.23,1.23,0,0,1-2.46,0A1.18,1.18,0,0,1,393.46,63.82Zm.92,4.16v9.24h-1.8V68Z"/><path class="cls-1" d="M397.28,72.54c0-3.14,1.66-4.78,4.21-4.78s4.22,1.64,4.22,4.78-1.66,4.92-4.22,4.92S397.28,75.7,397.28,72.54Zm1.78,0c0,2.32.82,3.48,2.43,3.48s2.44-1.16,2.44-3.48-.84-3.34-2.44-3.34S399.06,70.3,399.06,72.56Z"/><path class="cls-1" d="M410.06,69.76a2.9,2.9,0,0,1,3-2,2.6,2.6,0,0,1,2.8,2.86v6.6H414V71.16c0-1.14-.53-1.84-1.62-1.84s-2.19.6-2.19,2.6v5.3h-1.8V68h1.42Z"/><path class="cls-1" d="M123.42,23.38c-3.74-.05-7-.1-11.33-.1,0,1.14,0,2.49,0,3.32v19c0,2,0,6,.2,7.49H103.3c.26-2.49.36-9.15.36-12.53V31.39c0-2,0-5.36-.1-8.11-4.32,0-7.85,0-11.54.1.15-2.08.2-4.79.2-7.18,4.94.16,9.78.26,15.66.26s11-.1,16-.26A60,60,0,0,0,123.42,23.38Z"/><path class="cls-1" d="M155.25,53.28c-3.33-.21-7.44-.26-11.34-.26-4.21,0-8.74,0-12.27.26.26-2.5.36-9.36.36-12.74V29.05c0-3.33-.1-10.35-.36-12.85,3.48.16,7.38.26,11.7.26,4.06,0,7.85-.1,11.23-.26a54.71,54.71,0,0,0-.41,6.82c-2.81-.06-5.72-.11-9-.11-1.56,0-3.28,0-4.79.05a25,25,0,0,0-.1,2.66v5.51l11.91-.05C152,32.84,152,35,152,37.26l-11.75-.1v6.66a25.38,25.38,0,0,0,.1,2.7c1.51,0,3.23,0,4.79,0,3.85,0,7.23,0,10.5-.15A56.34,56.34,0,0,0,155.25,53.28Z"/><path class="cls-1" d="M164.87,40.54,166.43,29c.46-3.33,1.3-10,1.5-12.74l5.31-.37c.93,2.13,2.34,5.31,3.38,7.49L184.68,41l7.9-17.73c.94-2.19,2.4-5.41,3.18-7.34H201c.31,3,1.19,9.73,1.61,13.06l1.61,11.54c.47,3.38,1.56,9.83,2.13,12.53l-8.32.42c-.1-1.51-.57-5.83-.88-7.91l-1.77-13.41c-2.6,6-8.37,19.45-9.1,21.32l-3.8.31-9.1-21.32-1.61,13.1c-.26,2-.62,6-.68,7.49h-8.26C163.41,50.32,164.4,44,164.87,40.54Z"/><path class="cls-1" d="M223.63,45.58c0,2,.05,6,.2,7.49h-8.94c.26-2.49.36-9.15.36-12.53V29.05c0-3.33-.1-10-.36-12.54,1.87,0,8.48-.25,11.54-.25,10.09,0,15.24,4.94,15.24,11.64,0,7.44-4.89,13.32-16.12,13.32-.62,0-1.3,0-1.92-.06Zm2.91-22.77c-1,0-1.72,0-3,.1v12a14.94,14.94,0,0,0,2.19.11c4.83,0,7.8-2.19,7.8-6.19S231.27,22.81,226.54,22.81Z"/><path class="cls-1" d="M272.66,53.28c-3.33-.21-7.43-.26-11.33-.26-4.22,0-8.74,0-12.28.26.26-2.5.37-9.36.37-12.74V29.05c0-3.33-.11-10.35-.37-12.85,3.49.16,7.39.26,11.7.26,4.06,0,7.86-.1,11.24-.26a54.61,54.61,0,0,0-.42,6.82c-2.81-.06-5.72-.11-9.05-.11-1.56,0-3.27,0-4.78.05a22.76,22.76,0,0,0-.11,2.66v5.51l11.91-.05c-.1,1.76-.15,3.9-.15,6.18l-11.76-.1v6.66a23.08,23.08,0,0,0,.11,2.7c1.51,0,3.22,0,4.78,0,3.85,0,7.23,0,10.51-.15A56.24,56.24,0,0,0,272.66,53.28Z"/><path class="cls-1" d="M302.77,53.54l-8-13.31-.78.05H290.6v5.3c0,2,0,6,.16,7.49h-8.84c.26-2.49.36-9.15.36-12.53V29.05c0-3.33-.1-10-.36-12.54,1.87,0,8.89-.2,11.23-.25,10.45-.11,16,4.68,15.91,11.07-.1,5.1-2.6,8.37-7.17,10.77l5.87,8.58c1.2,1.71,3.28,4.57,4.42,6.08ZM294.4,34.4c4.05,0,6.5-2.49,6.5-5.87s-1.82-5.77-7-5.77c-1.2,0-2.34,0-3.38.15V34.4Z"/><path class="cls-1" d="M327.26,26.45c1.92-4.37,3.17-7.18,4.21-10.14l5.62-.47,11.8,26.62c1.41,3.23,3.38,7.44,4.94,10.61l-8.94.42L341.3,45H327.42c-.84,2-2.5,6.4-3.12,8.06h-8.79Zm2.29,13h9.57l-4.84-12.12Z"/><path class="cls-1" d="M384.05,23.38c-3.75-.05-7-.1-11.34-.1,0,1.14,0,2.49,0,3.32v19c0,2,0,6,.2,7.49h-8.94c.26-2.49.36-9.15.36-12.53V31.39c0-2,0-5.36-.1-8.11-4.32,0-7.85,0-11.54.1.15-2.08.2-4.79.2-7.18,4.94.16,9.78.26,15.66.26s11-.1,16-.26A60.12,60.12,0,0,0,384.05,23.38Z"/><path class="cls-1" d="M415.87,53.28c-3.33-.21-7.44-.26-11.34-.26-4.21,0-8.73,0-12.27.26.26-2.5.36-9.36.36-12.74V29.05c0-3.33-.1-10.35-.36-12.85,3.48.16,7.38.26,11.7.26,4.06,0,7.85-.1,11.23-.26a54.71,54.71,0,0,0-.41,6.82c-2.81-.06-5.72-.11-9-.11-1.56,0-3.28,0-4.79.05a25,25,0,0,0-.1,2.66v5.51l11.91-.05c-.11,1.76-.16,3.9-.16,6.18l-11.75-.1v6.66a25.38,25.38,0,0,0,.1,2.7c1.51,0,3.23,0,4.79,0,3.85,0,7.23,0,10.5-.15A56.34,56.34,0,0,0,415.87,53.28Z"/></g></g></g></g></svg>