<svg xmlns="http://www.w3.org/2000/svg" viewBox="0 0 408.11 84.57"><defs><style>.cls-1{fill:#46b6ae;}.cls-2{fill:#15514b;}</style></defs><title>temperate_RGB_tagline</title><g id="Layer_2" data-name="Layer 2"><g id="Color_Logo" data-name="Color Logo"><g id="Full_logo_left-aligned_for_dark_background_unoutlined_" data-name="Full logo, left-aligned for dark background [unoutlined]"><g id="Text"><path class="cls-1" d="M94.05,69.21a20.88,20.88,0,0,1,.72,2.92h.08a23.15,23.15,0,0,1,.7-2.92l1.54-5.08H99l-3.4,10c-.94,2.73-2.12,3.41-3.76,3.41a4.28,4.28,0,0,1-1.34-.22l.16-1.54a2.52,2.52,0,0,0,1.2.28c1,0,1.54-.53,2.08-2.15l-3.42-9.78h2Z"/><path class="cls-1" d="M100.15,68.69c0-3.14,1.66-4.78,4.2-4.78s4.22,1.64,4.22,4.78-1.66,4.92-4.22,4.92S100.15,71.85,100.15,68.69Zm1.78,0c0,2.32.82,3.48,2.42,3.48s2.44-1.16,2.44-3.48-.84-3.34-2.44-3.34S101.93,66.45,101.93,68.71Z"/><path class="cls-1" d="M116.67,71.69a2.62,2.62,0,0,1-2.84,1.92c-1.68,0-2.8-.86-2.8-3.06V64.13h1.8v6.14c0,1.36.52,2,1.66,2s2.14-.9,2.14-2.68V64.13h1.8v9.24h-1.54Z"/><path class="cls-1" d="M127,66a4.74,4.74,0,0,0-.82-.08,2.62,2.62,0,0,0-2.56,2.82v4.68h-1.8V64.13h1.52l.22,2.5a3.21,3.21,0,0,1,3.58-2.7Z"/><path class="cls-1" d="M141.43,71.19c0,.7.32.86.68.86a1.27,1.27,0,0,0,.52-.1v1.41a3,3,0,0,1-1,.15,1.66,1.66,0,0,1-1.9-1.48A2.7,2.7,0,0,1,137,73.61a2.46,2.46,0,0,1-2.76-2.5c0-2,1.58-3.22,5.36-3V66.93A1.45,1.45,0,0,0,138,65.35a1.51,1.51,0,0,0-1.68,1.48l-1.72-.26c.14-2,1.86-2.66,3.56-2.66s3.32.72,3.32,2.84Zm-1.82-1.94c-2.48-.06-3.56.5-3.56,1.66a1.31,1.31,0,0,0,1.48,1.34c1,0,2.08-.58,2.08-1.66Z"/><path class="cls-1" d="M150.77,60h1.82V73.37H151l-.2-1.6a2.79,2.79,0,0,1-2.94,1.84c-1.94,0-3.66-1.58-3.66-4.7s1.5-5,4.14-5a2.52,2.52,0,0,1,2.44,1.46Zm0,7.64a2.23,2.23,0,0,0-2.3-2.34c-1.36,0-2.48.94-2.48,3.54,0,2.18,1,3.34,2.46,3.34a2.39,2.39,0,0,0,2.32-2.5Z"/><path class="cls-1" d="M162.43,71.19c0,.7.32.86.68.86a1.27,1.27,0,0,0,.52-.1v1.41a3,3,0,0,1-1,.15,1.66,1.66,0,0,1-1.9-1.48A2.7,2.7,0,0,1,158,73.61a2.46,2.46,0,0,1-2.76-2.5c0-2,1.58-3.22,5.36-3V66.93A1.45,1.45,0,0,0,159,65.35a1.51,1.51,0,0,0-1.68,1.48l-1.72-.26c.14-2,1.86-2.66,3.56-2.66s3.32.72,3.32,2.84Zm-1.82-1.94c-2.48-.06-3.56.5-3.56,1.66a1.31,1.31,0,0,0,1.48,1.34c1,0,2.08-.58,2.08-1.66Z"/><path class="cls-1" d="M167.73,77.44h-1.8V64.13h1.48l.22,1.78a3.08,3.08,0,0,1,3.06-2c2.26,0,3.64,1.64,3.64,4.62,0,2.82-1.44,5.08-4,5.08a2.59,2.59,0,0,1-2.6-1.46Zm0-7.65A2.22,2.22,0,0,0,170,72.25c1.38,0,2.52-1.12,2.52-3.56,0-2.22-.9-3.3-2.32-3.3a2.46,2.46,0,0,0-2.44,2.7Z"/><path class="cls-1" d="M182.44,73.07a4.37,4.37,0,0,1-2.24.54,2.37,2.37,0,0,1-2.66-2.6V65.57H176.2V64.13h1.34v-2l1.82-.22v2.18h2.74v1.44h-2.76v5.08c0,1,.46,1.42,1.22,1.42a2.58,2.58,0,0,0,1.54-.5Z"/><path class="cls-1" d="M191.61,71.19c0,.7.32.86.68.86a1.27,1.27,0,0,0,.52-.1v1.41a3,3,0,0,1-1,.15,1.66,1.66,0,0,1-1.9-1.48,2.7,2.7,0,0,1-2.74,1.58,2.46,2.46,0,0,1-2.76-2.5c0-2,1.58-3.22,5.36-3V66.93a1.45,1.45,0,0,0-1.66-1.58,1.51,1.51,0,0,0-1.68,1.48l-1.72-.26c.14-2,1.86-2.66,3.56-2.66s3.32.72,3.32,2.84Zm-1.82-1.94c-2.48-.06-3.56.5-3.56,1.66a1.31,1.31,0,0,0,1.48,1.34c1,0,2.08-.58,2.08-1.66Z"/><path class="cls-1" d="M200.27,73.07a4.37,4.37,0,0,1-2.24.54,2.37,2.37,0,0,1-2.66-2.6V65.57H194V64.13h1.34v-2l1.82-.22v2.18h2.74v1.44h-2.76v5.08c0,1,.46,1.42,1.22,1.42a2.58,2.58,0,0,0,1.54-.5Z"/><path class="cls-1" d="M203.62,60a1.19,1.19,0,0,1,1.26,1.2,1.22,1.22,0,0,1-1.26,1.2,1.2,1.2,0,0,1-1.2-1.2A1.18,1.18,0,0,1,203.62,60Zm.92,4.16v9.24h-1.8V64.13Z"/><path class="cls-1" d="M207.32,68.69c0-3.14,1.66-4.78,4.2-4.78s4.22,1.64,4.22,4.78-1.66,4.92-4.22,4.92S207.32,71.85,207.32,68.69Zm1.78,0c0,2.32.82,3.48,2.42,3.48S214,71,214,68.71s-.84-3.34-2.44-3.34S209.1,66.45,209.1,68.71Z"/><path class="cls-1" d="M220.33,65.91a2.89,2.89,0,0,1,3-2,2.6,2.6,0,0,1,2.8,2.86v6.6h-1.8V67.31c0-1.14-.52-1.84-1.62-1.84s-2.18.6-2.18,2.6v5.3h-1.8V64.13h1.42Z"/><path class="cls-1" d="M236.73,77.44h-1.8V64.13h1.48l.22,1.78a3.08,3.08,0,0,1,3.06-2c2.26,0,3.64,1.64,3.64,4.62,0,2.82-1.44,5.08-4,5.08a2.59,2.59,0,0,1-2.6-1.46Zm0-7.65A2.22,2.22,0,0,0,239,72.25c1.38,0,2.52-1.12,2.52-3.56,0-2.22-.9-3.3-2.32-3.3a2.46,2.46,0,0,0-2.44,2.7Z"/><path class="cls-1" d="M249.47,73.37a4.4,4.4,0,0,1-1.12.16,1.91,1.91,0,0,1-2.12-2V60H248V71.15a.74.74,0,0,0,.82.82,2,2,0,0,0,.64-.1Z"/><path class="cls-1" d="M258.93,71.19c0,.7.32.86.68.86a1.27,1.27,0,0,0,.52-.1v1.41a3,3,0,0,1-1,.15,1.66,1.66,0,0,1-1.9-1.48,2.7,2.7,0,0,1-2.74,1.58,2.46,2.46,0,0,1-2.76-2.5c0-2,1.58-3.22,5.36-3V66.93a1.45,1.45,0,0,0-1.66-1.58,1.51,1.51,0,0,0-1.68,1.48l-1.72-.26c.14-2,1.86-2.66,3.56-2.66s3.32.72,3.32,2.84Zm-1.82-1.94c-2.48-.06-3.56.5-3.56,1.66A1.31,1.31,0,0,0,255,72.25c1,0,2.08-.58,2.08-1.66Z"/><path class="cls-1" d="M264.33,65.91a2.89,2.89,0,0,1,3-2,2.6,2.6,0,0,1,2.8,2.86v6.6h-1.8V67.31c0-1.14-.52-1.84-1.62-1.84s-2.18.6-2.18,2.6v5.3h-1.8V64.13h1.42Z"/><path class="cls-1" d="M275.07,65.91a2.89,2.89,0,0,1,3-2,2.6,2.6,0,0,1,2.8,2.86v6.6H279V67.31c0-1.14-.52-1.84-1.62-1.84s-2.18.6-2.18,2.6v5.3h-1.8V64.13h1.42Z"/><path class="cls-1" d="M285.08,60a1.19,1.19,0,0,1,1.26,1.2,1.22,1.22,0,0,1-1.26,1.2,1.2,1.2,0,0,1-1.2-1.2A1.18,1.18,0,0,1,285.08,60Zm.92,4.16v9.24h-1.8V64.13Z"/><path class="cls-1" d="M291.07,65.91a2.89,2.89,0,0,1,3-2,2.6,2.6,0,0,1,2.8,2.86v6.6H295V67.31c0-1.14-.52-1.84-1.62-1.84s-2.18.6-2.18,2.6v5.3h-1.8V64.13h1.42Z"/><path class="cls-1" d="M306.1,64.65c.44-.24.58-.72.7-1.4l1.56.54a2,2,0,0,1-1.54,1.66,3.4,3.4,0,0,1,.42,1.74c0,2.14-1.72,3.2-3.8,3.2a3.86,3.86,0,0,1-1.2-.16,1,1,0,0,0-.62,1c0,.52.34.76,1,.76h2.26c2.1,0,3.22.92,3.22,2.58,0,2.43-2.6,3.07-5,3.07-2,0-4-.52-4-2.42,0-1.2.86-2,2.38-2.13a1.37,1.37,0,0,1-1.28-1.44A1.6,1.6,0,0,1,301.48,70a2.89,2.89,0,0,1-1.8-2.8c0-2.08,1.52-3.28,3.74-3.28A4.43,4.43,0,0,1,306.1,64.65Zm-2.86,11.67c1.88,0,3.1-.37,3.1-1.53,0-.7-.38-1.22-1.56-1.22h-2c-1.32,0-2.06.44-2.06,1.41S301.78,76.32,303.24,76.32Zm.18-7.21a1.94,1.94,0,1,0,0-3.88,1.77,1.77,0,0,0-1.94,1.94A1.8,1.8,0,0,0,303.42,69.11Z"/><path class="cls-1" d="M323.14,71c-.32,1.86-1.8,2.58-3.62,2.58-2.42,0-4.08-1.72-4.08-4.8s1.66-4.9,4.22-4.9c2,0,3.24,1,3.36,2.88l-1.64.34c-.16-1.16-.78-1.74-1.8-1.74-1.58,0-2.4,1.4-2.4,3.42s1,3.36,2.48,3.36a1.82,1.82,0,0,0,1.92-1.52Z"/><path class="cls-1" d="M325.16,68.69c0-3.14,1.66-4.78,4.2-4.78s4.22,1.64,4.22,4.78-1.66,4.92-4.22,4.92S325.16,71.85,325.16,68.69Zm1.78,0c0,2.32.82,3.48,2.42,3.48s2.44-1.16,2.44-3.48-.84-3.34-2.44-3.34S326.94,66.45,326.94,68.71Z"/><path class="cls-1" d="M346.36,63.91a2.51,2.51,0,0,1,2.74,2.78v6.68h-1.8V67.29c0-1.14-.5-1.82-1.54-1.82s-2.1.74-2.1,2.6v5.3h-1.8V67.29c0-1.14-.5-1.82-1.54-1.82s-2.1.76-2.1,2.6v5.3h-1.8V64.13h1.42l.22,1.78a2.84,2.84,0,0,1,2.88-2,2.27,2.27,0,0,1,2.52,2A2.83,2.83,0,0,1,346.36,63.91Z"/><path class="cls-1" d="M354.1,77.44h-1.8V64.13h1.48l.22,1.78a3.08,3.08,0,0,1,3.06-2c2.26,0,3.64,1.64,3.64,4.62,0,2.82-1.44,5.08-4,5.08a2.59,2.59,0,0,1-2.6-1.46Zm0-7.65a2.22,2.22,0,0,0,2.24,2.46c1.38,0,2.52-1.12,2.52-3.56,0-2.22-.9-3.3-2.32-3.3a2.46,2.46,0,0,0-2.44,2.7Z"/><path class="cls-1" d="M370,71.19c0,.7.32.86.68.86a1.27,1.27,0,0,0,.52-.1v1.41a3,3,0,0,1-1,.15,1.66,1.66,0,0,1-1.9-1.48,2.7,2.7,0,0,1-2.74,1.58,2.46,2.46,0,0,1-2.76-2.5c0-2,1.58-3.22,5.36-3V66.93a1.45,1.45,0,0,0-1.66-1.58,1.51,1.51,0,0,0-1.68,1.48l-1.72-.26c.14-2,1.86-2.66,3.56-2.66s3.32.72,3.32,2.84Zm-1.82-1.94c-2.48-.06-3.56.5-3.56,1.66a1.31,1.31,0,0,0,1.48,1.34c1,0,2.08-.58,2.08-1.66Z"/><path class="cls-1" d="M375.34,65.91a2.89,2.89,0,0,1,3-2,2.6,2.6,0,0,1,2.8,2.86v6.6h-1.8V67.31c0-1.14-.52-1.84-1.62-1.84s-2.18.6-2.18,2.6v5.3h-1.8V64.13h1.42Z"/><path class="cls-1" d="M385.34,60a1.19,1.19,0,0,1,1.26,1.2,1.22,1.22,0,0,1-1.26,1.2,1.2,1.2,0,0,1-1.2-1.2A1.18,1.18,0,0,1,385.34,60Zm.92,4.16v9.24h-1.8V64.13Z"/><path class="cls-1" d="M389.16,68.69c0-3.14,1.66-4.78,4.2-4.78s4.22,1.64,4.22,4.78-1.66,4.92-4.22,4.92S389.16,71.85,389.16,68.69Zm1.78,0c0,2.32.82,3.48,2.42,3.48s2.44-1.16,2.44-3.48-.84-3.34-2.44-3.34S390.94,66.45,390.94,68.71Z"/><path class="cls-1" d="M401.94,65.91a2.89,2.89,0,0,1,3-2,2.6,2.6,0,0,1,2.8,2.86v6.6h-1.8V67.31c0-1.14-.52-1.84-1.62-1.84s-2.18.6-2.18,2.6v5.3h-1.8V64.13h1.42Z"/><path class="cls-2" d="M115.3,19.53c-3.74-.05-7-.1-11.33-.1-.06,1.14-.06,2.49-.06,3.33v19c0,2,.06,6,.21,7.48H95.18c.26-2.49.36-9.15.36-12.53V27.54c0-2,0-5.36-.1-8.11-4.32,0-7.85.05-11.55.1.16-2.08.21-4.78.21-7.17,4.94.15,9.78.25,15.65.25s11-.1,16-.25A59.82,59.82,0,0,0,115.3,19.53Z"/><path class="cls-2" d="M147.13,49.43c-3.33-.21-7.44-.26-11.34-.26-4.21,0-8.74,0-12.27.26.26-2.49.36-9.36.36-12.74V25.2c0-3.33-.1-10.35-.36-12.84,3.48.15,7.38.25,11.7.25,4.05,0,7.85-.1,11.23-.25a54.33,54.33,0,0,0-.42,6.81c-2.8-.06-5.72-.11-9-.11-1.56,0-3.28,0-4.79.05a25.11,25.11,0,0,0-.1,2.66v5.51L144,27.23c-.11,1.77-.16,3.9-.16,6.19l-11.75-.11V40a25.38,25.38,0,0,0,.1,2.7c1.51,0,3.23,0,4.79,0,3.84,0,7.22,0,10.5-.15A56.34,56.34,0,0,0,147.13,49.43Z"/><path class="cls-2" d="M156.74,36.69l1.56-11.54c.47-3.33,1.3-10,1.51-12.74l5.31-.37c.93,2.14,2.34,5.31,3.38,7.49l8.06,17.63,7.9-17.73c.94-2.19,2.39-5.41,3.17-7.33h5.2c.32,3,1.2,9.72,1.62,13.05l1.61,11.54c.47,3.38,1.56,9.83,2.13,12.53l-8.32.42c-.1-1.51-.57-5.82-.88-7.9l-1.77-13.42c-2.6,6-8.37,19.45-9.1,21.32l-3.8.31-9.1-21.32-1.61,13.11c-.26,2-.63,6-.68,7.48h-8.27C155.29,46.47,156.28,40.12,156.74,36.69Z"/><path class="cls-2" d="M215.5,41.74c0,2,.06,6,.21,7.48h-8.94c.26-2.49.36-9.15.36-12.53V25.2c0-3.33-.1-10-.36-12.53,1.87,0,8.47-.26,11.54-.26,10.09,0,15.24,4.94,15.24,11.65,0,7.43-4.89,13.31-16.12,13.31-.63,0-1.3,0-1.93,0ZM218.42,19c-1,0-1.72,0-3,.1v12a16.35,16.35,0,0,0,2.18.1c4.84,0,7.8-2.18,7.8-6.19S223.15,19,218.42,19Z"/><path class="cls-2" d="M264.54,49.43c-3.33-.21-7.44-.26-11.34-.26-4.21,0-8.73,0-12.27.26.26-2.49.37-9.36.37-12.74V25.2c0-3.33-.11-10.35-.37-12.84,3.49.15,7.39.25,11.7.25,4.06,0,7.85-.1,11.23-.25a54.43,54.43,0,0,0-.41,6.81c-2.81-.06-5.72-.11-9-.11-1.56,0-3.28,0-4.78.05a22.84,22.84,0,0,0-.11,2.66v5.51l11.91-.05c-.1,1.77-.16,3.9-.16,6.19l-11.75-.11V40a23.08,23.08,0,0,0,.11,2.7c1.5,0,3.22,0,4.78,0,3.85,0,7.23,0,10.5-.15A56.34,56.34,0,0,0,264.54,49.43Z"/><path class="cls-2" d="M294.65,49.69l-8-13.31-.78,0h-3.38v5.31c0,2,0,6,.16,7.48H273.8c.26-2.49.36-9.15.36-12.53V25.2c0-3.33-.1-10-.36-12.53,1.87,0,8.89-.21,11.23-.26,10.45-.11,16,4.68,15.91,11.07-.1,5.1-2.6,8.38-7.18,10.77l5.88,8.58c1.2,1.71,3.28,4.57,4.42,6.08Zm-8.37-19.13c4.05,0,6.5-2.5,6.5-5.88s-1.82-5.77-7-5.77c-1.2,0-2.34.05-3.38.15v11.5Z"/><path class="cls-2" d="M319.14,22.6c1.92-4.37,3.17-7.18,4.21-10.14L329,12l11.8,26.63c1.41,3.22,3.38,7.43,4.94,10.6l-8.94.42-3.59-8.48H319.29c-.83,2-2.49,6.4-3.12,8.06h-8.78Zm2.29,13H331l-4.84-12.12Z"/><path class="cls-2" d="M375.92,19.53c-3.74-.05-7-.1-11.33-.1,0,1.14,0,2.49,0,3.33v19c0,2,0,6,.2,7.48H355.8c.26-2.49.36-9.15.36-12.53V27.54c0-2,0-5.36-.1-8.11-4.32,0-7.85.05-11.55.1.16-2.08.21-4.78.21-7.17,4.94.15,9.78.25,15.66.25s11-.1,16-.25A59.82,59.82,0,0,0,375.92,19.53Z"/><path class="cls-2" d="M407.75,49.43c-3.33-.21-7.44-.26-11.34-.26-4.21,0-8.74,0-12.27.26.26-2.49.36-9.36.36-12.74V25.2c0-3.33-.1-10.35-.36-12.84,3.48.15,7.38.25,11.7.25,4.05,0,7.85-.1,11.23-.25a54.33,54.33,0,0,0-.42,6.81c-2.8-.06-5.72-.11-9-.11-1.56,0-3.28,0-4.79.05a25.11,25.11,0,0,0-.1,2.66v5.51l11.91-.05c-.11,1.77-.16,3.9-.16,6.19l-11.75-.11V40a25.38,25.38,0,0,0,.1,2.7c1.51,0,3.23,0,4.79,0,3.84,0,7.22,0,10.5-.15A56.34,56.34,0,0,0,407.75,49.43Z"/></g><g id="Mark"><path id="Thermometer" class="cls-2" d="M37.12,63.93V45.47a2,2,0,0,0-1.95-1.94h0a2,2,0,0,0-2,1.94V63.93A5.82,5.82,0,0,0,29.34,70a5.89,5.89,0,0,0,5.72,5.24,5.82,5.82,0,0,0,2.06-11.31Z"/><path id="Head" class="cls-2" d="M70.29,18.55A35,35,0,0,0,65.83,2.28a4.78,4.78,0,0,0-7-1.31c-4.15,3.14-10.65,9.28-12.22,12.24v0a1.93,1.93,0,0,1-2.38.92v0a28.73,28.73,0,0,0-9.12-1.45h0A28.82,28.82,0,0,0,26,14.13v0a1.91,1.91,0,0,1-.68.12,1.93,1.93,0,0,1-1.69-1v0c-1.57-3-8.07-9.1-12.22-12.24a4.78,4.78,0,0,0-7,1.31A35,35,0,0,0,0,18.55C0,28.75,3.09,37.47,2.25,48,1.84,53.19,1.7,59,1.68,63.52A49,49,0,0,0,3.05,75.69a1.36,1.36,0,0,0,2,.77l5.83-3.7a.68.68,0,0,1,1.05.58l0,3a1.37,1.37,0,0,0,2.17,1.09,55.08,55.08,0,0,1,5.54-3.71.68.68,0,0,1,.94.42c.14.48.32,1.07.46,1.42h0a14.77,14.77,0,0,0,14,9h0a14.78,14.78,0,0,0,14-9h0c.14-.35.32-.94.46-1.42a.67.67,0,0,1,.93-.42,56.16,56.16,0,0,1,5.55,3.71,1.36,1.36,0,0,0,2.16-1.09l0-3a.68.68,0,0,1,1-.58l5.83,3.7a1.36,1.36,0,0,0,2-.77A48.65,48.65,0,0,0,68.6,63.52c0-4.55-.15-10.33-.56-15.5C67.2,37.47,70.29,28.75,70.29,18.55ZM10.43,14.33c-2.56,1.11.43,6.21-3,6.63-5.17.63-3.82-7.79-3-10.87C5.58,6,6.83,3.41,8.61,3.41S12,5,15.81,9.11c3,3.21,4,6.39,2.15,7.83C14.94,19.28,13.44,13,10.43,14.33ZM21,39.06a3,3,0,1,1-3.55-3.54A3,3,0,0,1,21,39.06Zm14.1,40a9.69,9.69,0,0,1-5.83-17.46V26.69a5.84,5.84,0,1,1,11.67,0V61.62a9.69,9.69,0,0,1-5.84,17.46ZM51.62,41.43a3,3,0,1,1,3.54-3.55A3,3,0,0,1,51.62,41.43ZM62.82,21c-3.4-.42-.41-5.52-3-6.63-3-1.3-4.51,5-7.53,2.61-1.87-1.44-.81-4.62,2.15-7.83C58.31,5,60,3.41,61.68,3.41s3,2.61,4.12,6.68C66.64,13.17,68,21.59,62.82,21Z"/></g></g></g></g></svg>