<svg xmlns="http://www.w3.org/2000/svg" viewBox="0 0 374.43 189.08"><defs><style>.cls-1{fill:#fff;}</style></defs><title>temperate_white_centered</title><g id="Layer_2" data-name="Layer 2"><g id="Color_Logo" data-name="Color Logo"><g id="Full_logo_center-aligned" data-name="Full logo, center-aligned"><g id="Text"><path class="cls-1" d="M11.68,179.44a23.79,23.79,0,0,1,.82,3.36h.1a26.42,26.42,0,0,1,.8-3.36l1.77-5.84h2.16l-3.91,11.5C12.34,188.23,11,189,9.1,189a4.92,4.92,0,0,1-1.54-.25L7.74,187a2.91,2.91,0,0,0,1.38.32c1.13,0,1.77-.6,2.39-2.46L7.58,173.6H9.86Z"/><path class="cls-1" d="M18.76,178.85c0-3.61,1.91-5.5,4.83-5.5s4.85,1.89,4.85,5.5-1.91,5.65-4.85,5.65S18.76,182.48,18.76,178.85Zm2,0c0,2.67.94,4,2.78,4s2.8-1.33,2.8-4-1-3.84-2.8-3.84S20.81,176.27,20.81,178.87Z"/><path class="cls-1" d="M37.83,182.3a3,3,0,0,1-3.27,2.2c-1.93,0-3.22-1-3.22-3.51V173.6h2.07v7.06c0,1.57.6,2.3,1.91,2.3,1.15,0,2.46-1,2.46-3.08V173.6h2.07v10.63H38.08Z"/><path class="cls-1" d="M49.72,175.7a5.13,5.13,0,0,0-.95-.1,3,3,0,0,0-2.94,3.25v5.38H43.76V173.6h1.75l.25,2.88a3.7,3.7,0,0,1,4.12-3.11Z"/><path class="cls-1" d="M66.51,181.72c0,.81.36,1,.78,1a1.49,1.49,0,0,0,.6-.12v1.61a3,3,0,0,1-1.13.19,1.92,1.92,0,0,1-2.19-1.7,3.12,3.12,0,0,1-3.15,1.81c-1.86,0-3.17-1.05-3.17-2.87,0-2.35,1.82-3.7,6.16-3.5v-1.31c0-1.31-.78-1.81-1.91-1.81a1.73,1.73,0,0,0-1.93,1.7l-2-.3c.16-2.25,2.13-3.06,4.09-3.06s3.82.83,3.82,3.27Zm-2.1-2.23c-2.85-.07-4.09.58-4.09,1.91a1.51,1.51,0,0,0,1.7,1.54c1.1,0,2.39-.67,2.39-1.91Z"/><path class="cls-1" d="M77.32,168.87h2.09v15.36H77.57l-.23-1.84A3.2,3.2,0,0,1,74,184.5c-2.23,0-4.21-1.81-4.21-5.4s1.72-5.75,4.76-5.75A2.91,2.91,0,0,1,77.32,175Zm0,8.78A2.57,2.57,0,0,0,74.69,175c-1.56,0-2.85,1.08-2.85,4.07,0,2.51,1.11,3.84,2.83,3.84A2.74,2.74,0,0,0,77.34,180Z"/><path class="cls-1" d="M90.79,181.72c0,.81.37,1,.78,1a1.42,1.42,0,0,0,.6-.12v1.61a3,3,0,0,1-1.12.19,1.92,1.92,0,0,1-2.19-1.7,3.12,3.12,0,0,1-3.15,1.81c-1.86,0-3.17-1.05-3.17-2.87,0-2.35,1.81-3.7,6.16-3.5v-1.31c0-1.31-.78-1.81-1.91-1.81a1.73,1.73,0,0,0-1.93,1.7l-2-.3c.16-2.25,2.14-3.06,4.1-3.06s3.81.83,3.81,3.27Zm-2.09-2.23c-2.85-.07-4.09.58-4.09,1.91a1.51,1.51,0,0,0,1.7,1.54c1.1,0,2.39-.67,2.39-1.91Z"/><path class="cls-1" d="M97,188.9H94.89V173.6h1.7l.25,2.05a3.56,3.56,0,0,1,3.52-2.3c2.6,0,4.19,1.89,4.19,5.31,0,3.25-1.66,5.84-4.6,5.84a3,3,0,0,1-3-1.68Zm0-8.79a2.55,2.55,0,0,0,2.57,2.83c1.59,0,2.9-1.29,2.9-4.09,0-2.56-1-3.8-2.67-3.8a2.83,2.83,0,0,0-2.8,3.11Z"/><path class="cls-1" d="M113.93,183.88a5,5,0,0,1-2.57.62,2.73,2.73,0,0,1-3.06-3v-6.25h-1.54V173.6h1.54v-2.25l2.09-.25v2.5h3.15v1.66h-3.17v5.84c0,1.15.53,1.63,1.4,1.63a3,3,0,0,0,1.77-.57Z"/><path class="cls-1" d="M124.52,181.72c0,.81.37,1,.78,1a1.42,1.42,0,0,0,.6-.12v1.61a3,3,0,0,1-1.13.19,1.91,1.91,0,0,1-2.18-1.7,3.12,3.12,0,0,1-3.15,1.81c-1.86,0-3.17-1.05-3.17-2.87,0-2.35,1.81-3.7,6.16-3.5v-1.31c0-1.31-.78-1.81-1.91-1.81a1.73,1.73,0,0,0-1.93,1.7l-2-.3c.16-2.25,2.14-3.06,4.1-3.06s3.81.83,3.81,3.27Zm-2.09-2.23c-2.85-.07-4.09.58-4.09,1.91a1.51,1.51,0,0,0,1.7,1.54c1.1,0,2.39-.67,2.39-1.91Z"/><path class="cls-1" d="M134.55,183.88a5,5,0,0,1-2.58.62,2.73,2.73,0,0,1-3.05-3v-6.25h-1.54V173.6h1.54v-2.25l2.09-.25v2.5h3.15v1.66H131v5.84c0,1.15.52,1.63,1.4,1.63a3,3,0,0,0,1.77-.57Z"/><path class="cls-1" d="M138.46,168.82a1.37,1.37,0,0,1,1.45,1.38,1.41,1.41,0,0,1-1.45,1.38,1.38,1.38,0,0,1-1.38-1.38A1.35,1.35,0,0,1,138.46,168.82Zm1,4.78v10.63h-2.07V173.6Z"/><path class="cls-1" d="M142.78,178.85c0-3.61,1.91-5.5,4.83-5.5s4.85,1.89,4.85,5.5-1.91,5.65-4.85,5.65S142.78,182.48,142.78,178.85Zm2.05,0c0,2.67.94,4,2.78,4s2.81-1.33,2.81-4-1-3.84-2.81-3.84S144.83,176.27,144.83,178.87Z"/><path class="cls-1" d="M157.8,175.65a3.31,3.31,0,0,1,3.4-2.3,3,3,0,0,1,3.22,3.29v7.59h-2.07v-7c0-1.31-.6-2.12-1.86-2.12s-2.51.69-2.51,3v6.1h-2.07V173.6h1.64Z"/><path class="cls-1" d="M176.8,188.9h-2.07V173.6h1.7l.25,2.05a3.56,3.56,0,0,1,3.52-2.3c2.6,0,4.18,1.89,4.18,5.31,0,3.25-1.65,5.84-4.59,5.84a3,3,0,0,1-3-1.68Zm0-8.79a2.55,2.55,0,0,0,2.57,2.83c1.59,0,2.9-1.29,2.9-4.09,0-2.56-1-3.8-2.67-3.8a2.83,2.83,0,0,0-2.8,3.11Z"/><path class="cls-1" d="M191.49,184.23a5.39,5.39,0,0,1-1.28.18,2.19,2.19,0,0,1-2.44-2.3V168.87h2.07v12.8a.85.85,0,0,0,.94,1,2.34,2.34,0,0,0,.74-.12Z"/><path class="cls-1" d="M202.43,181.72c0,.81.36,1,.78,1a1.49,1.49,0,0,0,.6-.12v1.61a3,3,0,0,1-1.13.19,1.92,1.92,0,0,1-2.19-1.7,3.12,3.12,0,0,1-3.15,1.81c-1.86,0-3.17-1.05-3.17-2.87,0-2.35,1.82-3.7,6.16-3.5v-1.31c0-1.31-.78-1.81-1.91-1.81a1.73,1.73,0,0,0-1.93,1.7l-2-.3c.16-2.25,2.13-3.06,4.09-3.06s3.82.83,3.82,3.27Zm-2.1-2.23c-2.85-.07-4.09.58-4.09,1.91a1.51,1.51,0,0,0,1.7,1.54c1.11,0,2.39-.67,2.39-1.91Z"/><path class="cls-1" d="M208.69,175.65a3.31,3.31,0,0,1,3.4-2.3,3,3,0,0,1,3.22,3.29v7.59h-2.07v-7c0-1.31-.6-2.12-1.86-2.12s-2.51.69-2.51,3v6.1H206.8V173.6h1.63Z"/><path class="cls-1" d="M221.11,175.65a3.31,3.31,0,0,1,3.4-2.3,3,3,0,0,1,3.22,3.29v7.59h-2.07v-7c0-1.31-.6-2.12-1.86-2.12s-2.51.69-2.51,3v6.1h-2.07V173.6h1.63Z"/><path class="cls-1" d="M232.66,168.82a1.37,1.37,0,0,1,1.45,1.38,1.42,1.42,0,0,1-2.83,0A1.36,1.36,0,0,1,232.66,168.82Zm1.06,4.78v10.63h-2.07V173.6Z"/><path class="cls-1" d="M239.6,175.65a3.32,3.32,0,0,1,3.4-2.3,3,3,0,0,1,3.22,3.29v7.59h-2.07v-7c0-1.31-.59-2.12-1.86-2.12s-2.51.69-2.51,3v6.1h-2.06V173.6h1.63Z"/><path class="cls-1" d="M256.94,174.2c.51-.27.67-.83.8-1.61l1.8.62a2.32,2.32,0,0,1-1.77,1.91,3.92,3.92,0,0,1,.48,2c0,2.46-2,3.68-4.37,3.68a4.62,4.62,0,0,1-1.38-.18,1.14,1.14,0,0,0-.71,1.1c0,.6.39.87,1.13.87h2.59c2.42,0,3.71,1.06,3.71,3,0,2.78-3,3.52-5.78,3.52-2.34,0-4.64-.6-4.64-2.78,0-1.38,1-2.3,2.74-2.44a1.59,1.59,0,0,1-1.48-1.66,1.84,1.84,0,0,1,1.57-1.86,3.31,3.31,0,0,1-2.07-3.22c0-2.39,1.75-3.77,4.3-3.77A5.13,5.13,0,0,1,256.94,174.2Zm-3.29,13.41c2.16,0,3.57-.42,3.57-1.75,0-.8-.44-1.4-1.8-1.4h-2.3c-1.52,0-2.37.5-2.37,1.61S252,187.61,253.65,187.61Zm.21-8.28a2.23,2.23,0,1,0,0-4.46,2,2,0,0,0-2.23,2.23A2.06,2.06,0,0,0,253.86,179.33Z"/><path class="cls-1" d="M276.67,181.54c-.37,2.14-2.07,3-4.16,3-2.78,0-4.69-2-4.69-5.52s1.91-5.63,4.85-5.63c2.25,0,3.73,1.2,3.86,3.31l-1.88.39c-.19-1.33-.9-2-2.07-2-1.82,0-2.76,1.61-2.76,3.93s1.1,3.87,2.85,3.87a2.09,2.09,0,0,0,2.21-1.75Z"/><path class="cls-1" d="M279.07,178.85c0-3.61,1.91-5.5,4.83-5.5s4.85,1.89,4.85,5.5-1.91,5.65-4.85,5.65S279.07,182.48,279.07,178.85Zm2,0c0,2.67.95,4,2.79,4s2.8-1.33,2.8-4-1-3.84-2.8-3.84S281.11,176.27,281.11,178.87Z"/><path class="cls-1" d="M303.51,173.35a2.89,2.89,0,0,1,3.15,3.2v7.68h-2.07v-7c0-1.31-.57-2.1-1.77-2.1s-2.41.85-2.41,3v6.1h-2.07v-7c0-1.31-.58-2.1-1.77-2.1s-2.42.88-2.42,3v6.1h-2.07V173.6h1.64l.25,2.05a3.27,3.27,0,0,1,3.31-2.3,2.62,2.62,0,0,1,2.9,2.35A3.25,3.25,0,0,1,303.51,173.35Z"/><path class="cls-1" d="M312.48,188.9h-2.06V173.6h1.7l.25,2.05a3.55,3.55,0,0,1,3.52-2.3c2.6,0,4.18,1.89,4.18,5.31,0,3.25-1.65,5.84-4.6,5.84a3,3,0,0,1-3-1.68Zm0-8.79a2.55,2.55,0,0,0,2.58,2.83c1.59,0,2.9-1.29,2.9-4.09,0-2.56-1-3.8-2.67-3.8a2.84,2.84,0,0,0-2.81,3.11Z"/><path class="cls-1" d="M330.88,181.72c0,.81.37,1,.79,1a1.4,1.4,0,0,0,.59-.12v1.61a3,3,0,0,1-1.12.19,1.92,1.92,0,0,1-2.19-1.7,3.12,3.12,0,0,1-3.15,1.81c-1.86,0-3.17-1.05-3.17-2.87,0-2.35,1.81-3.7,6.16-3.5v-1.31c0-1.31-.78-1.81-1.91-1.81a1.73,1.73,0,0,0-1.93,1.7l-2-.3c.16-2.25,2.14-3.06,4.1-3.06s3.81.83,3.81,3.27Zm-2.09-2.23c-2.85-.07-4.09.58-4.09,1.91a1.51,1.51,0,0,0,1.7,1.54c1.1,0,2.39-.67,2.39-1.91Z"/><path class="cls-1" d="M337.05,175.65a3.31,3.31,0,0,1,3.4-2.3,3,3,0,0,1,3.22,3.29v7.59H341.6v-7c0-1.31-.6-2.12-1.86-2.12s-2.51.69-2.51,3v6.1h-2.07V173.6h1.63Z"/><path class="cls-1" d="M348.6,168.82a1.37,1.37,0,0,1,1.45,1.38,1.42,1.42,0,0,1-2.83,0A1.36,1.36,0,0,1,348.6,168.82Zm1.06,4.78v10.63h-2.07V173.6Z"/><path class="cls-1" d="M353.05,178.85c0-3.61,1.91-5.5,4.83-5.5s4.85,1.89,4.85,5.5-1.91,5.65-4.85,5.65S353.05,182.48,353.05,178.85Zm2,0c0,2.67,1,4,2.79,4s2.8-1.33,2.8-4-1-3.84-2.8-3.84S355.09,176.27,355.09,178.87Z"/><path class="cls-1" d="M367.81,175.65a3.33,3.33,0,0,1,3.41-2.3,3,3,0,0,1,3.21,3.29v7.59h-2.06v-7c0-1.31-.6-2.12-1.87-2.12s-2.5.69-2.5,3v6.1h-2.07V173.6h1.63Z"/><path class="cls-1" d="M36.24,120.82c-4.32-.06-8.1-.12-13.08-.12-.06,1.32-.06,2.88-.06,3.84v21.9c0,2.28.06,7,.24,8.64H13c.3-2.88.42-10.56.42-14.46V130.06c0-2.34,0-6.18-.12-9.36-5,0-9.06.06-13.32.12.18-2.4.24-5.52.24-8.28,5.7.18,11.28.3,18.06.3s12.66-.12,18.42-.3A69.23,69.23,0,0,0,36.24,120.82Z"/><path class="cls-1" d="M73,155.32c-3.84-.24-8.58-.3-13.08-.3-4.86,0-10.08.06-14.16.3.3-2.88.42-10.8.42-14.7V127.36c0-3.84-.12-11.94-.42-14.82,4,.18,8.52.3,13.5.3,4.68,0,9.06-.12,13-.3a62.82,62.82,0,0,0-.48,7.86c-3.24-.06-6.6-.12-10.44-.12-1.8,0-3.78,0-5.52.06a27.66,27.66,0,0,0-.12,3.06v6.36l13.74-.06c-.12,2-.18,4.5-.18,7.14l-13.56-.12v7.68a28.18,28.18,0,0,0,.12,3.12c1.74,0,3.72.06,5.52.06,4.44,0,8.34-.06,12.12-.18A65.12,65.12,0,0,0,73,155.32Z"/><path class="cls-1" d="M84.06,140.62l1.8-13.32c.54-3.84,1.5-11.52,1.74-14.7l6.12-.42c1.08,2.46,2.7,6.12,3.9,8.64l9.3,20.34L116,120.7c1.08-2.52,2.76-6.24,3.66-8.46h6c.36,3.42,1.38,11.22,1.86,15.06l1.86,13.32c.54,3.9,1.8,11.34,2.46,14.46l-9.6.48c-.12-1.74-.66-6.72-1-9.12l-2-15.48c-3,6.9-9.66,22.44-10.5,24.6l-4.38.36-10.5-24.6L92,146.44c-.3,2.34-.72,7-.78,8.64H81.66C82.38,151.9,83.52,144.58,84.06,140.62Z"/><path class="cls-1" d="M151.86,146.44c0,2.28.06,7,.24,8.64H141.78c.3-2.88.42-10.56.42-14.46V127.36c0-3.84-.12-11.58-.42-14.46,2.16,0,9.78-.3,13.32-.3,11.64,0,17.58,5.7,17.58,13.44,0,8.58-5.64,15.36-18.6,15.36-.72,0-1.5,0-2.22-.06Zm3.36-26.28c-1.2,0-2,0-3.48.12v13.86a18.15,18.15,0,0,0,2.52.12c5.58,0,9-2.52,9-7.14S160.68,120.16,155.22,120.16Z"/><path class="cls-1" d="M208.44,155.32c-3.84-.24-8.58-.3-13.08-.3-4.86,0-10.08.06-14.16.3.3-2.88.42-10.8.42-14.7V127.36c0-3.84-.12-11.94-.42-14.82,4,.18,8.52.3,13.5.3,4.68,0,9.06-.12,13-.3a62.82,62.82,0,0,0-.48,7.86c-3.24-.06-6.6-.12-10.44-.12-1.8,0-3.78,0-5.52.06a27.66,27.66,0,0,0-.12,3.06v6.36l13.74-.06c-.12,2-.18,4.5-.18,7.14l-13.56-.12v7.68a28.18,28.18,0,0,0,.12,3.12c1.74,0,3.72.06,5.52.06,4.44,0,8.34-.06,12.12-.18A65.12,65.12,0,0,0,208.44,155.32Z"/><path class="cls-1" d="M243.18,155.62l-9.24-15.36-.9.06h-3.9v6.12c0,2.28.06,7,.18,8.64h-10.2c.3-2.88.42-10.56.42-14.46V127.36c0-3.84-.12-11.58-.42-14.46,2.16,0,10.26-.24,13-.3,12.06-.12,18.42,5.4,18.36,12.78-.12,5.88-3,9.66-8.28,12.42l6.78,9.9c1.38,2,3.78,5.28,5.1,7Zm-9.66-22.08c4.68,0,7.5-2.88,7.5-6.78s-2.1-6.66-8-6.66c-1.38,0-2.7.06-3.9.18v13.26Z"/><path class="cls-1" d="M271.44,124.36c2.22-5,3.66-8.28,4.86-11.7l6.48-.54,13.62,30.72c1.62,3.72,3.89,8.58,5.69,12.24l-10.31.48-4.14-9.78h-16c-1,2.28-2.88,7.38-3.6,9.3H257.88Zm2.64,15h11l-5.58-14Z"/><path class="cls-1" d="M337,120.82c-4.32-.06-8.1-.12-13.08-.12-.06,1.32-.06,2.88-.06,3.84v21.9c0,2.28.06,7,.24,8.64H313.74c.3-2.88.42-10.56.42-14.46V130.06c0-2.34,0-6.18-.12-9.36-5,0-9.06.06-13.32.12.18-2.4.24-5.52.24-8.28,5.7.18,11.28.3,18.06.3s12.66-.12,18.42-.3A69.23,69.23,0,0,0,337,120.82Z"/><path class="cls-1" d="M373.67,155.32c-3.84-.24-8.58-.3-13.08-.3-4.85,0-10.07.06-14.15.3.3-2.88.42-10.8.42-14.7V127.36c0-3.84-.12-11.94-.42-14.82,4,.18,8.52.3,13.5.3,4.67,0,9.05-.12,12.95-.3a62.82,62.82,0,0,0-.48,7.86c-3.24-.06-6.6-.12-10.44-.12-1.8,0-3.78,0-5.51.06a25.55,25.55,0,0,0-.13,3.06v6.36l13.74-.06c-.12,2-.18,4.5-.18,7.14l-13.56-.12v7.68a26,26,0,0,0,.13,3.12c1.73,0,3.71.06,5.51.06,4.44,0,8.34-.06,12.12-.18A65.12,65.12,0,0,0,373.67,155.32Z"/></g><g id="Mark"><path id="Thermometer" class="cls-1" d="M195.85,67.08V31.31a6,6,0,1,0-11.95,0V67.08a10,10,0,1,0,11.95,0Zm-6.06,14a6.06,6.06,0,0,1-5.87-5.37,6,6,0,0,1,4-6.21V50.54a2,2,0,0,1,2-2h0a2,2,0,0,1,2,2V69.45A6,6,0,0,1,189.79,81Z"/><path id="Outline" class="cls-1" d="M217.12,4a4.89,4.89,0,0,1,4.17,2.33A35.86,35.86,0,0,1,225.85,23c0,10.44-3.16,19.37-2.3,30.17.42,5.29.57,11.21.58,15.87a50,50,0,0,1-1.4,12.46,1.39,1.39,0,0,1-1.34,1,1.34,1.34,0,0,1-.75-.23l-6-3.78a.66.66,0,0,0-.37-.11.7.7,0,0,0-.7.7l0,3a1.39,1.39,0,0,1-1.4,1.38,1.36,1.36,0,0,1-.82-.27,58.47,58.47,0,0,0-5.67-3.8.82.82,0,0,0-.29-.07.69.69,0,0,0-.66.5c-.15.49-.34,1.1-.48,1.45h0a15.13,15.13,0,0,1-14.35,9.27h0a15.13,15.13,0,0,1-14.35-9.27h0c-.14-.35-.33-1-.47-1.45a.7.7,0,0,0-.66-.5.82.82,0,0,0-.3.07,59.73,59.73,0,0,0-5.67,3.8,1.36,1.36,0,0,1-.82.27,1.4,1.4,0,0,1-1.4-1.38l0-3a.7.7,0,0,0-.7-.7.67.67,0,0,0-.38.11l-6,3.78a1.3,1.3,0,0,1-.75.23,1.4,1.4,0,0,1-1.34-1A50,50,0,0,1,155.61,69c0-4.66.16-10.58.58-15.87.86-10.8-2.3-19.73-2.3-30.17a35.86,35.86,0,0,1,4.56-16.66A4.91,4.91,0,0,1,165.58,5c4.25,3.22,10.91,9.5,12.51,12.53v0a2,2,0,0,0,1.74,1.07h0a2.21,2.21,0,0,0,.68-.12h0A29.31,29.31,0,0,1,189.86,17h0a29.22,29.22,0,0,1,9.34,1.47h0a2.09,2.09,0,0,0,.67.12h0a2,2,0,0,0,1.73-1.07v0c1.61-3,8.26-9.31,12.51-12.53a4.9,4.9,0,0,1,3-1m-8.28,17.89c2,0,3.39-3.4,5.49-3.4a2,2,0,0,1,.84.18c2.62,1.14-.44,6.36,3,6.79l.55,0c4.65,0,3.33-8.11,2.51-11.16-1.12-4.17-2.4-6.84-4.22-6.84s-3.46,1.58-7.38,5.84c-3,3.28-4.11,6.54-2.19,8a2.24,2.24,0,0,0,1.37.54M161,25.48l.54,0c3.47-.43.41-5.65,3-6.79a2.1,2.1,0,0,1,.85-.18c2.09,0,3.49,3.4,5.48,3.4a2.27,2.27,0,0,0,1.38-.54c1.91-1.48.83-4.74-2.2-8-3.92-4.26-5.67-5.84-7.37-5.84s-3.11,2.67-4.23,6.84c-.82,3.05-2.14,11.16,2.52,11.16m46.34,21a3.08,3.08,0,0,0,.6-6.11,4,4,0,0,0-.6-.05,3.09,3.09,0,0,0-.61,6.11,3.2,3.2,0,0,0,.61.05m-34.94,0a3.2,3.2,0,0,0,.61-.05,3.09,3.09,0,0,0-.61-6.11,4.16,4.16,0,0,0-.6.05,3.09,3.09,0,0,0,.6,6.11M217.12,0a8.79,8.79,0,0,0-5.36,1.8c-3.28,2.48-9.82,8.25-12.75,12.42A33,33,0,0,0,189.94,13h-.08a33.42,33.42,0,0,0-9.13,1.23C177.8,10.05,171.26,4.28,168,1.8a8.88,8.88,0,0,0-12.94,2.45A39.75,39.75,0,0,0,149.9,23a94.62,94.62,0,0,0,1.27,13.77c.76,5.39,1.49,10.49,1,16.09-.49,6.17-.58,12.78-.59,16.17a54.09,54.09,0,0,0,1.55,13.57,5.42,5.42,0,0,0,5.18,3.91,5.36,5.36,0,0,0,2.89-.85l1.6-1a5.41,5.41,0,0,0,4.75,2.86,5.31,5.31,0,0,0,3.16-1c.85-.61,1.56-1.12,2.16-1.53a19,19,0,0,0,16.84,9.63h.13a19,19,0,0,0,17-9.63c.61.42,1.32.93,2.15,1.53a5.31,5.31,0,0,0,3.16,1,5.42,5.42,0,0,0,4.76-2.86l1.59,1a5.37,5.37,0,0,0,8.07-3.06A53.15,53.15,0,0,0,228.12,69c0-3.39-.1-10-.59-16.17-.45-5.6.28-10.7,1.05-16.09A96.07,96.07,0,0,0,229.84,23,39.75,39.75,0,0,0,224.7,4.25,8.83,8.83,0,0,0,217.12,0Z"/></g></g></g></g></svg>