<svg xmlns="http://www.w3.org/2000/svg" viewBox="0 0 154.51 185.9"><defs><style>.cls-1{fill:#15514b;}</style></defs><title>temperate_RGB_mark</title><g id="Layer_2" data-name="Layer 2"><g id="Color_Logo" data-name="Color Logo"><g id="Mark"><path id="Thermometer" class="cls-1" d="M81.59,140.54V100a4.29,4.29,0,0,0-4.29-4.27h0A4.29,4.29,0,0,0,73,100v40.58a12.78,12.78,0,0,0-8.52,13.34A13,13,0,0,0,77.08,165.4a12.79,12.79,0,0,0,4.51-24.86Z"/><path id="Head" class="cls-1" d="M154.51,40.77c0-13-4.95-27.8-9.8-35.76a10.51,10.51,0,0,0-15.3-2.88C120.28,9,106,22.52,102.55,29v0a4.28,4.28,0,0,1-3.73,2.29,4.15,4.15,0,0,1-1.5-.26v0a63,63,0,0,0-20-3.17h0a63,63,0,0,0-20,3.17v0a4.15,4.15,0,0,1-1.5.26A4.28,4.28,0,0,1,52,29v0C48.52,22.52,34.23,9,25.1,2.13A10.51,10.51,0,0,0,9.8,5C5,13,0,27.77,0,40.77c0,22.43,6.78,41.6,4.94,64.79C4,116.92,3.73,129.62,3.7,139.62c0,11.24,1.48,21.47,3,26.77a3,3,0,0,0,4.5,1.7L24,160a1.5,1.5,0,0,1,2.31,1.27l.09,6.52a3,3,0,0,0,4.76,2.4c4.21-3,10-7.16,12.19-8.16a1.48,1.48,0,0,1,2,.92c.31,1.06.71,2.37,1,3.12v0c5.35,11.64,15.58,19.89,30.8,19.9h0c15.22,0,25.44-8.26,30.8-19.9v0c.3-.75.7-2.06,1-3.12a1.48,1.48,0,0,1,2.05-.92c2.15,1,8,5.11,12.19,8.16a3,3,0,0,0,4.76-2.4l.09-6.52A1.5,1.5,0,0,1,130.5,160l12.81,8.14a3,3,0,0,0,4.5-1.7c1.52-5.3,3-15.53,3-26.77,0-10-.34-22.7-1.24-34.06C147.72,82.37,154.51,63.2,154.51,40.77ZM22.93,31.51c-5.62,2.43.95,13.65-6.5,14.56C5.05,47.45,8,29,9.86,22.18,12.27,13.23,15,7.5,18.93,7.5c3.65,0,7.41,3.39,15.83,12.52,6.5,7.06,8.82,14.05,4.71,17.23C32.84,42.38,29.54,28.63,22.93,31.51ZM46.25,85.87a6.63,6.63,0,1,1-7.8-7.79A6.63,6.63,0,0,1,46.25,85.87Zm31,88a21.3,21.3,0,0,1-12.83-38.39V58.66a12.84,12.84,0,1,1,25.67,0v76.79a21.3,21.3,0,0,1-12.84,38.39Zm36.21-82.77a6.62,6.62,0,1,1,7.8-7.79A6.63,6.63,0,0,1,113.46,91.07Zm24.62-45c-7.45-.91-.88-12.13-6.5-14.56C125,28.63,121.67,42.38,115,37.25c-4.11-3.18-1.78-10.17,4.72-17.23,8.42-9.13,12.18-12.52,15.83-12.52,3.92,0,6.66,5.73,9.07,14.68C146.48,29,149.46,47.45,138.08,46.07Z"/></g></g></g></svg>