<svg xmlns="http://www.w3.org/2000/svg" viewBox="0 0 171.6 202.99"><defs><style>.cls-1{fill:#fff;}</style></defs><title>temperate_white_mark</title><g id="Layer_2" data-name="Layer 2"><g id="Color_Logo" data-name="Color Logo"><g id="Mark"><path id="Thermometer" class="cls-1" d="M98.63,144V67.21a12.83,12.83,0,1,0-25.66,0V144a21.41,21.41,0,1,0,25.66,0Zm-13,30A13,13,0,0,1,73,162.41a12.8,12.8,0,0,1,8.53-13.34V108.5a4.29,4.29,0,0,1,4.29-4.27h0a4.29,4.29,0,0,1,4.29,4.27v40.57a12.79,12.79,0,0,1-4.51,24.86Z"/><path id="Outline" class="cls-1" d="M144.28,8.57a10.44,10.44,0,0,1,9,5c4.85,8,9.8,22.75,9.8,35.75,0,22.42-6.79,41.58-4.94,64.77.9,11.35,1.21,24.05,1.24,34.05,0,11.24-1.48,21.47-3,26.76a3,3,0,0,1-2.88,2.17,3,3,0,0,1-1.62-.47L139,168.48a1.41,1.41,0,0,0-.8-.24,1.5,1.5,0,0,0-1.5,1.51l-.1,6.52a3,3,0,0,1-3,3,3,3,0,0,1-1.75-.58c-4.2-3-10-7.16-12.18-8.16a1.56,1.56,0,0,0-.63-.14,1.49,1.49,0,0,0-1.42,1.07c-.31,1.06-.71,2.36-1,3.12v0c-5.36,11.64-15.58,19.88-30.8,19.9h0c-15.22,0-25.44-8.26-30.8-19.9v0c-.3-.76-.71-2.06-1-3.12a1.48,1.48,0,0,0-1.42-1.07,1.6,1.6,0,0,0-.63.14c-2.15,1-8,5.12-12.18,8.16a3,3,0,0,1-1.75.58,3,3,0,0,1-3-3l-.09-6.52a1.51,1.51,0,0,0-1.51-1.51,1.41,1.41,0,0,0-.8.24l-12.81,8.13a3,3,0,0,1-1.62.47,3,3,0,0,1-2.88-2.17c-1.52-5.29-3-15.52-3-26.76,0-10,.33-22.7,1.23-34.05,1.85-23.19-4.93-42.35-4.93-64.77,0-13,4.94-27.8,9.79-35.75a10.51,10.51,0,0,1,15.3-2.88c9.13,6.91,23.41,20.38,26.85,26.89v0a4.28,4.28,0,0,0,3.73,2.29h.06a4.32,4.32,0,0,0,1.44-.26v0a63,63,0,0,1,20-3.17h0a63,63,0,0,1,20,3.17v0a4.37,4.37,0,0,0,1.44.26h.06a4.28,4.28,0,0,0,3.73-2.29v0c3.44-6.51,17.72-20,26.85-26.89a10.5,10.5,0,0,1,6.34-2.13M126.53,47c4.26,0,7.27-7.3,11.76-7.3a4.7,4.7,0,0,1,1.83.4c5.61,2.44-1,13.66,6.49,14.56a9.72,9.72,0,0,0,1.17.08c10,0,7.16-17.42,5.4-24-2.41-8.95-5.15-14.68-9.06-14.68-3.66,0-7.42,3.39-15.83,12.52-6.5,7.06-8.83,14-4.72,17.22a4.82,4.82,0,0,0,3,1.16M23.82,54.7A9.72,9.72,0,0,0,25,54.62c7.45-.9.88-12.12,6.5-14.56a4.61,4.61,0,0,1,1.82-.4c4.49,0,7.5,7.3,11.77,7.3a4.81,4.81,0,0,0,3-1.16c4.11-3.18,1.78-10.16-4.72-17.22C34.9,19.45,31.14,16.06,27.49,16.06c-3.92,0-6.66,5.73-9.07,14.68-1.76,6.54-4.6,24,5.4,24m99.48,45a6.62,6.62,0,0,0,1.29-13.12,7.2,7.2,0,0,0-1.29-.12A6.62,6.62,0,0,0,122,99.62a7.23,7.23,0,0,0,1.3.12m-75,0a7.23,7.23,0,0,0,1.3-.12A6.62,6.62,0,0,0,48.3,86.5a7.2,7.2,0,0,0-1.29.12A6.62,6.62,0,0,0,48.3,99.74M144.28,0a19,19,0,0,0-11.51,3.87c-7,5.32-21.06,17.71-27.35,26.66a71,71,0,0,0-19.48-2.65h-.16a71,71,0,0,0-19.6,2.65c-6.29-9-20.32-21.34-27.35-26.66A19.06,19.06,0,0,0,11.05,9.12c-5.32,8.72-11,25-11,40.21C0,59.81,1.38,69.51,2.72,78.9,4.37,90.47,5.92,101.4,5,113.42c-1.06,13.24-1.25,27.43-1.27,34.71C3.66,161,5.47,171.84,7,177.27a11.57,11.57,0,0,0,17.33,6.57l3.42-2.17A11.64,11.64,0,0,0,38,187.81a11.52,11.52,0,0,0,6.78-2.21c1.82-1.32,3.34-2.41,4.62-3.3C57.05,195.43,70,202.9,85.54,203h.27c15.67,0,28.7-7.5,36.41-20.69,1.3.91,2.84,2,4.62,3.3a11.54,11.54,0,0,0,17-3.93l3.42,2.17a11.57,11.57,0,0,0,17.33-6.57c1.55-5.43,3.36-16.32,3.32-29.14,0-7.28-.21-21.47-1.26-34.71-1-12,.6-23,2.24-34.52,1.34-9.39,2.72-19.09,2.72-29.57,0-15.18-5.72-31.49-11-40.21A18.94,18.94,0,0,0,144.28,0Z"/></g></g></g></svg>