<?xml version="1.0" standalone="no"?>
<!DOCTYPE svg PUBLIC "-//W3C//DTD SVG 20010904//EN"
 "http://www.w3.org/TR/2001/REC-SVG-20010904/DTD/svg10.dtd">
<svg version="1.0" xmlns="http://www.w3.org/2000/svg"
 width="1453.000000pt" height="1453.000000pt" viewBox="0 0 1453.000000 1453.000000"
 preserveAspectRatio="xMidYMid meet">
<metadata>
Created by potrace 1.11, written by Peter Selinger 2001-2013
</metadata>
<g transform="translate(0.000000,1453.000000) scale(0.100000,-0.100000)"
fill="#000000" stroke="none">
<path d="M7049 14526 c-2 -2 -56 -7 -119 -10 -156 -9 -262 -19 -440 -42 -134
-17 -176 -22 -210 -29 -14 -2 -43 -7 -65 -10 -38 -5 -274 -49 -325 -60 -14 -4
-36 -8 -50 -11 -14 -3 -45 -10 -70 -15 -25 -6 -52 -12 -60 -14 -8 -2 -44 -11
-80 -20 -36 -9 -69 -18 -75 -20 -35 -8 -84 -21 -185 -52 -63 -18 -122 -36
-130 -38 -136 -34 -586 -203 -783 -294 -37 -17 -70 -31 -73 -31 -8 0 -416
-205 -454 -228 -19 -12 -42 -25 -50 -29 -55 -25 -335 -195 -490 -298 -153
-101 -461 -322 -480 -345 -3 -3 -25 -21 -50 -40 -25 -19 -47 -37 -50 -40 -3
-3 -30 -25 -60 -50 -30 -25 -66 -55 -80 -67 -14 -12 -35 -30 -48 -41 -208
-179 -518 -492 -707 -712 -54 -63 -101 -117 -105 -120 -17 -14 -260 -332 -347
-455 -256 -363 -492 -772 -678 -1180 -54 -118 -145 -336 -145 -348 0 -7 -4
-17 -9 -22 -14 -16 -168 -460 -198 -570 -1 -5 -16 -59 -33 -120 -17 -60 -32
-119 -35 -130 -2 -11 -16 -66 -30 -123 -13 -56 -27 -112 -29 -125 -2 -12 -13
-65 -24 -117 -12 -52 -23 -111 -27 -130 -3 -19 -7 -46 -10 -60 -5 -26 -7 -41
-25 -155 -17 -107 -18 -116 -25 -175 -4 -30 -8 -66 -10 -80 -6 -40 -19 -178
-30 -306 -2 -28 -7 -116 -10 -195 l-7 -144 43 50 c58 68 243 251 304 300 28
22 57 46 65 54 15 14 229 174 266 198 71 47 99 65 179 115 529 329 1238 608
1990 782 6 2 28 6 50 10 22 4 54 12 70 16 17 5 44 11 60 13 17 3 77 15 135 26
58 12 119 24 135 26 17 3 41 8 55 10 14 3 39 7 55 10 17 2 89 13 160 24 72 11
153 23 180 26 28 4 60 8 73 10 13 2 53 7 90 10 37 4 77 8 88 10 22 3 103 12
179 20 22 2 81 7 130 10 50 4 106 9 125 10 19 2 89 7 155 11 66 3 143 8 170
10 77 4 645 14 1205 19 278 3 573 7 655 10 296 8 553 18 790 30 44 2 134 7
200 10 66 3 147 7 180 10 33 2 105 7 160 10 55 3 120 7 145 10 25 3 79 7 120
10 41 3 101 8 132 10 32 3 86 8 120 10 35 3 79 8 98 10 19 2 69 7 110 10 41 4
86 8 100 10 14 2 52 6 85 10 70 7 136 14 185 20 19 3 55 7 80 10 44 5 170 23
220 30 14 2 45 7 70 10 25 3 56 8 70 10 101 16 160 25 190 29 19 3 56 9 83 15
26 6 64 14 85 17 20 3 69 12 107 21 39 8 81 17 95 19 83 16 332 82 434 115
137 45 127 43 121 27 -2 -7 -6 -44 -9 -83 -14 -184 -68 -412 -153 -650 -63
-176 -173 -391 -281 -550 -358 -526 -891 -882 -1579 -1054 -203 -51 -451 -91
-657 -106 -38 -3 -71 -7 -74 -10 -8 -8 67 -95 173 -200 262 -260 574 -464 975
-638 179 -78 485 -169 710 -212 84 -16 164 -29 255 -40 28 -4 61 -8 75 -10
185 -27 836 -27 990 0 14 2 52 6 85 9 92 9 331 43 410 60 11 2 56 11 100 21
341 70 700 221 976 411 263 180 517 440 706 724 194 290 359 684 444 1059 11
48 22 95 24 106 9 36 44 258 51 320 3 33 8 68 10 78 25 134 24 740 -1 917 -2
14 -6 54 -10 90 -3 36 -8 72 -10 80 -2 8 -7 35 -10 60 -25 184 -110 559 -132
581 -22 22 -1057 356 -1283 414 -8 2 -71 20 -140 40 -399 114 -1125 295 -1360
338 -14 3 -83 17 -155 32 -71 15 -139 29 -150 31 -73 14 -134 26 -155 30 -14
2 -36 7 -50 9 -14 3 -42 8 -64 11 -21 3 -48 8 -60 10 -51 10 -139 25 -164 29
-30 4 -94 15 -123 20 -10 2 -69 11 -131 20 -62 9 -124 18 -138 21 -23 3 -197
26 -310 40 -25 3 -54 7 -65 9 -11 2 -49 7 -85 10 -102 9 -162 15 -206 21 -23
3 -70 7 -105 10 -35 2 -82 6 -104 9 -22 3 -85 7 -140 11 -55 3 -116 7 -135 9
-260 26 -1274 27 -1540 1 -19 -2 -78 -7 -130 -11 -52 -3 -104 -8 -115 -10 -11
-2 -51 -7 -90 -10 -74 -6 -101 -9 -230 -25 -44 -6 -98 -13 -120 -16 -22 -2
-51 -7 -65 -9 -14 -3 -38 -7 -55 -9 -96 -15 -226 -38 -265 -46 -25 -5 -61 -12
-80 -15 -19 -4 -75 -15 -125 -27 -49 -11 -108 -24 -130 -29 -173 -35 -715
-195 -810 -238 -11 -5 -56 -23 -100 -40 -586 -219 -1165 -565 -1505 -897 -46
-46 -86 -81 -88 -80 -4 5 131 236 206 351 234 358 553 712 877 970 39 30 87
69 107 86 60 48 283 195 408 269 288 169 595 308 940 423 145 49 388 120 445
130 11 2 38 9 60 15 22 6 51 13 65 16 14 3 57 12 95 20 39 8 81 17 95 19 14 3
63 12 110 21 121 22 151 27 185 32 29 3 95 14 125 19 8 2 44 6 80 10 36 3 76
8 90 10 14 2 54 6 90 10 36 4 79 8 95 10 26 3 84 7 275 20 408 28 1106 19
1550 -20 25 -2 77 -7 115 -10 39 -2 88 -7 110 -9 22 -3 72 -8 110 -12 39 -3
77 -8 85 -9 8 -2 47 -6 85 -10 39 -4 81 -8 95 -10 25 -4 62 -9 160 -21 30 -3
62 -8 70 -9 8 -1 40 -6 70 -10 30 -4 62 -9 70 -10 8 -2 38 -6 65 -9 28 -4 57
-9 65 -11 8 -2 38 -7 65 -10 79 -11 193 -29 241 -39 12 -2 39 -7 60 -10 22 -4
77 -14 124 -22 47 -9 96 -18 110 -20 64 -11 581 -117 630 -129 30 -8 66 -16
80 -18 14 -3 106 -24 205 -47 99 -23 187 -43 196 -45 98 -20 858 -222 902
-240 9 -4 17 -4 17 0 0 24 -418 454 -599 616 -52 46 -99 89 -105 94 -6 6 -49
42 -96 80 -47 38 -87 72 -90 75 -3 3 -34 28 -70 56 -618 484 -1291 863 -1980
1114 -63 23 -124 45 -135 50 -56 24 -492 155 -575 173 -14 3 -45 11 -70 17
-25 7 -56 14 -70 16 -14 3 -38 9 -55 14 -31 10 -313 67 -369 75 -17 2 -74 11
-126 19 -155 24 -220 33 -310 41 -30 3 -66 8 -80 10 -14 2 -63 7 -110 10 -47
4 -103 9 -125 11 -46 6 -841 15 -846 10z"/>
<path d="M3707 8394 c-1 -1 -60 -5 -132 -8 -71 -4 -146 -9 -165 -11 -78 -7
-157 -16 -185 -20 -16 -2 -52 -7 -80 -11 -27 -3 -59 -8 -70 -10 -11 -2 -38 -7
-60 -9 -38 -5 -226 -41 -270 -51 -11 -3 -31 -7 -45 -10 -14 -2 -32 -7 -40 -10
-8 -3 -26 -8 -40 -10 -14 -3 -86 -25 -160 -50 -241 -80 -456 -186 -661 -326
-64 -43 -125 -87 -135 -96 -11 -9 -46 -39 -79 -67 -197 -165 -410 -417 -552
-655 -46 -78 -162 -294 -163 -305 0 -3 -7 -20 -14 -37 -8 -18 -21 -49 -29 -68
-88 -205 -195 -575 -222 -770 -4 -26 -12 -75 -20 -120 -2 -14 -7 -50 -10 -80
-3 -30 -8 -71 -10 -90 -26 -214 -26 -713 -1 -910 2 -14 7 -56 11 -95 4 -38 8
-72 10 -75 1 -3 6 -32 10 -65 5 -47 46 -264 70 -367 16 -69 57 -214 63 -219
13 -12 840 -281 1022 -333 25 -7 165 -48 312 -90 147 -42 276 -79 286 -81 11
-2 50 -12 88 -24 66 -19 258 -69 297 -77 10 -2 27 -6 37 -9 10 -3 27 -8 37
-10 10 -2 101 -24 203 -49 102 -26 196 -49 211 -51 14 -3 85 -18 159 -35 74
-17 145 -33 159 -35 15 -3 35 -7 46 -9 23 -5 319 -64 353 -71 58 -11 141 -25
176 -31 21 -3 48 -8 60 -10 41 -9 132 -24 176 -29 25 -3 52 -8 61 -11 9 -2 34
-7 55 -9 22 -3 64 -10 94 -15 30 -5 72 -12 94 -15 62 -7 117 -15 186 -25 63
-9 110 -15 195 -25 114 -13 227 -25 285 -31 36 -3 72 -7 80 -9 8 -2 62 -6 120
-10 58 -4 113 -9 123 -11 11 -2 67 -6 125 -9 59 -3 136 -8 172 -10 370 -24
1159 -24 1380 0 19 2 80 6 135 10 55 3 111 8 125 10 14 2 61 6 105 10 142 13
342 38 488 61 15 2 42 6 60 9 17 3 43 7 57 10 14 3 41 7 60 10 19 3 46 8 60
10 54 11 76 15 105 21 98 17 299 63 475 108 667 171 1318 457 1810 795 52 36
115 81 140 101 158 127 192 156 255 215 39 36 79 74 89 83 18 16 18 16 6 -8
-36 -70 -163 -277 -238 -389 -299 -446 -703 -846 -1147 -1137 -49 -32 -92 -62
-95 -65 -3 -3 -12 -9 -20 -13 -8 -4 -24 -12 -35 -19 -390 -235 -852 -429
-1310 -552 -33 -9 -67 -18 -75 -20 -32 -9 -131 -33 -170 -41 -14 -3 -63 -14
-110 -24 -47 -10 -101 -22 -120 -25 -19 -3 -71 -12 -115 -20 -92 -17 -325 -51
-405 -60 -30 -4 -66 -8 -80 -10 -25 -4 -77 -9 -215 -20 -38 -3 -90 -8 -115
-10 -274 -26 -1152 -25 -1430 0 -19 2 -82 6 -140 10 -58 4 -116 8 -130 10 -14
2 -56 6 -95 10 -230 20 -254 22 -515 55 -318 40 -308 39 -370 50 -30 5 -73 12
-95 15 -23 3 -52 7 -65 10 -13 3 -42 7 -65 10 -38 6 -162 27 -235 40 -19 4
-69 13 -110 20 -63 11 -463 90 -510 100 -8 1 -91 20 -185 40 -93 20 -177 38
-185 40 -8 2 -85 20 -170 40 -85 20 -162 38 -170 40 -8 2 -62 15 -120 30 -58
15 -113 29 -123 31 -10 2 -27 6 -37 9 -10 3 -27 8 -37 10 -10 2 -36 9 -58 15
-22 6 -47 12 -55 14 -8 2 -76 21 -150 41 -74 20 -169 46 -210 57 -41 11 -83
23 -92 25 -21 6 -23 -3 -6 -21 7 -7 56 -60 108 -117 171 -185 384 -394 550
-537 47 -40 96 -83 110 -96 32 -29 262 -212 315 -252 22 -16 44 -33 50 -37
136 -109 569 -389 765 -495 36 -20 92 -51 125 -69 103 -57 423 -212 557 -269
384 -163 828 -311 1168 -390 234 -53 497 -104 616 -119 27 -4 56 -8 64 -10 8
-2 42 -7 75 -10 33 -4 73 -9 90 -11 16 -3 52 -7 80 -9 27 -3 77 -7 110 -11
115 -10 151 -13 290 -20 241 -13 857 -6 943 11 10 1 60 6 112 10 52 4 103 9
112 10 9 2 48 7 85 10 37 4 83 11 102 15 19 5 37 8 40 5 4 -2 27 0 51 5 25 5
63 11 85 14 76 12 160 27 205 36 25 5 56 12 70 14 14 2 59 12 100 21 41 9 86
18 100 21 14 2 61 14 105 25 44 12 91 23 104 25 14 3 28 7 33 10 5 3 19 7 33
10 91 16 488 146 712 233 434 168 904 403 1248 626 246 159 578 392 605 424 3
4 25 22 50 41 258 200 707 626 941 895 183 211 415 510 534 690 22 33 43 62
46 65 25 23 268 428 369 615 298 556 557 1253 676 1815 6 28 11 54 19 88 3 12
7 32 10 45 7 30 62 343 69 387 3 19 8 58 12 85 3 28 8 59 10 70 2 10 6 49 10
85 3 36 7 75 9 87 2 12 6 61 10 110 4 48 8 102 10 118 2 17 7 97 11 180 l7
149 -50 -59 c-192 -231 -536 -504 -913 -725 -158 -93 -454 -241 -630 -315 -74
-31 -148 -62 -165 -69 -16 -8 -61 -25 -100 -39 -557 -205 -1120 -345 -1775
-441 -14 -3 -47 -7 -75 -11 -27 -3 -63 -8 -80 -10 -16 -3 -66 -9 -110 -14 -73
-9 -105 -13 -235 -26 -80 -8 -164 -15 -230 -20 -36 -2 -99 -7 -140 -10 -313
-22 -440 -25 -1035 -30 -517 -3 -1030 -12 -1264 -20 -401 -14 -778 -31 -901
-40 -30 -2 -104 -7 -165 -11 -60 -4 -126 -8 -145 -9 -19 -2 -80 -6 -135 -9
-55 -4 -116 -9 -135 -11 -19 -2 -74 -7 -122 -10 -48 -3 -97 -8 -109 -10 -12
-3 -58 -7 -103 -11 -45 -3 -94 -7 -111 -9 -117 -12 -173 -18 -190 -21 -11 -2
-47 -6 -80 -9 -33 -3 -71 -7 -85 -10 -14 -2 -47 -7 -75 -10 -27 -3 -59 -7 -70
-9 -12 -2 -48 -7 -80 -11 -33 -4 -69 -9 -79 -11 -11 -2 -56 -8 -100 -15 -67
-9 -215 -34 -326 -55 -14 -2 -41 -7 -60 -10 -19 -3 -82 -16 -140 -29 -58 -13
-116 -26 -130 -28 -53 -10 -230 -59 -332 -93 -59 -20 -111 -35 -115 -34 -9 2
-9 20 0 100 11 96 19 143 34 215 8 39 16 79 18 90 5 38 66 238 101 334 96 261
285 587 443 766 357 403 796 671 1345 820 92 25 108 29 159 40 12 2 42 9 67
15 25 5 88 17 140 25 52 9 105 18 117 20 12 2 57 7 100 10 43 4 87 9 97 11 11
2 44 4 73 5 29 1 53 6 53 10 0 30 -243 277 -365 370 -16 13 -32 26 -35 29 -12
15 -192 142 -268 189 -212 132 -477 256 -717 336 -104 35 -375 107 -440 118
-16 3 -73 13 -125 22 -141 24 -165 28 -305 41 -142 13 -578 27 -588 18z"/>
</g>
</svg>
