<svg xmlns="http://www.w3.org/2000/svg" viewBox="0 0 857.04 434.36"><defs><style>.cls-1{fill:#464f77;}.cls-2{fill:#fff;}.cls-3{fill:#718cff;}</style></defs><title>rasterfoundry_RGB_centered</title><g id="Layer_2" data-name="Layer 2"><g id="Layer_1-2" data-name="Layer 1"><path class="cls-1" d="M15.61,369.81v34.31H0V307.79H36.56q32.63,0,32.63,30.66,0,20.54-15.75,27.84l15.89,37.83H52.17L38.25,369.81Zm37.55-31.22q0-17.29-16.6-17.3h-21v35H36.84q8.43,0,12.38-4.85C51.84,348.22,53.16,343.94,53.16,338.59Z"/><path class="cls-1" d="M131.44,355.47v32.06a6.65,6.65,0,0,0,1.62,4.57,7.84,7.84,0,0,0,4.56,1.9l-.41,11.67q-12.11,0-18.71-5.2a53.45,53.45,0,0,1-22.64,5.2q-21,0-21-22.36,0-10.68,5.7-15.47t17.5-5.77l18.14-1.54v-5.06q0-5.62-2.46-7.88t-7.24-2.25q-9,0-22.5,1.12l-4.5.28L79,335.92a122.13,122.13,0,0,1,28.19-3.66q12.87,0,18.57,5.56T131.44,355.47ZM99.94,372.9q-9.7.86-9.7,10.55t8.57,9.71a54.36,54.36,0,0,0,14.91-2.26l2.53-.84V371.35Z"/><path class="cls-1" d="M195.9,348.29q-16.59-2.24-24.05-2.24t-10.33,1.75a6,6,0,0,0-2.88,5.55,5.46,5.46,0,0,0,3.16,5.35q3.16,1.55,14.91,3.59t16.67,6.39q4.91,4.36,4.91,15.48t-7.1,16.31q-7.09,5.2-20.74,5.2a125.24,125.24,0,0,1-21.66-2.39l-4.35-.71.56-12.79Q161.88,392,169.33,392t10.61-1.83a6.44,6.44,0,0,0,3.17-6c0-2.82-1-4.76-3-5.84s-6.84-2.25-14.48-3.51-13.25-3.27-16.81-6-5.34-7.69-5.34-14.91,2.46-12.61,7.38-16.17,11.23-5.35,18.92-5.35a134.83,134.83,0,0,1,22.07,2.25l4.36.85Z"/><path class="cls-1" d="M247,346.88h-19.4v30.94q0,8.6,1.26,11.39c.85,1.88,3,2.82,6.48,2.82l11.52-.42.71,12.23a81.82,81.82,0,0,1-14.35,1.83q-11.94,0-16.38-5.48t-4.43-20.68V346.88h-9V333.81h9V313.42h15.19v20.39H247Z"/><path class="cls-1" d="M305.05,391.46l3.94-.41.28,11.38a145.41,145.41,0,0,1-28.41,3.24q-15.6,0-22.43-8.58t-6.82-27.42q0-37.41,30.52-37.41,29.53,0,29.53,32.2l-1,11h-43.6q.14,8.73,3.8,12.8t13.64,4.08Q294.51,392.31,305.05,391.46Zm-8.44-27.84q0-10.41-3.3-14.56t-11.18-4.14q-7.87,0-11.46,4.36t-3.73,14.34Z"/><path class="cls-1" d="M321.51,404.12V333.81h15.18v8.44a67,67,0,0,1,23.91-10v15.33a99.46,99.46,0,0,0-20.68,6.19L336.83,355v49.08Z"/><path class="cls-1" d="M399.41,404.12V307.79h59.76v13.65H415v32.48h36.7v13.64H415v36.56Z"/><path class="cls-1" d="M469.42,341.41q7.24-9.15,24.12-9.15t24.12,9.15q7.25,9.12,7.24,27.42t-7,27.56q-7,9.27-24.33,9.28t-24.33-9.28q-7-9.28-7-27.56T469.42,341.41Zm11.47,45.7q3.23,5.61,12.65,5.62t12.66-5.62q3.23-5.62,3.23-18.43T506,350.54q-3.44-5.34-12.44-5.34c-6,0-10.14,1.78-12.45,5.34s-3.44,9.62-3.44,18.14S478.72,383.36,480.89,387.11Z"/><path class="cls-1" d="M578,333.81h15.19v70.31H578v-4.36q-10.28,5.91-19,5.91-14.47,0-19.4-7.81t-4.93-27.35v-36.7h15.34v36.85q0,12.64,2.1,17T562,392a33.82,33.82,0,0,0,13.92-2.82l2.11-.84Z"/><path class="cls-1" d="M622,404.12H606.62V333.81H621.8v4.36q10.28-5.91,19.41-5.91,14.06,0,19.2,7.95t5.13,26.23v37.68H650.35V366.86c0-7.6-.82-13-2.46-16.18s-5-4.78-10-4.78a34.87,34.87,0,0,0-13.78,2.81l-2.11.85Z"/><path class="cls-1" d="M736.35,304.56v99.56H721.17v-3.65q-10.27,5.2-18.84,5.2-13.79,0-20.19-8.3t-6.39-27.84q0-19.54,7.09-28.41T705,332.26a109.52,109.52,0,0,1,16,1.83V304.56Zm-17.71,84.93,2.39-1V346.88a96.26,96.26,0,0,0-15.61-1.4q-14.2,0-14.21,23.63,0,12.94,3.31,17.93T705,392A36.88,36.88,0,0,0,718.64,389.49Z"/><path class="cls-1" d="M749.76,404.12V333.81h15.18v8.44a67.06,67.06,0,0,1,23.91-10v15.33a99.17,99.17,0,0,0-20.67,6.19l-3.1,1.26v49.08Z"/><path class="cls-1" d="M793.2,333.81h15l14.91,57.24h3.79l14.91-57.24H857L830.32,434.36H815.27l8.44-30.24H811.62Z"/><rect class="cls-1" x="302.52" width="238" height="238" rx="4.38" ry="4.38"/><rect class="cls-2" x="359.63" y="29.74" width="39.98" height="41.72"/><rect class="cls-2" x="403.1" y="29.74" width="39.97" height="41.72"/><rect class="cls-3" x="446.56" y="74.94" width="39.97" height="41.71"/><polygon class="cls-3" points="446.56 29.74 446.56 71.47 486.53 71.47 446.56 29.74"/><polygon class="cls-3" points="446.56 161.85 486.53 161.85 446.56 120.14 446.56 161.85"/><rect class="cls-2" x="403.1" y="120.13" width="39.97" height="41.71"/><rect class="cls-3" x="446.56" y="165.33" width="39.97" height="41.72"/><rect class="cls-2" x="359.63" y="74.94" width="39.98" height="41.71"/><rect class="cls-2" x="359.63" y="120.13" width="39.98" height="41.71"/><rect class="cls-2" x="359.63" y="165.33" width="39.98" height="41.72"/></g></g></svg>