<svg xmlns="http://www.w3.org/2000/svg" viewBox="0 0 311 311"><defs><style>.cls-1{fill:#353b59;}.cls-2{fill:#fff;}.cls-3{fill:#7484c1;}</style></defs><title>rasterfoundry_RGB_mark</title><g id="Layer_2" data-name="Layer 2"><g id="Layer_1-2" data-name="Layer 1"><path class="cls-1" d="M311,305.1a6,6,0,0,1-5.81,5.9H6A6.11,6.11,0,0,1,0,305.1V5.86A6.08,6.08,0,0,1,6,0H305.19A6,6,0,0,1,311,5.86Z"/><rect class="cls-2" x="75.2" y="36.04" width="51.87" height="54.13"/><rect class="cls-2" x="131.6" y="36.04" width="51.86" height="54.13"/><rect class="cls-3" x="187.97" y="94.68" width="51.86" height="54.13"/><polygon class="cls-3" points="187.97 36.04 187.97 90.18 239.83 90.18 187.97 36.04"/><polygon class="cls-3" points="187.97 207.44 239.83 207.44 187.97 153.32 187.97 207.44"/><rect class="cls-2" x="131.6" y="153.32" width="51.86" height="54.12"/><rect class="cls-3" x="187.97" y="211.96" width="51.86" height="54.13"/><rect class="cls-2" x="75.2" y="94.68" width="51.87" height="54.13"/><rect class="cls-2" x="75.2" y="153.32" width="51.87" height="54.12"/><rect class="cls-2" x="75.2" y="211.96" width="51.87" height="54.13"/></g></g></svg>