<svg xmlns="http://www.w3.org/2000/svg" viewBox="0 0 107.87 18.18"><defs><style>.cls-1{fill:#fff;}</style></defs><title>climateAPI_white</title><g id="Layer_2" data-name="Layer 2"><g id="Layer_1-2" data-name="Layer 1"><path class="cls-1" d="M8.36,13.64A2.58,2.58,0,0,0,11.12,11h5.25c-.13,3.94-2.92,7.14-7.91,7.14C2.74,18.18,0,15,0,10.24V7.94C0,3.2,2.74,0,8.46,0c5,0,7.78,3.2,7.91,7.14H11.12A2.58,2.58,0,0,0,8.36,4.55c-1.9,0-2.81,1.22-2.81,3.14v2.8C5.55,12.41,6.46,13.64,8.36,13.64Z"/><path class="cls-1" d="M18.46.35H24V13.29h7.2v4.54H18.46Z"/><path class="cls-1" d="M33,17.83h5.55V.35H33Z"/><path class="cls-1" d="M59.61,17.83H54.34V10.64l-1.82,3.5H48.36l-1.82-3.5v7.19H41.27V.35h5.07l4.1,8.54L54.55.35h5.06Z"/><path class="cls-1" d="M82.71,5H78.25V.35H92.74V5H88.26V17.83H82.71Z"/><path class="cls-1" d="M94.44.35h13.4V4.84H100v1.9h7.09v4.5H100v2.1h7.88v4.49H94.44Z"/><path class="cls-1" d="M74.4,13.89a.33.33,0,0,1-.29.18H67.94a.31.31,0,0,1-.28-.18.38.38,0,0,1,0-.36l3.09-5.41a.31.31,0,0,1,.55,0l3.09,5.41a.41.41,0,0,1,0,.36m6.24,2.5L71.82.81a.9.9,0,0,0-1.59,0L61.41,16.39a1.11,1.11,0,0,0,0,1,.94.94,0,0,0,.82.52H79.84a.94.94,0,0,0,.82-.52,1.11,1.11,0,0,0,0-1"/></g></g></svg>