<svg xmlns="http://www.w3.org/2000/svg" viewBox="0 0 663.77 98.81"><defs><style>.cls-1,.cls-2{fill:#fff;}.cls-1{opacity:0.7;}</style></defs><title>opendataphilly_white</title><g id="Layer_2" data-name="Layer 2"><g id="Layer_1-2" data-name="Layer 1"><path class="cls-1" d="M90.54,20.09A11.69,11.69,0,0,0,78.85,8.4H20.24A11.7,11.7,0,0,0,8.54,20.09V78.71A11.69,11.69,0,0,0,20.24,90.4H78.85A11.69,11.69,0,0,0,90.54,78.71Zm-40,61A31.43,31.43,0,1,1,81.94,49.63,31.43,31.43,0,0,1,50.52,81.05Z"/><path class="cls-1" d="M78,7.7a11.68,11.68,0,0,0-15-7L7.7,20.83a11.69,11.69,0,0,0-7,15L20.83,91.11a11.69,11.69,0,0,0,15,7L91.11,78a11.69,11.69,0,0,0,7-15ZM60.51,78.81A31.43,31.43,0,1,1,79.29,38.53,31.42,31.42,0,0,1,60.51,78.81Z"/><path class="cls-2" d="M146.67,71.68c-15.26,0-25.27-12.17-25.27-25.92v-.15c0-13.75,10.15-26.06,25.42-26.06s25.27,12.17,25.27,25.92c.07.07.07.07,0,.14C172.09,59.37,161.94,71.68,146.67,71.68ZM168.2,45.61c0-12.45-9.07-22.68-21.53-22.68S125.29,33,125.29,45.47v.14c0,12.46,9.07,22.69,21.53,22.69S168.2,58.21,168.2,45.76Z"/><path class="cls-2" d="M202.69,71.68c-7.35,0-12.1-4.18-15.12-8.78V82.34H184V34.09h3.53V42.3c3.17-4.82,7.85-9.07,15.12-9.07,8.86,0,17.86,7.13,17.86,19.08v.14C220.55,64.41,211.55,71.68,202.69,71.68Zm14-19.23c0-9.64-6.7-15.84-14.4-15.84a15.39,15.39,0,0,0-15,15.77v.15a15.34,15.34,0,0,0,15,15.77c8,0,14.4-5.84,14.4-15.7Z"/><path class="cls-2" d="M247.18,68.37a16.48,16.48,0,0,0,12.6-5.76l2.45,2.16c-3.74,4-8.13,6.91-15.19,6.91-9.65,0-18-7.7-18-19.15v-.15c0-10.65,7.49-19.15,17.42-19.15,10.3,0,16.85,8.35,16.85,19.22v.15a8.41,8.41,0,0,1-.07,1.29H232.78C233.43,63,240,68.37,247.18,68.37ZM259.5,50.73c-.51-7.42-4.76-14.26-13.18-14.26-7.27,0-12.89,6.12-13.54,14.26Z"/><path class="cls-2" d="M301.54,70.82V49c0-7.56-4.24-12.53-11.66-12.53-7.2,0-12.75,5.47-12.75,13.1V70.82h-3.52V34.09h3.52v6.84a14.39,14.39,0,0,1,13.25-7.7c9.29,0,14.69,6.34,14.69,15.12V70.82Z"/><path class="cls-2" d="M335.31,70.82H318.53V20.41h16.78c15.84,0,26.79,10.88,26.79,25.06v.14C362.1,59.8,351.15,70.82,335.31,70.82Zm22.9-25.21c0-12-8.86-21.74-22.9-21.74h-13V67.36h13c14,0,22.9-9.58,22.9-21.6Z"/><path class="cls-2" d="M399.25,70.82V64.7a16.72,16.72,0,0,1-14,7c-6.84,0-14.19-3.89-14.19-11.52V60c0-7.64,6.55-12,16.06-12a44,44,0,0,1,12.17,1.59V48.06c0-7.41-4.54-11.23-12.1-11.23a24.61,24.61,0,0,0-11.52,3l-1.3-3.09a29.46,29.46,0,0,1,13-3.17c9.43,0,15.33,4.89,15.33,14.4v22.9Zm.07-17.93a48.33,48.33,0,0,0-12.46-1.66c-7.77,0-12.09,3.46-12.09,8.57v.14c0,5.33,5,8.43,10.65,8.43,7.49,0,13.9-4.61,13.9-11.31Z"/><path class="cls-2" d="M427.26,71.46c-5.69,0-10.3-3.09-10.3-10.08V37.33h-5.33V34.09H417V22.36h3.53V34.09h12.89v3.24H420.49V61c0,5.26,3.09,7.13,7.34,7.13a12.38,12.38,0,0,0,5.4-1.29v3.31A13.51,13.51,0,0,1,427.26,71.46Z"/><path class="cls-2" d="M469,70.82V64.7a16.73,16.73,0,0,1-14,7c-6.84,0-14.18-3.89-14.18-11.52V60c0-7.64,6.55-12,16.06-12A44,44,0,0,1,469,49.65V48.06c0-7.41-4.54-11.23-12.1-11.23a24.55,24.55,0,0,0-11.52,3l-1.3-3.09a29.42,29.42,0,0,1,13-3.17c9.44,0,15.34,4.89,15.34,14.4v22.9Zm.07-17.93a48.33,48.33,0,0,0-12.46-1.66c-7.78,0-12.1,3.46-12.1,8.57v.14c0,5.33,5,8.43,10.66,8.43,7.49,0,13.9-4.61,13.9-11.31Z"/><path class="cls-2" d="M503.29,52H489.68v18.8h-3.75V20.41h18.29c11.09,0,18.72,5.69,18.72,15.41V36C522.94,46.55,513.8,52,503.29,52ZM519.2,36c0-8-6.19-12.17-15.27-12.17H489.68v24.7H503.5c9.36,0,15.7-4.9,15.7-12.39Z"/><path class="cls-2" d="M561.18,70.82V49c0-7.56-4.25-12.53-11.67-12.53-7.2,0-12.74,5.47-12.74,13.1V70.82h-3.53V18.25h3.53V40.93A14.36,14.36,0,0,1,550,33.23c9.29,0,14.69,6.34,14.69,15.12V70.82Z"/><path class="cls-2" d="M577.44,24.52V19.69h4.4v4.83Zm.44,46.3V34.09h3.52V70.82Z"/><path class="cls-2" d="M595.8,70.82V18.25h3.53V70.82Z"/><path class="cls-2" d="M613.73,70.82V18.25h3.53V70.82Z"/><path class="cls-2" d="M647.86,72.11c-3.24,7.71-7,10.44-12.24,10.44A16.48,16.48,0,0,1,628.35,81l1.22-3.1a12.78,12.78,0,0,0,6.27,1.37c3.81,0,6.33-2.23,9.07-8.64L627.27,34.09h4.1l15.27,32.84,13.24-32.84h3.89Z"/></g></g></svg>