<svg xmlns="http://www.w3.org/2000/svg" xmlns:xlink="http://www.w3.org/1999/xlink" viewBox="0 0 212.44 115.47"><defs><style>.cls-1,.cls-2{fill:none;}.cls-1{clip-rule:evenodd;}.cls-3{clip-path:url(#clip-path);}.cls-4{clip-path:url(#clip-path-2);}.cls-5,.cls-7,.cls-9{fill:#0bb671;}.cls-5{opacity:0.3;}.cls-6{clip-path:url(#clip-path-3);}.cls-7{opacity:0.5;}.cls-8{clip-path:url(#clip-path-5);}.cls-10{clip-path:url(#clip-path-7);}.cls-11{clip-path:url(#clip-path-9);}.cls-12{clip-path:url(#clip-path-11);}.cls-13{clip-path:url(#clip-path-13);}.cls-14{clip-path:url(#clip-path-15);}.cls-15{clip-path:url(#clip-path-17);}.cls-16{clip-path:url(#clip-path-19);}.cls-17{fill:#fff;}.cls-18{clip-path:url(#clip-path-21);}.cls-19{fill:#00b5af;}</style><clipPath id="clip-path" transform="translate(5.79 7)"><path class="cls-1" d="M0,35.28,3.17,12.69c1.09-7.75,22-11.23,46.65-7.76q3,.42,5.81.94L52.46,28.45c-1.9-.34-3.84-.66-5.81-.93C22.22,24.08,1.51,27.45,0,35.05Z"/></clipPath><clipPath id="clip-path-2" transform="translate(5.79 7)"><rect class="cls-2" x="-84" y="-388" width="1104" height="598"/></clipPath><clipPath id="clip-path-3" transform="translate(5.79 7)"><path class="cls-1" d="M0,36.68,1.19,13.9C1.6,6.08,22.24.81,47.29,2.12q3,.17,5.91.43L52,25.33c-1.93-.18-3.91-.33-5.91-.43C21.3,23.6.82,28.75,0,36.44Z"/></clipPath><clipPath id="clip-path-5" transform="translate(5.79 7)"><path class="cls-1" d="M0,36.67V14.06C0,6.29,20.2,0,45.12,0q3,0,5.88.12V22.73q-2.89-.12-5.88-.12C20.45,22.61.4,28.78,0,36.43Z"/></clipPath><clipPath id="clip-path-7" transform="translate(5.79 7)"><path class="cls-1" d="M0,67,4,44.29c1.38-7.8,16.53-11.66,33.85-8.6,1.39.24,2.75.52,4.07.84l-4,22.74c-1.32-.32-2.68-.6-4.06-.84-17.15-3-32.18.72-33.81,8.37Z"/></clipPath><clipPath id="clip-path-9" transform="translate(5.79 7)"><path class="cls-1" d="M0,67.82l2-23c.69-7.9,15.29-13.07,32.61-11.56q2.07.2,4.08.48l-2,23q-2-.29-4.08-.48C15.46,54.76,1,59.82,0,67.58Z"/></clipPath><clipPath id="clip-path-11" transform="translate(5.79 7)"><path class="cls-1" d="M0,68.58V45.41C0,37.45,14.26,31,31.85,31c1.4,0,2.79,0,4.15.12V54.3c-1.36-.08-2.75-.13-4.15-.13C14.43,54.17.29,60.49,0,68.34Z"/></clipPath><clipPath id="clip-path-13" transform="translate(5.79 7)"><path class="cls-1" d="M0,99.15,4,76.56C5.35,68.8,14.4,63.92,24.19,65.64c.78.14,1.55.32,2.29.53l-4,22.59c-.75-.21-1.51-.39-2.3-.53-9.67-1.7-18.62,3-20.15,10.65Z"/></clipPath><clipPath id="clip-path-15" transform="translate(5.79 7)"><path class="cls-1" d="M0,99.25,2,76.4c.69-7.85,9.18-13.51,19-12.66a21.4,21.4,0,0,1,2.31.33l-2,22.85A21.41,21.41,0,0,0,19,86.6C9.29,85.75.89,91.27,0,99Z"/></clipPath><clipPath id="clip-path-17" transform="translate(5.79 7)"><path class="cls-1" d="M0,99.34v-23C0,68.41,7.92,62,17.69,62a21.91,21.91,0,0,1,2.31.12v23A21.91,21.91,0,0,0,17.69,85C8,85,.19,91.28,0,99.06Z"/></clipPath><clipPath id="clip-path-19" transform="translate(5.79 7)"><path class="cls-2" d="M201.65,55h-5l-7.34-16.32V55h-5V30.12h5l7.36,16.34V30.12h5ZM180,55h-5V30.12h5Zm-17-4.17h8.82V55H158V30.12h5ZM145.68,45.4l-2,2.49V55h-5V30.12h5V41l1.59-2.68,4.63-8.17h6.15l-7.13,10.93,7.25,14h-6Zm-11,9.6h-5l-7.35-16.32V55h-5V30.12h5l7.36,16.34V30.12h5Zm-32.18-9.28h4.65l-2.33-8.87Zm5.76,4.19h-6.85L100,55H94.72l7.77-24.88h4.6L114.92,55h-5.37ZM82,41.72h2.86a2.62,2.62,0,0,0,2.25-1,4.36,4.36,0,0,0,.76-2.67q0-3.75-2.93-3.75H82Zm2.5,4.19H82V55H77V30.12h8a8.16,8.16,0,0,1,5.84,1.95,7.33,7.33,0,0,1,2.06,5.57q0,4.95-3.61,6.94l4.36,10.18V55h-5.4ZM73.15,44.85H65.34V55h-5V30.12H74.09V34.3H65.34v6.38h7.81Z"/></clipPath><clipPath id="clip-path-21" transform="translate(5.79 7)"><path class="cls-2" d="M201.31,73h-1.79V59.49h1.79Zm-13.72-6.74h3.2a3.21,3.21,0,0,0,2.19-.68,2.44,2.44,0,0,0,.76-1.94,2.53,2.53,0,0,0-.76-1.93,3,3,0,0,0-2.09-.75h-3.3Zm0,1.45V73h-1.78V59.49h5a5,5,0,0,1,3.47,1.13,3.85,3.85,0,0,1,1.26,3,3.79,3.79,0,0,1-1.23,3,5.21,5.21,0,0,1-3.52,1.06Zm-13.44.3h4.59l-2.3-6.32Zm5.12,1.46h-5.66L172.34,73h-1.83l5.15-13.51h1.56L182.39,73h-1.83Zm-17.79-.76A5,5,0,0,1,159.9,72a5.18,5.18,0,0,1-3.54,1.17,4.77,4.77,0,0,1-3.84-1.72,6.91,6.91,0,0,1-1.44-4.59v-1.3a7.64,7.64,0,0,1,.67-3.31,5,5,0,0,1,1.91-2.2,5.29,5.29,0,0,1,2.86-.76,4.9,4.9,0,0,1,3.45,1.2,5,5,0,0,1,1.51,3.32h-1.79a3.86,3.86,0,0,0-1-2.33,3,3,0,0,0-2.16-.73A3.2,3.2,0,0,0,153.84,62a5.79,5.79,0,0,0-1,3.59v1.31a6,6,0,0,0,.92,3.5,3,3,0,0,0,2.57,1.3,3.48,3.48,0,0,0,2.28-.67,3.77,3.77,0,0,0,1.05-2.35ZM147,71.23a4.13,4.13,0,0,1-1.91,1.47,7.82,7.82,0,0,1-2.86.49,5.51,5.51,0,0,1-2.93-.78,5.19,5.19,0,0,1-2-2.2,7.68,7.68,0,0,1-.71-3.31V65.72A7.09,7.09,0,0,1,138,61a5,5,0,0,1,4-1.68,5.14,5.14,0,0,1,3.41,1.08A4.68,4.68,0,0,1,147,63.45h-1.78A2.94,2.94,0,0,0,142,60.77,3.14,3.14,0,0,0,139.29,62a6.06,6.06,0,0,0-.93,3.64v1.1a5.73,5.73,0,0,0,1,3.62,3.36,3.36,0,0,0,2.81,1.34,6.53,6.53,0,0,0,1.75-.22,2.68,2.68,0,0,0,1.24-.76v-3h-3.12V66.27H147Zm-16-5.42a6,6,0,0,0-1-3.69,3.19,3.19,0,0,0-2.7-1.28,3.15,3.15,0,0,0-2.65,1.28,5.94,5.94,0,0,0-1,3.57v1a6,6,0,0,0,1,3.66,3.43,3.43,0,0,0,5.36.08,6.06,6.06,0,0,0,1-3.61Zm1.77.87a8.3,8.3,0,0,1-.67,3.47,5,5,0,0,1-1.89,2.26,5.22,5.22,0,0,1-7.6-2.24,7.92,7.92,0,0,1-.7-3.37v-1a8.25,8.25,0,0,1,.67-3.44,5,5,0,0,1,4.75-3.08,5.28,5.28,0,0,1,2.87.78,5,5,0,0,1,1.9,2.27,8.36,8.36,0,0,1,.67,3.47ZM113,74.16h-1.47l5.64-14.67h1.46Zm-4.1-5.45A5,5,0,0,1,107.3,72a5.18,5.18,0,0,1-3.54,1.17,4.77,4.77,0,0,1-3.84-1.72,6.91,6.91,0,0,1-1.44-4.59v-1.3a7.64,7.64,0,0,1,.67-3.31,5,5,0,0,1,1.91-2.2,5.28,5.28,0,0,1,2.85-.76,4.91,4.91,0,0,1,3.46,1.2,5,5,0,0,1,1.51,3.32h-1.79a3.86,3.86,0,0,0-1-2.33,3,3,0,0,0-2.17-.73A3.18,3.18,0,0,0,101.24,62a5.79,5.79,0,0,0-1,3.59v1.31a5.9,5.9,0,0,0,.92,3.5,3,3,0,0,0,2.57,1.3,3.43,3.43,0,0,0,2.27-.67,3.77,3.77,0,0,0,1.06-2.35ZM87.39,68H92l-2.3-6.32Zm5.12,1.46H86.85L85.58,73H83.74L88.9,59.49h1.56L95.63,73H93.8ZM82.18,61H77.84V73H76.06V61H71.73V59.49H82.18Zm-18,6.1L64,67a8.37,8.37,0,0,1-3.33-1.62,3.08,3.08,0,0,1-1-2.37,3.28,3.28,0,0,1,1.28-2.64,5.05,5.05,0,0,1,3.32-1,5.68,5.68,0,0,1,2.48.53,4.1,4.1,0,0,1,1.69,1.49,3.79,3.79,0,0,1,.6,2.07H67.15a2.47,2.47,0,0,0-.78-1.93,3.23,3.23,0,0,0-2.2-.7,3.3,3.3,0,0,0-2.06.58A2,2,0,0,0,61.37,63a1.75,1.75,0,0,0,.71,1.4,6.15,6.15,0,0,0,2.11,1l.27.08a11.16,11.16,0,0,1,2.63,1,3.87,3.87,0,0,1,1.41,1.33A3.34,3.34,0,0,1,69,69.57a3.15,3.15,0,0,1-1.28,2.63,5.43,5.43,0,0,1-3.42,1,6.31,6.31,0,0,1-2.6-.54,4.36,4.36,0,0,1-1.86-1.46,3.61,3.61,0,0,1-.65-2.11h1.79a2.33,2.33,0,0,0,.9,1.94,3.85,3.85,0,0,0,2.42.71,3.45,3.45,0,0,0,2.16-.58,2,2,0,0,0,.06-3.1A7.62,7.62,0,0,0,64.23,67.06Z"/></clipPath></defs><g id="Layer_2" data-name="Layer 2"><g id="Layer_1-2" data-name="Layer 1"><g class="cls-3"><g class="cls-4"><rect class="cls-5" x="4.33" y="-9.99" width="46.99" height="61" transform="translate(9.43 52.21) rotate(-82)"/></g></g><g class="cls-6"><g class="cls-4"><rect class="cls-7" x="3.11" y="-11.12" width="46.99" height="61.34" transform="translate(11.48 52.09) rotate(-87)"/></g></g><g class="cls-8"><g class="cls-4"><rect class="cls-9" x="0.79" y="2" width="61" height="46.67"/></g></g><g class="cls-10"><g class="cls-4"><rect class="cls-5" x="-2.74" y="28.72" width="47.44" height="46" transform="translate(-27.81 70.39) rotate(-80)"/></g></g><g class="cls-11"><g class="cls-4"><rect class="cls-7" x="-4.37" y="27.93" width="47.44" height="45.58" transform="translate(-27.07 72.58) rotate(-85)"/></g></g><g class="cls-12"><g class="cls-4"><rect class="cls-9" x="0.79" y="33" width="46" height="47.58"/></g></g><g class="cls-13"><g class="cls-4"><rect class="cls-5" x="-10.35" y="67.43" width="47.2" height="30.35" transform="translate(-64.6 88.3) rotate(-80)"/></g></g><g class="cls-14"><g class="cls-4"><rect class="cls-7" x="-11.96" y="66.54" width="47.2" height="30.11" transform="matrix(0.09, -1, 1, 0.09, -64.87, 93.08)"/></g></g><g class="cls-15"><g class="cls-4"><rect class="cls-9" x="0.79" y="64" width="30" height="47.34"/></g></g><g class="cls-16"><g class="cls-4"><rect class="cls-17" x="61.11" y="32.11" width="151.33" height="34.88"/></g></g><g class="cls-18"><g class="cls-4"><rect class="cls-19" x="59.94" y="61.3" width="152.16" height="24.85"/></g></g></g></g></svg>