<svg xmlns="http://www.w3.org/2000/svg" xmlns:xlink="http://www.w3.org/1999/xlink" viewBox="0 0 197.44 80.13"><defs><style>.cls-1,.cls-2{fill:none;}.cls-1{clip-rule:evenodd;}.cls-3{clip-path:url(#clip-path);}.cls-4{clip-path:url(#clip-path-2);}.cls-5,.cls-7,.cls-9{fill:#0bb671;}.cls-5{opacity:0.3;}.cls-6{clip-path:url(#clip-path-3);}.cls-7{opacity:0.5;}.cls-8{clip-path:url(#clip-path-5);}.cls-10{clip-path:url(#clip-path-7);}.cls-11{clip-path:url(#clip-path-9);}.cls-12{clip-path:url(#clip-path-11);}.cls-13{clip-path:url(#clip-path-13);}.cls-14{clip-path:url(#clip-path-15);}.cls-15{clip-path:url(#clip-path-17);}.cls-16{clip-path:url(#clip-path-19);}.cls-17{fill:#104e64;}</style><clipPath id="clip-path" transform="translate(5.79 6.54)"><path class="cls-1" d="M0,23.29,2.1,8.38C2.82,3.26,16.61,1,32.9,3.26c1.3.18,2.58.39,3.84.61l-2.1,14.92c-1.25-.23-2.53-.44-3.84-.62C14.67,15.9,1,18.13,0,23.14Z"/></clipPath><clipPath id="clip-path-2" transform="translate(5.79 6.54)"><rect class="cls-2" x="-833" y="-106.32" width="1104" height="598"/></clipPath><clipPath id="clip-path-3" transform="translate(5.79 6.54)"><path class="cls-1" d="M0,24.22l.79-15C1.06,4,14.69.53,31.23,1.4c1.32.07,2.62.16,3.9.28l-.79,15c-1.27-.12-2.58-.21-3.9-.28C14.06,15.58.54,19,0,24.06Z"/></clipPath><clipPath id="clip-path-5" transform="translate(5.79 6.54)"><path class="cls-1" d="M0,24.21V9.28C0,4.16,13.34,0,29.79,0c1.32,0,2.61,0,3.89.08V15c-1.28,0-2.57-.08-3.89-.08C13.5,14.93.27,19,0,24.06Z"/></clipPath><clipPath id="clip-path-7" transform="translate(5.79 6.54)"><path class="cls-1" d="M0,44.26l2.65-15c.91-5.16,10.91-7.7,22.35-5.68.92.16,1.81.34,2.69.55L25,39.13c-.87-.2-1.77-.39-2.69-.55-11.3-2-21.21.47-22.31,5.5Z"/></clipPath><clipPath id="clip-path-9" transform="translate(5.79 6.54)"><path class="cls-1" d="M0,44.78,1.33,29.59C1.78,24.38,11.42,21,22.86,22c.91.08,1.81.19,2.69.32L24.22,37.47c-.88-.13-1.78-.24-2.69-.32C10.23,36.16.69,39.49,0,44.59Z"/></clipPath><clipPath id="clip-path-11" transform="translate(5.79 6.54)"><path class="cls-1" d="M0,45.28V30c0-5.25,9.41-9.51,21-9.51.93,0,1.84,0,2.74.08v15.3c-.9-.05-1.81-.08-2.74-.08C9.55,35.77.22,39.93,0,45.1Z"/></clipPath><clipPath id="clip-path-13" transform="translate(5.79 6.54)"><path class="cls-1" d="M0,65.47,2.63,50.55c.9-5.12,6.88-8.35,13.34-7.21a14.44,14.44,0,0,1,1.51.35L14.85,58.61a14.44,14.44,0,0,0-1.51-.35C7,57.14,1.1,60.25.05,65.22Z"/></clipPath><clipPath id="clip-path-15" transform="translate(5.79 6.54)"><path class="cls-1" d="M0,65.54,1.32,50.45c.45-5.18,6.06-8.92,12.52-8.36.52,0,1,.12,1.52.21L14,57.39c-.49-.09-1-.16-1.52-.21C6.16,56.62.63,60.24,0,65.29Z"/></clipPath><clipPath id="clip-path-17" transform="translate(5.79 6.54)"><path class="cls-1" d="M0,65.59V50.39c0-5.22,5.23-9.45,11.68-9.45.52,0,1,0,1.53.08v15.2c-.5,0-1-.08-1.53-.08C5.34,56.14.17,60.24,0,65.34Z"/></clipPath><clipPath id="clip-path-19" transform="translate(5.79 6.54)"><path class="cls-2" d="M186.65,43.68h-5l-7.34-16.32V43.68h-5V18.8h5l7.36,16.33V18.8h5Zm-21.62,0h-5V18.8h5Zm-17-4.17h8.82v4.17H143V18.8h5Zm-17.38-5.44-2,2.5v7.11h-5V18.8h5V29.65L130.29,27l4.63-8.17h6.15l-7.13,10.93,7.25,14h-6Zm-11,9.61h-5l-7.35-16.32V43.68h-5V18.8h5l7.36,16.33V18.8h5ZM87.46,34.4h4.65l-2.33-8.87Zm5.76,4.19H86.37L85,43.68H79.72L87.49,18.8h4.6l7.83,24.88H94.55ZM67,30.4h2.86a2.62,2.62,0,0,0,2.25-1,4.36,4.36,0,0,0,.76-2.67q0-3.75-2.93-3.75H67Zm2.5,4.19H67v9.09H62V18.8h8a8.16,8.16,0,0,1,5.84,1.95,7.33,7.33,0,0,1,2.06,5.57q0,5-3.61,6.93l4.36,10.19v.24h-5.4ZM58.15,33.53H50.34V43.68h-5V18.8H59.09V23H50.34v6.38h7.81Z"/></clipPath></defs><g id="Layer_2" data-name="Layer 2"><g id="Layer_1-2" data-name="Layer 1"><g class="cls-3"><g class="cls-4"><rect class="cls-5" x="1.16" y="-8.29" width="34.42" height="43.68" transform="translate(8.2 36.39) rotate(-82)"/></g></g><g class="cls-6"><g class="cls-4"><rect class="cls-7" x="0.36" y="-9.04" width="34.42" height="43.9" transform="translate(9.55 36.32) rotate(-87)"/></g></g><g class="cls-8"><g class="cls-4"><rect class="cls-9" x="0.79" y="1.54" width="43.68" height="34.21"/></g></g><g class="cls-10"><g class="cls-4"><rect class="cls-5" x="-3.51" y="17.26" width="34.72" height="33.77" transform="translate(-16.39 48.4) rotate(-80)"/></g></g><g class="cls-11"><g class="cls-4"><rect class="cls-7" x="-4.58" y="16.74" width="34.72" height="33.49" transform="translate(-15.9 49.84) rotate(-85)"/></g></g><g class="cls-12"><g class="cls-4"><rect class="cls-9" x="0.79" y="22.01" width="33.77" height="34.81"/></g></g><g class="cls-13"><g class="cls-4"><rect class="cls-5" x="-8.53" y="42.82" width="34.56" height="23.44" transform="translate(-40.69 60.22) rotate(-80)"/></g></g><g class="cls-14"><g class="cls-4"><rect class="cls-7" x="-9.6" y="42.24" width="34.56" height="23.28" transform="translate(-40.87 63.38) rotate(-85)"/></g></g><g class="cls-15"><g class="cls-4"><rect class="cls-9" x="0.79" y="42.48" width="23.21" height="34.66"/></g></g><g class="cls-16"><g class="cls-4"><rect class="cls-17" x="46.11" y="20.33" width="151.33" height="34.88"/></g></g></g></g></svg>