<svg xmlns="http://www.w3.org/2000/svg" xmlns:xlink="http://www.w3.org/1999/xlink" viewBox="0 0 67.09 115.47"><defs><style>.cls-1,.cls-2{fill:none;}.cls-1{clip-rule:evenodd;}.cls-3{clip-path:url(#clip-path);}.cls-4{clip-path:url(#clip-path-2);}.cls-5,.cls-7,.cls-9{fill:#0bb671;}.cls-5{opacity:0.3;}.cls-6{clip-path:url(#clip-path-3);}.cls-7{opacity:0.5;}.cls-8{clip-path:url(#clip-path-5);}.cls-10{clip-path:url(#clip-path-7);}.cls-11{clip-path:url(#clip-path-9);}.cls-12{clip-path:url(#clip-path-11);}.cls-13{clip-path:url(#clip-path-13);}.cls-14{clip-path:url(#clip-path-15);}.cls-15{clip-path:url(#clip-path-17);}</style><clipPath id="clip-path" transform="translate(5.79 7)"><path class="cls-1" d="M0,35.28,3.17,12.69c1.09-7.75,22-11.23,46.65-7.76q3,.42,5.81.94L52.46,28.45c-1.9-.34-3.84-.66-5.81-.93C22.22,24.08,1.51,27.45,0,35.05Z"/></clipPath><clipPath id="clip-path-2" transform="translate(5.79 7)"><rect class="cls-2" x="-527" y="-89" width="1104" height="598"/></clipPath><clipPath id="clip-path-3" transform="translate(5.79 7)"><path class="cls-1" d="M0,36.68,1.19,13.9C1.6,6.08,22.24.81,47.29,2.12q3,.17,5.91.43L52,25.33c-1.93-.18-3.91-.33-5.91-.43C21.3,23.6.82,28.75,0,36.44Z"/></clipPath><clipPath id="clip-path-5" transform="translate(5.79 7)"><path class="cls-1" d="M0,36.67V14.06C0,6.29,20.2,0,45.12,0q3,0,5.88.12V22.73q-2.89-.12-5.88-.12C20.45,22.61.4,28.78,0,36.43Z"/></clipPath><clipPath id="clip-path-7" transform="translate(5.79 7)"><path class="cls-1" d="M0,67,4,44.29c1.38-7.8,16.53-11.66,33.85-8.6,1.39.24,2.75.52,4.07.84l-4,22.74c-1.32-.32-2.68-.6-4.06-.84-17.15-3-32.18.72-33.81,8.37Z"/></clipPath><clipPath id="clip-path-9" transform="translate(5.79 7)"><path class="cls-1" d="M0,67.82l2-23c.69-7.9,15.29-13.07,32.61-11.56q2.07.2,4.08.48l-2,23q-2-.29-4.08-.48C15.46,54.76,1,59.82,0,67.58Z"/></clipPath><clipPath id="clip-path-11" transform="translate(5.79 7)"><path class="cls-1" d="M0,68.58V45.41C0,37.45,14.26,31,31.85,31c1.4,0,2.79,0,4.15.12V54.3c-1.36-.08-2.75-.13-4.15-.13C14.43,54.17.29,60.49,0,68.34Z"/></clipPath><clipPath id="clip-path-13" transform="translate(5.79 7)"><path class="cls-1" d="M0,99.15,4,76.56C5.35,68.8,14.4,63.92,24.19,65.64c.78.14,1.55.32,2.29.53l-4,22.59c-.75-.21-1.51-.39-2.3-.53-9.67-1.7-18.62,3-20.15,10.65Z"/></clipPath><clipPath id="clip-path-15" transform="translate(5.79 7)"><path class="cls-1" d="M0,99.25,2,76.4c.69-7.85,9.18-13.51,19-12.66a21.4,21.4,0,0,1,2.31.33l-2,22.85A21.41,21.41,0,0,0,19,86.6C9.29,85.75.89,91.27,0,99Z"/></clipPath><clipPath id="clip-path-17" transform="translate(5.79 7)"><path class="cls-1" d="M0,99.34v-23C0,68.41,7.92,62,17.69,62a21.91,21.91,0,0,1,2.31.12v23A21.91,21.91,0,0,0,17.69,85C8,85,.19,91.28,0,99.06Z"/></clipPath></defs><g id="Layer_2" data-name="Layer 2"><g id="Layer_1-2" data-name="Layer 1"><g class="cls-3"><g class="cls-4"><rect class="cls-5" x="4.33" y="-9.99" width="46.99" height="61" transform="translate(9.43 52.21) rotate(-82)"/></g></g><g class="cls-6"><g class="cls-4"><rect class="cls-7" x="3.11" y="-11.12" width="46.99" height="61.34" transform="translate(11.48 52.09) rotate(-87)"/></g></g><g class="cls-8"><g class="cls-4"><rect class="cls-9" x="0.79" y="2" width="61" height="46.67"/></g></g><g class="cls-10"><g class="cls-4"><rect class="cls-5" x="-2.74" y="28.72" width="47.44" height="46" transform="translate(-27.81 70.39) rotate(-80)"/></g></g><g class="cls-11"><g class="cls-4"><rect class="cls-7" x="-4.37" y="27.93" width="47.44" height="45.58" transform="translate(-27.07 72.58) rotate(-85)"/></g></g><g class="cls-12"><g class="cls-4"><rect class="cls-9" x="0.79" y="33" width="46" height="47.58"/></g></g><g class="cls-13"><g class="cls-4"><rect class="cls-5" x="-10.35" y="67.43" width="47.2" height="30.35" transform="translate(-64.6 88.3) rotate(-80)"/></g></g><g class="cls-14"><g class="cls-4"><rect class="cls-7" x="-11.96" y="66.54" width="47.2" height="30.11" transform="matrix(0.09, -1, 1, 0.09, -64.87, 93.08)"/></g></g><g class="cls-15"><g class="cls-4"><rect class="cls-9" x="0.79" y="64" width="30" height="47.34"/></g></g></g></g></svg>