<?xml version="1.0" standalone="no"?>
<!DOCTYPE svg PUBLIC "-//W3C//DTD SVG 20010904//EN"
 "http://www.w3.org/TR/2001/REC-SVG-20010904/DTD/svg10.dtd">
<svg version="1.0" xmlns="http://www.w3.org/2000/svg"
 width="1621.000000pt" height="1621.000000pt" viewBox="0 0 1621.000000 1621.000000"
 preserveAspectRatio="xMidYMid meet">
<metadata>
Created by potrace 1.14, written by Peter Selinger 2001-2017
</metadata>
<g transform="translate(0.000000,1621.000000) scale(0.100000,-0.100000)"
fill="#000000" stroke="none">
<path d="M7980 16203 c-125 -20 -208 -56 -427 -184 -87 -50 -176 -102 -198
-114 -22 -13 -224 -130 -450 -260 -225 -131 -430 -249 -455 -263 -25 -14 -171
-98 -325 -187 -154 -89 -354 -205 -445 -257 -225 -130 -338 -195 -520 -301
-85 -49 -168 -97 -185 -107 -82 -47 -394 -227 -685 -395 -179 -103 -338 -195
-355 -205 -16 -9 -84 -48 -150 -87 -66 -38 -131 -76 -145 -84 -14 -8 -33 -21
-44 -29 -10 -8 -21 -15 -25 -14 -3 1 -15 -4 -26 -11 -80 -49 -126 -75 -130
-75 -3 0 -24 -11 -46 -26 -22 -14 -55 -33 -72 -43 -108 -61 -634 -365 -667
-386 -22 -14 -42 -25 -45 -25 -3 0 -22 -11 -43 -23 -20 -13 -57 -35 -82 -49
-49 -28 -173 -99 -560 -323 -276 -159 -275 -159 -430 -247 -287 -165 -410
-318 -476 -596 -11 -46 -13 -337 -14 -1545 0 -839 4 -1486 8 -1483 24 15 807
23 1107 11 181 -7 432 -21 540 -30 22 -2 76 -6 119 -10 43 -4 86 -8 95 -10 9
-1 56 -6 106 -10 49 -4 92 -8 95 -10 3 -1 37 -5 75 -9 39 -4 81 -8 95 -11 14
-2 48 -6 75 -9 82 -9 137 -17 190 -26 28 -5 68 -11 90 -14 37 -4 134 -20 198
-31 15 -3 55 -9 90 -15 34 -6 85 -15 112 -21 28 -5 120 -23 205 -40 85 -17
171 -34 190 -39 19 -5 46 -11 60 -14 14 -3 43 -10 65 -15 22 -5 63 -14 90 -19
28 -6 122 -30 210 -52 88 -23 167 -43 175 -45 35 -7 472 -137 570 -169 58 -19
106 -33 108 -31 1 1 -6 27 -17 56 -35 96 -67 235 -79 349 -4 36 -7 297 -7 580
l0 515 33 67 c40 82 111 148 190 179 56 22 63 22 587 23 l531 0 -23 63 c-75
208 -116 493 -93 654 23 162 105 375 243 629 227 418 728 1129 862 1222 135
94 311 95 440 3 89 -63 344 -322 479 -486 99 -119 92 -111 157 -199 307 -419
483 -875 483 -1255 0 -170 -22 -292 -93 -503 l-48 -143 56 7 c65 8 947 8 1003
1 107 -15 228 -111 270 -215 23 -57 23 -59 23 -572 0 -283 -4 -544 -8 -580
-14 -111 -54 -285 -84 -360 -15 -38 -14 -52 4 -45 99 39 837 252 971 280 16 3
98 22 132 30 39 10 298 67 320 72 27 5 152 29 185 36 11 3 36 7 55 11 19 3 45
8 56 10 12 2 37 7 55 10 19 3 46 8 62 11 36 6 134 23 177 29 19 3 46 8 60 10
23 5 146 22 222 31 67 8 134 17 153 21 11 2 47 6 80 9 33 3 76 7 95 10 80 11
119 15 185 20 39 3 88 7 110 9 42 4 165 15 254 21 28 2 111 7 184 10 73 4 166
9 207 11 131 6 809 6 963 -1 l147 -7 0 1476 c0 1606 2 1534 -56 1689 -49 129
-166 279 -279 359 -40 28 -280 169 -485 286 -19 11 -181 104 -360 207 -179
104 -365 211 -415 240 -49 28 -145 84 -213 123 -68 40 -125 72 -128 72 -2 0
-21 11 -42 24 -37 24 -427 251 -512 298 -49 27 -285 163 -310 177 -50 31
-1378 798 -1458 843 -20 11 -89 51 -152 88 -162 95 -292 170 -297 170 -2 0
-20 11 -41 24 -20 13 -129 76 -242 141 -113 65 -257 148 -320 185 -63 37 -223
129 -355 205 -226 130 -511 295 -914 528 -197 113 -276 149 -376 170 -65 13
-237 19 -295 10z"/>
<path d="M8011 11728 c-299 -341 -466 -651 -519 -961 -12 -73 -6 -249 12 -326
37 -161 124 -355 234 -521 68 -102 216 -289 306 -385 l65 -70 29 30 c26 27
106 117 151 170 111 131 227 305 306 460 56 111 116 268 129 340 3 17 8 41 11
55 14 60 16 170 5 225 -6 33 -14 73 -17 90 -17 98 -192 491 -224 503 -5 2 -9
8 -9 13 0 7 -76 126 -90 139 -3 3 -25 32 -49 65 -25 33 -47 62 -51 65 -3 3
-13 15 -21 26 -24 36 -161 184 -170 184 -4 0 -49 -46 -98 -102z"/>
<path d="M6252 9025 c5 -293 6 -315 30 -405 77 -286 267 -523 525 -654 68 -35
213 -90 213 -81 0 3 11 0 25 -5 47 -18 150 -24 425 -24 l275 -1 -1 305 c0 327
-5 374 -58 513 -93 248 -286 460 -511 562 -202 91 -244 97 -618 99 l-309 2 4
-311z"/>
<path d="M9325 9314 c-44 -6 -93 -17 -110 -24 -16 -6 -31 -11 -33 -11 -9 4
-69 -17 -132 -47 -206 -96 -380 -263 -480 -461 -27 -54 -67 -159 -75 -198 -29
-138 -33 -186 -33 -451 l-1 -283 299 1 c325 2 389 9 535 65 328 123 576 415
640 755 13 71 16 125 16 335 1 132 1 260 0 285 l-1 45 -273 0 c-160 1 -305 -4
-352 -11z"/>
<path d="M1205 7924 c-5 -2 -57 -4 -115 -6 l-105 -3 -3 -652 -2 -653 42 -1
c58 -1 211 -11 363 -24 28 -2 82 -6 120 -9 85 -7 171 -16 205 -21 14 -2 57 -7
95 -11 39 -3 77 -8 85 -9 8 -2 47 -6 85 -11 39 -4 72 -9 75 -9 3 -1 32 -5 65
-9 33 -5 67 -10 75 -11 8 -1 33 -5 55 -9 54 -7 344 -55 375 -61 14 -3 48 -9
75 -15 28 -6 64 -12 80 -15 31 -4 46 -7 225 -45 58 -12 116 -24 130 -26 38 -7
581 -143 615 -154 16 -6 80 -24 140 -41 181 -51 543 -167 740 -237 193 -69
260 -94 280 -103 11 -4 88 -35 171 -68 173 -68 456 -189 589 -251 50 -23 110
-51 135 -62 70 -32 425 -209 525 -263 155 -83 161 -86 511 -285 112 -64 431
-265 608 -383 281 -188 515 -357 830 -602 60 -46 351 -286 390 -320 6 -5 45
-39 86 -75 104 -90 138 -120 176 -155 17 -16 79 -73 136 -125 266 -244 723
-716 948 -980 40 -47 87 -101 104 -120 50 -58 127 -150 191 -230 33 -41 65
-80 70 -86 6 -6 21 -26 35 -44 14 -18 65 -85 114 -149 49 -64 105 -137 124
-163 18 -27 39 -48 45 -48 9 0 281 151 357 199 19 12 355 206 424 245 28 15
62 36 76 44 14 9 34 22 46 28 82 44 274 157 274 161 0 2 -26 47 -57 99 -32 52
-64 107 -72 122 -8 15 -17 29 -20 32 -3 3 -24 34 -45 70 -42 69 -227 352 -236
360 -3 3 -29 41 -59 85 -54 79 -231 325 -241 335 -3 3 -32 41 -64 85 -33 44
-78 103 -100 131 -23 28 -54 68 -71 89 -16 22 -56 71 -88 109 -32 39 -66 80
-74 91 -18 22 -192 224 -208 241 -5 6 -39 44 -75 84 -131 148 -200 220 -450
470 -216 217 -356 350 -456 437 -47 40 -159 139 -174 153 -109 103 -663 539
-844 665 -15 11 -47 34 -71 50 -701 498 -1479 926 -2305 1270 -232 97 -487
192 -750 280 -183 61 -241 80 -315 101 -224 66 -394 115 -410 118 -11 2 -90
22 -175 44 -230 58 -623 144 -720 157 -19 3 -46 7 -60 10 -34 7 -74 14 -167
30 -34 5 -204 32 -254 39 -20 3 -94 12 -165 21 -71 9 -145 17 -164 20 -32 4
-83 9 -185 20 -22 3 -71 7 -108 10 -38 3 -92 8 -120 10 -29 2 -95 7 -147 10
-52 4 -120 9 -150 11 -71 6 -1052 13 -1065 8z"/>
<path d="M14148 7925 c-1 -1 -70 -6 -153 -10 -82 -4 -166 -8 -185 -10 -19 -2
-80 -6 -135 -10 -55 -3 -113 -8 -130 -9 -16 -2 -61 -6 -100 -10 -38 -4 -88 -9
-110 -12 -22 -2 -60 -6 -85 -9 -51 -4 -133 -14 -170 -20 -14 -2 -47 -7 -75
-10 -27 -4 -61 -8 -75 -10 -14 -2 -45 -6 -70 -10 -25 -3 -56 -8 -70 -10 -14
-3 -41 -7 -60 -10 -19 -3 -46 -7 -60 -10 -14 -3 -41 -7 -60 -10 -561 -88
-1320 -282 -1910 -489 -267 -93 -665 -248 -815 -316 -22 -10 -80 -36 -130 -58
-143 -63 -266 -122 -475 -227 -107 -54 -205 -103 -217 -109 -30 -14 -29 -18 7
-39 104 -62 620 -465 904 -707 72 -61 308 -271 379 -338 43 -40 81 -71 85 -69
40 23 478 214 682 297 335 138 840 310 1275 435 142 41 640 167 705 179 14 2
68 14 120 25 52 11 106 22 120 25 14 2 84 16 155 30 140 27 240 45 283 51 15
2 71 10 125 19 113 19 227 35 355 51 20 2 73 9 117 14 44 6 107 13 140 16 33
3 78 8 100 10 22 2 69 7 105 10 36 3 83 8 105 10 66 7 291 21 368 24 l37 1 0
653 0 653 -42 2 c-65 4 -1036 11 -1040 7z"/>
<path d="M980 5009 c1 -695 2 -712 62 -856 41 -100 99 -186 177 -263 85 -85
113 -103 549 -351 60 -35 97 -56 257 -149 148 -86 570 -330 640 -370 17 -10
46 -26 65 -36 19 -11 37 -21 40 -24 5 -5 38 -24 93 -54 12 -6 41 -24 64 -39
24 -15 45 -27 47 -27 3 0 69 -38 148 -84 79 -45 163 -94 188 -108 25 -14 131
-75 235 -136 495 -286 589 -340 860 -497 160 -92 394 -227 520 -300 127 -73
246 -142 265 -153 19 -10 103 -59 185 -107 142 -83 171 -99 282 -161 26 -15
70 -40 97 -57 28 -16 65 -38 81 -47 17 -10 71 -41 120 -70 50 -29 108 -62 130
-75 39 -22 300 -173 780 -450 132 -76 257 -148 277 -159 20 -12 168 -97 328
-189 308 -178 379 -210 520 -231 204 -30 428 24 602 145 14 11 29 19 33 19 3
0 29 15 58 33 29 18 63 38 77 45 14 6 43 23 65 37 22 14 47 28 55 32 8 4 48
27 89 51 40 23 164 95 275 159 110 64 271 157 356 206 85 49 171 98 190 109
19 11 39 23 43 28 10 9 -416 556 -483 620 -3 3 -52 59 -110 125 -308 354 -711
756 -1075 1076 -177 155 -305 262 -465 389 -36 28 -73 57 -82 65 -10 8 -89 68
-175 132 -87 65 -163 123 -169 128 -28 24 -359 250 -512 348 -147 95 -431 269
-516 317 -17 9 -78 43 -136 75 -184 103 -239 132 -535 279 -334 165 -325 161
-595 276 -451 193 -961 372 -1465 515 -70 20 -203 55 -225 60 -8 2 -51 12 -95
23 -78 20 -366 86 -415 96 -14 2 -59 11 -100 20 -78 15 -122 24 -300 56 -120
21 -126 22 -350 55 -156 22 -191 27 -307 41 -27 3 -64 7 -83 9 -19 2 -62 7
-95 10 -33 3 -79 8 -103 10 -58 6 -140 13 -237 20 -44 3 -113 8 -153 10 l-72
6 0 -632z"/>
<path d="M15137 5633 c-1 -1 -45 -4 -97 -7 -52 -4 -115 -8 -140 -11 -25 -2
-79 -7 -120 -10 -41 -4 -86 -8 -100 -10 -14 -2 -52 -6 -85 -10 -33 -3 -77 -8
-97 -10 -21 -3 -57 -7 -80 -10 -24 -3 -59 -7 -78 -10 -19 -3 -55 -7 -80 -10
-25 -4 -56 -8 -70 -10 -14 -2 -45 -7 -70 -10 -107 -15 -474 -80 -565 -99 -11
-2 -67 -14 -125 -26 -58 -12 -143 -31 -190 -42 -47 -11 -93 -21 -103 -23 -89
-19 -650 -171 -717 -194 -14 -5 -104 -35 -200 -66 -269 -88 -573 -199 -810
-297 -118 -50 -225 -92 -237 -95 -22 -5 -20 -8 25 -61 26 -31 54 -63 63 -72
14 -13 71 -79 233 -270 12 -14 39 -47 61 -75 22 -27 42 -52 45 -55 33 -31 344
-439 465 -610 49 -69 91 -127 94 -130 3 -3 11 -13 16 -22 6 -9 78 -118 160
-242 83 -124 162 -245 176 -268 14 -24 43 -70 63 -103 21 -33 61 -99 90 -147
l52 -86 140 80 c76 44 155 89 174 100 102 59 636 368 705 408 44 26 318 184
608 351 548 315 620 363 710 474 62 77 131 218 156 320 18 75 19 122 20 722
l1 642 -46 -2 c-25 -1 -46 -3 -47 -4z"/>
</g>
</svg>
