<svg xmlns="http://www.w3.org/2000/svg" xmlns:xlink="http://www.w3.org/1999/xlink" viewBox="0 0 290.59 79.15"><defs><style>.cls-1{fill:none;}.cls-2{fill:#3d3f80;}.cls-3{fill:url(#linear-gradient);}.cls-4{fill:url(#linear-gradient-2);}.cls-5{clip-path:url(#clip-path);}.cls-6{fill:url(#radial-gradient);}.cls-7{clip-path:url(#clip-path-2);}</style><linearGradient id="linear-gradient" x1="62.46" y1="28.71" x2="23.47" y2="67.69" gradientUnits="userSpaceOnUse"><stop offset="0" stop-color="#fdbf14"/><stop offset="1" stop-color="#f48020"/></linearGradient><linearGradient id="linear-gradient-2" x1="48.81" y1="15.06" x2="9.83" y2="54.05" gradientUnits="userSpaceOnUse"><stop offset="0" stop-color="#51559e"/><stop offset="1" stop-color="#3d3f80"/></linearGradient><clipPath id="clip-path"><polygon class="cls-1" points="54.75 30.79 41.6 43.93 33.24 35.57 24.88 43.93 33.24 52.29 20.38 65.16 34.37 79.15 68.74 44.78 54.75 30.79"/></clipPath><radialGradient id="radial-gradient" cx="58.69" cy="21.87" fx="35.24455117842466" r="23.66" gradientUnits="userSpaceOnUse"><stop offset="0" stop-color="#fff"/><stop offset="1" stop-color="#fff" stop-opacity="0"/></radialGradient><clipPath id="clip-path-2"><polygon class="cls-1" points="22.33 43.99 33.41 32.92 41.73 41.24 53.46 29.5 34.37 10.41 0 44.78 19.09 63.87 30.65 52.31 22.33 43.99"/></clipPath></defs><title>districtbuilder_CMYK_lightbg_72dpi</title><g id="Layer_2" data-name="Layer 2"><g id="Layer_1-2" data-name="Layer 1"><path class="cls-2" d="M92,32.68h8.49c7.2,0,8.5,4.93,8.5,12.49,0,9.11-2,13.21-8.82,13.21H92Zm5.18,21.88h2.3c3.6,0,4.32-2.26,4.32-9.25,0-5.83-.47-8.82-4.43-8.82H97.17Z"/><path class="cls-2" d="M112.07,32.39h5v4.25h-5Zm0,6.62h5V58.38h-5Z"/><path class="cls-2" d="M123.81,52v.65c0,1.69.9,2.81,2.59,2.81,1.51,0,2.52-.76,2.52-2.3a2.29,2.29,0,0,0-1.8-2.2l-3.49-1.26c-2.74-1-4.14-2.66-4.14-5.4,0-3.2,2-5.83,7.13-5.83,4.5,0,6.62,2,6.62,5.51v.79h-4.46c0-1.94-.58-2.92-2.2-2.92A2.11,2.11,0,0,0,124.24,44c0,.94.5,1.73,2.16,2.27l3,1c3.13,1,4.28,2.62,4.28,5.54,0,4.07-3,6.08-7.2,6.08-5.58,0-7.12-2.44-7.12-6.15V52Z"/><path class="cls-2" d="M136.88,33.47h5V39h2.88V42.4h-2.88V52.87c0,1.51.33,2.13,1.77,2.13a9.18,9.18,0,0,0,1.11-.08v3.46a30.54,30.54,0,0,1-3.24.22c-3.88,0-4.6-1.19-4.6-5.12V42.4h-2.52V39h2.52Z"/><path class="cls-2" d="M146.09,39h4.75v2.6h.08c1-1.88,2.41-3.1,4.46-3.1.29,0,.61,0,.9.07v4.75c-.51,0-1-.07-1.55-.07a3.35,3.35,0,0,0-3.67,3.49V58.38h-5Z"/><path class="cls-2" d="M157.9,32.39h5v4.25h-5Zm0,6.62h5V58.38h-5Z"/><path class="cls-2" d="M175.32,46c0-1.87-.36-3.89-2.23-3.89-2.45,0-2.84,2.16-2.84,6.62,0,4.79.43,6.77,2.66,6.77,1.66,0,2.41-1.4,2.41-4.54h4.75c0,5.08-2.12,7.92-7.38,7.92-5,0-7.41-2.41-7.41-10.18,0-8,3.28-10.19,7.85-10.19s6.94,2.92,6.94,7.49Z"/><path class="cls-2" d="M183.39,33.47h5V39h2.87V42.4h-2.87V52.87c0,1.51.32,2.13,1.76,2.13a9.18,9.18,0,0,0,1.11-.08v3.46a30.53,30.53,0,0,1-3.23.22c-3.89,0-4.61-1.19-4.61-5.12V42.4h-2.52V39h2.52Z"/><path class="cls-2" d="M192.75,32.68h8.67c4.25,0,7.31,1.58,7.31,6.51,0,2.78-1.33,4.9-3.89,5.62v.07c2.85.4,4.68,2.56,4.68,6,0,4-2,7.52-8,7.52h-8.74Zm5.18,10.55h1.48c2.84,0,4.14-1,4.14-3.39s-1.19-3.35-3.75-3.35h-1.87Zm0,11.33h2c2.48,0,4.17-.9,4.17-3.88s-1.69-3.85-4-3.85h-2.23Z"/><path class="cls-2" d="M222.19,56.11h-.07a5.3,5.3,0,0,1-4.93,2.77c-3.09,0-4.93-1.69-4.93-5.5V39h5V52.37c0,1.94.64,2.7,2.12,2.7,1.69,0,2.63-1,2.63-3.21V39h5V58.38h-4.76Z"/><path class="cls-2" d="M230.08,32.39h5v4.25h-5Zm0,6.62h5V58.38h-5Z"/><path class="cls-2" d="M238.36,32.68h5v25.7h-5Z"/><path class="cls-2" d="M256.39,56.33h-.07a4.69,4.69,0,0,1-4.39,2.55c-4.07,0-5.94-3-5.94-10.18s1.87-10.19,5.94-10.19a4.68,4.68,0,0,1,4.18,2.3h.07V32.68h5v25.7h-4.75Zm-2.84-1.26c2.2,0,2.63-2.16,2.63-6.37s-.43-6.37-2.63-6.37S251,44.49,251,48.7,251.39,55.07,253.55,55.07Z"/><path class="cls-2" d="M268.35,49.45V51c0,2.27.61,4.5,2.44,4.5,1.66,0,2.34-1.26,2.63-3.64h4.46c-.17,4.5-2.33,7-7,7-7.2,0-7.49-5.54-7.49-10.36,0-5.19,1-10,7.7-10,5.8,0,7.09,3.89,7.09,9.83v1.11Zm5.07-3c-.11-3-.47-4.61-2.52-4.61s-2.55,2.06-2.55,3.86v.75Z"/><path class="cls-2" d="M280.41,39h4.75v2.6h.07c1-1.88,2.41-3.1,4.46-3.1a8.86,8.86,0,0,1,.9.07v4.75c-.5,0-1-.07-1.54-.07-1.73,0-3.68.9-3.68,3.49V58.38h-5Z"/><polygon class="cls-3" points="54.75 30.79 41.6 43.93 33.24 35.57 24.88 43.93 33.24 52.29 20.38 65.16 34.37 79.15 68.74 44.78 54.75 30.79"/><polygon class="cls-4" points="22.33 43.99 33.41 32.92 41.73 41.24 53.46 29.5 34.37 10.41 0 44.78 19.09 63.87 30.65 52.31 22.33 43.99"/><g class="cls-5"><path class="cls-6" d="M35.46,0A35.57,35.57,0,0,0,67.35,51.28a36,36,0,0,0,7.17-.72l5.73-5.78Z"/></g><g class="cls-7"><path class="cls-6" d="M35.46,0A35.57,35.57,0,0,0,67.35,51.28a36,36,0,0,0,7.17-.72l5.73-5.78Z"/></g></g></g></svg>