<svg xmlns="http://www.w3.org/2000/svg" xmlns:xlink="http://www.w3.org/1999/xlink" viewBox="0 0 290.59 68.74"><defs><style>.cls-1{fill:#fff;}.cls-2{fill:url(#linear-gradient);}.cls-3{fill:url(#linear-gradient-2);}</style><linearGradient id="linear-gradient" x1="62.46" y1="18.29" x2="23.47" y2="57.28" gradientUnits="userSpaceOnUse"><stop offset="0" stop-color="#fabe18"/><stop offset="1" stop-color="#f38020"/></linearGradient><linearGradient id="linear-gradient-2" x1="48.81" y1="4.65" x2="9.83" y2="43.63" gradientUnits="userSpaceOnUse"><stop offset="0" stop-color="#51559d"/><stop offset="1" stop-color="#3d4080"/></linearGradient></defs><title>districtbuilder__darkbg_72dpi</title><g id="Layer_2" data-name="Layer 2"><g id="Layer_1-2" data-name="Layer 1"><path class="cls-1" d="M92,22.27h8.49c7.2,0,8.5,4.93,8.5,12.49,0,9.1-2,13.21-8.82,13.21H92Zm5.18,21.88h2.3c3.6,0,4.32-2.26,4.32-9.25,0-5.83-.47-8.82-4.43-8.82H97.17Z"/><path class="cls-1" d="M112.07,22h5v4.25h-5Zm0,6.62h5V48h-5Z"/><path class="cls-1" d="M123.81,41.63v.65c0,1.69.9,2.81,2.59,2.81a2.21,2.21,0,0,0,2.52-2.31,2.27,2.27,0,0,0-1.8-2.19l-3.49-1.26c-2.74-1-4.14-2.66-4.14-5.4,0-3.2,2-5.83,7.13-5.83,4.5,0,6.62,2,6.62,5.51v.79h-4.46c0-1.95-.58-2.92-2.2-2.92a2.11,2.11,0,0,0-2.34,2.09c0,.94.5,1.73,2.16,2.27l3,1c3.13,1,4.28,2.62,4.28,5.54,0,4.07-3,6.08-7.2,6.08-5.58,0-7.12-2.45-7.12-6.15v-.69Z"/><path class="cls-1" d="M136.88,23.06h5V28.6h2.88V32h-2.88V42.46c0,1.51.33,2.12,1.77,2.12a9.29,9.29,0,0,0,1.11-.07V48a30.58,30.58,0,0,1-3.24.21c-3.88,0-4.6-1.18-4.6-5.11V32h-2.52V28.6h2.52Z"/><path class="cls-1" d="M146.09,28.6h4.75v2.59h.08c1-1.87,2.41-3.09,4.46-3.09a6.82,6.82,0,0,1,.9.07v4.75c-.51,0-1-.07-1.55-.07a3.35,3.35,0,0,0-3.67,3.49V48h-5Z"/><path class="cls-1" d="M157.9,22h5v4.25h-5Zm0,6.62h5V48h-5Z"/><path class="cls-1" d="M175.32,35.59c0-1.88-.36-3.89-2.23-3.89-2.45,0-2.84,2.16-2.84,6.62,0,4.79.43,6.77,2.66,6.77,1.66,0,2.41-1.41,2.41-4.54h4.75c0,5.08-2.12,7.92-7.38,7.92-5,0-7.41-2.41-7.41-10.18,0-8,3.28-10.19,7.85-10.19s6.94,2.91,6.94,7.49Z"/><path class="cls-1" d="M183.39,23.06h5V28.6h2.87V32h-2.87V42.46c0,1.51.32,2.12,1.76,2.12a9.29,9.29,0,0,0,1.11-.07V48a30.57,30.57,0,0,1-3.23.21c-3.89,0-4.61-1.18-4.61-5.11V32h-2.52V28.6h2.52Z"/><path class="cls-1" d="M192.75,22.27h8.67c4.25,0,7.31,1.58,7.31,6.51,0,2.77-1.33,4.9-3.89,5.62v.07c2.85.4,4.68,2.56,4.68,6,0,4-2,7.52-8,7.52h-8.74Zm5.18,10.54h1.48c2.84,0,4.14-1,4.14-3.38s-1.19-3.35-3.75-3.35h-1.87Zm0,11.34h2c2.48,0,4.17-.9,4.17-3.88s-1.69-3.86-4-3.86h-2.23Z"/><path class="cls-1" d="M222.19,45.7h-.07a5.3,5.3,0,0,1-4.93,2.77c-3.09,0-4.93-1.69-4.93-5.51V28.6h5V42c0,1.94.64,2.7,2.12,2.7,1.69,0,2.63-1,2.63-3.21V28.6h5V48h-4.76Z"/><path class="cls-1" d="M230.08,22h5v4.25h-5Zm0,6.62h5V48h-5Z"/><path class="cls-1" d="M238.36,22.27h5V48h-5Z"/><path class="cls-1" d="M256.39,45.92h-.07a4.69,4.69,0,0,1-4.39,2.55c-4.07,0-5.94-3-5.94-10.18s1.87-10.19,5.94-10.19a4.66,4.66,0,0,1,4.18,2.3h.07V22.27h5V48h-4.75Zm-2.84-1.26c2.2,0,2.63-2.16,2.63-6.37s-.43-6.38-2.63-6.38S251,34.07,251,38.29,251.39,44.66,253.55,44.66Z"/><path class="cls-1" d="M268.35,39v1.55c0,2.27.61,4.5,2.44,4.5,1.66,0,2.34-1.26,2.63-3.64h4.46c-.17,4.5-2.33,7-7,7-7.2,0-7.49-5.54-7.49-10.36,0-5.19,1-10,7.7-10,5.8,0,7.09,3.89,7.09,9.83V39Zm5.07-2.95c-.11-3-.47-4.61-2.52-4.61s-2.55,2.05-2.55,3.85v.76Z"/><path class="cls-1" d="M280.41,28.6h4.75v2.59h.07c1-1.87,2.41-3.09,4.46-3.09a6.69,6.69,0,0,1,.9.07v4.75c-.5,0-1-.07-1.54-.07-1.73,0-3.68.9-3.68,3.49V48h-5Z"/><polygon class="cls-2" points="54.75 20.38 41.6 33.52 33.24 25.16 24.88 33.52 33.24 41.88 20.38 54.74 34.37 68.74 68.74 34.37 54.75 20.38"/><polygon class="cls-3" points="22.33 33.58 33.41 22.51 41.73 30.83 53.46 19.09 34.37 0 0 34.37 19.09 53.46 30.65 41.9 22.33 33.58"/></g></g></svg>