<?xml version="1.0" standalone="no"?>
<!DOCTYPE svg PUBLIC "-//W3C//DTD SVG 20010904//EN"
 "http://www.w3.org/TR/2001/REC-SVG-20010904/DTD/svg10.dtd">
<svg version="1.0" xmlns="http://www.w3.org/2000/svg"
 width="512.000000pt" height="512.000000pt" viewBox="0 0 512.000000 512.000000"
 preserveAspectRatio="xMidYMid meet">
<metadata>
Created by potrace 1.11, written by Peter Selinger 2001-2013
</metadata>
<g transform="translate(0.000000,512.000000) scale(0.100000,-0.100000)"
fill="#000000" stroke="none">
<path d="M2389 4766 c-2 -2 -35 -6 -74 -9 -213 -19 -469 -93 -654 -189 -360
-189 -611 -410 -813 -718 -49 -75 -158 -266 -158 -277 0 -2 -11 -28 -24 -57
-54 -118 -119 -328 -150 -486 -33 -166 -40 -259 -41 -490 0 -242 15 -399 55
-560 127 -519 369 -909 750 -1207 275 -215 662 -371 1015 -410 89 -10 451 -10
530 0 382 48 735 202 1033 452 148 123 348 346 340 379 -2 11 -195 178 -377
327 l-32 26 -58 -61 c-32 -33 -87 -92 -122 -130 -35 -37 -95 -94 -134 -125
-215 -175 -387 -249 -690 -296 -45 -7 -331 -7 -385 0 -106 13 -128 17 -184 30
-233 54 -446 173 -636 355 -48 46 -146 165 -188 228 -78 116 -203 402 -227
521 -2 9 -10 50 -19 91 -8 41 -18 93 -20 115 -3 22 -8 60 -11 85 -4 25 -7 117
-7 205 0 145 3 198 17 275 2 14 7 45 10 70 4 25 11 63 17 85 5 22 12 51 15 65
10 56 76 238 122 335 145 306 377 548 658 689 109 54 271 106 378 121 103 14
123 16 237 18 492 12 832 -159 1176 -593 l20 -25 112 110 c61 61 114 112 118
115 4 2 -287 -290 -645 -650 l-653 -655 -314 314 -314 314 -201 -201 -201
-200 515 -516 516 -515 727 730 c400 402 728 732 730 734 2 2 5 190 7 417 l4
415 -78 89 c-314 358 -709 574 -1178 644 -90 13 -184 19 -319 19 -105 0 -193
-1 -195 -3z m1731 -810 c0 -2 -8 -10 -17 -17 -16 -13 -17 -12 -4 4 13 16 21
21 21 13z m-60 -59 c0 -2 -12 -14 -27 -28 l-28 -24 24 28 c23 25 31 32 31 24z"/>
</g>
</svg>
