<?xml version="1.0" standalone="no"?>
<!DOCTYPE svg PUBLIC "-//W3C//DTD SVG 20010904//EN"
 "http://www.w3.org/TR/2001/REC-SVG-20010904/DTD/svg10.dtd">
<svg version="1.0" xmlns="http://www.w3.org/2000/svg"
 width="1425.000000pt" height="1425.000000pt" viewBox="0 0 1425.000000 1425.000000"
 preserveAspectRatio="xMidYMid meet">
<metadata>
Created by potrace 1.11, written by Peter Selinger 2001-2013
</metadata>
<g transform="translate(0.000000,1425.000000) scale(0.100000,-0.100000)"
fill="#000000" stroke="none">
<path d="M0 9125 c0 -4711 1 -5125 16 -5125 21 0 78 63 100 109 9 20 38 65 63
101 25 36 68 97 94 135 86 127 137 200 155 220 10 11 35 47 57 80 22 33 63 90
90 127 28 37 68 92 90 123 22 31 51 71 65 89 14 18 51 69 83 112 32 44 77 106
102 139 24 33 61 83 82 112 21 29 40 52 43 53 3 0 23 25 45 56 78 109 88 123
307 399 57 72 129 164 160 205 31 41 72 91 90 111 18 20 60 71 93 114 97 124
661 795 770 915 33 36 98 110 145 165 140 163 598 662 900 980 116 122 845
851 990 990 58 56 197 186 310 290 113 103 239 220 281 259 41 39 115 107 164
151 49 44 116 105 149 135 34 30 108 95 166 144 58 49 114 99 125 111 17 19
189 166 520 445 50 41 106 87 125 102 19 14 49 39 67 54 18 16 71 61 119 99
48 39 138 112 201 163 63 52 139 114 171 138 61 48 107 84 247 194 154 121
393 303 458 348 34 24 73 54 87 66 14 12 36 30 50 39 14 10 43 31 65 48 22 16
56 41 75 55 19 13 51 37 71 52 20 15 73 54 118 87 45 33 99 72 119 88 20 15
73 52 117 82 44 31 91 63 105 72 14 10 52 39 86 64 33 26 74 54 90 63 16 9 47
30 69 47 59 44 101 73 221 153 16 11 40 26 53 35 13 9 40 27 61 41 20 14 57
39 80 55 23 17 60 41 80 55 21 14 64 43 96 65 32 22 66 45 74 50 41 25 88 55
115 75 17 11 53 35 80 52 28 17 86 55 130 83 251 163 304 196 354 224 15 7 35
21 46 30 11 10 49 34 85 55 36 21 81 49 100 61 65 41 128 80 180 110 28 17 67
42 87 58 20 15 42 27 49 27 7 0 25 10 41 23 15 12 44 31 63 40 67 35 102 55
119 71 9 9 33 21 51 28 31 10 70 33 128 73 12 9 22 25 22 35 0 20 -51 20
-5505 20 l-5505 0 0 -5125z"/>
<path d="M14203 12022 c-18 -19 -39 -53 -80 -132 -13 -25 -35 -63 -48 -85 -13
-22 -36 -60 -50 -85 -41 -72 -149 -247 -230 -372 -27 -43 -63 -100 -79 -126
-57 -91 -138 -217 -157 -242 -10 -14 -26 -38 -35 -55 -15 -27 -88 -141 -170
-264 -16 -24 -40 -61 -54 -82 -14 -21 -65 -98 -115 -170 -49 -72 -127 -186
-173 -253 -85 -124 -115 -168 -154 -222 -13 -17 -39 -56 -59 -85 -39 -57 -146
-207 -289 -404 -47 -64 -92 -127 -100 -139 -21 -30 -133 -180 -140 -186 -3 -3
-30 -39 -61 -80 -87 -119 -167 -225 -284 -375 -25 -33 -63 -82 -84 -110 -21
-27 -62 -80 -92 -116 -30 -37 -72 -91 -94 -119 -83 -109 -489 -605 -650 -794
-66 -78 -158 -186 -205 -241 -46 -55 -89 -104 -95 -110 -14 -12 -192 -214
-294 -334 -40 -47 -129 -144 -196 -216 -66 -71 -144 -155 -171 -185 -386 -427
-1242 -1291 -1674 -1690 -74 -68 -173 -160 -220 -205 -47 -44 -128 -118 -180
-165 -52 -47 -146 -132 -210 -190 -63 -58 -180 -161 -260 -230 -80 -68 -155
-133 -166 -145 -39 -36 -414 -355 -520 -441 -33 -27 -118 -96 -189 -154 -70
-58 -172 -141 -226 -185 -54 -44 -130 -105 -169 -135 -40 -30 -97 -76 -128
-101 -78 -63 -230 -180 -467 -359 -110 -83 -225 -170 -255 -194 -30 -24 -85
-64 -122 -90 -37 -25 -76 -53 -85 -61 -30 -26 -75 -59 -153 -114 -41 -28 -86
-60 -100 -70 -67 -50 -145 -108 -165 -121 -109 -75 -141 -98 -165 -115 -15
-11 -65 -46 -111 -78 -46 -31 -104 -72 -129 -90 -25 -18 -59 -42 -76 -52 -18
-11 -69 -46 -115 -78 -46 -31 -93 -63 -104 -71 -11 -7 -33 -21 -49 -32 -31
-21 -53 -35 -212 -141 -60 -40 -122 -82 -139 -93 -31 -22 -75 -51 -130 -85
-18 -11 -45 -29 -61 -39 -16 -11 -47 -30 -69 -44 -22 -14 -59 -38 -82 -54 -23
-15 -44 -28 -47 -28 -4 0 -48 -28 -99 -62 -50 -34 -110 -72 -132 -86 -22 -14
-51 -33 -65 -42 -14 -10 -43 -27 -65 -39 -22 -12 -60 -35 -85 -51 -25 -16 -65
-41 -90 -55 -25 -14 -70 -41 -100 -60 -30 -19 -71 -43 -90 -55 -19 -11 -66
-40 -105 -65 -38 -24 -74 -44 -79 -45 -5 0 -17 -6 -25 -14 -20 -18 -90 -58
-161 -91 -72 -35 -130 -82 -130 -106 0 -19 96 -19 6105 -19 l6105 0 0 6020 c0
5344 -2 6020 -15 6020 -8 0 -23 -8 -32 -18z"/>
</g>
</svg>
