<?xml version="1.0" standalone="no"?>
<!DOCTYPE svg PUBLIC "-//W3C//DTD SVG 20010904//EN"
 "http://www.w3.org/TR/2001/REC-SVG-20010904/DTD/svg10.dtd">
<svg version="1.0" xmlns="http://www.w3.org/2000/svg"
 width="260.000000pt" height="260.000000pt" viewBox="0 0 260.000000 260.000000"
 preserveAspectRatio="xMidYMid meet">
<metadata>
Created by potrace 1.11, written by Peter Selinger 2001-2013
</metadata>
<g transform="translate(0.000000,260.000000) scale(0.100000,-0.100000)"
fill="#000000" stroke="none">
<path d="M440 2528 c-63 -42 -115 -159 -167 -370 -10 -41 -12 -271 -3 -348 13
-106 19 -156 30 -225 21 -136 25 -200 21 -395 -6 -386 -6 -685 1 -737 27 -183
41 -197 136 -134 92 61 140 86 149 78 4 -4 8 -31 9 -60 2 -68 1 -65 24 -77 22
-12 32 -7 134 67 68 50 91 54 100 17 11 -44 74 -136 124 -182 106 -96 267
-133 425 -98 111 25 224 120 278 234 19 39 40 71 48 71 7 1 52 -25 100 -57 47
-32 91 -58 98 -57 24 0 38 27 39 73 2 69 3 72 17 72 6 0 55 -27 107 -60 52
-33 97 -60 100 -60 17 0 38 29 48 66 27 94 31 295 19 839 -4 173 -1 223 19
370 13 94 26 186 28 205 15 107 18 284 6 361 -20 137 -88 327 -137 382 -56 61
-132 61 -215 -1 -84 -62 -271 -245 -314 -307 -21 -31 -47 -58 -59 -61 -12 -3
-46 1 -76 10 -142 40 -307 40 -462 0 -32 -8 -66 -12 -76 -9 -10 3 -35 30 -55
60 -42 60 -220 235 -309 304 -74 56 -133 66 -187 29z m136 -104 c48 -32 167
-155 201 -208 52 -81 53 -145 2 -171 -35 -19 -53 -11 -116 46 -45 41 -90 51
-112 25 -7 -8 -14 -45 -16 -82 -5 -78 -23 -104 -70 -104 -69 0 -101 69 -91
195 9 129 61 276 108 309 31 22 49 20 94 -10z m1546 6 c64 -50 125 -295 103
-413 -9 -49 -48 -87 -89 -87 -46 0 -68 27 -68 86 0 118 -50 146 -133 74 -67
-58 -80 -63 -114 -46 -43 23 -50 81 -16 145 34 64 189 225 239 247 42 18 49
17 78 -6z m-769 -506 c38 -11 84 -52 102 -89 15 -34 17 -85 17 -569 l0 -531
34 -37 c57 -64 78 -114 78 -193 0 -169 -121 -290 -289 -289 -78 1 -128 21
-190 76 -115 101 -121 284 -12 404 l35 39 0 532 c0 483 2 535 18 568 36 77
123 115 207 89z m-518 -434 c29 -11 54 -60 47 -95 -7 -37 -47 -68 -88 -68 -79
0 -116 95 -58 148 29 27 57 31 99 15z m1030 -15 c56 -55 17 -150 -61 -148 -41
1 -62 17 -79 58 -35 82 76 154 140 90z"/>
<path d="M1266 1247 c-24 -24 -24 -25 -24 -283 0 -142 -1 -269 -1 -281 -1 -13
-14 -29 -34 -42 -18 -11 -43 -37 -54 -59 -78 -138 52 -297 202 -245 135 47
160 223 43 300 -36 25 -38 28 -38 82 0 31 -1 158 -1 282 0 201 -2 229 -17 241
-32 28 -52 29 -76 5z"/>
</g>
</svg>
