<svg xmlns="http://www.w3.org/2000/svg" viewBox="0 0 55 54"><defs><style>.cls-1{fill:#7ac485;}.cls-2{fill:#d0d15e;}.cls-3{fill:#e3d262;}.cls-4{fill:#38bebe;}.cls-5{fill:#a4ce59;}.cls-6{fill:#417dbf;}.cls-7{fill:#7dc25e;}.cls-8{fill:#69c298;}.cls-9{fill:#2e99d4;}</style></defs><title>geotrellis_RGB_mark</title><g id="Layer_2" data-name="Layer 2"><g id="Layer_1-2" data-name="Layer 1"><rect class="cls-1" x="19" y="19" width="7" height="7"/><rect class="cls-2" x="19" y="10" width="7" height="7"/><polygon class="cls-3" points="28 0 28 6.91 28 17 37 17 37 17 45 17 45 0 28 0"/><polygon class="cls-4" points="55 44 55 19 47.39 19 37 19 37 44 55 44"/><polygon class="cls-5" points="17 25.49 17 18.88 17 16.31 17 10 0 10 0 35 7 35 7 35 17 35 17 28.05 17 25.49"/><polygon class="cls-6" points="19 37 9 37 9 54 26 54 26 47 26 47 26 37 19 37 19 37"/><rect class="cls-5" x="28" y="19" width="7" height="7"/><polygon class="cls-7" points="28 28 28 35 27.56 35 35 35 35 28 28 28"/><rect class="cls-8" x="28" y="37" width="7" height="7"/><rect class="cls-9" x="19" y="28" width="7" height="7"/></g></g></svg>