<?xml version="1.0" standalone="no"?>
<!DOCTYPE svg PUBLIC "-//W3C//DTD SVG 20010904//EN"
 "http://www.w3.org/TR/2001/REC-SVG-20010904/DTD/svg10.dtd">
<svg version="1.0" xmlns="http://www.w3.org/2000/svg"
 width="692.000000pt" height="692.000000pt" viewBox="0 0 692.000000 692.000000"
 preserveAspectRatio="xMidYMid meet">
<metadata>
Created by potrace 1.11, written by Peter Selinger 2001-2013
</metadata>
<g transform="translate(0.000000,692.000000) scale(0.100000,-0.100000)"
fill="#000000" stroke="none">
<path d="M3277 6565 c-356 -71 -632 -324 -727 -667 -55 -198 -45 -384 34 -614
42 -125 51 -230 31 -369 -18 -122 -90 -243 -206 -348 -113 -103 -214 -149
-394 -182 -121 -22 -222 -63 -330 -133 -262 -171 -418 -451 -428 -767 -2 -72
0 -101 17 -210 35 -216 196 -460 394 -594 89 -60 216 -118 299 -137 244 -54
452 -30 663 76 216 108 394 315 471 545 15 46 13 39 24 90 4 22 9 49 12 60 10
51 12 187 3 250 -5 39 -26 120 -46 180 -86 266 -77 442 37 656 81 151 256 262
491 309 32 6 59 11 60 10 7 -4 160 56 218 85 117 59 242 166 322 275 32 44 41
59 77 124 115 209 138 513 56 749 -112 319 -369 541 -710 613 -62 13 -300 12
-368 -1z"/>
<path d="M4728 4416 c-1 -2 -39 -6 -83 -9 -132 -10 -210 -30 -329 -87 -285
-137 -486 -416 -534 -740 -9 -58 -9 -202 0 -261 33 -226 162 -448 343 -592 54
-43 151 -107 162 -107 4 0 25 -9 47 -20 40 -19 121 -41 275 -76 41 -9 82 -20
90 -25 9 -4 34 -17 56 -27 109 -50 211 -135 277 -230 69 -100 107 -232 107
-372 1 -74 -8 -118 -50 -255 -73 -241 -77 -422 -13 -620 175 -540 777 -805
1292 -569 242 111 420 307 502 552 40 120 45 157 45 322 -1 159 -21 251 -84
386 -62 132 -140 231 -266 340 -78 67 -280 163 -378 179 -64 11 -183 46 -247
72 -60 25 -175 96 -204 126 -162 169 -225 448 -150 672 62 189 78 267 77 390
0 41 -13 177 -18 195 -1 3 -5 19 -9 35 -40 161 -137 326 -261 446 -36 35 -73
67 -82 73 -10 5 -27 18 -37 28 -36 33 -219 117 -299 138 -43 11 -106 22 -140
25 -34 4 -67 8 -74 10 -6 2 -13 2 -15 1z"/>
<path d="M815 2220 c-22 -5 -57 -11 -77 -14 -57 -9 -156 -45 -234 -86 -232
-121 -389 -316 -470 -585 -24 -80 -27 -107 -28 -240 0 -142 2 -169 19 -240 47
-201 192 -413 369 -540 390 -277 931 -222 1236 127 87 99 136 145 195 184 175
112 358 149 518 105 94 -26 205 -79 267 -128 25 -20 94 -85 153 -145 59 -60
130 -125 156 -146 73 -58 232 -131 318 -147 16 -2 53 -9 83 -15 68 -14 242
-10 318 6 201 42 359 124 494 259 126 126 229 315 254 465 3 19 10 55 14 80 9
47 6 240 -5 300 -11 62 -63 205 -95 266 -97 178 -240 316 -427 408 -50 26 -96
46 -102 46 -6 0 -30 7 -53 14 -69 24 -135 31 -273 31 -147 -1 -245 -22 -372
-80 -139 -64 -186 -102 -383 -309 -99 -104 -243 -181 -395 -211 -35 -7 -173
-7 -184 0 -4 2 -23 7 -41 10 -54 10 -160 55 -220 94 -30 20 -122 101 -205 181
-200 194 -303 255 -505 300 -66 15 -269 21 -325 10z"/>
</g>
</svg>
