<?xml version="1.0" standalone="no"?>
<!DOCTYPE svg PUBLIC "-//W3C//DTD SVG 20010904//EN"
 "http://www.w3.org/TR/2001/REC-SVG-20010904/DTD/svg10.dtd">
<svg version="1.0" xmlns="http://www.w3.org/2000/svg"
 width="512.000000pt" height="512.000000pt" viewBox="0 0 512.000000 512.000000"
 preserveAspectRatio="xMidYMid meet">
<metadata>
Created by potrace 1.11, written by Peter Selinger 2001-2013
</metadata>
<g transform="translate(0.000000,512.000000) scale(0.100000,-0.100000)"
fill="#000000" stroke="none">
<path d="M2147 4785 c-703 -115 -1162 -809 -988 -1497 47 -187 147 -378 262
-502 l55 -59 134 28 c187 39 179 34 120 79 -229 175 -376 505 -356 801 30 436
336 794 761 892 123 28 311 23 439 -10 338 -90 588 -333 693 -674 24 -81 27
-102 27 -258 0 -157 -2 -177 -28 -260 -15 -49 -42 -121 -61 -160 -18 -38 -32
-72 -29 -74 3 -4 238 41 285 55 18 5 51 104 74 227 19 100 19 307 1 414 -88
496 -460 880 -958 989 -102 22 -322 27 -431 9z"/>
<path d="M2260 4229 c-163 -20 -330 -104 -425 -212 -180 -204 -204 -539 -58
-837 38 -78 60 -109 127 -176 132 -132 267 -182 455 -171 310 19 540 192 607
457 21 82 14 304 -11 395 -9 33 -18 62 -20 64 -5 5 -599 -120 -608 -128 -6 -6
30 -206 39 -219 1 -2 68 10 148 27 81 17 153 31 161 31 12 0 15 -13 15 -58 0
-126 -59 -226 -163 -277 -95 -46 -232 -48 -316 -5 -212 108 -305 527 -161 723
65 88 153 129 280 130 95 1 141 -16 194 -72 17 -17 35 -31 40 -31 22 0 266
104 266 114 0 19 -84 117 -129 150 -70 51 -119 73 -204 90 -82 17 -134 18
-237 5z"/>
<path d="M3321 2888 c-74 -16 -136 -30 -137 -31 -2 -1 -49 -221 -105 -487 -56
-267 -105 -488 -108 -492 -3 -3 -53 63 -110 148 l-103 154 46 302 c26 165 45
302 44 304 -5 4 -206 -40 -213 -47 -3 -4 -17 -67 -31 -140 -13 -74 -25 -138
-27 -143 -1 -4 -39 47 -82 113 l-80 122 -42 -5 c-90 -12 -183 -38 -176 -49 4
-7 78 -123 164 -259 l158 -248 -32 -179 c-18 -99 -35 -182 -37 -184 -3 -3
-137 179 -299 404 -250 348 -297 408 -315 404 -12 -3 -72 -16 -134 -29 -63
-13 -115 -26 -117 -28 -3 -3 791 -1137 807 -1154 5 -5 238 43 246 50 2 2 18
97 35 209 17 113 34 204 37 202 4 -3 56 -81 115 -175 85 -134 112 -170 129
-170 11 0 68 11 125 23 l103 22 139 690 c76 380 138 693 136 696 -1 3 -62 -7
-136 -23z"/>
<path d="M2671 1129 c-72 -110 -131 -208 -131 -217 0 -17 68 -344 73 -348 4
-4 672 138 679 145 12 11 -62 344 -80 362 -22 22 -390 259 -401 259 -5 0 -68
-90 -140 -201z"/>
</g>
</svg>
