<svg xmlns="http://www.w3.org/2000/svg" viewBox="0 0 160.31 49.1"><defs><style>.cls-1{fill:#1e5073;}.cls-2{fill:#3873a0;}.cls-3{fill:#4ca4db;}.cls-4{fill:#092253;}</style></defs><title>fellowship_RGB</title><g id="Layer_2" data-name="Layer 2"><g id="Layer_1-2" data-name="Layer 1"><path class="cls-1" d="M17.19,21.6a4.69,4.69,0,0,0-2.93,1,10,10,0,0,0-.91,1,3.9,3.9,0,0,1-1.56.91,3,3,0,0,1-2.23-.2c-1-.47-1.52-1.47-2.46-2a4.73,4.73,0,0,0-5.53.51A4.7,4.7,0,0,0,4.69,31a4.76,4.76,0,0,0,2.92-1c.4-.32.66-.75,1-1.08A3.87,3.87,0,0,1,10.21,28a3,3,0,0,1,2.34.36c.92.5,1.39,1.44,2.32,2a4.69,4.69,0,1,0,2.32-8.77"/><path class="cls-2" d="M19.35,17.81a4.63,4.63,0,0,0,2.36,2,12.89,12.89,0,0,0,1.3.32,3.55,3.55,0,0,1,1.48.82,3,3,0,0,1,1,2.09,4.08,4.08,0,0,1-.3,1.77,4.69,4.69,0,1,0,5.34-3.14,3.58,3.58,0,0,1-2.51-1.49,3.48,3.48,0,0,1-.27-3,4.64,4.64,0,0,0,0-3.42,4.69,4.69,0,1,0-8.45,4"/><path class="cls-3" d="M13.12,2.3a4.68,4.68,0,0,0-.5,3.43A8.78,8.78,0,0,1,13,7.27,3.51,3.51,0,0,1,12.77,9a3.79,3.79,0,0,1-1.85,1.68c-.47.2-1,.2-1.48.36A4.67,4.67,0,0,0,8,11.79a4.69,4.69,0,1,0,7.41,5,4.49,4.49,0,0,0,.16-1.67,15.17,15.17,0,0,0-.46-1.76,3.76,3.76,0,0,1,.49-2.7,3.29,3.29,0,0,1,1.1-.93,4.23,4.23,0,0,1,1.45-.46A4.77,4.77,0,0,0,20.8,7.65a4.73,4.73,0,0,0,.38-5.45,4.73,4.73,0,0,0-8.06.11"/><path class="cls-1" d="M124.65,25.38c0,1.27-.24,2-.87,2.48a5.47,5.47,0,0,1-2.92.48,4,4,0,0,1-2.45-.64,1.9,1.9,0,0,1-.76-1.55,1.86,1.86,0,0,1,.75-1.55,3.81,3.81,0,0,1,2.2-.56h3.88a.17.17,0,0,1,.17.17ZM121,14.9c-2.2,0-3.81.53-5,1.9a1.27,1.27,0,0,0-.11.13l0,0,0,0a.16.16,0,0,0,0,.23h0l1.87,1.43.13.1,0,0,0,0a.17.17,0,0,0,.24,0c.5-.74,1.38-1,3-1a5.14,5.14,0,0,1,2.6.48,1.87,1.87,0,0,1,.87,1.74v1.69a.21.21,0,0,1-.05.12.17.17,0,0,1-.12,0H120c-3.39,0-5.06,2.11-5.08,4.61,0,2.7,2,4.74,5.53,4.76,2.17,0,3.19-.5,3.83-1.55a.22.22,0,0,1,.14-.08h.06a.18.18,0,0,1,.17.17h0v1.1a.16.16,0,0,0,.16.16h2.58a.17.17,0,0,0,.17-.16V20.05C127.54,16.18,125,14.93,121,14.9Zm-11.45,6.75a.15.15,0,0,1-.12.05h-6.8a.15.15,0,0,1-.16-.17c.05-2.51,1.57-3.91,3.56-3.9s3.48,1.4,3.56,3.9a.16.16,0,0,1,0,.12m-3.52-6.74c-3,0-6.46,1.93-6.47,8.12,0,6.53,3.72,8,7,8a7.26,7.26,0,0,0,5.35-2.19l.09-.1a0,0,0,0,0,0,0s0,0,0,0a.17.17,0,0,0,0-.22L110.16,27h0a.16.16,0,0,0-.23,0v0a5.17,5.17,0,0,1-3.42,1.4,4,4,0,0,1-2.87-1,4.16,4.16,0,0,1-1.14-3.09.18.18,0,0,1,.05-.12.16.16,0,0,1,.11-.05h9.71a.17.17,0,0,0,.17-.16h0V21.54a6.37,6.37,0,0,0-6.48-6.63m-8.19.19H95.14a.17.17,0,0,0-.17.16v0l-3.7,11a.15.15,0,0,1-.15.11h-.06a.16.16,0,0,1-.16-.11l-3.69-11v0A.17.17,0,0,0,87,15.1H84.32a.17.17,0,0,0-.17.17v.07l0,.09,5.63,15.33a.15.15,0,0,0,.19.11h2.11a.17.17,0,0,0,.22-.1L98,15.43,98,15.3v0a.17.17,0,0,0-.17-.16M78.92,25.38c0,1.27-.23,2-.87,2.48a5.47,5.47,0,0,1-2.92.48,4,4,0,0,1-2.45-.64,1.9,1.9,0,0,1-.76-1.55,1.83,1.83,0,0,1,.75-1.55,3.81,3.81,0,0,1,2.2-.56h3.88a.17.17,0,0,1,.12.05.18.18,0,0,1,0,.12ZM75.29,14.9c-2.2,0-3.81.53-5,1.9l-.11.13,0,0,0,0a.15.15,0,0,0,0,.23h0l1.87,1.43.13.1,0,0,0,0a.17.17,0,0,0,.24,0c.5-.74,1.38-1,3-1a5.14,5.14,0,0,1,2.6.48,1.87,1.87,0,0,1,.87,1.74v1.69a.21.21,0,0,1,0,.12.16.16,0,0,1-.12,0H74.27c-3.39,0-5.06,2.11-5.08,4.61,0,2.7,2,4.74,5.53,4.76,2.17,0,3.19-.5,3.82-1.55a.28.28,0,0,1,.15-.08h.06a.18.18,0,0,1,.17.17v1.1a.16.16,0,0,0,.16.16h2.58a.17.17,0,0,0,.17-.16h0V20.05C81.81,16.18,79.24,14.93,75.29,14.9Zm-8.48,2.6h0a.14.14,0,0,0,0-.11V15.26a.16.16,0,0,0-.16-.16H55.78a.16.16,0,0,0-.16.16v2.2a.17.17,0,0,0,.16.17h7.29a.16.16,0,0,1,.17.16.13.13,0,0,1,0,.1l-8,10.57h0l0,0h0a.11.11,0,0,0,0,.08v2.14a.17.17,0,0,0,.17.16H66.69a.16.16,0,0,0,.16-.16V28.32a.17.17,0,0,0-.16-.17H59a.15.15,0,0,1-.15-.09.15.15,0,0,1,0-.17ZM48.92,25.38c0,1.27-.24,2-.87,2.48a5.47,5.47,0,0,1-2.92.48,4,4,0,0,1-2.45-.64,1.9,1.9,0,0,1-.76-1.55,1.83,1.83,0,0,1,.75-1.55,3.81,3.81,0,0,1,2.2-.56h3.88a.17.17,0,0,1,.17.17ZM45.29,14.9c-2.2,0-3.81.53-5,1.9a1.27,1.27,0,0,0-.11.13l0,0,0,0a.15.15,0,0,0,0,.23h0l1.87,1.43.13.1,0,0,0,0a.17.17,0,0,0,.24,0c.49-.74,1.38-1,3-1a5.14,5.14,0,0,1,2.6.48,1.87,1.87,0,0,1,.87,1.74v1.69a.21.21,0,0,1-.05.12.17.17,0,0,1-.12,0H44.27c-3.39,0-5.06,2.11-5.08,4.61,0,2.7,2,4.74,5.53,4.76,2.17,0,3.19-.5,3.83-1.55a.22.22,0,0,1,.14-.08h.06a.18.18,0,0,1,.17.17v1.1a.16.16,0,0,0,.16.16h2.58a.17.17,0,0,0,.17-.16V20.05C51.81,16.18,49.24,14.93,45.29,14.9Z"/><path class="cls-4" d="M9.35,44.63A4.63,4.63,0,0,1,9,46.39a4.29,4.29,0,0,1-.92,1.42,4.14,4.14,0,0,1-1.43.94,4.92,4.92,0,0,1-1.86.35A4.85,4.85,0,0,1,3,48.75a4.18,4.18,0,0,1-1.44-.94,4.29,4.29,0,0,1-.92-1.42,4.82,4.82,0,0,1-.33-1.76,4.68,4.68,0,0,1,.33-1.77,4.15,4.15,0,0,1,.92-1.41A4.35,4.35,0,0,1,3,40.5a4.94,4.94,0,0,1,1.86-.34,4.85,4.85,0,0,1,1.86.35,4.29,4.29,0,0,1,1.43.94A4.15,4.15,0,0,1,9,42.87,4.63,4.63,0,0,1,9.35,44.63Zm-2.08,0a3.57,3.57,0,0,0-.17-1.17,2.52,2.52,0,0,0-.48-.88A2,2,0,0,0,5.85,42a2.63,2.63,0,0,0-1-.19,2.69,2.69,0,0,0-1,.19,2.1,2.1,0,0,0-.77.55,2.41,2.41,0,0,0-.48.88,3.57,3.57,0,0,0-.17,1.17,3.89,3.89,0,0,0,.17,1.17,2.41,2.41,0,0,0,.48.88,2.13,2.13,0,0,0,.77.55,2.91,2.91,0,0,0,1,.19,2.82,2.82,0,0,0,1-.19,2.13,2.13,0,0,0,.77-.55,2.41,2.41,0,0,0,.48-.88A3.6,3.6,0,0,0,7.27,44.63Zm5.08,1.45V49h-2V40.26H13.4a5,5,0,0,1,1.59.22,2.86,2.86,0,0,1,1.09.6,2.4,2.4,0,0,1,.64.91,3.14,3.14,0,0,1,.2,1.12,3.29,3.29,0,0,1-.21,1.2,2.35,2.35,0,0,1-.64.94,3.15,3.15,0,0,1-1.1.61,4.88,4.88,0,0,1-1.57.22Zm0-1.53H13.4a1.49,1.49,0,0,0,1.14-.38,1.46,1.46,0,0,0,.35-1.06,1.53,1.53,0,0,0-.09-.54,1.09,1.09,0,0,0-.27-.42,1.21,1.21,0,0,0-.46-.28,1.9,1.9,0,0,0-.67-.09H12.35ZM23.6,40.26v1.56H20v2h2.74v1.5H20v2.08H23.6V49H18V40.26Zm2.22,0h.23a.43.43,0,0,1,.16,0,.55.55,0,0,1,.14.09l.15.16,4.15,5.25c0-.31,0-.62,0-.94V40.26h1.79V49H31.33a1,1,0,0,1-.39-.07.76.76,0,0,1-.32-.27l-4.12-5.2,0,.44c0,.15,0,.29,0,.41V49H24.76V40.26ZM41,42a.82.82,0,0,1-.19.22.41.41,0,0,1-.26.07.64.64,0,0,1-.3-.08l-.36-.2a2.53,2.53,0,0,0-.45-.19,1.69,1.69,0,0,0-.59-.09A1.27,1.27,0,0,0,38,42a.81.81,0,0,0-.28.66.64.64,0,0,0,.17.44,1.69,1.69,0,0,0,.44.3,5.44,5.44,0,0,0,.62.23l.72.23q.36.14.72.3a2.52,2.52,0,0,1,.62.45,2.06,2.06,0,0,1,.44.66,2.31,2.31,0,0,1,.17.93,3,3,0,0,1-.21,1.13,2.6,2.6,0,0,1-.61.92,2.68,2.68,0,0,1-1,.62,3.71,3.71,0,0,1-1.33.23,3.84,3.84,0,0,1-.83-.09,5,5,0,0,1-1.57-.6,3,3,0,0,1-.6-.47l.6-.94a.52.52,0,0,1,.44-.24.63.63,0,0,1,.36.11l.42.25a2.9,2.9,0,0,0,.53.25,1.92,1.92,0,0,0,.71.12,1.37,1.37,0,0,0,.86-.24,1,1,0,0,0,.3-.78.69.69,0,0,0-.17-.49,1.16,1.16,0,0,0-.44-.32,3.52,3.52,0,0,0-.62-.22l-.71-.22a4.48,4.48,0,0,1-.72-.28A2.21,2.21,0,0,1,36,43.79a2.81,2.81,0,0,1-.17-1A2.51,2.51,0,0,1,36.62,41a2.84,2.84,0,0,1,1-.59,3.43,3.43,0,0,1,1.27-.22,4.15,4.15,0,0,1,.79.07,3.88,3.88,0,0,1,1.36.48,3,3,0,0,1,.53.38Zm10.26,2.6A4.63,4.63,0,0,1,51,46.39,4.29,4.29,0,0,1,50,47.81a4.23,4.23,0,0,1-1.43.94,5,5,0,0,1-1.86.35,4.85,4.85,0,0,1-1.86-.35,4.18,4.18,0,0,1-1.44-.94,4.29,4.29,0,0,1-.92-1.42,4.82,4.82,0,0,1-.33-1.76,4.68,4.68,0,0,1,.33-1.77,4.15,4.15,0,0,1,.92-1.41,4.35,4.35,0,0,1,1.44-1,4.91,4.91,0,0,1,1.86-.34,4.85,4.85,0,0,1,1.86.35,4.39,4.39,0,0,1,1.43.94A4.3,4.3,0,0,1,51,42.87,4.63,4.63,0,0,1,51.28,44.63Zm-2.08,0A3.85,3.85,0,0,0,49,43.46a2.52,2.52,0,0,0-.48-.88,2.1,2.1,0,0,0-.77-.55,2.66,2.66,0,0,0-1-.19,2.69,2.69,0,0,0-1.05.19,2.1,2.1,0,0,0-.77.55,2.41,2.41,0,0,0-.48.88,4.11,4.11,0,0,0,0,2.34,2.41,2.41,0,0,0,.48.88,2.13,2.13,0,0,0,.77.55,2.91,2.91,0,0,0,1.05.19,2.86,2.86,0,0,0,1-.19,2.13,2.13,0,0,0,.77-.55A2.41,2.41,0,0,0,49,45.8,3.89,3.89,0,0,0,49.2,44.63Zm6.68,2.77a1.83,1.83,0,0,0,.73-.14,1.55,1.55,0,0,0,.55-.38,1.62,1.62,0,0,0,.33-.62,2.62,2.62,0,0,0,.12-.82V40.26h2v5.18a4.13,4.13,0,0,1-.26,1.47,3.31,3.31,0,0,1-.75,1.16,3.52,3.52,0,0,1-1.18.76,4.7,4.7,0,0,1-3.14,0,3.52,3.52,0,0,1-1.18-.76,3.15,3.15,0,0,1-.74-1.16,3.9,3.9,0,0,1-.26-1.47V40.26h2v5.17a2.69,2.69,0,0,0,.11.83,1.72,1.72,0,0,0,.34.61,1.5,1.5,0,0,0,.54.39A1.9,1.9,0,0,0,55.88,47.4ZM63,45.77V49H61V40.26H63.8a5.85,5.85,0,0,1,1.62.19,2.86,2.86,0,0,1,1.09.55,2.06,2.06,0,0,1,.62.82,2.66,2.66,0,0,1,.19,1,3,3,0,0,1-.11.8,2.52,2.52,0,0,1-.34.7,2.56,2.56,0,0,1-.56.58,2.87,2.87,0,0,1-.75.41,1.92,1.92,0,0,1,.38.25,1.42,1.42,0,0,1,.31.37l1.86,3H66.28a.8.8,0,0,1-.74-.38l-1.45-2.54a.64.64,0,0,0-.22-.24.68.68,0,0,0-.37-.07Zm0-1.4h.81a2.12,2.12,0,0,0,.71-.11A1.29,1.29,0,0,0,65,44a1.21,1.21,0,0,0,.27-.43,2,2,0,0,0,.08-.54,1.14,1.14,0,0,0-.38-.9,1.71,1.71,0,0,0-1.16-.32H63Zm11.82,2.37a.4.4,0,0,1,.29.12l.8.84a3.39,3.39,0,0,1-1.32,1,4.71,4.71,0,0,1-1.88.35,4.61,4.61,0,0,1-1.79-.34,3.92,3.92,0,0,1-1.34-.94,4.13,4.13,0,0,1-.84-1.41,5.19,5.19,0,0,1-.29-1.78,4.77,4.77,0,0,1,.33-1.8,4.06,4.06,0,0,1,.94-1.41,4.15,4.15,0,0,1,1.44-.93A5.14,5.14,0,0,1,73,40.16a4.49,4.49,0,0,1,.92.09,4.91,4.91,0,0,1,.82.24,3.26,3.26,0,0,1,.69.37,2.91,2.91,0,0,1,.57.47l-.69.91a.75.75,0,0,1-.15.16.47.47,0,0,1-.25.07.46.46,0,0,1-.21,0l-.2-.12-.24-.15A1.77,1.77,0,0,0,74,42a2.77,2.77,0,0,0-.41-.12A3.06,3.06,0,0,0,72,42a2.32,2.32,0,0,0-.79.56,2.67,2.67,0,0,0-.51.88,3.49,3.49,0,0,0-.18,1.16,3.67,3.67,0,0,0,.18,1.19,2.77,2.77,0,0,0,.5.88,2,2,0,0,0,.74.54,2.11,2.11,0,0,0,.9.19,3.84,3.84,0,0,0,.5,0,2.09,2.09,0,0,0,.8-.26,3.49,3.49,0,0,0,.35-.26.54.54,0,0,1,.16-.1A.33.33,0,0,1,74.81,46.74Zm7.64-6.48v1.56H78.86v2h2.75v1.5H78.86v2.08h3.59V49H76.82V40.26Zm9.1,0v1.56H88V44h3V45.6H88V49h-2V40.26Zm6.68,0v1.56H94.64v2h2.75v1.5H94.64v2.08h3.59V49H92.6V40.26Zm3.18,7.12h3.24V49H99.38V40.26h2Zm6.23,0h3.24V49h-5.27V40.26h2Zm12.83-2.75a4.63,4.63,0,0,1-.33,1.76,4.29,4.29,0,0,1-.92,1.42,4.14,4.14,0,0,1-1.43.94,4.92,4.92,0,0,1-1.86.35,4.85,4.85,0,0,1-1.86-.35,4.18,4.18,0,0,1-1.44-.94,4.29,4.29,0,0,1-.92-1.42,4.82,4.82,0,0,1-.33-1.76,4.68,4.68,0,0,1,.33-1.77,4.15,4.15,0,0,1,.92-1.41,4.35,4.35,0,0,1,1.44-1,4.94,4.94,0,0,1,1.86-.34,4.85,4.85,0,0,1,1.86.35,4.29,4.29,0,0,1,1.43.94,4.15,4.15,0,0,1,.92,1.42A4.63,4.63,0,0,1,120.47,44.63Zm-2.08,0a3.57,3.57,0,0,0-.17-1.17,2.52,2.52,0,0,0-.48-.88A2,2,0,0,0,117,42a2.63,2.63,0,0,0-1-.19,2.69,2.69,0,0,0-1.05.19,2.1,2.1,0,0,0-.77.55,2.41,2.41,0,0,0-.48.88,3.57,3.57,0,0,0-.17,1.17,3.89,3.89,0,0,0,.17,1.17,2.41,2.41,0,0,0,.48.88,2.13,2.13,0,0,0,.77.55,2.91,2.91,0,0,0,1.05.19,2.82,2.82,0,0,0,1-.19,2.13,2.13,0,0,0,.77-.55,2.41,2.41,0,0,0,.48-.88A3.6,3.6,0,0,0,118.39,44.63Zm2.39-4.37h1.7a.74.74,0,0,1,.44.12.55.55,0,0,1,.24.32l1.2,4.56c0,.14.08.3.12.47a4.18,4.18,0,0,1,.09.53c0-.19.08-.37.13-.53l.14-.47,1.41-4.56a.72.72,0,0,1,.23-.31.68.68,0,0,1,.43-.13h.6a.76.76,0,0,1,.44.12.58.58,0,0,1,.23.32l1.41,4.56.14.44c0,.16.09.33.12.51,0-.18.07-.34.1-.5s.07-.31.11-.45l1.2-4.56a.5.5,0,0,1,.22-.31.69.69,0,0,1,.44-.13h1.59L130.81,49H129l-1.65-5.42c-.06-.19-.12-.39-.17-.59a5.76,5.76,0,0,1-.18.59L125.32,49h-1.84ZM139.16,42a.67.67,0,0,1-.19.22.37.37,0,0,1-.25.07.61.61,0,0,1-.3-.08l-.36-.2a2.34,2.34,0,0,0-.46-.19,1.67,1.67,0,0,0-.58-.09,1.27,1.27,0,0,0-.85.24.81.81,0,0,0-.28.66.6.6,0,0,0,.17.44,1.54,1.54,0,0,0,.44.3,5.44,5.44,0,0,0,.62.23l.72.23c.24.09.48.19.71.3a2.4,2.4,0,0,1,.63.45,2.06,2.06,0,0,1,.44.66,2.31,2.31,0,0,1,.17.93,3,3,0,0,1-.21,1.13,2.74,2.74,0,0,1-.61.92,2.63,2.63,0,0,1-1,.62,3.65,3.65,0,0,1-1.32.23,4,4,0,0,1-.84-.09,4.86,4.86,0,0,1-1.56-.6,3,3,0,0,1-.6-.47l.6-.94a.51.51,0,0,1,.44-.24.63.63,0,0,1,.36.11l.42.25a2.9,2.9,0,0,0,.53.25,1.88,1.88,0,0,0,.71.12,1.34,1.34,0,0,0,.85-.24.93.93,0,0,0,.31-.78.69.69,0,0,0-.17-.49,1.16,1.16,0,0,0-.44-.32,3.52,3.52,0,0,0-.62-.22l-.71-.22a4.48,4.48,0,0,1-.72-.28,2.13,2.13,0,0,1-1.06-1.15,2.81,2.81,0,0,1-.17-1,2.47,2.47,0,0,1,.78-1.79,2.89,2.89,0,0,1,.94-.59,3.52,3.52,0,0,1,1.28-.22,4.53,4.53,0,0,1,2.15.55,3.39,3.39,0,0,1,.53.38Zm9.27,7h-2V45.3h-3.55V49h-2V40.26h2v3.65h3.55V40.26h2Zm3.66,0h-2V40.26h2Zm3.65-2.92V49h-2V40.26h3.08a5,5,0,0,1,1.59.22,2.94,2.94,0,0,1,1.09.6,2.27,2.27,0,0,1,.63.91,2.94,2.94,0,0,1,.21,1.12,3.29,3.29,0,0,1-.21,1.2,2.46,2.46,0,0,1-.64.94,3.15,3.15,0,0,1-1.1.61,4.88,4.88,0,0,1-1.57.22Zm0-1.53h1a1.29,1.29,0,0,0,1.49-1.44,1.53,1.53,0,0,0-.09-.54,1.09,1.09,0,0,0-.27-.42,1.25,1.25,0,0,0-.47-.28,1.82,1.82,0,0,0-.66-.09h-1v2.77Z"/></g></g></svg>