<?xml version="1.0" encoding="UTF-8"?>
<svg width="349px" height="91px" viewBox="0 0 349 91" version="1.1" xmlns="http://www.w3.org/2000/svg" xmlns:xlink="http://www.w3.org/1999/xlink">
    <!-- Generator: Sketch 49.2 (51160) - http://www.bohemiancoding.com/sketch -->
    <title>Logo/White</title>
    <desc>Created with Sketch.</desc>
    <defs>
        <filter x="-1.5%" y="-3.1%" width="103.1%" height="108.6%" filterUnits="objectBoundingBox" id="filter-1">
            <feOffset dx="0" dy="2" in="SourceAlpha" result="shadowOffsetOuter1"></feOffset>
            <feGaussianBlur stdDeviation="2" in="shadowOffsetOuter1" result="shadowBlurOuter1"></feGaussianBlur>
            <feComposite in="shadowBlurOuter1" in2="SourceAlpha" operator="out" result="shadowBlurOuter1"></feComposite>
            <feColorMatrix values="0 0 0 0 0.0470588235   0 0 0 0 0   0 0 0 0 0.2  0 0 0 0.1 0" type="matrix" in="shadowBlurOuter1" result="shadowMatrixOuter1"></feColorMatrix>
            <feMerge>
                <feMergeNode in="shadowMatrixOuter1"></feMergeNode>
                <feMergeNode in="SourceGraphic"></feMergeNode>
            </feMerge>
        </filter>
        <polygon id="path-2" points="0.112358004 83.2300003 0.112358004 1.33305942 91.7040101 1.33305942 91.7040101 83.2300003"></polygon>
    </defs>
    <g id="__Wireframes" stroke="none" stroke-width="1" fill="none" fill-rule="evenodd">
        <g id="Brand-Guidelines-&gt;-Design-&gt;-Logo" transform="translate(-328.000000, -1331.000000)">
            <g id="White-Logos-Copy-2" filter="url(#filter-1)" transform="translate(279.000000, 1296.000000)">
                <g id="Logo/Gray" transform="translate(53.000000, 36.000000)">
                    <g id="azavea_vector_illus10_gray">
                        <g id="Group-5">
                            <mask id="mask-3" fill="white">
                                <use xlink:href="#path-2"></use>
                            </mask>
                            <g id="Clip-2"></g>
                            <path d="M45.8982448,58.4135882 C43.0630778,58.4135882 40.2840898,59.3814005 38.0781277,61.1427446 C37.1530468,61.8806551 36.3122344,62.9838128 35.6249779,63.6976207 C34.475181,64.8360052 33.0201449,65.6109966 31.4845855,66.0986109 C29.407835,66.7530893 27.4846405,66.4694202 25.5071396,65.5702076 C22.8068023,64.3465369 21.4603788,61.6915424 18.9454322,60.1879107 C14.3125371,57.4161112 8.23209645,57.9908656 4.1984441,61.5469268 C0.337074013,64.9528101 -1.04680207,70.5260738 0.825831332,75.3076597 C2.67786577,80.0299161 7.39315669,83.2300003 12.5091912,83.2300003 C15.3331223,83.2244381 18.108365,82.2566259 20.3143272,80.5101141 C21.377983,79.666523 22.0671121,78.5262844 23.0577351,77.6456123 C24.24873,76.5813896 25.7187472,75.8694358 27.2543066,75.4318808 C29.4040897,74.8144833 31.548255,75.3373244 33.4920485,76.3811526 C35.9451982,77.6975256 37.2110984,80.2004883 39.6979556,81.6058556 C44.4076286,84.2627042 50.4749608,83.5526044 54.4337079,79.9001328 C58.1471399,76.475709 59.4130401,71.0285204 57.5741141,66.3396369 C55.7220796,61.6173805 51.0198972,58.4098801 45.8982448,58.4135882" id="Fill-1" fill="#343534" mask="url(#mask-3)"></path>
                            <path d="M35.0126268,7.42360208 C33.4208884,10.1527585 32.9433669,13.4251505 33.6849297,16.4880353 C34.0519659,17.9898129 34.6736802,19.0392032 34.776675,20.5539592 C34.8703067,21.9074131 34.7935287,23.9023671 34.0856733,25.1074974 C32.9152774,27.1061595 31.3553738,28.6487261 29.1437937,29.5535008 C27.8816388,30.0744879 26.4883995,30.0837581 25.1869193,30.5120428 C23.834878,30.957014 22.5558694,31.6318869 21.4322893,32.4977266 C17.1757936,35.7886591 15.5540931,41.5936786 17.4398349,46.5903339 C19.2843788,51.4738923 24.1700794,54.774095 29.443415,54.653582 C34.8834151,54.5312149 39.752262,50.823122 41.2278971,45.6280837 C41.6305133,44.1967599 41.7728334,42.6949822 41.6454943,41.2154531 C41.5013016,39.5468113 40.742885,38.1636926 40.4039384,36.5729208 C39.86462,34.0254609 40.4488816,31.6133464 41.7222723,29.4200095 C42.2990434,28.4336567 43.6847921,27.5325901 44.6510709,26.9652519 C45.978768,26.1865524 47.1042207,26.0530611 48.5405305,25.7434353 C51.2595942,25.1575566 53.7427061,23.6631952 55.5198352,21.5384579 C58.9018112,17.4929285 59.3119179,11.6174552 56.5422931,7.13993297 C51.6809368,-0.726786218 39.6567576,-0.571046314 35.0126268,7.42360208" id="Fill-3" fill="#949594" mask="url(#mask-3)"></path>
                            <path d="M51.649102,48.4035913 C53.0666855,50.8323922 55.3044824,52.7327898 57.9467681,53.7432452 C59.0572397,54.1696758 60.4261348,54.3309779 61.4111399,54.5701499 C62.8942656,54.9650618 64.2331985,55.7548856 65.3829954,56.7523626 C67.1002002,58.2411619 67.8904515,60.0266087 68.107677,62.2848373 C68.2743414,64.0146626 67.8529988,65.3588463 67.3155531,66.9625965 C66.8155599,68.4699363 66.6020797,70.0662703 66.7013293,71.647772 C67.0533844,77.2247438 71.3023896,81.9507082 76.8285308,83.0019526 C81.996999,83.9827431 87.3901832,81.5706287 90.0324689,77.0578796 C92.6953536,72.5061955 92.1373089,66.6325762 88.6392297,62.672333 C86.8096668,60.6013631 84.2909749,59.1811635 81.562548,58.6601764 C79.0344929,58.1762703 76.2592502,57.0786748 74.8791194,54.7258898 C73.4858801,52.3452941 73.1132261,49.3695495 74.1656461,46.7813006 C75.3341693,43.9112367 75.3360419,40.6462609 74.206844,37.7595105 C72.2724137,32.8036443 67.2312846,29.5479387 61.8661898,29.8130673 C52.6902862,30.2654546 47.0480417,40.533164 51.649102,48.4035913" id="Fill-4" fill="#676867" mask="url(#mask-3)"></path>
                        </g>
                        <path d="M261.213634,41.2284315 L253.955307,41.2284315 C253.708119,41.2284315 253.50962,41.4268144 253.50962,41.6734026 L253.50962,41.5992407 L243.642715,70.7392892 C243.580918,70.9117155 243.416126,71.0340826 243.22699,71.0340826 L243.05658,71.0340826 C242.865572,71.0340826 242.693289,70.9117155 242.63711,70.7392892 L232.781441,41.6010948 L232.781441,41.6752567 C232.781441,41.4305225 232.579196,41.2321395 232.332009,41.2321395 L225.073682,41.2321395 C224.830239,41.2321395 224.627995,41.4305225 224.627995,41.6752567 L224.627995,41.7345861 L224.654212,41.808748 L224.676683,41.8680775 L224.770315,42.1165197 L239.783217,82.6292892 C239.869358,82.8573369 240.017296,82.9333528 240.281338,82.9240826 L246.013469,82.9240826 L245.936691,82.8962719 C246.168897,82.97785 246.425448,82.8573369 246.509716,82.6292892 L261.524491,42.1146657 L261.661193,41.7549806 L261.661193,41.6734026 C261.661193,41.4268144 261.457076,41.2284315 261.213634,41.2284315" id="Fill-6" fill="#272726"></path>
                        <path d="M292.475376,58.5563498 C292.391107,58.6416359 292.276877,58.6861331 292.158901,58.6861331 L274.014956,58.6861331 C273.891362,58.6861331 273.784622,58.6416359 273.698481,58.5600579 C273.617958,58.4729177 273.573014,58.3616749 273.573014,58.2411619 C273.711589,51.6092377 277.777076,47.8881664 283.087865,47.9215392 C288.394908,47.8881664 292.379872,51.6129458 292.593352,58.2374538 C292.59897,58.3561128 292.557772,58.4692096 292.475376,58.5563498 Z M283.087865,40.7241308 C274.968126,40.7667739 265.844656,45.8412991 265.799713,62.2069673 C265.855892,79.4644319 275.75276,83.3690538 284.441779,83.4320913 C289.705751,83.4283833 294.701937,81.7263686 298.718736,77.6660068 C298.803004,77.5788666 298.889145,77.4880183 298.975287,77.3990241 C298.99214,77.3823377 299.018357,77.3712134 299.033338,77.352673 C299.042701,77.3415487 299.046447,77.3285704 299.053937,77.315592 C299.186894,77.1320414 299.158805,76.8780371 298.980904,76.7278593 L294.039025,72.5581088 L294.009063,72.5321521 C294.00719,72.5321521 294.00719,72.5321521 294.00719,72.5321521 C293.819927,72.3745582 293.539032,72.3930986 293.376113,72.5785033 L293.415438,72.5395683 C290.840567,74.881229 287.466082,76.2328289 284.275114,76.236537 C281.222722,76.238391 278.529875,75.3243461 276.614171,73.4814239 C274.689104,71.6329396 273.573014,68.8759725 273.573014,65.3106411 C273.573014,65.1956902 273.621703,65.0844474 273.704099,65.0047234 C273.784622,64.9212913 273.898853,64.8749402 274.014956,64.8749402 L299.924712,64.8749402 C300.173772,64.8749402 300.370398,64.6784113 300.370398,64.4336771 L300.370398,58.2522862 C300.361035,47.4932545 292.361145,40.7408172 283.087865,40.7241308 Z" id="Fill-7" fill="#272726"></path>
                        <path d="M178.34586,47.5841028 L178.360841,47.5618542 C178.428256,47.474714 178.460091,47.3727415 178.454473,47.2689149 L178.454473,41.6734026 C178.454473,41.4268144 178.254101,41.2284315 178.008786,41.2284315 L148.908063,41.2284315 C148.660876,41.2284315 148.460504,41.4268144 148.460504,41.6734026 L148.460504,47.474714 C148.460504,47.7194482 148.660876,47.9215392 148.908063,47.9215392 L168.36847,47.9215392 C168.538879,47.9215392 168.684945,48.0123875 168.75985,48.1607112 C168.836628,48.3090349 168.816029,48.4814613 168.718652,48.6168067 L147.404339,76.5331844 C147.396848,76.5406006 147.39123,76.5517249 147.38374,76.5591411 L147.331306,76.6277408 L147.340669,76.6221786 C147.297598,76.6907784 147.269509,76.7649402 147.269509,76.8502264 L147.269509,82.4791115 C147.269509,82.7256996 147.469881,82.9240826 147.715196,82.9240826 L178.008786,82.9240826 C178.254101,82.9240826 178.454473,82.7256996 178.454473,82.4791115 L178.454473,76.1734994 C178.454473,75.9306193 178.254101,75.7322363 178.008786,75.7322363 L157.346149,75.7322363 C157.179485,75.7322363 157.024056,75.6339719 156.949151,75.4856482 C156.877991,75.3391785 156.89859,75.1630441 156.99784,75.0314068 L178.34586,47.5841028" id="Fill-8" fill="#272726"></path>
                        <path d="M130.57311,68.4143149 C130.57311,71.7627228 129.951395,73.8095901 128.245426,74.9572449 C126.558184,76.0733809 124.075072,76.2272667 120.466507,76.238391 C117.475911,76.236537 115.346727,75.5968909 113.931016,74.5308142 C112.526541,73.4665915 111.886101,71.9722301 111.889846,70.4296634 C111.886101,68.7702918 112.549013,67.3241356 113.887946,66.3563233 C115.225006,65.3885111 117.191271,64.8767942 119.779251,64.8749402 L130.131168,64.8749402 C130.249144,64.8749402 130.363375,64.9268535 130.440153,65.0047234 C130.524421,65.0844474 130.57311,65.1956902 130.57311,65.3143492 L130.57311,68.4143149 Z M120.882232,40.7241308 C115.033998,40.7371091 110.734431,42.1165197 107.577171,45.7374725 C107.498521,45.8283208 107.346837,45.9766445 107.270059,46.0674927 C107.270059,46.0693468 107.341219,46.0044552 107.337474,46.0063092 C107.315003,46.0267037 107.290658,46.0415361 107.270059,46.0674927 C107.123994,46.2584595 107.161447,46.5365665 107.356201,46.6867443 L107.358073,46.6885983 C107.358073,46.6885983 107.356201,46.6885983 107.356201,46.6867443 L112.352386,50.465291 L112.708187,50.7341277 L112.766238,50.7786248 L112.708187,50.7341277 C112.906686,50.8805974 113.183836,50.8435165 113.333646,50.6506956 C114.661343,48.7039468 117.032097,47.8937285 121.311065,47.9215392 C124.438362,47.9233933 126.713612,48.2645378 128.267898,49.1952692 C129.846528,50.1260005 130.586218,51.7056481 130.57311,53.8044287 L130.57311,58.2522862 C130.57311,58.3690911 130.524421,58.4803339 130.440153,58.5619119 C130.363375,58.6416359 130.249144,58.6861331 130.131168,58.6861331 L118.170658,58.6861331 C109.127712,58.7139438 104.652118,64.2575427 104.622156,70.8542401 C104.6465,77.9978811 109.957288,83.4042806 119.363526,83.4320913 C125.172435,83.4154049 127.895244,82.1342588 129.580614,79.3624593 C129.664882,79.2326761 129.807202,79.151098 129.962631,79.151098 L130.131168,79.151098 C130.249144,79.151098 130.363375,79.1974492 130.440153,79.2790272 C130.524421,79.3587512 130.57311,79.46814 130.57311,79.5849449 L130.57311,82.4828196 C130.57311,82.7275537 130.773481,82.9277907 131.018796,82.9277907 L137.893234,82.9277907 C138.138548,82.9277907 138.33892,82.7275537 138.33892,82.4828196 L138.33892,54.3087293 C138.30334,44.0910792 131.432648,40.7890224 120.882232,40.7241308 Z" id="Fill-9" fill="#272726"></path>
                        <path d="M210.652532,68.4143149 C210.652532,71.7627228 210.034563,73.8095901 208.330466,74.9572449 C206.643224,76.0733809 204.156367,76.2272667 200.549675,76.238391 C197.559079,76.236537 195.429895,75.5968909 194.014184,74.5308142 C192.609709,73.4665915 191.967396,71.9722301 191.974886,70.4296634 C191.967396,68.7702918 192.632181,67.3241356 193.971114,66.3563233 C195.310046,65.3885111 197.274439,64.8767942 199.864291,64.8749402 L210.214336,64.8749402 C210.330439,64.8749402 210.446542,64.9268535 210.52332,65.0047234 C210.607589,65.0844474 210.652532,65.1956902 210.652532,65.3143492 L210.652532,68.4143149 Z M200.963527,40.7241308 C195.115293,40.7371091 190.813854,42.1165197 187.660339,45.7374725 C187.581688,45.8283208 187.431878,45.9766445 187.356972,46.0674927 C187.353227,46.0693468 187.424387,46.0044552 187.424387,46.0044552 L187.422514,46.0063092 C187.39817,46.0267037 187.373826,46.0415361 187.356972,46.0674927 C187.205289,46.2584595 187.244614,46.5365665 187.439368,46.6867443 L187.441241,46.6885983 C187.441241,46.6885983 187.439368,46.6885983 187.439368,46.6867443 L192.435554,50.465291 L192.789482,50.7341277 L192.849406,50.7786248 L192.789482,50.7341277 C192.987981,50.8805974 193.268876,50.8435165 193.414941,50.6506956 C194.744511,48.7039468 197.117138,47.8937285 201.39236,47.9215392 C204.52153,47.9233933 206.79678,48.2645378 208.351065,49.1952692 C209.929695,50.1260005 210.671258,51.7056481 210.652532,53.8044287 L210.652532,58.2522862 C210.652532,58.3690911 210.607589,58.4803339 210.52332,58.5619119 C210.446542,58.6416359 210.330439,58.6861331 210.214336,58.6861331 L198.253826,58.6861331 C189.212752,58.7139438 184.735286,64.2575427 184.705323,70.8542401 C184.729668,77.9978811 190.040456,83.4042806 199.446694,83.4320913 C205.25373,83.4154049 207.978411,82.1342588 209.663781,79.3624593 C209.749923,79.2326761 209.892243,79.151098 210.045799,79.151098 L210.214336,79.151098 C210.330439,79.151098 210.446542,79.1974492 210.52332,79.2790272 C210.607589,79.3587512 210.652532,79.46814 210.652532,79.5849449 L210.652532,82.4828196 C210.652532,82.7275537 210.858522,82.9277907 211.100091,82.9277907 L217.974529,82.9277907 C218.221716,82.9277907 218.423961,82.7275537 218.423961,82.4828196 L218.423961,54.3087293 C218.384635,44.0910792 211.513943,40.7890224 200.963527,40.7241308 Z" id="Fill-10" fill="#272726"></path>
                        <path d="M332.723886,68.4143149 C332.723886,71.7627228 332.104044,73.8095901 330.398075,74.9572449 C328.70896,76.0733809 326.22772,76.2272667 322.615411,76.238391 C319.62856,76.236537 317.499376,75.5968909 316.083665,74.5308142 C314.67919,73.4665915 314.035004,71.9722301 314.042495,70.4296634 C314.035004,68.7702918 314.701662,67.3241356 316.040595,66.3563233 C317.379528,65.3885111 319.342047,64.8767942 321.931899,64.8749402 L332.280072,64.8749402 C332.401793,64.8749402 332.512278,64.9268535 332.592801,65.0047234 C332.675197,65.0844474 332.723886,65.1956902 332.723886,65.3143492 L332.723886,68.4143149 Z M323.033008,40.7241308 C317.182901,40.7371091 312.885207,42.1165197 309.727948,45.7374725 C309.65117,45.8283208 309.497614,45.9766445 309.422708,46.0674927 C309.420836,46.0693468 309.491996,46.0044552 309.490123,46.0063092 C309.467651,46.0267037 309.443307,46.0415361 309.422708,46.0674927 C309.272898,46.2584595 309.314096,46.5365665 309.508849,46.6867443 L309.508849,46.6885983 C309.508849,46.6885983 309.508849,46.6885983 309.508849,46.6867443 L314.505035,50.465291 L314.503163,50.465291 L314.858963,50.7341277 L314.917015,50.7786248 L314.858963,50.7341277 C315.05559,50.8805974 315.336485,50.8435165 315.486295,50.6506956 C316.813992,48.7039468 319.184746,47.8937285 323.459968,47.9215392 C326.589139,47.9233933 328.864388,48.2645378 330.418674,49.1952692 C331.995431,50.1260005 332.738867,51.7056481 332.723886,53.8044287 L332.723886,58.2522862 C332.723886,58.3690911 332.675197,58.4803339 332.592801,58.5619119 C332.512278,58.6416359 332.401793,58.6861331 332.280072,58.6861331 L320.32518,58.6861331 C311.280361,58.7139438 306.804767,64.2575427 306.772932,70.8542401 C306.799149,77.9978811 312.109937,83.4042806 321.514302,83.4320913 C327.323211,83.4154049 330.04602,82.1342588 331.733263,79.3624593 C331.815659,79.2326761 331.957979,79.151098 332.11528,79.151098 L332.280072,79.151098 C332.401793,79.151098 332.512278,79.1974492 332.592801,79.2790272 C332.675197,79.3587512 332.723886,79.46814 332.723886,79.5849449 L332.723886,82.4828196 C332.723886,82.7275537 332.924258,82.9277907 333.171445,82.9277907 L340.04401,82.9277907 C340.289325,82.9277907 340.489696,82.7275537 340.489696,82.4828196 L340.489696,54.3087293 C340.454116,44.0910792 333.585297,40.7890224 323.033008,40.7241308 Z" id="Fill-11" fill="#272726"></path>
                    </g>
                </g>
            </g>
        </g>
    </g>
</svg>