<?xml version="1.0" encoding="UTF-8"?>
<svg width="54px" height="49px" viewBox="0 0 54 49" version="1.1" xmlns="http://www.w3.org/2000/svg" xmlns:xlink="http://www.w3.org/1999/xlink">
    <!-- Generator: Sketch 49.2 (51160) - http://www.bohemiancoding.com/sketch -->
    <title>Group 2</title>
    <desc>Created with Sketch.</desc>
    <defs></defs>
    <g id="__Wireframes" stroke="none" stroke-width="1" fill="none" fill-rule="evenodd">
        <g id="Brand-Guidelines-&gt;-Design-&gt;-Logo" transform="translate(-368.000000, -1747.000000)" fill="#FFFFFF" fill-rule="nonzero">
            <g id="White-Icon-Copy" transform="translate(279.000000, 1687.000000)">
                <g id="Group-2" transform="translate(89.000000, 60.550000)">
                    <path d="M22.2213817,34.5995409 C21.6810227,35.030838 21.1910783,35.6781367 20.789892,36.0974338 C20.1195912,36.7630855 19.2703543,37.2176769 18.3728329,37.5028554 C17.1621732,37.8868581 16.0388514,37.7202687 14.8842868,37.1936768 C13.3093641,36.4764952 12.5226128,34.9207196 11.0556198,34.0397722 C8.35311494,32.4148196 4.80421333,32.7515279 2.45035002,34.8360131 C0.197315843,36.8308507 -0.61002732,40.0984031 0.48276171,42.899364 C1.56276958,45.6657364 4.31497899,47.5405731 7.30008951,47.5405731 C8.94814886,47.5384554 10.5685157,46.9695102 11.8551523,45.9466795 C12.4757485,45.4525584 12.877645,44.7840831 13.4549273,44.2680795 C14.1515004,43.644781 15.0085481,43.2283074 15.9046493,42.9706586 C17.1586229,42.6085384 18.4083362,42.9155994 19.5451492,43.5268978 C20.9752188,44.2984326 21.7151058,45.7652665 23.1664774,46.5883311 C25.9158465,48.1455185 29.4555173,47.7311627 31.7674868,45.5887946 C33.932473,43.5826629 34.6709399,40.3899345 33.5980327,37.6454446 C32.5173147,34.8776605 29.772206,32.9992943 26.7842552,33.0000002 C25.1312254,33.0000002 23.5087284,33.5682395 22.2213817,34.5995409 Z" id="Shape"></path>
                    <path d="M18.9350064,8.88011457 C19.1480257,9.75965017 19.5115786,10.3730663 19.5719341,11.2610725 C19.6266091,12.0566075 19.581165,13.2241451 19.1686176,13.9314442 C18.4855357,15.0996877 17.5745231,16.0046353 16.2843362,16.5354625 C15.5479995,16.8397 14.7328456,16.846053 13.9744969,17.096643 C13.1849053,17.3578213 12.4400478,17.7524123 11.7839484,18.261357 C9.30014327,20.1877235 8.35362749,23.5886886 9.45422723,26.5160033 C10.5299747,29.3783764 13.3815931,31.3110959 16.4575919,31.2412131 C19.6337097,31.1699184 22.4739671,28.998609 23.3352752,25.9527053 C23.5717266,25.114817 23.654094,24.2352814 23.5788272,23.36704 C23.4943296,22.390092 23.0519595,21.5797333 22.8552717,20.6458444 C22.539293,19.1535986 22.8801239,17.7404122 23.6249814,16.4571091 C23.9594217,15.8782815 24.7703152,15.3495718 25.3326862,15.0185107 C26.1073664,14.5603898 26.764886,14.4827422 27.6027619,14.3013292 C29.1890456,13.9575621 30.6397071,13.0822618 31.6749809,11.8377824 C33.6496699,9.46811871 33.8889616,6.02409448 32.2728551,3.40172309 C29.436148,-1.20630933 22.4192921,-1.11524986 19.7103967,3.5683125 C18.7795023,5.16714728 18.5011571,7.08433723 18.9350064,8.88011457 Z" id="Shape"></path>
                    <path d="M33.6296764,31.0311953 C34.2779651,31.2810794 35.0753674,31.3756683 35.6505195,31.515434 C36.5153779,31.7469651 37.2971587,32.2100272 37.9674595,32.7945019 C38.9707804,33.6676845 39.4316122,34.7131036 39.5587137,36.0359364 C39.6559925,37.0510024 39.4096002,37.8373609 39.0964618,38.7768969 C38.8039153,39.6585501 38.6803641,40.5945567 38.7378793,41.5227986 C38.9423778,44.790351 41.4240527,47.5595469 44.6470348,48.1750806 C47.6640982,48.7503788 50.8103933,47.3357806 52.3526531,44.6908208 C53.906984,42.0268021 53.5810644,38.5841896 51.5396294,36.2632321 C50.4724027,35.0505177 49.0018594,34.2182766 47.4106052,33.9126274 C45.9365117,33.6302724 44.3147247,32.9872091 43.5109319,31.6064935 C42.6971981,30.2109543 42.4799184,28.4702361 43.093414,26.9525784 C43.7743657,25.2690371 43.777206,23.3574943 43.1189763,21.6661883 C41.9878438,18.7628737 39.0495976,16.8541544 35.9182138,17.0087437 C30.5607783,17.2748633 27.26963,23.290435 29.9550934,27.901291 C30.7816083,29.3257716 32.0874166,30.4396618 33.6296764,31.0311953 Z" id="Shape"></path>
                </g>
            </g>
        </g>
    </g>
</svg>