<svg viewBox="0 0 135 58" xmlns="http://www.w3.org/2000/svg">
  <g fill="none">
    <path d="M17.195 21.598a4.69 4.69 0 0 0-2.93 1.033c-.346.278-.66.696-.917.967-.432.43-.977.723-1.553.907-.776.248-1.498.14-2.238-.198-1.013-.464-1.516-1.467-2.46-2.038-1.733-1.05-4.01-.831-5.524.515C.125 24.074-.39 26.182.31 27.99a4.738 4.738 0 0 0 4.377 2.997 4.712 4.712 0 0 0 2.925-1.028c.397-.319.656-.751 1.026-1.084.449-.402.998-.672 1.571-.837.808-.234 1.61-.035 2.338.359.92.498 1.393 1.445 2.327 1.976 1.763 1.007 4.037.739 5.52-.644a4.734 4.734 0 0 0 1.176-5.131c-.694-1.786-2.457-3.001-4.375-3" fill="#1E5073"/>
    <path d="M19.35 17.81a4.69 4.69 0 0 0 2.358 2.022c.418.16.93.222 1.298.313.558.149 1.06.448 1.488.826.644.563.94 1.238 1.022 2.092.063.656-.096 1.162-.297 1.771a4.794 4.794 0 0 0-.231 1.772c.132 2.11 1.723 3.898 3.794 4.297 1.936.37 3.958-.543 4.947-2.251a4.734 4.734 0 0 0-.521-5.443 4.734 4.734 0 0 0-2.652-1.518c-.947-.182-1.988-.598-2.503-1.488-.523-.9-.663-2.028-.268-3.006a4.673 4.673 0 0 0 .015-3.414c-.725-1.875-2.614-3.108-4.622-3.007-3.44.172-5.552 4.057-3.828 7.035" fill="#3873A0"/>
    <path d="M13.118 2.304a4.7 4.7 0 0 0-.498 3.43c.137.57.37.965.409 1.538.036.515.006 1.268-.259 1.723-.438.757-1.023 1.34-1.85 1.684-.474.197-.997.2-1.483.36-.508.17-.984.424-1.406.754-1.596 1.244-2.203 3.441-1.498 5.331.692 1.848 2.523 3.097 4.498 3.051 2.037-.046 3.861-1.448 4.414-3.415a4.77 4.77 0 0 0 .158-1.668c-.053-.633-.34-1.156-.466-1.758-.201-.964.015-1.877.495-2.707.214-.372.734-.713 1.096-.927.497-.294.92-.346 1.457-.463A4.724 4.724 0 0 0 20.8 7.646a4.74 4.74 0 0 0 .383-5.45C19.36-.78 14.858-.72 13.118 2.305" fill="#4CA4DB"/>
    <path d="M124.647 25.383c0 1.266-.233 2.04-.87 2.476-.635.42-1.563.48-2.916.483-1.12 0-1.916-.241-2.448-.645a1.904 1.904 0 0 1-.765-1.551c-.001-.63.249-1.177.75-1.543.5-.366 1.237-.558 2.207-.56h3.875a.18.18 0 0 1 .12.048.17.17 0 0 1 .047.118v1.174zm-3.63-10.479c-2.192.005-3.802.528-4.984 1.9-.03.032-.088.088-.113.123l.022-.023c-.008.008-.017.013-.022.023a.163.163 0 0 0 .03.234l1.872 1.43.133.1.021.017-.021-.016a.168.168 0 0 0 .235-.032c.496-.736 1.385-1.04 2.986-1.033 1.174.002 2.026.131 2.609.484.589.35.867.948.862 1.743v1.683a.17.17 0 0 1-.048.118.17.17 0 0 1-.119.046h-4.478c-3.39.01-5.065 2.11-5.077 4.605.01 2.703 2 4.748 5.524 4.76 2.175-.007 3.195-.492 3.827-1.542a.172.172 0 0 1 .143-.08h.061a.165.165 0 0 1 .167.165v1.097c0 .091.076.167.167.167h2.574a.17.17 0 0 0 .17-.167v-10.66c-.016-3.867-2.588-5.117-6.541-5.142zm-11.447 6.749a.172.172 0 0 1-.12.05h-6.796a.172.172 0 0 1-.12-.05.176.176 0 0 1-.046-.12c.052-2.51 1.575-3.916 3.564-3.906 1.988-.01 3.483 1.399 3.56 3.905a.173.173 0 0 1-.042.12v.001zm-3.518-6.748c-3.042.017-6.459 1.935-6.475 8.128.02 6.53 3.727 8.007 6.983 8.032 1.972 0 3.844-.646 5.347-2.182l.098-.101c.006-.007.015-.01.02-.018.005-.004.005-.008.008-.013a.167.167 0 0 0-.027-.224l-1.85-1.576-.012-.01a.17.17 0 0 0-.238.017l.016-.015c-.965.886-2.231 1.399-3.424 1.4-1.144 0-2.152-.346-2.87-1.044-.72-.699-1.14-1.742-1.14-3.09 0-.044.019-.087.05-.117a.16.16 0 0 1 .116-.048h9.708a.166.166 0 0 0 .164-.168v-2.338c-.003-4.072-3-6.628-6.474-6.633zm-8.194.191h-2.72a.169.169 0 0 0-.167.167v-.028l-3.696 11.028a.166.166 0 0 1-.154.11h-.065a.165.165 0 0 1-.157-.11l-3.693-11.026v.028a.167.167 0 0 0-.167-.167h-2.72a.168.168 0 0 0-.167.167v.023l.01.026.008.024.035.094 5.623 15.33c.033.086.088.114.189.11h2.147l-.03-.01a.168.168 0 0 0 .215-.1l5.625-15.332.053-.135v-.032a.17.17 0 0 0-.169-.167zM78.917 25.383c0 1.266-.231 2.04-.869 2.476-.634.42-1.564.48-2.916.483-1.121 0-1.917-.241-2.449-.645a1.908 1.908 0 0 1-.764-1.551c-.002-.63.246-1.177.75-1.543.5-.366 1.236-.558 2.206-.56h3.877c.044 0 .087.02.117.048a.17.17 0 0 1 .048.118v1.174zm-3.63-10.479c-2.192.005-3.802.528-4.984 1.9-.03.032-.086.088-.114.123l.025-.023c-.009.008-.019.013-.025.023a.165.165 0 0 0 .031.234l1.872 1.43.133.1.023.017-.023-.016a.168.168 0 0 0 .235-.032c.496-.736 1.385-1.04 2.988-1.033 1.172.002 2.024.131 2.607.484.59.35.869.948.862 1.743v1.683a.17.17 0 0 1-.048.118.167.167 0 0 1-.117.046H74.27c-3.387.01-5.062 2.11-5.075 4.605.01 2.703 2 4.748 5.523 4.76 2.175-.007 3.197-.492 3.827-1.542a.172.172 0 0 1 .143-.08h.063c.09 0 .164.073.166.164v1.098a.17.17 0 0 0 .168.167h2.572a.168.168 0 0 0 .17-.167v-10.66c-.014-3.867-2.588-5.117-6.54-5.142zM66.813 17.5l.006-.008a.164.164 0 0 0 .035-.11v-2.12a.168.168 0 0 0-.167-.167H55.785a.168.168 0 0 0-.167.167v2.199c0 .09.074.167.167.167h7.29a.164.164 0 0 1 .13.263l-7.983 10.564-.008.01-.02.025.003-.001a.163.163 0 0 0-.025.084v2.132c0 .093.075.167.166.167h11.349a.167.167 0 0 0 .167-.167v-2.387a.167.167 0 0 0-.167-.167h-7.74a.165.165 0 0 1-.15-.093.174.174 0 0 1 .019-.172L66.813 17.5zm-17.897 7.883c0 1.266-.232 2.04-.87 2.476-.633.42-1.563.48-2.916.483-1.119 0-1.917-.241-2.448-.645a1.904 1.904 0 0 1-.765-1.551c-.001-.63.247-1.177.75-1.543.5-.366 1.237-.558 2.207-.56h3.876c.045 0 .088.02.118.048a.17.17 0 0 1 .048.118v1.174zm-3.629-10.479c-2.193.005-3.802.528-4.984 1.9-.031.032-.09.088-.116.123l.025-.023c-.008.008-.018.013-.025.023a.165.165 0 0 0 .032.234h.001-.001l1.872 1.43.132.1.024.017-.022-.016a.168.168 0 0 0 .235-.032c.495-.736 1.384-1.04 2.986-1.033 1.172.002 2.025.131 2.608.484.59.35.869.948.862 1.743v1.683a.17.17 0 0 1-.048.118.167.167 0 0 1-.118.046h-4.479c-3.388.01-5.065 2.11-5.077 4.605.008 2.703 2 4.748 5.522 4.76 2.175-.007 3.198-.492 3.83-1.542a.172.172 0 0 1 .141-.08h.063c.09 0 .164.073.166.164v1.098a.17.17 0 0 0 .169.167h2.574a.168.168 0 0 0 .167-.167v-10.66c-.013-3.867-2.589-5.117-6.539-5.142z" fill="#1E5073"/>
    <path d="M6.99 40.293a.952.952 0 0 1-.236.27.529.529 0 0 1-.319.09.78.78 0 0 1-.371-.11l-.45-.243a3.734 3.734 0 0 0-.574-.244 2.296 2.296 0 0 0-.735-.108c-.475 0-.829.1-1.061.303-.233.203-.349.476-.349.822 0 .22.07.402.21.547.14.145.324.27.551.375.228.105.488.201.78.289.293.087.591.185.896.292.306.108.604.234.897.379.292.145.552.33.78.555.227.225.411.499.551.821.14.323.21.711.21 1.166a3.8 3.8 0 0 1-.262 1.418c-.176.44-.43.824-.762 1.151a3.53 3.53 0 0 1-1.23.773c-.487.187-1.041.281-1.661.281-.34 0-.686-.035-1.039-.105a6.169 6.169 0 0 1-1.953-.75 3.951 3.951 0 0 1-.758-.585l.75-1.185a.659.659 0 0 1 .555-.3c.15 0 .301.047.454.142.152.096.325.2.517.315.193.116.414.22.664.315.25.096.545.143.885.143.46 0 .817-.101 1.073-.304.255-.202.382-.523.382-.964 0-.255-.07-.462-.21-.622a1.622 1.622 0 0 0-.551-.398 5.079 5.079 0 0 0-.776-.277c-.29-.08-.588-.169-.893-.266a6.53 6.53 0 0 1-.893-.36 2.632 2.632 0 0 1-1.328-1.432C.596 42.138.526 41.71.526 41.2a3.1 3.1 0 0 1 .975-2.243c.32-.305.712-.548 1.178-.73.465-.183.997-.275 1.597-.275.335 0 .661.027.979.08.6.094 1.176.297 1.702.599.248.143.469.304.664.484l-.63 1.177-.001.001zm6.585 6.705c.34 0 .644-.057.911-.17.268-.112.494-.273.679-.483.185-.21.326-.466.424-.769.097-.302.146-.646.146-1.031v-6.473h2.535v6.473c0 .67-.109 1.285-.326 1.845a4.139 4.139 0 0 1-.934 1.447c-.405.406-.897.72-1.478.945-.58.226-1.232.338-1.957.338-.73 0-1.385-.112-1.965-.337a4.213 4.213 0 0 1-1.477-.946 4.095 4.095 0 0 1-.93-1.447 5.107 5.107 0 0 1-.323-1.845v-6.473h2.535v6.466c0 .385.049.728.146 1.03.098.303.239.56.424.773.185.213.411.375.679.488.267.112.571.169.911.169zm11.933-2.993c.1.19.196.387.288.592.093.206.181.415.267.63.167-.423.355-.839.562-1.244l2.805-5.52a.917.917 0 0 1 .154-.222c.05-.05.11-.09.176-.116a.739.739 0 0 1 .221-.045c.083-.005.179-.007.289-.007h1.935V49H29.97v-6.285c0-.305.015-.635.045-.99l-2.895 5.617a.954.954 0 0 1-.364.398c-.152.09-.326.135-.521.135h-.345c-.195 0-.369-.045-.521-.135a.954.954 0 0 1-.364-.398l-2.91-5.624c.038.331.058.664.06.997V49H19.92V38.072h1.935c.11 0 .206.003.289.008a.74.74 0 0 1 .221.045.503.503 0 0 1 .176.116.9.9 0 0 1 .154.222l2.813 5.542zm14.085 0c.1.19.196.387.288.592.093.206.181.415.267.63.167-.423.355-.839.562-1.244l2.805-5.52a.917.917 0 0 1 .154-.222c.05-.05.11-.09.176-.116a.739.739 0 0 1 .221-.045c.083-.005.179-.007.289-.007h1.935V49h-2.235v-6.285c0-.305.015-.635.045-.99l-2.895 5.617a.954.954 0 0 1-.364.398c-.152.09-.326.135-.521.135h-.345c-.195 0-.369-.045-.521-.135a.954.954 0 0 1-.364-.398l-2.91-5.624c.038.331.058.664.06.997V49h-2.235V38.072h1.935c.11 0 .206.003.289.008a.74.74 0 0 1 .221.045.503.503 0 0 1 .176.116.9.9 0 0 1 .154.222l2.813 5.542zm15.532-5.933v1.95H50.64v2.55h3.435v1.876H50.64v2.602h4.485V49H48.09V38.072h7.035zm3.975 6.886V49h-2.535V38.072h3.555c.79 0 1.464.082 2.021.244.558.163 1.013.389 1.365.679.353.29.609.632.769 1.027.16.396.24.825.24 1.29 0 .356-.047.69-.142 1.005a3.043 3.043 0 0 1-.424.874 3.28 3.28 0 0 1-.69.716c-.273.21-.586.383-.941.518.17.085.328.19.476.315.147.125.276.277.386.457L65.505 49H63.21c-.425 0-.73-.16-.915-.48l-1.815-3.173a.764.764 0 0 0-.281-.3c-.108-.06-.259-.09-.454-.09H59.1v.001zm0-1.748h1.02c.345 0 .639-.044.881-.131.243-.088.441-.209.596-.364.156-.155.268-.336.338-.544.07-.207.105-.431.105-.671 0-.48-.156-.855-.469-1.125-.312-.27-.796-.405-1.451-.405H59.1v3.24zm39.083.795c.205.398.39.806.554 1.223.165-.425.353-.84.563-1.245l2.805-5.52a.917.917 0 0 1 .154-.222c.05-.05.11-.09.176-.116a.739.739 0 0 1 .221-.045c.083-.005.179-.007.289-.007h1.935V49h-2.235v-6.285c0-.305.015-.635.045-.99l-2.895 5.617a.954.954 0 0 1-.364.398c-.152.09-.326.135-.521.135h-.345c-.195 0-.369-.045-.521-.135a.954.954 0 0 1-.364-.398l-2.91-5.624c.038.331.058.664.06.997V49h-2.235V38.072h1.935c.11 0 .206.003.289.008a.74.74 0 0 1 .221.045.503.503 0 0 1 .176.116.9.9 0 0 1 .154.222l2.813 5.542zM116.85 49h-1.965a.908.908 0 0 1-.544-.154.794.794 0 0 1-.296-.393l-.645-1.905h-4.155l-.645 1.905a.844.844 0 0 1-.292.378.842.842 0 0 1-.533.169h-1.98l4.23-10.927h2.595L116.85 49zm-7.02-4.177h2.985l-1.005-2.993-.229-.671c-.093-.276-.18-.555-.258-.836a14.87 14.87 0 0 1-.488 1.522l-1.005 2.978zm10.44.525V49h-2.535V38.072h3.855c.77 0 1.431.092 1.984.274.552.183 1.007.434 1.365.754.357.32.621.697.791 1.132.17.436.255.905.255 1.41a4.12 4.12 0 0 1-.263 1.5 3.01 3.01 0 0 1-.802 1.17c-.36.326-.816.58-1.369.762-.552.182-1.206.274-1.961.274h-1.32zm0-1.913h1.32c.66 0 1.135-.157 1.425-.473.29-.315.435-.754.435-1.32 0-.25-.038-.477-.112-.682a1.389 1.389 0 0 0-.342-.529 1.534 1.534 0 0 0-.577-.341 2.554 2.554 0 0 0-.829-.12h-1.32v3.465zm13.125-3.143a.952.952 0 0 1-.236.27.529.529 0 0 1-.319.09.78.78 0 0 1-.371-.108l-.45-.244a3.734 3.734 0 0 0-.574-.244 2.296 2.296 0 0 0-.735-.108c-.475 0-.829.1-1.061.303-.233.203-.349.476-.349.822 0 .22.07.402.21.547.14.145.324.27.551.375.228.105.488.201.78.289.293.087.591.185.897.292.305.108.603.234.896.379.292.145.552.33.78.555.227.225.411.499.551.821.14.323.21.711.21 1.166a3.8 3.8 0 0 1-.263 1.418c-.175.44-.428.824-.76 1.151a3.53 3.53 0 0 1-1.23.773c-.488.187-1.042.281-1.662.281-.34 0-.686-.035-1.039-.105a6.169 6.169 0 0 1-1.954-.75 3.952 3.952 0 0 1-.757-.585l.75-1.185a.659.659 0 0 1 .555-.3c.15 0 .301.047.454.142.152.096.325.2.517.315.193.116.414.22.664.315.25.096.545.143.885.143.46 0 .817-.101 1.072-.304.256-.202.383-.523.383-.964 0-.255-.07-.462-.21-.622a1.622 1.622 0 0 0-.551-.398 5.079 5.079 0 0 0-.776-.277c-.29-.08-.588-.169-.893-.266a6.53 6.53 0 0 1-.893-.36 2.632 2.632 0 0 1-1.328-1.432c-.139-.348-.209-.777-.209-1.287a3.1 3.1 0 0 1 .975-2.243c.32-.305.712-.548 1.178-.73.465-.183.997-.275 1.597-.275.335 0 .661.027.979.08.6.094 1.176.297 1.702.599.248.143.469.304.664.484l-.63 1.177z" fill="#092253"/>
    <g fill="#092253">
      <path d="M74.563 44.813h.104l1.585-2.733c1.315-2.27-.771-3.3-2.294-.693l-1.042 1.786-1.648 2.88c-1.294 2.27 1.188 2.606 2.21.84l.021-.042a1.44 1.44 0 0 1-.208-.736c0-.714.563-1.302 1.272-1.302zm.626 2.732c-2.92 3.72-8.156 1.976-5.423-2.753l.938-1.619 1.064-1.87c1.252-2.186 2.545-2.859 4.213-2.859 2.044 0 3.254 2.165 1.94 4.456l-2.044 3.552c1.085-.021 2.295-.546 3.275-1.618l.146-.168c.292.126.667.462.813.756-1.105 1.324-3.15 2.123-4.442 2.123h-.48z"/>
      <path d="M79.125 48.203c1.747-.787 3.217-2.687 4.198-4.413l3.452-6.137c1.087-2.054-.447-2.141-1.64-.023l-6.01 10.573zm-.704 1.594h-.191l-2.515 4.413c-.916 1.594 0 1.987.767.633l1.854-3.342c.448-.852.448-1.463.085-1.704zm8.29-4.608c.298.13.682.48.831.786-2.514 2.992-5.455 3.648-7.629 3.779.213.633.192 1.485-.256 2.293l-1.662 2.992c-2.365 4.26-5.775 1.835-4.07-1.2l9.163-16.317c2.898-5.156 7.693-3.692 5.136.851l-3.559 6.313c-1.13 1.988-2.962 3.276-4.475 4.085 1.77-.131 4.177-.809 6.372-3.408l.15-.174h-.001z"/>
    </g>
  </g>
</svg>
