<?xml version="1.0" encoding="UTF-8"?>
<svg width="1326px" height="899px" viewBox="0 0 1326 899" version="1.1" xmlns="http://www.w3.org/2000/svg" xmlns:xlink="http://www.w3.org/1999/xlink">
    <title>granary</title>
    <defs>
        <path d="M261.759872,33.3493649 L456.019743,145.505354 C463.75477,149.971174 468.519743,158.224349 468.519743,167.155989 L468.519743,391.467968 C468.519743,400.399607 463.75477,408.652783 456.019743,413.118603 L261.759872,525.274592 C254.024845,529.740412 244.494899,529.740412 236.759872,525.274592 L42.5,413.118603 C34.7649731,408.652783 30,400.399607 30,391.467968 L30,167.155989 C30,158.224349 34.7649731,149.971174 42.5,145.505354 L236.759872,33.3493649 C244.494899,28.883545 254.024845,28.883545 261.759872,33.3493649 Z" id="path-1"></path>
    </defs>
    <g id="branding" stroke="none" stroke-width="1" fill="none" fill-rule="evenodd">
        <g id="Outlined-logo-stacked-light" transform="translate(-646.000000, -185.000000)">
            <g id="granary" transform="translate(646.000000, 185.000000)">
                <path d="M127.05,845.4 C137.783333,845.4 148.05,844.408333 157.85,842.425 C167.65,840.441667 176.808333,837.7 185.325,834.2 C193.841667,830.7 201.775,826.616667 209.125,821.95 C216.475,817.283333 223.183333,812.383333 229.25,807.25 L229.25,807.25 L229.25,704.35 L124.95,704.35 L124.95,741.8 L187.6,741.8 L187.6,787.65 C180.133333,793.25 171.325,797.741667 161.175,801.125 C151.025,804.508333 140.116667,806.2 128.45,806.2 C115.85,806.2 104.475,803.983333 94.325,799.55 C84.175,795.116667 75.425,789.05 68.075,781.35 C60.725,773.65 55.0666667,764.433333 51.1,753.7 C47.1333333,742.966667 45.15,731.3 45.15,718.7 L45.15,718.7 L45.15,718 C45.15,706.333333 47.1916667,695.25 51.275,684.75 C55.3583333,674.25 60.9583333,665.091667 68.075,657.275 C75.1916667,649.458333 83.5916667,643.216667 93.275,638.55 C102.958333,633.883333 113.4,631.55 124.6,631.55 C132.3,631.55 139.358333,632.191667 145.775,633.475 C152.191667,634.758333 158.083333,636.508333 163.45,638.725 C168.816667,640.941667 173.95,643.683333 178.85,646.95 C183.75,650.216667 188.533333,653.833333 193.2,657.8 L193.2,657.8 L220.5,625.25 C214.2,619.883333 207.725,615.158333 201.075,611.075 C194.425,606.991667 187.366667,603.55 179.9,600.75 C172.433333,597.95 164.325,595.791667 155.575,594.275 C146.825,592.758333 137.083333,592 126.35,592 C107.916667,592 90.9416667,595.383333 75.425,602.15 C59.9083333,608.916667 46.55,618.075 35.35,629.625 C24.15,641.175 15.4583333,654.65 9.275,670.05 C3.09166667,685.45 2.27373675e-13,701.666667 2.27373675e-13,718.7 L2.27373675e-13,718.7 L2.27373675e-13,719.4 C2.27373675e-13,737.366667 3.03333333,753.991667 9.1,769.275 C15.1666667,784.558333 23.7416667,797.858333 34.825,809.175 C45.9083333,820.491667 59.2666667,829.358333 74.9,835.775 C90.5333333,842.191667 107.916667,845.4 127.05,845.4 Z M315.4375,841.2 L315.4375,770.85 C315.4375,758.716667 316.954167,748.041667 319.9875,738.825 C323.020833,729.608333 327.3375,721.966667 332.9375,715.9 C338.5375,709.833333 345.1875,705.283333 352.8875,702.25 C360.5875,699.216667 369.104167,697.7 378.4375,697.7 L378.4375,697.7 L380.8875,697.7 L380.8875,652.9 C364.554167,652.2 351.020833,656.05 340.2875,664.45 C329.554167,672.85 321.270833,684.05 315.4375,698.05 L315.4375,698.05 L315.4375,656.4 L273.0875,656.4 L273.0875,841.2 L315.4375,841.2 Z M463.575,845.05 C477.575,845.05 489.475,842.483333 499.275,837.35 C509.075,832.216667 517.125,825.916667 523.425,818.45 L523.425,818.45 L523.425,841.2 L565.425,841.2 L565.425,731.65 C565.425,706.916667 558.775,687.725 545.475,674.075 C532.175,660.425 511.758333,653.6 484.225,653.6 C469.058333,653.6 456.108333,655 445.375,657.8 C434.641667,660.6 424.141667,664.333333 413.875,669 L413.875,669 L425.425,702.95 C433.825,699.45 442.108333,696.65 450.275,694.55 C458.441667,692.45 467.775,691.4 478.275,691.4 C492.975,691.4 504.233333,694.783333 512.05,701.55 C519.866667,708.316667 523.775,718.116667 523.775,730.95 L523.775,730.95 L523.775,734.45 C516.541667,732.116667 509.016667,730.25 501.2,728.85 C493.383333,727.45 483.875,726.75 472.675,726.75 C461.941667,726.75 451.966667,727.975 442.75,730.425 C433.533333,732.875 425.6,736.608333 418.95,741.625 C412.3,746.641667 407.108333,752.941667 403.375,760.525 C399.641667,768.108333 397.775,777.033333 397.775,787.3 L397.775,787.3 L397.775,788 C397.775,797.333333 399.583333,805.558333 403.2,812.675 C406.816667,819.791667 411.6,825.741667 417.55,830.525 C423.5,835.308333 430.441667,838.925 438.375,841.375 C446.308333,843.825 454.708333,845.05 463.575,845.05 Z M475.475,813.2 C465.441667,813.2 456.983333,810.866667 450.1,806.2 C443.216667,801.533333 439.775,794.766667 439.775,785.9 L439.775,785.9 L439.775,785.2 C439.775,776.333333 443.508333,769.333333 450.975,764.2 C458.441667,759.066667 468.825,756.5 482.125,756.5 C490.291667,756.5 498.05,757.2 505.4,758.6 C512.75,760 519.108333,761.75 524.475,763.85 L524.475,763.85 L524.475,774.35 C524.475,780.183333 523.25,785.491667 520.8,790.275 C518.35,795.058333 514.908333,799.141667 510.475,802.525 C506.041667,805.908333 500.85,808.533333 494.9,810.4 C488.95,812.266667 482.475,813.2 475.475,813.2 Z M650.9125,841.2 L650.9125,736.9 C650.9125,722.433333 654.7625,711.175 662.4625,703.125 C670.1625,695.075 680.195833,691.05 692.5625,691.05 C705.1625,691.05 714.904167,694.958333 721.7875,702.775 C728.670833,710.591667 732.1125,721.733333 732.1125,736.2 L732.1125,736.2 L732.1125,841.2 L774.4625,841.2 L774.4625,723.6 C774.4625,701.9 768.745833,684.633333 757.3125,671.8 C745.879167,658.966667 729.6625,652.55 708.6625,652.55 C701.429167,652.55 694.954167,653.425 689.2375,655.175 C683.520833,656.925 678.270833,659.316667 673.4875,662.35 C668.704167,665.383333 664.504167,668.825 660.8875,672.675 C657.270833,676.525 653.945833,680.666667 650.9125,685.1 L650.9125,685.1 L650.9125,656.4 L608.5625,656.4 L608.5625,841.2 L650.9125,841.2 Z M871.5,845.05 C885.5,845.05 897.4,842.483333 907.2,837.35 C917,832.216667 925.05,825.916667 931.35,818.45 L931.35,818.45 L931.35,841.2 L973.35,841.2 L973.35,731.65 C973.35,706.916667 966.7,687.725 953.4,674.075 C940.1,660.425 919.683333,653.6 892.15,653.6 C876.983333,653.6 864.033333,655 853.3,657.8 C842.566667,660.6 832.066667,664.333333 821.8,669 L821.8,669 L833.35,702.95 C841.75,699.45 850.033333,696.65 858.2,694.55 C866.366667,692.45 875.7,691.4 886.2,691.4 C900.9,691.4 912.158333,694.783333 919.975,701.55 C927.791667,708.316667 931.7,718.116667 931.7,730.95 L931.7,730.95 L931.7,734.45 C924.466667,732.116667 916.941667,730.25 909.125,728.85 C901.308333,727.45 891.8,726.75 880.6,726.75 C869.866667,726.75 859.891667,727.975 850.675,730.425 C841.458333,732.875 833.525,736.608333 826.875,741.625 C820.225,746.641667 815.033333,752.941667 811.3,760.525 C807.566667,768.108333 805.7,777.033333 805.7,787.3 L805.7,787.3 L805.7,788 C805.7,797.333333 807.508333,805.558333 811.125,812.675 C814.741667,819.791667 819.525,825.741667 825.475,830.525 C831.425,835.308333 838.366667,838.925 846.3,841.375 C854.233333,843.825 862.633333,845.05 871.5,845.05 Z M883.4,813.2 C873.366667,813.2 864.908333,810.866667 858.025,806.2 C851.141667,801.533333 847.7,794.766667 847.7,785.9 L847.7,785.9 L847.7,785.2 C847.7,776.333333 851.433333,769.333333 858.9,764.2 C866.366667,759.066667 876.75,756.5 890.05,756.5 C898.216667,756.5 905.975,757.2 913.325,758.6 C920.675,760 927.033333,761.75 932.4,763.85 L932.4,763.85 L932.4,774.35 C932.4,780.183333 931.175,785.491667 928.725,790.275 C926.275,795.058333 922.833333,799.141667 918.4,802.525 C913.966667,805.908333 908.775,808.533333 902.825,810.4 C896.875,812.266667 890.4,813.2 883.4,813.2 Z M1058.8375,841.2 L1058.8375,770.85 C1058.8375,758.716667 1060.35417,748.041667 1063.3875,738.825 C1066.42083,729.608333 1070.7375,721.966667 1076.3375,715.9 C1081.9375,709.833333 1088.5875,705.283333 1096.2875,702.25 C1103.9875,699.216667 1112.50417,697.7 1121.8375,697.7 L1121.8375,697.7 L1124.2875,697.7 L1124.2875,652.9 C1107.95417,652.2 1094.42083,656.05 1083.6875,664.45 C1072.95417,672.85 1064.67083,684.05 1058.8375,698.05 L1058.8375,698.05 L1058.8375,656.4 L1016.4875,656.4 L1016.4875,841.2 L1058.8375,841.2 Z M1191.575,898.25 C1199.04167,898.25 1205.69167,897.316667 1211.525,895.45 C1217.35833,893.583333 1222.725,890.608333 1227.625,886.525 C1232.525,882.441667 1236.95833,877.133333 1240.925,870.6 C1244.89167,864.066667 1248.74167,856.016667 1252.475,846.45 L1252.475,846.45 L1325.975,656.4 L1281.875,656.4 L1233.925,793.6 L1181.425,656.4 L1136.275,656.4 L1213.275,841.2 C1209.775,849.366667 1206.04167,854.966667 1202.075,858 C1198.10833,861.033333 1193.09167,862.55 1187.025,862.55 C1182.59167,862.55 1178.33333,861.908333 1174.25,860.625 C1170.16667,859.341667 1166.14167,857.65 1162.175,855.55 L1162.175,855.55 L1147.825,887.05 C1154.35833,890.55 1161.06667,893.291667 1167.95,895.275 C1174.83333,897.258333 1182.70833,898.25 1191.575,898.25 Z" id="wordmark" fill="#4B3B40" fill-rule="nonzero"></path>
                <g id="icon" transform="translate(414.000000, 0.000000)">
                    <path d="M222,7.36860279 L27.7401283,119.524592 C10.7230691,129.349396 0.240128276,147.506382 0.240128276,167.155989 L0.240128276,391.467968 C0.240128276,411.117575 10.7230691,429.274561 27.7401283,439.099365 L222,551.255354 C239.017059,561.080158 259.982941,561.080158 277,551.255354 L471.259872,439.099365 C488.276931,429.274561 498.759872,411.117575 498.759872,391.467968 L498.759872,167.155989 C498.759872,147.506382 488.276931,129.349396 471.259872,119.524592 L277,7.36860279 C259.982941,-2.45620093 239.017059,-2.45620093 222,7.36860279 Z" id="Path" fill="#4B3B40" fill-rule="nonzero"></path>
                    <mask id="mask-2" fill="white">
                        <use xlink:href="#path-1"></use>
                    </mask>
                    <use id="Path" fill="#F68D11" fill-rule="nonzero" xlink:href="#path-1"></use>
                    <path d="M30,272.448 L253.5,297.5 L468.519743,273.399 L468.519743,391.467968 C468.519743,400.399607 463.75477,408.652783 456.019743,413.118603 L261.759872,525.274592 C254.024845,529.740412 244.494899,529.740412 236.759872,525.274592 L42.5,413.118603 C34.7649731,408.652783 30,400.399607 30,391.467968 L30,272.448 Z" id="Path" fill="#FDE987" fill-rule="nonzero" mask="url(#mask-2)"></path>
                    <path d="M328.811531,486.562332 L302.661828,501.660051 C239.839035,417.516622 141.581714,361.376472 30.0009389,355.350677 L30.0009389,325.30958 C152.680525,331.427879 260.62125,393.516039 328.811531,486.562332 Z M256.98285,141.774702 C276.919901,159.90349 289.343737,180.269994 290.379815,199.879116 L290.407722,200.473097 L290.408174,200.666867 C290.187271,206.727373 288.760115,212.858578 286.206978,219.328453 L285.907393,220.076495 L285.7701,220.407955 L286.281037,220.352012 C287.403841,220.238116 288.519279,220.161044 289.630554,220.121758 L290.463279,220.099394 L291.294743,220.09129 L316.637187,220.083616 C322.573061,220.083565 327.403557,224.809922 327.571172,230.705887 L327.575671,231.022841 L327.567998,256.200451 C327.566075,262.724787 326.350262,269.060828 324.057967,274.981472 C363.324845,261.897067 405.335017,254.811978 449,254.811978 C455.545357,254.811978 462.05353,254.971179 468.520895,255.28592 L468.520895,285.325053 C462.056897,284.984434 455.548588,284.811978 449,284.811978 C387.226532,284.811978 329.037245,300.157685 278.036347,327.244892 C293.122555,337.928924 307.425866,349.644653 320.844139,362.289252 C366.035456,340.996931 415.919052,328.020345 468.520895,325.333747 L468.520895,355.376857 C424.164031,357.8301 381.919891,368.203097 343.178058,385.105427 C361.307386,405.165571 377.403548,427.096976 391.144807,450.574246 L365.158772,465.576793 C301.805162,357.435206 184.383613,284.811978 50,284.811978 C43.2891875,284.811978 36.6206746,284.993085 29.9988911,285.350676 L29.9988911,255.309582 C36.6242538,254.979159 43.2926033,254.811978 50,254.811978 C93.2024323,254.811978 134.784927,261.747755 173.694748,274.566571 C171.618509,269.114232 170.453705,263.311882 170.306271,257.336724 L170.294114,256.674842 L170.290289,256.02462 L170.30169,230.896573 C170.301741,224.962925 175.029572,220.133882 180.919213,219.966219 L181.235821,219.961717 L206.91824,219.954041 C208.204733,219.952448 209.490572,220.01333 210.830235,220.135916 L211.751577,220.229764 L211.681476,220.045196 C209.387973,214.016221 208.085614,207.958939 207.893529,201.846147 L207.875309,201.081757 L207.868746,200.346211 C208.561835,181.583033 239.0612,143.567071 240.876498,141.90388 C245.454612,137.744604 252.439438,137.644762 256.98285,141.774702 Z" id="Shape" fill="#4B3B40" fill-rule="nonzero" mask="url(#mask-2)"></path>
                    <path d="M275.161791,175.301159 L275.152447,175.661789 C274.640525,192.70913 270.506758,206.56564 263.58445,214.681281 L263.386791,214.909159 L263.105101,215.156974 C254.213929,222.857054 240.473084,226.389482 224.305153,226.763062 L223.675791,226.775159 L223.677881,226.560189 C223.841315,210.001704 227.56511,195.614086 235.537094,187.579881 C244.069832,179.636573 257.77412,175.868096 274.102023,175.331365 L275.161791,175.301159 Z" id="Path" fill="#FDE987" fill-rule="nonzero" mask="url(#mask-2)" transform="translate(249.418791, 201.038159) rotate(-45.000000) translate(-249.418791, -201.038159) "></path>
                    <path d="M215.053611,231.971563 L225.507813,242.415091 L225.865777,242.778586 C237.443696,254.724246 237.693964,273.63031 226.19811,285.894694 L226.050611,286.048563 L225.94146,286.113863 C225.77341,286.217403 225.631219,286.323875 225.47186,286.475552 L215.326611,296.620563 L204.990733,286.291053 C192.753552,274.065744 192.749018,254.263981 204.990765,242.029209 L215.053611,231.971563 Z" id="Path" fill="#FDE987" fill-rule="nonzero" mask="url(#mask-2)" transform="translate(215.248569, 264.296063) rotate(-45.000000) translate(-215.248569, -264.296063) "></path>
                    <path d="M315.502286,264.778606 L305.386722,274.931961 L305.016934,275.2972 C292.740089,287.228375 273.201808,287.111054 261.06875,274.932043 L250.840286,264.661606 L260.9576,254.508745 C273.205636,242.209412 293.02157,242.203332 305.275219,254.508309 L315.502286,264.778606 Z" id="Path" fill="#FDE987" fill-rule="nonzero" mask="url(#mask-2)" transform="translate(283.171286, 264.719379) rotate(-45.000000) translate(-283.171286, -264.719379) "></path>
                </g>
            </g>
        </g>
    </g>
</svg>