<svg viewBox="0 0 161 50" xmlns="http://www.w3.org/2000/svg">
  <path d="M17.195 21.598a4.69 4.69 0 0 0-2.93 1.033c-.346.278-.66.696-.917.967-.432.43-.977.723-1.553.907-.776.248-1.498.14-2.238-.198-1.013-.464-1.516-1.467-2.46-2.038-1.733-1.05-4.01-.831-5.524.515C.125 24.074-.39 26.182.31 27.99a4.738 4.738 0 0 0 4.377 2.997 4.712 4.712 0 0 0 2.925-1.028c.397-.319.656-.751 1.026-1.084.449-.402.998-.672 1.571-.837.808-.234 1.61-.035 2.338.359.92.498 1.393 1.445 2.327 1.976 1.763 1.007 4.037.739 5.52-.644a4.734 4.734 0 0 0 1.176-5.131c-.694-1.786-2.457-3.001-4.375-3m2.155-3.788a4.69 4.69 0 0 0 2.358 2.022c.418.16.93.222 1.298.313.558.149 1.06.448 1.488.826.644.563.94 1.238 1.022 2.092.063.656-.096 1.162-.297 1.771a4.794 4.794 0 0 0-.231 1.772c.132 2.11 1.723 3.898 3.794 4.297 1.936.37 3.958-.543 4.947-2.251a4.734 4.734 0 0 0-.521-5.443 4.734 4.734 0 0 0-2.652-1.518c-.947-.182-1.988-.598-2.503-1.488-.523-.9-.663-2.028-.268-3.006a4.673 4.673 0 0 0 .015-3.414c-.725-1.875-2.614-3.108-4.622-3.007-3.44.172-5.552 4.057-3.828 7.035M13.118 2.304a4.7 4.7 0 0 0-.498 3.43c.137.57.37.965.409 1.538.036.515.006 1.268-.259 1.723-.438.757-1.023 1.34-1.85 1.684-.474.197-.997.2-1.483.36a4.686 4.686 0 0 0-1.406.754c-1.596 1.244-2.203 3.441-1.498 5.331.692 1.848 2.523 3.097 4.498 3.051 2.037-.046 3.861-1.448 4.414-3.415a4.77 4.77 0 0 0 .158-1.668c-.053-.633-.34-1.156-.466-1.758-.201-.964.015-1.877.495-2.707.214-.372.734-.713 1.096-.927.497-.294.92-.346 1.457-.463A4.724 4.724 0 0 0 20.8 7.646a4.74 4.74 0 0 0 .383-5.45C19.36-.78 14.858-.72 13.118 2.305m111.529 23.078c0 1.266-.233 2.04-.87 2.476-.635.42-1.563.48-2.916.483-1.12 0-1.916-.241-2.448-.645a1.904 1.904 0 0 1-.765-1.551c-.001-.63.249-1.177.75-1.543.5-.366 1.237-.558 2.207-.56h3.875a.18.18 0 0 1 .12.048.17.17 0 0 1 .047.118v1.174zm-3.63-10.479c-2.192.005-3.802.528-4.984 1.9-.03.032-.088.088-.113.123l.022-.023c-.008.008-.017.013-.022.023a.163.163 0 0 0 .03.234l1.872 1.43.133.1.021.017-.021-.016a.168.168 0 0 0 .235-.032c.496-.736 1.385-1.04 2.986-1.033 1.174.002 2.026.131 2.609.484.589.35.867.948.862 1.743v1.683a.17.17 0 0 1-.048.118.17.17 0 0 1-.119.046h-4.478c-3.39.01-5.065 2.11-5.077 4.605.01 2.703 2 4.748 5.524 4.76 2.175-.007 3.195-.492 3.827-1.542a.172.172 0 0 1 .143-.08h.061a.165.165 0 0 1 .167.165v1.097c0 .091.076.167.167.167h2.574a.17.17 0 0 0 .17-.167v-10.66c-.016-3.867-2.588-5.117-6.541-5.142zm-11.447 6.749a.172.172 0 0 1-.12.05h-6.796a.172.172 0 0 1-.12-.05.176.176 0 0 1-.046-.12c.052-2.51 1.575-3.916 3.564-3.906 1.988-.01 3.483 1.399 3.56 3.905a.173.173 0 0 1-.042.12m-3.518-6.747c-3.042.017-6.459 1.935-6.475 8.128.02 6.53 3.727 8.007 6.983 8.032 1.972 0 3.844-.646 5.347-2.182l.098-.101c.006-.007.015-.01.02-.018.005-.004.005-.008.008-.013a.167.167 0 0 0-.027-.224l-1.85-1.576-.012-.01a.17.17 0 0 0-.238.017l.016-.015c-.965.886-2.231 1.399-3.424 1.4-1.144 0-2.152-.346-2.87-1.044-.72-.699-1.14-1.742-1.14-3.09 0-.044.019-.087.05-.117a.16.16 0 0 1 .116-.048h9.708a.166.166 0 0 0 .164-.168v-2.338c-.003-4.072-3-6.628-6.474-6.633m-8.194.191h-2.72a.169.169 0 0 0-.167.167v-.028l-3.696 11.028a.166.166 0 0 1-.154.11h-.065a.165.165 0 0 1-.157-.11l-3.693-11.026v.028a.167.167 0 0 0-.167-.167h-2.72a.168.168 0 0 0-.167.167v.023l.01.026.008.024.035.094 5.623 15.33c.033.086.088.114.189.11h2.147l-.03-.01a.168.168 0 0 0 .215-.1l5.625-15.332.053-.135v-.032a.17.17 0 0 0-.169-.167M78.917 25.383c0 1.266-.231 2.04-.869 2.476-.634.42-1.564.48-2.916.483-1.121 0-1.917-.241-2.449-.645a1.908 1.908 0 0 1-.764-1.551c-.002-.63.246-1.177.75-1.543.5-.366 1.236-.558 2.206-.56h3.877c.044 0 .087.02.117.048a.17.17 0 0 1 .048.118v1.174zm-3.63-10.479c-2.192.005-3.802.528-4.984 1.9-.03.032-.086.088-.114.123l.025-.023c-.009.008-.019.013-.025.023a.165.165 0 0 0 .031.234l1.872 1.43.133.1.023.017-.023-.016a.168.168 0 0 0 .235-.032c.496-.736 1.385-1.04 2.988-1.033 1.172.002 2.024.131 2.607.484.59.35.869.948.862 1.743v1.683a.17.17 0 0 1-.048.118.167.167 0 0 1-.117.046H74.27c-3.387.01-5.062 2.11-5.075 4.605.01 2.703 2 4.748 5.523 4.76 2.175-.007 3.197-.492 3.827-1.542a.172.172 0 0 1 .143-.08h.063a.167.167 0 0 1 .166.164v1.098a.17.17 0 0 0 .168.167h2.572a.168.168 0 0 0 .17-.167v-10.66c-.014-3.867-2.588-5.117-6.54-5.142zM66.813 17.5l.006-.008a.164.164 0 0 0 .035-.11v-2.12a.168.168 0 0 0-.167-.167H55.785a.168.168 0 0 0-.167.167v2.199c0 .09.074.167.167.167h7.29a.164.164 0 0 1 .13.263l-7.983 10.564-.008.01-.02.025.003-.001a.163.163 0 0 0-.025.084v2.132c0 .093.075.167.166.167h11.349a.167.167 0 0 0 .167-.167v-2.387a.167.167 0 0 0-.167-.167h-7.74a.165.165 0 0 1-.15-.093.174.174 0 0 1 .019-.172L66.813 17.5zm-17.897 7.883c0 1.266-.232 2.04-.87 2.476-.633.42-1.563.48-2.916.483-1.119 0-1.917-.241-2.448-.645a1.904 1.904 0 0 1-.765-1.551c-.001-.63.247-1.177.75-1.543.5-.366 1.237-.558 2.207-.56h3.876c.045 0 .088.02.118.048a.17.17 0 0 1 .048.118v1.174zm-3.629-10.479c-2.193.005-3.802.528-4.984 1.9-.031.032-.09.088-.116.123l.025-.023c-.008.008-.018.013-.025.023a.165.165 0 0 0 .032.234h.001-.001l1.872 1.43.132.1.024.017-.022-.016a.168.168 0 0 0 .235-.032c.495-.736 1.384-1.04 2.986-1.033 1.172.002 2.025.131 2.608.484.59.35.869.948.862 1.743v1.683a.17.17 0 0 1-.048.118.167.167 0 0 1-.118.046h-4.479c-3.388.01-5.065 2.11-5.077 4.605.008 2.703 2 4.748 5.522 4.76 2.175-.007 3.198-.492 3.83-1.542a.172.172 0 0 1 .141-.08h.063a.167.167 0 0 1 .166.164v1.098a.17.17 0 0 0 .169.167h2.574a.168.168 0 0 0 .167-.167v-10.66c-.013-3.867-2.589-5.117-6.539-5.142zM9.348 44.626c0 .632-.109 1.22-.327 1.764a4.252 4.252 0 0 1-.921 1.419 4.224 4.224 0 0 1-1.431.945 4.866 4.866 0 0 1-1.857.342c-.68 0-1.3-.114-1.86-.342a4.25 4.25 0 0 1-1.437-.945 4.228 4.228 0 0 1-.924-1.419 4.698 4.698 0 0 1-.327-1.764c0-.632.109-1.22.327-1.764a4.196 4.196 0 0 1 .924-1.416c.398-.4.877-.714 1.437-.942a4.89 4.89 0 0 1 1.86-.342c.68 0 1.299.115 1.857.345.558.23 1.035.545 1.431.945.396.4.703.872.921 1.416.218.544.327 1.13.327 1.758zm-2.076 0a3.78 3.78 0 0 0-.168-1.167 2.472 2.472 0 0 0-.483-.879 2.083 2.083 0 0 0-.771-.552 2.653 2.653 0 0 0-1.038-.192c-.392 0-.741.064-1.047.192a2.078 2.078 0 0 0-.774.552c-.21.24-.371.533-.483.879a3.78 3.78 0 0 0-.168 1.167c0 .436.056.827.168 1.173.112.346.273.639.483.879.21.24.468.423.774.549a2.73 2.73 0 0 0 1.047.189 2.69 2.69 0 0 0 1.038-.189c.304-.126.561-.309.771-.549.21-.24.371-.533.483-.879.112-.346.168-.737.168-1.173zm5.076 1.452V49H10.32v-8.742h3.084c.616 0 1.145.073 1.587.219.442.146.806.347 1.092.603.286.256.497.558.633.906s.204.724.204 1.128c0 .436-.07.836-.21 1.2-.14.364-.354.676-.642.936-.288.26-.653.463-1.095.609-.442.146-.965.219-1.569.219h-1.056zm0-1.53h1.056c.528 0 .908-.126 1.14-.378.232-.252.348-.604.348-1.056 0-.2-.03-.382-.09-.546a1.111 1.111 0 0 0-.273-.423 1.227 1.227 0 0 0-.462-.273 2.044 2.044 0 0 0-.663-.096h-1.056v2.772zm11.256-4.29v1.56h-3.588v2.04h2.748v1.5h-2.748v2.082h3.588V49h-5.628v-8.742h5.628zm2.22 0c.088 0 .162.004.222.012s.114.023.162.045a.54.54 0 0 1 .138.093c.044.04.094.094.15.162l4.152 5.25a11.06 11.06 0 0 1-.048-.936v-4.626h1.788V49h-1.056a.973.973 0 0 1-.396-.072.847.847 0 0 1-.312-.264l-4.122-5.208c.012.152.022.301.03.447.008.146.012.283.012.411V49h-1.788v-8.742h1.068zm15.192 1.776a.762.762 0 0 1-.189.216.423.423 0 0 1-.255.072.624.624 0 0 1-.297-.087 54.288 54.288 0 0 0-.36-.195 2.987 2.987 0 0 0-.459-.195 1.836 1.836 0 0 0-.588-.087c-.38 0-.663.081-.849.243-.186.162-.279.381-.279.657 0 .176.056.322.168.438.112.116.259.216.441.3.182.084.39.161.624.231.234.07.473.148.717.234.244.086.483.187.717.303.234.116.442.264.624.444s.329.399.441.657c.112.258.168.569.168.933 0 .404-.07.782-.21 1.134-.14.352-.343.659-.609.921a2.827 2.827 0 0 1-.984.618c-.39.15-.833.225-1.329.225a4.26 4.26 0 0 1-.831-.084 4.935 4.935 0 0 1-1.563-.6 3.161 3.161 0 0 1-.606-.468l.6-.948a.527.527 0 0 1 .444-.24c.12 0 .241.038.363.114.122.076.26.16.414.252.154.092.331.176.531.252.2.076.436.114.708.114.368 0 .654-.081.858-.243.204-.162.306-.419.306-.771a.729.729 0 0 0-.168-.498 1.298 1.298 0 0 0-.441-.318 4.063 4.063 0 0 0-.621-.222 18.53 18.53 0 0 1-.714-.213 5.224 5.224 0 0 1-.714-.288 2.106 2.106 0 0 1-1.062-1.146c-.112-.278-.168-.621-.168-1.029a2.478 2.478 0 0 1 .78-1.794c.256-.244.57-.439.942-.585a3.48 3.48 0 0 1 1.278-.219c.268 0 .529.021.783.063a4.116 4.116 0 0 1 1.362.48c.198.114.375.243.531.387l-.504.942zm10.26 2.592c0 .632-.109 1.22-.327 1.764a4.252 4.252 0 0 1-.921 1.419 4.224 4.224 0 0 1-1.431.945 4.866 4.866 0 0 1-1.857.342c-.68 0-1.3-.114-1.86-.342a4.25 4.25 0 0 1-1.437-.945 4.228 4.228 0 0 1-.924-1.419 4.698 4.698 0 0 1-.327-1.764c0-.632.109-1.22.327-1.764a4.196 4.196 0 0 1 .924-1.416c.398-.4.877-.714 1.437-.942a4.89 4.89 0 0 1 1.86-.342c.68 0 1.299.115 1.857.345.558.23 1.035.545 1.431.945.396.4.703.872.921 1.416.218.544.327 1.13.327 1.758zm-2.076 0a3.78 3.78 0 0 0-.168-1.167 2.472 2.472 0 0 0-.483-.879 2.083 2.083 0 0 0-.771-.552 2.653 2.653 0 0 0-1.038-.192c-.392 0-.741.064-1.047.192a2.078 2.078 0 0 0-.774.552c-.21.24-.371.533-.483.879a3.78 3.78 0 0 0-.168 1.167c0 .436.056.827.168 1.173.112.346.273.639.483.879.21.24.468.423.774.549a2.73 2.73 0 0 0 1.047.189 2.69 2.69 0 0 0 1.038-.189c.304-.126.561-.309.771-.549.21-.24.371-.533.483-.879.112-.346.168-.737.168-1.173zm6.684 2.772c.272 0 .515-.045.729-.135.214-.09.395-.219.543-.387a1.71 1.71 0 0 0 .339-.615c.078-.242.117-.517.117-.825v-5.178h2.028v5.178c0 .536-.087 1.028-.261 1.476a3.31 3.31 0 0 1-.747 1.158 3.37 3.37 0 0 1-1.182.756c-.464.18-.986.27-1.566.27-.584 0-1.108-.09-1.572-.27a3.37 3.37 0 0 1-1.182-.756 3.276 3.276 0 0 1-.744-1.158 4.086 4.086 0 0 1-.258-1.476v-5.178h2.028v5.172c0 .308.039.583.117.825.078.242.191.448.339.618.148.17.329.3.543.39.214.09.457.135.729.135zm7.104-1.632V49H60.96v-8.742h2.844c.632 0 1.171.065 1.617.195.446.13.81.311 1.092.543.282.232.487.506.615.822.128.316.192.66.192 1.032 0 .284-.038.552-.114.804a2.435 2.435 0 0 1-.339.699c-.15.214-.334.405-.552.573a2.931 2.931 0 0 1-.753.414c.136.068.263.152.381.252s.221.222.309.366L68.112 49h-1.836c-.34 0-.584-.128-.732-.384l-1.452-2.538a.611.611 0 0 0-.225-.24.753.753 0 0 0-.363-.072h-.516zm0-1.398h.816c.276 0 .511-.035.705-.105.194-.07.353-.167.477-.291.124-.124.214-.269.27-.435A1.67 1.67 0 0 0 65.34 43c0-.384-.125-.684-.375-.9-.25-.216-.637-.324-1.161-.324h-.816v2.592zm11.826 2.37a.391.391 0 0 1 .282.12l.804.846c-.352.46-.793.807-1.323 1.041-.53.234-1.157.351-1.881.351-.664 0-1.259-.113-1.785-.339a3.863 3.863 0 0 1-1.338-.936 4.122 4.122 0 0 1-.843-1.416 5.229 5.229 0 0 1-.294-1.779c0-.652.112-1.251.336-1.797a4.191 4.191 0 0 1 .939-1.413 4.235 4.235 0 0 1 1.443-.924 5.03 5.03 0 0 1 1.854-.33c.328 0 .637.029.927.087.29.058.561.138.813.24.252.102.484.224.696.366.212.142.4.299.564.471l-.684.918a.87.87 0 0 1-.156.153.406.406 0 0 1-.252.069.45.45 0 0 1-.204-.048 2.255 2.255 0 0 1-.204-.117 35.991 35.991 0 0 0-.237-.15 1.819 1.819 0 0 0-.306-.15 2.529 2.529 0 0 0-.414-.117 2.825 2.825 0 0 0-.555-.048c-.368 0-.704.065-1.008.195a2.21 2.21 0 0 0-.783.558 2.588 2.588 0 0 0-.51.879c-.122.344-.183.73-.183 1.158 0 .448.061.846.183 1.194s.288.641.498.879c.21.238.455.419.735.543.28.124.58.186.9.186.184 0 .352-.009.504-.027a1.957 1.957 0 0 0 .795-.264c.118-.07.237-.157.357-.261a.71.71 0 0 1 .156-.099.409.409 0 0 1 .174-.039zm7.638-6.48v1.56h-3.588v2.04h2.748v1.5h-2.748v2.082h3.588V49h-5.628v-8.742h5.628zm9.096 0v1.56H87.96v2.214h2.988v1.566H87.96V49h-2.04v-8.742h5.628zm6.684 0v1.56h-3.588v2.04h2.748v1.5h-2.748v2.082h3.588V49h-5.628v-8.742h5.628zm3.18 7.122h3.24V49h-5.268v-8.742h2.028v7.122zm6.228 0h3.24V49h-5.268v-8.742h2.028v7.122zm12.828-2.754c0 .632-.109 1.22-.327 1.764a4.252 4.252 0 0 1-.921 1.419 4.224 4.224 0 0 1-1.431.945 4.866 4.866 0 0 1-1.857.342c-.68 0-1.3-.114-1.86-.342a4.25 4.25 0 0 1-1.437-.945 4.228 4.228 0 0 1-.924-1.419 4.698 4.698 0 0 1-.327-1.764c0-.632.109-1.22.327-1.764a4.196 4.196 0 0 1 .924-1.416c.398-.4.877-.714 1.437-.942a4.89 4.89 0 0 1 1.86-.342c.68 0 1.299.115 1.857.345.558.23 1.035.545 1.431.945.396.4.703.872.921 1.416.218.544.327 1.13.327 1.758zm-2.076 0a3.78 3.78 0 0 0-.168-1.167 2.472 2.472 0 0 0-.483-.879 2.083 2.083 0 0 0-.771-.552 2.653 2.653 0 0 0-1.038-.192c-.392 0-.741.064-1.047.192a2.078 2.078 0 0 0-.774.552c-.21.24-.371.533-.483.879a3.78 3.78 0 0 0-.168 1.167c0 .436.056.827.168 1.173.112.346.273.639.483.879.21.24.468.423.774.549a2.73 2.73 0 0 0 1.047.189 2.69 2.69 0 0 0 1.038-.189c.304-.126.561-.309.771-.549.21-.24.371-.533.483-.879.112-.346.168-.737.168-1.173zm2.388-4.368h1.704c.176 0 .323.04.441.12a.55.55 0 0 1 .231.318l1.2 4.56c.04.148.08.306.12.474.04.168.07.344.09.528.04-.188.084-.365.132-.531l.138-.471 1.416-4.56a.628.628 0 0 1 .231-.303.687.687 0 0 1 .429-.135h.6c.176 0 .321.039.435.117a.602.602 0 0 1 .237.321l1.404 4.56.138.447c.048.158.09.327.126.507.032-.176.065-.344.099-.504.034-.16.069-.31.105-.45l1.2-4.56a.57.57 0 0 1 .228-.306.71.71 0 0 1 .432-.132h1.596l-2.7 8.742h-1.836l-1.644-5.418a9.601 9.601 0 0 1-.174-.594 7.106 7.106 0 0 1-.174.594L125.316 49h-1.836l-2.7-8.742zm18.384 1.776a.762.762 0 0 1-.189.216.423.423 0 0 1-.255.072.624.624 0 0 1-.297-.087 54.293 54.293 0 0 0-.36-.195 2.987 2.987 0 0 0-.459-.195 1.836 1.836 0 0 0-.588-.087c-.38 0-.663.081-.849.243-.186.162-.279.381-.279.657 0 .176.056.322.168.438.112.116.259.216.441.3.182.084.39.161.624.231.234.07.473.148.717.234.244.086.483.187.717.303.234.116.442.264.624.444s.329.399.441.657c.112.258.168.569.168.933 0 .404-.07.782-.21 1.134-.14.352-.343.659-.609.921a2.827 2.827 0 0 1-.984.618c-.39.15-.833.225-1.329.225a4.26 4.26 0 0 1-.831-.084 4.935 4.935 0 0 1-1.563-.6 3.161 3.161 0 0 1-.606-.468l.6-.948a.527.527 0 0 1 .444-.24c.12 0 .241.038.363.114.122.076.26.16.414.252.154.092.331.176.531.252.2.076.436.114.708.114.368 0 .654-.081.858-.243.204-.162.306-.419.306-.771a.729.729 0 0 0-.168-.498 1.298 1.298 0 0 0-.441-.318 4.063 4.063 0 0 0-.621-.222 18.53 18.53 0 0 1-.714-.213 5.224 5.224 0 0 1-.714-.288 2.106 2.106 0 0 1-1.062-1.146c-.112-.278-.168-.621-.168-1.029a2.478 2.478 0 0 1 .78-1.794c.256-.244.57-.439.942-.585a3.48 3.48 0 0 1 1.278-.219c.268 0 .529.021.783.063a4.116 4.116 0 0 1 1.362.48c.198.114.375.243.531.387l-.504.942zM148.428 49h-2.04v-3.696h-3.552V49h-2.04v-8.742h2.04v3.654h3.552v-3.654h2.04V49zm3.66 0h-2.04v-8.742h2.04V49zm3.648-2.922V49h-2.028v-8.742h3.084c.616 0 1.145.073 1.587.219.442.146.806.347 1.092.603.286.256.497.558.633.906s.204.724.204 1.128c0 .436-.07.836-.21 1.2-.14.364-.354.676-.642.936-.288.26-.653.463-1.095.609-.442.146-.965.219-1.569.219h-1.056zm0-1.53h1.056c.528 0 .908-.126 1.14-.378.232-.252.348-.604.348-1.056 0-.2-.03-.382-.09-.546a1.111 1.111 0 0 0-.273-.423 1.227 1.227 0 0 0-.462-.273 2.044 2.044 0 0 0-.663-.096h-1.056v2.772z" fill="#FFF" fill-rule="evenodd"/>
</svg>
