<?xml version="1.0" encoding="UTF-8"?>
<svg viewBox="0 0 251 43" version="1.1" xmlns="http://www.w3.org/2000/svg" xmlns:xlink="http://www.w3.org/1999/xlink">
    <!-- Generator: Sketch 42 (36781) - http://www.bohemiancoding.com/sketch -->
    <title>Climate Logo</title>
    <desc>Created with Sketch.</desc>
    <defs>
        <polygon id="path-1" points="0 42.9381556 56.4706744 42.9381556 114.170139 42.9381556 250.698786 42.9381556 250.698786 0.832396296 0 0.832396296"></polygon>
    </defs>
    <g id="Page-1" stroke="none" stroke-width="1" fill="none" fill-rule="evenodd">
        <g id="Climate-Logo">
            <path d="M19.4333303,32.4103102 C23.9678535,32.4103102 25.6161205,29.3461991 25.8522687,26.3992176 L38.0437197,26.3992176 C37.7479381,35.5353287 31.2693662,42.9379213 19.6694785,42.9379213 C6.35930508,42.9379213 0,35.5353287 0,24.5462269 L0,19.2261991 C0,8.23709722 6.35930508,0.83450463 19.6694785,0.83450463 C31.2693662,0.83450463 37.7479381,8.23709722 38.0437197,17.3755509 L25.8522687,17.3755509 C25.6161205,14.4262269 23.9678535,11.3597731 19.4333303,11.3597731 C15.0156885,11.3597731 12.8975103,14.1943102 12.8975103,18.6475787 L12.8975103,25.1271898 C12.8975103,29.5781157 15.0156885,32.4103102 19.4333303,32.4103102 Z" id="Fill-1" fill="#fff"></path>
            <polygon id="Fill-3" fill="#fff" points="42.9081349 1.64316759 55.8056452 1.64316759 55.8056452 31.6025843 72.5292341 31.6025843 72.5292341 42.1278528 42.9081349 42.1278528"></polygon>
            <mask id="mask-2" fill="white">
                <use xlink:href="#path-1"></use>
            </mask>
            <g id="Clip-6"></g>
            <polygon id="Fill-5" fill="#fff" points="76.6432226 42.1276185 89.5407329 42.1276185 89.5407329 1.64293333 76.6432226 1.64293333"></polygon>
            <polygon id="Fill-7" fill="#fff" points="138.548648 42.1283213 126.297564 42.1283213 126.297564 25.472488 122.058822 33.568488 112.400598 33.568488 108.161856 25.472488 108.161856 42.1283213 95.910772 42.1283213 95.910772 1.64363611 107.68956 1.64363611 117.230903 21.424488 126.772246 1.64363611 138.548648 1.64363611"></polygon>
            <polygon id="Fill-8" fill="#fff" points="192.221088 12.342725 181.854419 12.342725 181.854419 1.64410463 215.542515 1.64410463 215.542515 12.342725 205.116213 12.342725 205.116213 42.1287898 192.221088 42.1287898"></polygon>
            <polygon id="Fill-9" fill="#fff" points="219.486906 1.64316759 250.639391 1.64316759 250.639391 12.0536491 232.384417 12.0536491 232.384417 16.4483528 248.871857 16.4483528 248.871857 26.8611769 232.384417 26.8611769 232.384417 31.7197139 250.699025 31.7197139 250.699025 42.1278528 219.486906 42.1278528"></polygon>
            <path d="M172.900822,32.9959583 C172.762473,33.2513009 172.509627,33.4129398 172.235314,33.4129398 L157.904217,33.4129398 C157.627518,33.4129398 157.369901,33.2513009 157.241093,32.9959583 C157.107515,32.7406157 157.107515,32.4243657 157.25302,32.1713657 L164.423339,19.6431806 C164.561689,19.4018935 164.802608,19.2543102 165.069765,19.2543102 C165.334537,19.2543102 165.577842,19.4018935 165.713806,19.6431806 L172.884125,32.1713657 C173.027245,32.4243657 173.032016,32.7406157 172.900822,32.9959583 M187.408434,38.7845046 L166.920786,2.7085787 C166.527205,2.0128287 165.823531,1.58881944 165.069765,1.58881944 C164.313614,1.58881944 163.60994,2.0128287 163.216359,2.7085787 L142.728711,38.7845046 C142.316048,39.5060231 142.301736,40.4126065 142.683389,41.1528657 C143.067428,41.8907824 143.79257,42.3499306 144.579731,42.3499306 L185.557414,42.3499306 C186.342189,42.3499306 187.067331,41.893125 187.45137,41.1528657 C187.835409,40.4126065 187.818712,39.5060231 187.408434,38.7845046" id="Fill-10" fill="#fff"></path>
        </g>
    </g>
</svg>
