<?xml version="1.0" encoding="UTF-8"?>
<svg width="350px" height="121px" viewBox="0 0 350 121" version="1.1" xmlns="http://www.w3.org/2000/svg" xmlns:xlink="http://www.w3.org/1999/xlink">
    <!-- Generator: Sketch 49.3 (51167) - http://www.bohemiancoding.com/sketch -->
    <title>Group 13</title>
    <desc>Created with Sketch.</desc>
    <defs>
        <filter x="-1.5%" y="-3.0%" width="103.0%" height="108.3%" filterUnits="objectBoundingBox" id="filter-1">
            <feOffset dx="0" dy="2" in="SourceAlpha" result="shadowOffsetOuter1"></feOffset>
            <feGaussianBlur stdDeviation="2" in="shadowOffsetOuter1" result="shadowBlurOuter1"></feGaussianBlur>
            <feComposite in="shadowBlurOuter1" in2="SourceAlpha" operator="out" result="shadowBlurOuter1"></feComposite>
            <feColorMatrix values="0 0 0 0 0.0470588235   0 0 0 0 0   0 0 0 0 0.2  0 0 0 0.1 0" type="matrix" in="shadowBlurOuter1" result="shadowMatrixOuter1"></feColorMatrix>
            <feMerge>
                <feMergeNode in="shadowMatrixOuter1"></feMergeNode>
                <feMergeNode in="SourceGraphic"></feMergeNode>
            </feMerge>
        </filter>
    </defs>
    <g id="__Wireframes" stroke="none" stroke-width="1" fill="none" fill-rule="evenodd">
        <g id="Brand-Guidelines-&gt;-Design-&gt;-Logo" transform="translate(-326.000000, -753.000000)">
            <g id="Assets" transform="translate(278.000000, 569.000000)">
                <g id="Color-Logo" filter="url(#filter-1)" transform="translate(0.000000, 163.000000)">
                    <g id="Group-13" transform="translate(52.000000, 23.000000)">
                        <path d="M36.112793,113 L36.112793,105.861328 L37.6264648,105.861328 L37.6264648,113 L36.112793,113 Z M42.4555664,107.018555 C41.8859021,107.018555 41.4448258,107.232582 41.1323242,107.660645 C40.8198227,108.088707 40.6635742,108.685218 40.6635742,109.450195 C40.6635742,111.042 41.260899,111.837891 42.4555664,111.837891 C42.956871,111.837891 43.5639613,111.712566 44.2768555,111.461914 L44.2768555,112.731445 C43.690915,112.975587 43.0366247,113.097656 42.3139648,113.097656 C41.2755482,113.097656 40.4812853,112.782718 39.9311523,112.152832 C39.3810194,111.522946 39.105957,110.618821 39.105957,109.44043 C39.105957,108.698238 39.2410468,108.048017 39.5112305,107.489746 C39.7814141,106.931475 40.1695938,106.503419 40.6757812,106.205566 C41.1819687,105.907713 41.7752245,105.758789 42.4555664,105.758789 C43.1489292,105.758789 43.8455369,105.926431 44.5454102,106.261719 L44.0571289,107.492188 C43.7902005,107.365234 43.5216485,107.254558 43.2514648,107.160156 C42.9812812,107.065755 42.7159844,107.018555 42.4555664,107.018555 Z M52.074707,109.420898 C52.074707,110.602545 51.7817412,111.510739 51.1958008,112.145508 C50.6098604,112.780277 49.770025,113.097656 48.6762695,113.097656 C47.5825141,113.097656 46.7426787,112.780277 46.1567383,112.145508 C45.5707979,111.510739 45.277832,110.59929 45.277832,109.411133 C45.277832,108.222976 45.5716116,107.315596 46.1591797,106.688965 C46.7467477,106.062334 47.5890245,105.749023 48.6860352,105.749023 C49.7830458,105.749023 50.6220674,106.064775 51.203125,106.696289 C51.7841826,107.327803 52.074707,108.235997 52.074707,109.420898 Z M46.8647461,109.420898 C46.8647461,110.218428 47.0161118,110.819008 47.3188477,111.222656 C47.6215835,111.626304 48.074053,111.828125 48.6762695,111.828125 C49.8839579,111.828125 50.487793,111.025724 50.487793,109.420898 C50.487793,107.812817 49.887213,107.008789 48.6860352,107.008789 C48.0838186,107.008789 47.6297216,107.211424 47.3237305,107.616699 C47.0177394,108.021975 46.8647461,108.623368 46.8647461,109.420898 Z M59.887207,113 L57.9633789,113 L54.8579102,107.599609 L54.8139648,107.599609 C54.8758141,108.55339 54.9067383,109.233722 54.9067383,109.640625 L54.9067383,113 L53.5541992,113 L53.5541992,105.861328 L55.4633789,105.861328 L58.5639648,111.208008 L58.5981445,111.208008 C58.5493162,110.280269 58.5249023,109.624351 58.5249023,109.240234 L58.5249023,105.861328 L59.887207,105.861328 L59.887207,113 Z" id="ICON" fill="#BD10E0"></path>
                        <path d="M201.299805,113 L199.576172,113 L198.609375,109.25 C198.573568,109.116536 198.512533,108.84066 198.42627,108.422363 C198.340006,108.004067 198.290365,107.723308 198.277344,107.580078 C198.257812,107.75586 198.208985,108.038247 198.130859,108.427246 C198.052734,108.816245 197.992513,109.093749 197.950195,109.259766 L196.988281,113 L195.269531,113 L193.448242,105.861328 L194.9375,105.861328 L195.850586,109.757812 C196.010092,110.477217 196.125651,111.100583 196.197266,111.62793 C196.216797,111.442382 196.261556,111.155113 196.331543,110.766113 C196.40153,110.377114 196.467448,110.075196 196.529297,109.860352 L197.569336,105.861328 L199,105.861328 L200.040039,109.860352 C200.085612,110.039389 200.142578,110.312824 200.210938,110.680664 C200.279297,111.048504 200.33138,111.364256 200.367188,111.62793 C200.39974,111.374022 200.451823,111.057456 200.523438,110.678223 C200.595052,110.298989 200.660156,109.992189 200.71875,109.757812 L201.626953,105.861328 L203.116211,105.861328 L201.299805,113 Z M210.396484,109.420898 C210.396484,110.602545 210.103519,111.510739 209.517578,112.145508 C208.931638,112.780277 208.091802,113.097656 206.998047,113.097656 C205.904291,113.097656 205.064456,112.780277 204.478516,112.145508 C203.892575,111.510739 203.599609,110.59929 203.599609,109.411133 C203.599609,108.222976 203.893389,107.315596 204.480957,106.688965 C205.068525,106.062334 205.910802,105.749023 207.007812,105.749023 C208.104823,105.749023 208.943845,106.064775 209.524902,106.696289 C210.10596,107.327803 210.396484,108.235997 210.396484,109.420898 Z M205.186523,109.420898 C205.186523,110.218428 205.337889,110.819008 205.640625,111.222656 C205.943361,111.626304 206.39583,111.828125 206.998047,111.828125 C208.205735,111.828125 208.80957,111.025724 208.80957,109.420898 C208.80957,107.812817 208.20899,107.008789 207.007812,107.008789 C206.405596,107.008789 205.951499,107.211424 205.645508,107.616699 C205.339517,108.021975 205.186523,108.623368 205.186523,109.420898 Z M213.389648,109.030273 L213.87793,109.030273 C214.356448,109.030273 214.709634,108.950522 214.9375,108.791016 C215.165366,108.63151 215.279297,108.380861 215.279297,108.039062 C215.279297,107.700519 215.162924,107.459636 214.930176,107.316406 C214.697427,107.173176 214.336917,107.101562 213.848633,107.101562 L213.389648,107.101562 L213.389648,109.030273 Z M213.389648,110.260742 L213.389648,113 L211.875977,113 L211.875977,105.861328 L213.956055,105.861328 C214.926112,105.861328 215.643878,106.037921 216.109375,106.391113 C216.574872,106.744305 216.807617,107.280595 216.807617,108 C216.807617,108.419924 216.692058,108.793455 216.460938,109.120605 C216.229817,109.447756 215.902671,109.704101 215.479492,109.889648 C216.553716,111.494474 217.253579,112.531248 217.579102,113 L215.899414,113 L214.195312,110.260742 L213.389648,110.260742 Z M224.400391,109.362305 C224.400391,110.537441 224.065921,111.437497 223.396973,112.0625 C222.728024,112.687503 221.762051,113 220.499023,113 L218.477539,113 L218.477539,105.861328 L220.71875,105.861328 C221.88412,105.861328 222.789059,106.168942 223.433594,106.78418 C224.078128,107.399417 224.400391,108.258784 224.400391,109.362305 Z M222.828125,109.401367 C222.828125,107.868156 222.151048,107.101562 220.796875,107.101562 L219.991211,107.101562 L219.991211,111.75 L220.640625,111.75 C222.098966,111.75 222.828125,110.96713 222.828125,109.401367 Z M228.902344,113 L227.183594,107.399414 L227.139648,107.399414 C227.201498,108.538743 227.232422,109.298826 227.232422,109.679688 L227.232422,113 L225.879883,113 L225.879883,105.861328 L227.94043,105.861328 L229.629883,111.320312 L229.65918,111.320312 L231.451172,105.861328 L233.511719,105.861328 L233.511719,113 L232.100586,113 L232.100586,109.621094 C232.100586,109.461588 232.103027,109.27767 232.10791,109.069336 C232.112793,108.861002 232.134765,108.307622 232.173828,107.40918 L232.129883,107.40918 L230.289062,113 L228.902344,113 Z M239.678711,113 L239.161133,111.300781 L236.558594,111.300781 L236.041016,113 L234.410156,113 L236.929688,105.832031 L238.780273,105.832031 L241.30957,113 L239.678711,113 Z M238.799805,110.03125 C238.321287,108.491529 238.051921,107.620769 237.991699,107.418945 C237.931478,107.217121 237.888346,107.057618 237.862305,106.94043 C237.754882,107.357098 237.447268,108.387362 236.939453,110.03125 L238.799805,110.03125 Z M243.72168,109.030273 L244.209961,109.030273 C244.688479,109.030273 245.041666,108.950522 245.269531,108.791016 C245.497397,108.63151 245.611328,108.380861 245.611328,108.039062 C245.611328,107.700519 245.494956,107.459636 245.262207,107.316406 C245.029458,107.173176 244.668948,107.101562 244.180664,107.101562 L243.72168,107.101562 L243.72168,109.030273 Z M243.72168,110.260742 L243.72168,113 L242.208008,113 L242.208008,105.861328 L244.288086,105.861328 C245.258143,105.861328 245.975909,106.037921 246.441406,106.391113 C246.906903,106.744305 247.139648,107.280595 247.139648,108 C247.139648,108.419924 247.02409,108.793455 246.792969,109.120605 C246.561848,109.447756 246.234703,109.704101 245.811523,109.889648 C246.885748,111.494474 247.58561,112.531248 247.911133,113 L246.231445,113 L244.527344,110.260742 L243.72168,110.260742 Z M254.551758,113 L252.833008,113 L250.962891,109.992188 L250.323242,110.451172 L250.323242,113 L248.80957,113 L248.80957,105.861328 L250.323242,105.861328 L250.323242,109.12793 L250.918945,108.288086 L252.852539,105.861328 L254.532227,105.861328 L252.041992,109.020508 L254.551758,113 Z" id="WORDMARK" fill="#BD10E0"></path>
                        <g id="Logo/Color" transform="translate(1.000000, 0.000000)">
                            <g id="azavea_rgb_solo">
                                <path d="M46.1598577,57.7074911 C43.3244199,57.7074911 40.541355,58.6879582 38.3331726,60.4674146 C37.4062963,61.2115952 36.5658959,62.3284751 35.877742,63.0519502 C34.7279769,64.2004973 33.2712829,64.984871 31.7317669,65.4769315 C29.6551254,66.139508 27.7282945,65.8520667 25.7478728,64.94346 C23.0464119,63.7060009 21.6968995,61.0215916 19.1805703,59.5015632 C14.5449706,56.6977927 8.45754893,57.2787651 4.41997331,60.8754351 C0.555349644,64.3174226 -0.829483986,69.9554128 1.0449742,74.7883238 C2.8975089,79.5615543 7.61836655,82.7964867 12.7387189,82.7964867 C15.5656308,82.7928327 18.3450418,81.8111477 20.5520062,80.0463069 C21.6165133,79.1937269 22.3058852,78.0403078 23.2960961,77.1499706 C24.4909262,76.0745018 25.9610178,75.3558986 27.4980979,74.911339 C29.6490356,74.2865196 31.7926655,74.8163372 33.7426379,75.8711005 C36.1956326,77.2023434 37.4647589,79.7332883 39.9542927,81.1534431 C44.6702785,83.8402883 50.7418665,83.125339 54.7075819,79.4287954 C58.421177,75.9673203 59.6878674,70.4584351 57.8475125,65.7229617 C55.9937598,60.9472954 51.2850819,57.7062731 46.1598577,57.7074911" id="Shape" fill="#1E5073" fill-rule="nonzero"></path>
                                <path d="M35.2663203,6.15684609 C33.6695596,8.9155516 33.1921148,12.2235623 33.9362954,15.3220819 C34.3016868,16.8396744 34.9252883,17.8980916 35.0288158,19.4302998 C35.1225996,20.8029537 35.0446495,22.8174786 34.337008,24.0378861 C33.1653194,26.053629 31.6026619,27.6150685 29.3896077,28.5309831 C28.1265712,29.0559288 26.7283399,29.0668906 25.4275463,29.4992705 C24.0731619,29.9499199 22.7955098,30.630766 21.6701041,31.5089235 C17.4096397,34.8327678 15.7860836,40.7009546 17.6739395,45.7518826 C19.5191664,50.6907571 24.41054,54.0255632 29.6867927,53.904984 C35.1347794,53.7819689 40.0066655,50.0354884 41.4840649,44.7799413 C41.8896495,43.3342091 42.0309342,41.8166165 41.9018292,40.3185116 C41.7568906,38.632839 40.9980943,37.2346077 40.6607162,35.6232313 C40.1187189,33.0484395 40.7033452,30.6100605 41.9809973,28.3957883 C42.5546619,27.3970516 43.9455854,26.4847909 44.9102189,25.9135623 C46.2390258,25.1230988 47.3668674,24.9891219 48.8040738,24.6761032 C51.5250222,24.0829511 54.0133381,22.5726664 55.7891406,20.4253826 C59.1763194,16.3366521 59.5867758,10.394169 56.8146726,5.8694048 C51.9488763,-2.08151335 39.9128817,-1.92439502 35.2663203,6.15684609" id="Shape" fill="#4CA4DB" fill-rule="nonzero"></path>
                                <path d="M51.918427,47.5861477 C53.3361459,50.0440142 55.5759956,51.9659733 58.2214297,52.9866335 C59.3334377,53.4177954 60.7012198,53.5810036 61.6877767,53.8221619 C63.171266,54.2216566 64.5122527,55.0206459 65.6620178,56.0291263 C67.3830116,57.5357571 68.1734751,59.339573 68.391492,61.6220516 C68.5583541,63.3734947 68.135718,64.7303149 67.5985925,66.3514351 C67.0967883,67.8726815 66.8848612,69.4877117 66.9835169,71.0893443 C67.3342927,76.7273345 71.5911032,81.5054368 77.119476,82.567508 C82.294637,83.5601548 87.6914689,81.1193399 90.336903,76.5556005 C93.0030427,71.958976 92.4439938,66.0189288 88.9423256,62.0142384 C87.1117144,59.9217633 84.5892954,58.4857749 81.8598212,57.9583932 C79.3313123,57.4712046 76.5494653,56.3616326 75.1707215,53.9792802 C73.7749262,51.5713505 73.4022269,48.5678327 74.4545543,45.949194 C75.622589,43.0443319 75.6274609,39.7460649 74.4984012,36.8278052 C72.5581726,31.8182883 67.5182064,28.5248932 62.146952,28.791629 C52.9573568,29.2508043 47.3120587,39.6303577 51.918427,47.5861477" id="Shape" fill="#3873A0" fill-rule="nonzero"></path>
                                <path d="M261.67992,40.3367811 L254.418374,40.3367811 C254.171125,40.3367811 253.97016,40.5340925 253.97016,40.7837767 L253.97016,40.7046085 L244.097283,70.1697758 C244.035166,70.3415098 243.869522,70.4681788 243.679519,70.4681788 L243.509003,70.4681788 C243.320217,70.4681788 243.146047,70.3415098 243.088802,70.1697758 L233.222015,40.7106984 L233.222015,40.7862126 C233.222015,40.5365285 233.02105,40.3392171 232.77502,40.3392171 L225.508601,40.3392171 C225.261353,40.3392171 225.062824,40.5365285 225.062824,40.7862126 L225.062824,40.8446753 L225.088401,40.9201895 L225.111543,40.9786521 L225.206544,41.2332082 L240.233877,82.1923728 C240.317917,82.4225694 240.468946,82.4993016 240.73081,82.4846859 L246.468673,82.4846859 L246.393159,82.4578906 C246.624574,82.5419306 246.880348,82.4237874 246.965606,82.1923728 L261.996593,41.2307722 L262.129351,40.8629448 L262.129351,40.7825587 C262.128133,40.5340925 261.928386,40.3367811 261.67992,40.3367811 Z" id="Shape" fill="#1E5073" fill-rule="nonzero"></path>
                                <path d="M178.736059,46.761581 L178.751892,46.7396575 C178.821317,46.6495276 178.84933,46.5435641 178.844458,46.4412544 L178.844458,40.7825587 C178.844458,40.5328746 178.644711,40.3355632 178.395027,40.3355632 L149.268456,40.3355632 C149.022425,40.3355632 148.82146,40.5328746 148.82146,40.7825587 L148.82146,46.6507456 C148.82146,46.8979938 149.022425,47.0977411 149.268456,47.0977411 L168.748692,47.0977411 C168.91799,47.0977411 169.065365,47.1903069 169.142097,47.3401174 C169.216393,47.48871 169.196906,47.6689698 169.09825,47.8041646 L147.763043,76.0257829 C147.755735,76.0355267 147.750863,76.0464884 147.743555,76.0513603 L147.691182,76.1232206 L147.700926,76.1171308 C147.657079,76.1853372 147.627848,76.2596335 147.627848,76.3461094 L147.627848,82.0376904 C147.627848,82.2861566 147.828813,82.483468 148.074843,82.483468 L178.393809,82.483468 C178.643493,82.483468 178.84324,82.2861566 178.84324,82.0376904 L178.84324,75.6616094 C178.84324,75.4143612 178.643493,75.2170498 178.393809,75.2170498 L157.716306,75.2170498 C157.54579,75.2170498 157.391108,75.1183941 157.318029,74.9661477 C157.244951,74.8187731 157.265657,74.6397313 157.364312,74.5069724 L178.736059,46.761581 Z" id="Shape" fill="#1E5073" fill-rule="nonzero"></path>
                                <path d="M121.217353,39.8215792 C115.362564,39.8361948 111.058253,41.2332082 107.897617,44.8932126 C107.822102,44.9809066 107.668638,45.1307171 107.593124,45.2245009 C107.591906,45.2257189 107.66133,45.1611664 107.660112,45.1660383 C107.636971,45.1843078 107.612611,45.1989235 107.593124,45.2245009 C107.442095,45.4205943 107.48107,45.7007278 107.675946,45.8493203 L107.677164,45.8529742 C107.677164,45.8529742 107.675946,45.8529742 107.675946,45.8517562 L112.676937,49.6713149 L113.032585,49.9441406 L113.092265,49.9892055 L113.033802,49.9441406 C113.231114,50.0939511 113.511247,50.056194 113.65984,49.8613185 C114.989865,47.8942945 117.362473,47.0758176 121.644861,47.0989591 C124.775048,47.101395 127.052655,47.446081 128.609222,48.387573 C130.186496,49.3302829 130.929458,50.9282616 130.91606,53.04875 L130.91606,57.5467189 C130.91606,57.6636441 130.867342,57.7769155 130.785738,57.8585196 C130.706569,57.9364698 130.59208,57.9851886 130.473937,57.9851886 L118.506149,57.9851886 C109.452966,58.011984 104.973267,63.617089 104.942818,70.2867011 C104.967177,77.5117082 110.283623,82.9730925 119.698543,83.0023238 C125.511921,82.9877082 128.237741,81.6905685 129.92585,78.886798 C130.008672,78.7564751 130.152392,78.674871 130.307075,78.674871 L130.473937,78.674871 C130.593298,78.674871 130.706569,78.718718 130.785738,78.802758 C130.867342,78.8819262 130.91606,78.9964155 130.91606,79.1121228 L130.91606,82.0425623 C130.91606,82.2910285 131.117026,82.4883399 131.363056,82.4883399 L138.242159,82.4883399 C138.489407,82.4883399 138.690373,82.2910285 138.690373,82.0425623 L138.690373,53.560298 C138.653834,43.2258096 131.777166,39.8885676 121.217353,39.8215792 Z M130.91606,67.8215267 C130.91606,71.2026157 130.294895,73.2756032 128.587299,74.4338941 C126.896754,75.5641717 124.41331,75.7176361 120.798371,75.7298158 C117.807033,75.7273799 115.675583,75.081855 114.259082,74.0015142 C112.853543,72.9284813 112.210454,71.4169786 112.215326,69.8579751 C112.211672,68.1783923 112.875466,66.7180445 114.216453,65.7400133 C115.556222,64.7571103 117.52081,64.2443443 120.113871,64.2419084 L130.472719,64.2419084 C130.59208,64.2419084 130.705351,64.2918452 130.78452,64.3734493 C130.866124,64.4513995 130.914843,64.5646708 130.914843,64.6828141 L130.914843,67.8215267 L130.91606,67.8215267 Z" id="Shape" fill="#1E5073" fill-rule="nonzero"></path>
                                <path d="M201.376931,39.8215792 C195.522142,39.8361948 191.216613,41.2332082 188.058413,44.8932126 C187.981681,44.9809066 187.829434,45.1307171 187.752702,45.2245009 C187.752702,45.2257189 187.822126,45.1611664 187.820908,45.1660383 C187.796549,45.1843078 187.77219,45.1989235 187.752702,45.2245009 C187.602891,45.4205943 187.643085,45.7007278 187.835524,45.8493203 L187.83796,45.8529742 C187.83796,45.8529742 187.83796,45.8529742 187.83796,45.8517562 L192.836515,49.6713149 L193.192163,49.9441406 L193.251843,49.9892055 L193.193381,49.9441406 C193.389474,50.0939511 193.670826,50.056194 193.820636,49.8613185 C195.150661,47.8942945 197.52327,47.0758176 201.80444,47.0989591 C204.934626,47.101395 207.211015,47.446081 208.768801,48.387573 C210.34851,49.3302829 211.089036,50.9282616 211.075639,53.04875 L211.075639,57.5467189 C211.075639,57.6636441 211.028138,57.7769155 210.945316,57.8585196 C210.867366,57.9364698 210.752876,57.9851886 210.634733,57.9851886 L198.665727,57.9851886 C189.613762,58.011984 185.132845,63.617089 185.101178,70.2867011 C185.126755,77.5117082 190.441983,82.9730925 199.856903,83.0023238 C205.670281,82.9877082 208.397319,81.6905685 210.085428,78.886798 C210.165814,78.7564751 210.309535,78.674871 210.465435,78.674871 L210.633515,78.674871 C210.751658,78.674871 210.86493,78.718718 210.944098,78.802758 C211.02692,78.8819262 211.074421,78.9964155 211.074421,79.1121228 L211.074421,82.0425623 C211.074421,82.2910285 211.276604,82.4883399 211.522634,82.4883399 L218.40052,82.4883399 C218.647768,82.4883399 218.847515,82.2910285 218.847515,82.0425623 L218.847515,53.560298 C218.813412,43.2258096 211.936745,39.8885676 201.376931,39.8215792 Z M211.075639,67.8215267 C211.075639,71.2026157 210.454473,73.2756032 208.746877,74.4338941 C207.057551,75.5641717 204.574107,75.7176361 200.957949,75.7298158 C197.967829,75.7273799 195.836379,75.081855 194.419878,74.0015142 C193.014339,72.9284813 192.370032,71.4169786 192.374904,69.8579751 C192.370032,68.1783923 193.036262,66.7180445 194.376031,65.7400133 C195.7158,64.7571103 197.681606,64.2443443 200.273449,64.2419084 L210.634733,64.2419084 C210.752876,64.2419084 210.866148,64.2918452 210.945316,64.3734493 C211.028138,64.4513995 211.075639,64.5646708 211.075639,64.6828141 L211.075639,67.8215267 Z" id="Shape" fill="#1E5073" fill-rule="nonzero"></path>
                                <path d="M283.57783,39.8215792 C275.451524,39.8654262 266.317956,44.9979582 266.274109,61.5428835 C266.331353,78.9903256 276.235898,82.9389893 284.932214,83.0011059 C290.202377,82.9986699 295.205804,81.2764582 299.222674,77.1731121 C299.310368,77.0829822 299.394408,76.9928523 299.479666,76.8978505 C299.499154,76.8844528 299.519859,76.8734911 299.536911,76.8540036 C299.549091,76.8430418 299.551527,76.8284262 299.560052,76.8174644 C299.691593,76.6298968 299.666016,76.3765587 299.485756,76.2230943 L294.537138,72.0076948 L294.507907,71.9833354 C294.321557,71.8201272 294.038988,71.8420507 293.878215,72.0284004 L293.912319,71.9882073 C291.337527,74.354726 287.956438,75.722508 284.762916,75.7261619 C281.707026,75.7285979 279.016527,74.8053754 277.094568,72.9382251 C275.171391,71.0710747 274.052075,68.2880098 274.052075,64.6791601 C274.052075,64.5634528 274.099576,64.4501815 274.184834,64.3722313 C274.264002,64.2881913 274.376055,64.2406904 274.495416,64.2406904 L300.430902,64.2406904 C300.676932,64.2406904 300.87668,64.043379 300.87668,63.7936948 L300.87668,57.5467189 C300.865718,46.6677972 292.861209,39.8386308 283.57783,39.8215792 Z M292.97448,57.8499938 C292.891658,57.9364698 292.777169,57.9839706 292.657808,57.9839706 L274.496634,57.9839706 C274.373619,57.9839706 274.266438,57.9364698 274.178744,57.8536477 C274.098358,57.7671717 274.052075,57.6563363 274.052075,57.5357571 C274.192141,50.8308238 278.262602,47.0685098 283.576612,47.0989591 C288.88575,47.0697278 292.878261,50.8320418 293.090188,57.5296673 C293.098714,57.6490285 293.057302,57.7647358 292.97448,57.8499938 Z" id="Shape" fill="#1E5073" fill-rule="nonzero"></path>
                                <path d="M323.562617,39.8215792 C317.707828,39.8361948 313.402299,41.2332082 310.245317,44.8932126 C310.168585,44.9809066 310.016338,45.1307171 309.939606,45.2245009 C309.939606,45.2257189 310.010248,45.1611664 310.005376,45.1660383 C309.983453,45.1843078 309.957875,45.1989235 309.939606,45.2245009 C309.788577,45.4205943 309.82877,45.7007278 310.023646,45.8493203 L310.024864,45.8529742 C310.024864,45.8529742 310.024864,45.8529742 310.024864,45.8517562 L315.023419,49.6713149 L315.377849,49.9441406 L315.439965,49.9892055 L315.380285,49.9441406 C315.576378,50.0939511 315.856512,50.056194 316.006322,49.8613185 C317.338783,47.8942945 319.710173,47.0758176 323.992561,47.0989591 C327.120312,47.101395 329.399137,47.446081 330.955705,48.387573 C332.532978,49.3302829 333.277158,50.9282616 333.262543,53.04875 L333.262543,57.5467189 C333.262543,57.6636441 333.215042,57.7769155 333.133438,57.8585196 C333.053052,57.9364698 332.938562,57.9851886 332.821637,57.9851886 L320.851413,57.9851886 C311.799448,58.011984 307.319749,63.617089 307.288082,70.2867011 C307.313659,77.5117082 312.630105,82.9730925 322.042589,83.0023238 C327.855967,82.9877082 330.583005,81.6905685 332.271114,78.886798 C332.353936,78.7564751 332.497657,78.674871 332.651121,78.674871 L332.820419,78.674871 C332.937344,78.674871 333.050616,78.718718 333.13222,78.802758 C333.213824,78.8819262 333.261325,78.9964155 333.261325,79.1121228 L333.261325,82.0425623 C333.261325,82.2910285 333.459854,82.4883399 333.709538,82.4883399 L340.588641,82.4883399 C340.83589,82.4883399 341.034419,82.2910285 341.034419,82.0425623 L341.034419,53.560298 C340.999098,43.2258096 334.121213,39.8885676 323.562617,39.8215792 Z M333.261325,67.8215267 C333.261325,71.2026157 332.640159,73.2756032 330.933781,74.4338941 C329.243237,75.5641717 326.758575,75.7176361 323.143635,75.7298158 C320.152297,75.7273799 318.022065,75.081855 316.605564,74.0015142 C315.200025,72.9284813 314.556936,71.4169786 314.559372,69.8579751 C314.556936,68.1783923 315.22073,66.7180445 316.561717,65.7400133 C317.902704,64.7571103 319.867292,64.2443443 322.460353,64.2419084 L332.820419,64.2419084 C332.937344,64.2419084 333.050616,64.2918452 333.13222,64.3734493 C333.213824,64.4513995 333.261325,64.5646708 333.261325,64.6828141 L333.261325,67.8215267 Z" id="Shape" fill="#1E5073" fill-rule="nonzero"></path>
                            </g>
                        </g>
                        <path d="M0.5,99.5 L93.5483745,99.5" id="Line-2" stroke="#BD10E0" stroke-linecap="square"></path>
                        <path id="Line-2-decoration-1" d="M0.5,96.5 L0.5,102.5" stroke="#BD10E0" stroke-linecap="square"></path>
                        <path id="Line-2-decoration-2" d="M93.5483745,96.5 L93.5483745,102.5" stroke="#BD10E0" stroke-linecap="square"></path>
                        <path d="M105.5,99.5 L341.502119,99.5" id="Line-2-Copy" stroke="#BD10E0" stroke-linecap="square"></path>
                        <path id="Line-2-Copy-decoration-1" d="M105.5,96.5 L105.5,102.5" stroke="#BD10E0" stroke-linecap="square"></path>
                        <path id="Line-2-Copy-decoration-2" d="M341.502119,96.5 L341.502119,102.5" stroke="#BD10E0" stroke-linecap="square"></path>
                    </g>
                </g>
            </g>
        </g>
    </g>
</svg>