<?xml version="1.0" encoding="UTF-8"?>
<svg width="343px" height="114px" viewBox="0 0 343 114" version="1.1" xmlns="http://www.w3.org/2000/svg" xmlns:xlink="http://www.w3.org/1999/xlink">
    <!-- Generator: Sketch 50.2 (55047) - http://www.bohemiancoding.com/sketch -->
    <title>anatomy</title>
    <desc>Created with Sketch.</desc>
    <defs></defs>
    <g id="Page-1" stroke="none" stroke-width="1" fill="none" fill-rule="evenodd">
        <g id="anatomy">
            <path d="M31.23,111.12 C31.23,111.466668 31.1466675,111.788332 30.98,112.085 C30.8133325,112.381668 30.5600017,112.619999 30.22,112.8 C29.8799983,112.980001 29.4633358,113.07 28.97,113.07 C28.4899976,113.07 28.0600019,112.985001 27.68,112.815 C27.2999981,112.644999 26.9966678,112.406668 26.77,112.1 C26.5433322,111.793332 26.4133335,111.440002 26.38,111.04 L27.6,111.04 C27.6333335,111.346668 27.7649989,111.609999 27.995,111.83 C28.2250012,112.050001 28.5333314,112.16 28.92,112.16 C29.2666684,112.16 29.5349991,112.066668 29.725,111.88 C29.915001,111.693332 30.01,111.453335 30.01,111.16 C30.01,110.906665 29.9400007,110.698334 29.8,110.535 C29.6599993,110.371666 29.4866677,110.243334 29.28,110.15 C29.0733323,110.056666 28.7900018,109.950001 28.43,109.83 C27.9899978,109.689999 27.6316681,109.550001 27.355,109.41 C27.078332,109.269999 26.8433343,109.066668 26.65,108.8 C26.4566657,108.533332 26.36,108.183335 26.36,107.75 C26.36,107.369998 26.4533324,107.036668 26.64,106.75 C26.8266676,106.463332 27.0933316,106.241667 27.44,106.085 C27.7866684,105.928333 28.1866644,105.85 28.64,105.85 C29.3600036,105.85 29.9316646,106.023332 30.355,106.37 C30.7783355,106.716668 31.0199997,107.169997 31.08,107.73 L29.85,107.73 C29.8033331,107.463332 29.6783344,107.235001 29.475,107.045 C29.2716657,106.854999 28.9933351,106.76 28.64,106.76 C28.3199984,106.76 28.0633343,106.841666 27.87,107.005 C27.6766657,107.168334 27.58,107.403332 27.58,107.71 C27.58,107.950001 27.646666,108.148333 27.78,108.305 C27.913334,108.461667 28.0816657,108.585 28.285,108.675 C28.4883344,108.765 28.7666649,108.869999 29.12,108.99 C29.5666689,109.130001 29.9316653,109.271666 30.215,109.415 C30.4983348,109.558334 30.7383324,109.766665 30.935,110.04 C31.1316677,110.313335 31.23,110.673331 31.23,111.12 Z M38.7,105.94 L36.35,110.43 L36.35,113 L35.2,113 L35.2,110.43 L32.84,105.94 L34.16,105.94 L35.78,109.21 L37.4,105.94 L38.7,105.94 Z M47.87,106.05 L47.87,113 L46.72,113 L46.72,107.79 L44.71,113 L43.71,113 L41.69,107.79 L41.69,113 L40.55,113 L40.55,106.05 L41.93,106.05 L44.23,111.6 L46.49,106.05 L47.87,106.05 Z M53.92,109.36 C54.3466688,109.446667 54.6916654,109.649998 54.955,109.97 C55.2183347,110.290002 55.35,110.663331 55.35,111.09 C55.35,111.67667 55.1533353,112.141665 54.76,112.485 C54.3666647,112.828335 53.7966704,113 53.05,113 L50.24,113 L50.24,105.94 L53,105.94 C53.7066702,105.94 54.2483315,106.098332 54.625,106.415 C55.0016686,106.731668 55.19,107.166664 55.19,107.72 C55.19,108.166669 55.0733345,108.528332 54.84,108.805 C54.6066655,109.081668 54.3000019,109.266666 53.92,109.36 Z M51.38,108.98 L52.79,108.98 C53.190002,108.98 53.4949989,108.886668 53.705,108.7 C53.9150011,108.513332 54.02,108.253335 54.02,107.92 C54.02,107.593332 53.9150011,107.336668 53.705,107.15 C53.4949989,106.963332 53.1766688,106.87 52.75,106.87 L51.38,106.87 L51.38,108.98 Z M52.82,112.06 C53.2533355,112.06 53.5883321,111.961668 53.825,111.765 C54.0616679,111.568332 54.18,111.293335 54.18,110.94 C54.18,110.586665 54.0600012,110.310001 53.82,110.11 C53.5799988,109.909999 53.2433355,109.81 52.81,109.81 L51.38,109.81 L51.38,112.06 L52.82,112.06 Z M60.69,105.85 C61.3433366,105.85 61.9349974,106.003332 62.465,106.31 C62.9950027,106.616668 63.4116652,107.044997 63.715,107.595 C64.0183349,108.145003 64.17,108.766663 64.17,109.46 C64.17,110.153337 64.0183349,110.774997 63.715,111.325 C63.4116652,111.875003 62.9950027,112.304998 62.465,112.615 C61.9349974,112.925002 61.3433366,113.08 60.69,113.08 C60.0299967,113.08 59.4350027,112.925002 58.905,112.615 C58.3749974,112.304998 57.9566682,111.875003 57.65,111.325 C57.3433318,110.774997 57.19,110.153337 57.19,109.46 C57.19,108.766663 57.3433318,108.145003 57.65,107.595 C57.9566682,107.044997 58.3749974,106.616668 58.905,106.31 C59.4350027,106.003332 60.0299967,105.85 60.69,105.85 Z M60.69,106.91 C60.2366644,106.91 59.8333351,107.013332 59.48,107.22 C59.1266649,107.426668 58.8516676,107.723331 58.655,108.11 C58.4583324,108.496669 58.36,108.946664 58.36,109.46 C58.36,109.973336 58.4583324,110.423331 58.655,110.81 C58.8516676,111.196669 59.1266649,111.493332 59.48,111.7 C59.8333351,111.906668 60.2366644,112.01 60.69,112.01 C61.1366689,112.01 61.5349983,111.906668 61.885,111.7 C62.2350017,111.493332 62.5083324,111.196669 62.705,110.81 C62.9016677,110.423331 63,109.973336 63,109.46 C63,108.946664 62.9016677,108.496669 62.705,108.11 C62.5083324,107.723331 62.2350017,107.426668 61.885,107.22 C61.5349983,107.013332 61.1366689,106.91 60.69,106.91 Z M67.46,112.11 L69.9,112.11 L69.9,113 L66.32,113 L66.32,105.94 L67.46,105.94 L67.46,112.11 Z" id="SYMBOL" fill="#BD10E0" fill-rule="nonzero"></path>
            <path d="M200.775,105.94 L199.015,113 L197.615,113 L196.125,107.54 L194.635,113 L193.235,113 L191.475,105.94 L192.725,105.94 L193.945,111.68 L195.495,105.94 L196.755,105.94 L198.305,111.68 L199.525,105.94 L200.775,105.94 Z M206.065,105.85 C206.718337,105.85 207.309997,106.003332 207.84,106.31 C208.370003,106.616668 208.786665,107.044997 209.09,107.595 C209.393335,108.145003 209.545,108.766663 209.545,109.46 C209.545,110.153337 209.393335,110.774997 209.09,111.325 C208.786665,111.875003 208.370003,112.304998 207.84,112.615 C207.309997,112.925002 206.718337,113.08 206.065,113.08 C205.404997,113.08 204.810003,112.925002 204.28,112.615 C203.749997,112.304998 203.331668,111.875003 203.025,111.325 C202.718332,110.774997 202.565,110.153337 202.565,109.46 C202.565,108.766663 202.718332,108.145003 203.025,107.595 C203.331668,107.044997 203.749997,106.616668 204.28,106.31 C204.810003,106.003332 205.404997,105.85 206.065,105.85 Z M206.065,106.91 C205.611664,106.91 205.208335,107.013332 204.855,107.22 C204.501665,107.426668 204.226668,107.723331 204.03,108.11 C203.833332,108.496669 203.735,108.946664 203.735,109.46 C203.735,109.973336 203.833332,110.423331 204.03,110.81 C204.226668,111.196669 204.501665,111.493332 204.855,111.7 C205.208335,111.906668 205.611664,112.01 206.065,112.01 C206.511669,112.01 206.909998,111.906668 207.26,111.7 C207.610002,111.493332 207.883332,111.196669 208.08,110.81 C208.276668,110.423331 208.375,109.973336 208.375,109.46 C208.375,108.946664 208.276668,108.496669 208.08,108.11 C207.883332,107.723331 207.610002,107.426668 207.26,107.22 C206.909998,107.013332 206.511669,106.91 206.065,106.91 Z M215.405,113 L213.645,110.18 L212.835,110.18 L212.835,113 L211.695,113 L211.695,105.94 L214.185,105.94 C214.991671,105.94 215.603331,106.136665 216.02,106.53 C216.436669,106.923335 216.645,107.44333 216.645,108.09 C216.645,108.643336 216.490002,109.096665 216.18,109.45 C215.869998,109.803335 215.42167,110.03 214.835,110.13 L216.685,113 L215.405,113 Z M212.835,109.37 L214.095,109.37 C215.015005,109.37 215.475,108.963337 215.475,108.15 C215.475,107.763331 215.363334,107.461668 215.14,107.245 C214.916666,107.028332 214.568336,106.92 214.095,106.92 L212.835,106.92 L212.835,109.37 Z M224.735,109.46 C224.735,110.173337 224.590001,110.794997 224.3,111.325 C224.009999,111.855003 223.586669,112.266665 223.03,112.56 C222.473331,112.853335 221.808337,113 221.035,113 L218.675,113 L218.675,105.94 L221.035,105.94 C221.808337,105.94 222.473331,106.084999 223.03,106.375 C223.586669,106.665001 224.009999,107.073331 224.3,107.6 C224.590001,108.126669 224.735,108.746663 224.735,109.46 Z M220.945,111.97 C221.791671,111.97 222.441664,111.750002 222.895,111.31 C223.348336,110.869998 223.575,110.253337 223.575,109.46 C223.575,108.666663 223.348336,108.050002 222.895,107.61 C222.441664,107.169998 221.791671,106.95 220.945,106.95 L219.815,106.95 L219.815,111.97 L220.945,111.97 Z M234.205,106.05 L234.205,113 L233.055,113 L233.055,107.79 L231.045,113 L230.045,113 L228.025,107.79 L228.025,113 L226.885,113 L226.885,106.05 L228.265,106.05 L230.565,111.6 L232.825,106.05 L234.205,106.05 Z M240.785,111.47 L237.805,111.47 L237.265,113 L236.045,113 L238.645,106.05 L239.955,106.05 L242.545,113 L241.325,113 L240.785,111.47 Z M240.465,110.59 L239.295,107.29 L238.125,110.59 L240.465,110.59 Z M248.105,113 L246.345,110.18 L245.535,110.18 L245.535,113 L244.395,113 L244.395,105.94 L246.885,105.94 C247.691671,105.94 248.303331,106.136665 248.72,106.53 C249.136669,106.923335 249.345,107.44333 249.345,108.09 C249.345,108.643336 249.190002,109.096665 248.88,109.45 C248.569998,109.803335 248.12167,110.03 247.535,110.13 L249.385,113 L248.105,113 Z M245.535,109.37 L246.795,109.37 C247.715005,109.37 248.175,108.963337 248.175,108.15 C248.175,107.763331 248.063334,107.461668 247.84,107.245 C247.616666,107.028332 247.268336,106.92 246.795,106.92 L245.535,106.92 L245.535,109.37 Z M253.585,109.43 L256.695,113 L255.305,113 L252.515,109.73 L252.515,113 L251.375,113 L251.375,105.94 L252.515,105.94 L252.515,109.17 L255.315,105.94 L256.695,105.94 L253.585,109.43 Z" id="WORDMARK" fill="#BD10E0" fill-rule="nonzero"></path>
            <g id="Logo/Color" transform="translate(1.000000, 0.000000)" fill-rule="nonzero">
                <g id="azavea_rgb_solo">
                    <path d="M46.1598577,57.7074911 C43.3244199,57.7074911 40.541355,58.6879582 38.3331726,60.4674146 C37.4062963,61.2115952 36.5658959,62.3284751 35.877742,63.0519502 C34.7279769,64.2004973 33.2712829,64.984871 31.7317669,65.4769315 C29.6551254,66.139508 27.7282945,65.8520667 25.7478728,64.94346 C23.0464119,63.7060009 21.6968995,61.0215916 19.1805703,59.5015632 C14.5449706,56.6977927 8.45754893,57.2787651 4.41997331,60.8754351 C0.555349644,64.3174226 -0.829483986,69.9554128 1.0449742,74.7883238 C2.8975089,79.5615543 7.61836655,82.7964867 12.7387189,82.7964867 C15.5656308,82.7928327 18.3450418,81.8111477 20.5520062,80.0463069 C21.6165133,79.1937269 22.3058852,78.0403078 23.2960961,77.1499706 C24.4909262,76.0745018 25.9610178,75.3558986 27.4980979,74.911339 C29.6490356,74.2865196 31.7926655,74.8163372 33.7426379,75.8711005 C36.1956326,77.2023434 37.4647589,79.7332883 39.9542927,81.1534431 C44.6702785,83.8402883 50.7418665,83.125339 54.7075819,79.4287954 C58.421177,75.9673203 59.6878674,70.4584351 57.8475125,65.7229617 C55.9937598,60.9472954 51.2850819,57.7062731 46.1598577,57.7074911" id="Shape" fill="#1E5073"></path>
                    <path d="M35.2663203,6.15684609 C33.6695596,8.9155516 33.1921148,12.2235623 33.9362954,15.3220819 C34.3016868,16.8396744 34.9252883,17.8980916 35.0288158,19.4302998 C35.1225996,20.8029537 35.0446495,22.8174786 34.337008,24.0378861 C33.1653194,26.053629 31.6026619,27.6150685 29.3896077,28.5309831 C28.1265712,29.0559288 26.7283399,29.0668906 25.4275463,29.4992705 C24.0731619,29.9499199 22.7955098,30.630766 21.6701041,31.5089235 C17.4096397,34.8327678 15.7860836,40.7009546 17.6739395,45.7518826 C19.5191664,50.6907571 24.41054,54.0255632 29.6867927,53.904984 C35.1347794,53.7819689 40.0066655,50.0354884 41.4840649,44.7799413 C41.8896495,43.3342091 42.0309342,41.8166165 41.9018292,40.3185116 C41.7568906,38.632839 40.9980943,37.2346077 40.6607162,35.6232313 C40.1187189,33.0484395 40.7033452,30.6100605 41.9809973,28.3957883 C42.5546619,27.3970516 43.9455854,26.4847909 44.9102189,25.9135623 C46.2390258,25.1230988 47.3668674,24.9891219 48.8040738,24.6761032 C51.5250222,24.0829511 54.0133381,22.5726664 55.7891406,20.4253826 C59.1763194,16.3366521 59.5867758,10.394169 56.8146726,5.8694048 C51.9488763,-2.08151335 39.9128817,-1.92439502 35.2663203,6.15684609" id="Shape" fill="#4CA4DB"></path>
                    <path d="M51.918427,47.5861477 C53.3361459,50.0440142 55.5759956,51.9659733 58.2214297,52.9866335 C59.3334377,53.4177954 60.7012198,53.5810036 61.6877767,53.8221619 C63.171266,54.2216566 64.5122527,55.0206459 65.6620178,56.0291263 C67.3830116,57.5357571 68.1734751,59.339573 68.391492,61.6220516 C68.5583541,63.3734947 68.135718,64.7303149 67.5985925,66.3514351 C67.0967883,67.8726815 66.8848612,69.4877117 66.9835169,71.0893443 C67.3342927,76.7273345 71.5911032,81.5054368 77.119476,82.567508 C82.294637,83.5601548 87.6914689,81.1193399 90.336903,76.5556005 C93.0030427,71.958976 92.4439938,66.0189288 88.9423256,62.0142384 C87.1117144,59.9217633 84.5892954,58.4857749 81.8598212,57.9583932 C79.3313123,57.4712046 76.5494653,56.3616326 75.1707215,53.9792802 C73.7749262,51.5713505 73.4022269,48.5678327 74.4545543,45.949194 C75.622589,43.0443319 75.6274609,39.7460649 74.4984012,36.8278052 C72.5581726,31.8182883 67.5182064,28.5248932 62.146952,28.791629 C52.9573568,29.2508043 47.3120587,39.6303577 51.918427,47.5861477" id="Shape" fill="#3873A0"></path>
                    <path d="M261.67992,40.3367811 L254.418374,40.3367811 C254.171125,40.3367811 253.97016,40.5340925 253.97016,40.7837767 L253.97016,40.7046085 L244.097283,70.1697758 C244.035166,70.3415098 243.869522,70.4681788 243.679519,70.4681788 L243.509003,70.4681788 C243.320217,70.4681788 243.146047,70.3415098 243.088802,70.1697758 L233.222015,40.7106984 L233.222015,40.7862126 C233.222015,40.5365285 233.02105,40.3392171 232.77502,40.3392171 L225.508601,40.3392171 C225.261353,40.3392171 225.062824,40.5365285 225.062824,40.7862126 L225.062824,40.8446753 L225.088401,40.9201895 L225.111543,40.9786521 L225.206544,41.2332082 L240.233877,82.1923728 C240.317917,82.4225694 240.468946,82.4993016 240.73081,82.4846859 L246.468673,82.4846859 L246.393159,82.4578906 C246.624574,82.5419306 246.880348,82.4237874 246.965606,82.1923728 L261.996593,41.2307722 L262.129351,40.8629448 L262.129351,40.7825587 C262.128133,40.5340925 261.928386,40.3367811 261.67992,40.3367811 Z" id="Shape" fill="#1E5073"></path>
                    <path d="M178.736059,46.761581 L178.751892,46.7396575 C178.821317,46.6495276 178.84933,46.5435641 178.844458,46.4412544 L178.844458,40.7825587 C178.844458,40.5328746 178.644711,40.3355632 178.395027,40.3355632 L149.268456,40.3355632 C149.022425,40.3355632 148.82146,40.5328746 148.82146,40.7825587 L148.82146,46.6507456 C148.82146,46.8979938 149.022425,47.0977411 149.268456,47.0977411 L168.748692,47.0977411 C168.91799,47.0977411 169.065365,47.1903069 169.142097,47.3401174 C169.216393,47.48871 169.196906,47.6689698 169.09825,47.8041646 L147.763043,76.0257829 C147.755735,76.0355267 147.750863,76.0464884 147.743555,76.0513603 L147.691182,76.1232206 L147.700926,76.1171308 C147.657079,76.1853372 147.627848,76.2596335 147.627848,76.3461094 L147.627848,82.0376904 C147.627848,82.2861566 147.828813,82.483468 148.074843,82.483468 L178.393809,82.483468 C178.643493,82.483468 178.84324,82.2861566 178.84324,82.0376904 L178.84324,75.6616094 C178.84324,75.4143612 178.643493,75.2170498 178.393809,75.2170498 L157.716306,75.2170498 C157.54579,75.2170498 157.391108,75.1183941 157.318029,74.9661477 C157.244951,74.8187731 157.265657,74.6397313 157.364312,74.5069724 L178.736059,46.761581 Z" id="Shape" fill="#1E5073"></path>
                    <path d="M121.217353,39.8215792 C115.362564,39.8361948 111.058253,41.2332082 107.897617,44.8932126 C107.822102,44.9809066 107.668638,45.1307171 107.593124,45.2245009 C107.591906,45.2257189 107.66133,45.1611664 107.660112,45.1660383 C107.636971,45.1843078 107.612611,45.1989235 107.593124,45.2245009 C107.442095,45.4205943 107.48107,45.7007278 107.675946,45.8493203 L107.677164,45.8529742 C107.677164,45.8529742 107.675946,45.8529742 107.675946,45.8517562 L112.676937,49.6713149 L113.032585,49.9441406 L113.092265,49.9892055 L113.033802,49.9441406 C113.231114,50.0939511 113.511247,50.056194 113.65984,49.8613185 C114.989865,47.8942945 117.362473,47.0758176 121.644861,47.0989591 C124.775048,47.101395 127.052655,47.446081 128.609222,48.387573 C130.186496,49.3302829 130.929458,50.9282616 130.91606,53.04875 L130.91606,57.5467189 C130.91606,57.6636441 130.867342,57.7769155 130.785738,57.8585196 C130.706569,57.9364698 130.59208,57.9851886 130.473937,57.9851886 L118.506149,57.9851886 C109.452966,58.011984 104.973267,63.617089 104.942818,70.2867011 C104.967177,77.5117082 110.283623,82.9730925 119.698543,83.0023238 C125.511921,82.9877082 128.237741,81.6905685 129.92585,78.886798 C130.008672,78.7564751 130.152392,78.674871 130.307075,78.674871 L130.473937,78.674871 C130.593298,78.674871 130.706569,78.718718 130.785738,78.802758 C130.867342,78.8819262 130.91606,78.9964155 130.91606,79.1121228 L130.91606,82.0425623 C130.91606,82.2910285 131.117026,82.4883399 131.363056,82.4883399 L138.242159,82.4883399 C138.489407,82.4883399 138.690373,82.2910285 138.690373,82.0425623 L138.690373,53.560298 C138.653834,43.2258096 131.777166,39.8885676 121.217353,39.8215792 Z M130.91606,67.8215267 C130.91606,71.2026157 130.294895,73.2756032 128.587299,74.4338941 C126.896754,75.5641717 124.41331,75.7176361 120.798371,75.7298158 C117.807033,75.7273799 115.675583,75.081855 114.259082,74.0015142 C112.853543,72.9284813 112.210454,71.4169786 112.215326,69.8579751 C112.211672,68.1783923 112.875466,66.7180445 114.216453,65.7400133 C115.556222,64.7571103 117.52081,64.2443443 120.113871,64.2419084 L130.472719,64.2419084 C130.59208,64.2419084 130.705351,64.2918452 130.78452,64.3734493 C130.866124,64.4513995 130.914843,64.5646708 130.914843,64.6828141 L130.914843,67.8215267 L130.91606,67.8215267 Z" id="Shape" fill="#1E5073"></path>
                    <path d="M201.376931,39.8215792 C195.522142,39.8361948 191.216613,41.2332082 188.058413,44.8932126 C187.981681,44.9809066 187.829434,45.1307171 187.752702,45.2245009 C187.752702,45.2257189 187.822126,45.1611664 187.820908,45.1660383 C187.796549,45.1843078 187.77219,45.1989235 187.752702,45.2245009 C187.602891,45.4205943 187.643085,45.7007278 187.835524,45.8493203 L187.83796,45.8529742 C187.83796,45.8529742 187.83796,45.8529742 187.83796,45.8517562 L192.836515,49.6713149 L193.192163,49.9441406 L193.251843,49.9892055 L193.193381,49.9441406 C193.389474,50.0939511 193.670826,50.056194 193.820636,49.8613185 C195.150661,47.8942945 197.52327,47.0758176 201.80444,47.0989591 C204.934626,47.101395 207.211015,47.446081 208.768801,48.387573 C210.34851,49.3302829 211.089036,50.9282616 211.075639,53.04875 L211.075639,57.5467189 C211.075639,57.6636441 211.028138,57.7769155 210.945316,57.8585196 C210.867366,57.9364698 210.752876,57.9851886 210.634733,57.9851886 L198.665727,57.9851886 C189.613762,58.011984 185.132845,63.617089 185.101178,70.2867011 C185.126755,77.5117082 190.441983,82.9730925 199.856903,83.0023238 C205.670281,82.9877082 208.397319,81.6905685 210.085428,78.886798 C210.165814,78.7564751 210.309535,78.674871 210.465435,78.674871 L210.633515,78.674871 C210.751658,78.674871 210.86493,78.718718 210.944098,78.802758 C211.02692,78.8819262 211.074421,78.9964155 211.074421,79.1121228 L211.074421,82.0425623 C211.074421,82.2910285 211.276604,82.4883399 211.522634,82.4883399 L218.40052,82.4883399 C218.647768,82.4883399 218.847515,82.2910285 218.847515,82.0425623 L218.847515,53.560298 C218.813412,43.2258096 211.936745,39.8885676 201.376931,39.8215792 Z M211.075639,67.8215267 C211.075639,71.2026157 210.454473,73.2756032 208.746877,74.4338941 C207.057551,75.5641717 204.574107,75.7176361 200.957949,75.7298158 C197.967829,75.7273799 195.836379,75.081855 194.419878,74.0015142 C193.014339,72.9284813 192.370032,71.4169786 192.374904,69.8579751 C192.370032,68.1783923 193.036262,66.7180445 194.376031,65.7400133 C195.7158,64.7571103 197.681606,64.2443443 200.273449,64.2419084 L210.634733,64.2419084 C210.752876,64.2419084 210.866148,64.2918452 210.945316,64.3734493 C211.028138,64.4513995 211.075639,64.5646708 211.075639,64.6828141 L211.075639,67.8215267 Z" id="Shape" fill="#1E5073"></path>
                    <path d="M283.57783,39.8215792 C275.451524,39.8654262 266.317956,44.9979582 266.274109,61.5428835 C266.331353,78.9903256 276.235898,82.9389893 284.932214,83.0011059 C290.202377,82.9986699 295.205804,81.2764582 299.222674,77.1731121 C299.310368,77.0829822 299.394408,76.9928523 299.479666,76.8978505 C299.499154,76.8844528 299.519859,76.8734911 299.536911,76.8540036 C299.549091,76.8430418 299.551527,76.8284262 299.560052,76.8174644 C299.691593,76.6298968 299.666016,76.3765587 299.485756,76.2230943 L294.537138,72.0076948 L294.507907,71.9833354 C294.321557,71.8201272 294.038988,71.8420507 293.878215,72.0284004 L293.912319,71.9882073 C291.337527,74.354726 287.956438,75.722508 284.762916,75.7261619 C281.707026,75.7285979 279.016527,74.8053754 277.094568,72.9382251 C275.171391,71.0710747 274.052075,68.2880098 274.052075,64.6791601 C274.052075,64.5634528 274.099576,64.4501815 274.184834,64.3722313 C274.264002,64.2881913 274.376055,64.2406904 274.495416,64.2406904 L300.430902,64.2406904 C300.676932,64.2406904 300.87668,64.043379 300.87668,63.7936948 L300.87668,57.5467189 C300.865718,46.6677972 292.861209,39.8386308 283.57783,39.8215792 Z M292.97448,57.8499938 C292.891658,57.9364698 292.777169,57.9839706 292.657808,57.9839706 L274.496634,57.9839706 C274.373619,57.9839706 274.266438,57.9364698 274.178744,57.8536477 C274.098358,57.7671717 274.052075,57.6563363 274.052075,57.5357571 C274.192141,50.8308238 278.262602,47.0685098 283.576612,47.0989591 C288.88575,47.0697278 292.878261,50.8320418 293.090188,57.5296673 C293.098714,57.6490285 293.057302,57.7647358 292.97448,57.8499938 Z" id="Shape" fill="#1E5073"></path>
                    <path d="M323.562617,39.8215792 C317.707828,39.8361948 313.402299,41.2332082 310.245317,44.8932126 C310.168585,44.9809066 310.016338,45.1307171 309.939606,45.2245009 C309.939606,45.2257189 310.010248,45.1611664 310.005376,45.1660383 C309.983453,45.1843078 309.957875,45.1989235 309.939606,45.2245009 C309.788577,45.4205943 309.82877,45.7007278 310.023646,45.8493203 L310.024864,45.8529742 C310.024864,45.8529742 310.024864,45.8529742 310.024864,45.8517562 L315.023419,49.6713149 L315.377849,49.9441406 L315.439965,49.9892055 L315.380285,49.9441406 C315.576378,50.0939511 315.856512,50.056194 316.006322,49.8613185 C317.338783,47.8942945 319.710173,47.0758176 323.992561,47.0989591 C327.120312,47.101395 329.399137,47.446081 330.955705,48.387573 C332.532978,49.3302829 333.277158,50.9282616 333.262543,53.04875 L333.262543,57.5467189 C333.262543,57.6636441 333.215042,57.7769155 333.133438,57.8585196 C333.053052,57.9364698 332.938562,57.9851886 332.821637,57.9851886 L320.851413,57.9851886 C311.799448,58.011984 307.319749,63.617089 307.288082,70.2867011 C307.313659,77.5117082 312.630105,82.9730925 322.042589,83.0023238 C327.855967,82.9877082 330.583005,81.6905685 332.271114,78.886798 C332.353936,78.7564751 332.497657,78.674871 332.651121,78.674871 L332.820419,78.674871 C332.937344,78.674871 333.050616,78.718718 333.13222,78.802758 C333.213824,78.8819262 333.261325,78.9964155 333.261325,79.1121228 L333.261325,82.0425623 C333.261325,82.2910285 333.459854,82.4883399 333.709538,82.4883399 L340.588641,82.4883399 C340.83589,82.4883399 341.034419,82.2910285 341.034419,82.0425623 L341.034419,53.560298 C340.999098,43.2258096 334.121213,39.8885676 323.562617,39.8215792 Z M333.261325,67.8215267 C333.261325,71.2026157 332.640159,73.2756032 330.933781,74.4338941 C329.243237,75.5641717 326.758575,75.7176361 323.143635,75.7298158 C320.152297,75.7273799 318.022065,75.081855 316.605564,74.0015142 C315.200025,72.9284813 314.556936,71.4169786 314.559372,69.8579751 C314.556936,68.1783923 315.22073,66.7180445 316.561717,65.7400133 C317.902704,64.7571103 319.867292,64.2443443 322.460353,64.2419084 L332.820419,64.2419084 C332.937344,64.2419084 333.050616,64.2918452 333.13222,64.3734493 C333.213824,64.4513995 333.261325,64.5646708 333.261325,64.6828141 L333.261325,67.8215267 Z" id="Shape" fill="#1E5073"></path>
                </g>
            </g>
            <path d="M0.5,99.5 L93.5483745,99.5" id="Line-2" stroke="#BD10E0" stroke-linecap="square"></path>
            <path d="M0.5,96.5 L0.5,102.5" id="Line-2-decoration-1" stroke="#BD10E0" stroke-linecap="square"></path>
            <path d="M93.5483745,96.5 L93.5483745,102.5" id="Line-2-decoration-2" stroke="#BD10E0" stroke-linecap="square"></path>
            <path d="M105.5,99.5 L341.502119,99.5" id="Line-2-Copy" stroke="#BD10E0" stroke-linecap="square"></path>
            <path d="M105.5,96.5 L105.5,102.5" id="Line-2-Copy-decoration-1" stroke="#BD10E0" stroke-linecap="square"></path>
            <path d="M341.502119,96.5 L341.502119,102.5" id="Line-2-Copy-decoration-2" stroke="#BD10E0" stroke-linecap="square"></path>
        </g>
    </g>
</svg>