<?xml version="1.0" encoding="UTF-8"?>
<svg width="193px" height="86px" viewBox="0 0 193 86" version="1.1" xmlns="http://www.w3.org/2000/svg" xmlns:xlink="http://www.w3.org/1999/xlink">
    <!-- Generator: Sketch 49.3 (51167) - http://www.bohemiancoding.com/sketch -->
    <title>Group 3 Copy</title>
    <desc>Created with Sketch.</desc>
    <defs>
        <rect id="path-1" x="0" y="0" width="192.47092" height="86" rx="3"></rect>
    </defs>
    <g id="__Wireframes" stroke="none" stroke-width="1" fill="none" fill-rule="evenodd">
        <g id="Brand-Guidelines-&gt;-Design-&gt;-Logo" transform="translate(-281.000000, -2798.000000)">
            <g id="Group-10" transform="translate(281.000000, 2796.000000)">
                <g id="Group-3-Copy" transform="translate(0.000000, 2.000000)">
                    <g id="Group">
                        <g id="Rectangle-2-Copy-2">
                            <use fill="#FAFAFA" fill-rule="evenodd" xlink:href="#path-1"></use>
                            <rect stroke="#FFFFFF" stroke-width="1" x="0.5" y="0.5" width="191.47092" height="85" rx="3"></rect>
                        </g>
                    </g>
                    <g id="azavea_rgb_solo" transform="translate(33.000000, 24.000000)" fill-rule="nonzero">
                        <path d="M16.9763339,21.2232378 C15.9335374,21.2232378 14.9100022,21.5838268 14.0978931,22.2382622 C13.7570133,22.5119515 13.447937,22.9227094 13.1948528,23.1887838 C12.7720006,23.611188 12.2362684,23.8996592 11.6700765,24.0806256 C10.9063445,24.3243031 10.1977088,24.2185901 9.46936379,23.8844294 C8.47584034,23.4293257 7.97952654,22.4420734 7.05408945,21.8830485 C5.34924262,20.8518983 3.11045531,21.0655641 1.62554536,22.388321 C0.204242419,23.6541899 -0.305061536,25.7276886 0.384312946,27.5051012 C1.06562457,29.2605649 2.80182697,30.4502846 4.68495259,30.4502846 C5.72461352,30.4489408 6.74680492,30.0879038 7.55846611,29.4388436 C7.94996273,29.125288 8.20349486,28.701092 8.56766735,28.3736503 C9.00709319,27.9781223 9.54775271,27.7138397 10.1130487,27.5503428 C10.9041048,27.3205513 11.6924733,27.5154037 12.4096199,27.9033169 C13.3117643,28.3929116 13.7785142,29.3237239 14.6940967,29.846018 C16.4285074,30.8341663 18.6614715,30.5712275 20.1199532,29.2117398 C21.485712,27.9387038 21.9515661,25.9126864 21.2747338,24.1711088 C20.5929743,22.4147493 18.8612512,21.2227899 16.9763339,21.2232378" id="Shape" fill="#9013FE"></path>
                        <path d="M12.9699886,2.26431969 C12.3827437,3.27889617 12.2071525,4.49549208 12.4808418,5.63504288 C12.6152228,6.19317193 12.8445663,6.58242886 12.882641,7.14593315 C12.9171321,7.65075774 12.8884641,8.39164494 12.6282129,8.84047744 C12.1972979,9.58181258 11.6225952,10.1560673 10.8086943,10.4929157 C10.344184,10.6859764 9.82995279,10.6900078 9.35155646,10.8490253 C8.85345092,11.0147619 8.38356539,11.2651585 7.96967194,11.5881208 C6.40278959,12.8105398 5.80569005,14.9686986 6.49999184,16.8262918 C7.17861584,18.6426748 8.97752937,19.8691254 10.9179909,19.8247796 C12.9216114,19.779538 14.713358,18.4016849 15.2567051,16.4688384 C15.405868,15.9371376 15.4578287,15.3790085 15.4103474,14.8280465 C15.3570429,14.2081022 15.0779784,13.6938709 14.9539,13.1012507 C14.7545682,12.1543127 14.9695777,11.2575435 15.4394633,10.4431947 C15.6504414,10.0758867 16.1619851,9.74038215 16.5167509,9.53029986 C17.0054498,9.23958899 17.4202391,9.19031596 17.9488043,9.07519624 C18.9494948,8.8570511 19.8646293,8.30160967 20.5177209,7.51189738 C21.7634327,6.0081741 21.9143873,3.82269125 20.8948836,2.15860665 C19.1053767,-0.765523711 14.6788669,-0.707739885 12.9699886,2.26431969" id="Shape" fill="#B432DC"></path>
                        <path d="M21.4122504,19.4870354 C21.8212165,19.645605 22.3242494,19.7056285 22.687078,19.7943199 C23.2326649,19.9412432 23.7258431,20.2350896 24.1486953,20.6059811 C24.7816298,21.1600787 25.0723406,21.8234729 25.1525213,22.6629062 C25.2138886,23.307039 25.0584546,23.8060404 24.8609145,24.4022441 C24.6763646,24.961717 24.5984237,25.5556809 24.6347065,26.1447176 C24.7637123,28.2182163 26.3292508,29.9754717 28.3624352,30.3660725 C30.265718,30.7311408 32.2505252,29.8334758 33.2234436,28.1550572 C34.2039769,26.4645444 33.998374,24.2799574 32.7105561,22.8071417 C32.0373074,22.0375866 31.1096306,21.5094693 30.1058046,21.3155128 C29.1758882,21.1363381 28.1528009,20.7282678 27.6457366,19.8521038 C27.1324012,18.966533 26.9953326,17.8619213 27.3823499,16.8988575 C27.8119211,15.8305286 27.8137128,14.6175162 27.3984756,13.5442601 C26.6849125,11.7018967 24.8313507,10.490676 22.8559502,10.5887741 C19.4762682,10.7576462 17.4000819,14.5749623 19.0941783,17.5008844 C19.6155765,18.4048205 20.439332,19.1116645 21.4122504,19.4870354 Z" id="Shape" fill="#AA50F8"></path>
                        <path d="M96.2387216,14.8347655 L93.5681234,14.8347655 C93.4771922,14.8347655 93.4032827,14.9073312 93.4032827,14.9991583 L93.4032827,14.9700424 L89.7723083,25.8065255 C89.7494635,25.8696845 89.6885442,25.9162699 89.618666,25.9162699 L89.5559549,25.9162699 C89.4865247,25.9162699 89.4224698,25.8696845 89.4014168,25.8065255 L85.7726821,14.9722821 L85.7726821,15.0000541 C85.7726821,14.9082271 85.6987725,14.8356614 85.6082893,14.8356614 L82.9358994,14.8356614 C82.8449682,14.8356614 82.7719546,14.9082271 82.7719546,15.0000541 L82.7719546,15.0215551 L82.7813612,15.0493272 L82.789872,15.0708281 L82.8248111,15.1644469 L88.3514533,30.228108 C88.3823609,30.312768 88.4379051,30.340988 88.5342114,30.3356128 L90.6444409,30.3356128 L90.6166689,30.3257582 C90.7017768,30.3566658 90.7958435,30.313216 90.8271991,30.228108 L96.3551851,15.163551 L96.4040102,15.0282741 L96.4040102,14.9987103 C96.4035623,14.9073312 96.3301007,14.8347655 96.2387216,14.8347655 Z" id="Shape" fill="#9013FE"></path>
                        <path d="M65.7342367,17.1976313 L65.7400599,17.1895684 C65.7655922,17.1564211 65.7758948,17.1174506 65.774103,17.0798239 L65.774103,14.9987103 C65.774103,14.9068833 65.7006414,14.8343176 65.6088144,14.8343176 L54.8968577,14.8343176 C54.8063745,14.8343176 54.732465,14.9068833 54.732465,14.9987103 L54.732465,17.156869 C54.732465,17.2478002 54.8063745,17.3212618 54.8968577,17.3212618 L62.0611563,17.3212618 C62.1234195,17.3212618 62.1776198,17.355305 62.2058398,17.4104012 C62.2331639,17.4650494 62.225997,17.5313441 62.1897141,17.581065 L54.343208,27.9602048 C54.3405204,27.9637883 54.3387287,27.9678197 54.336041,27.9696115 L54.3167798,27.9960397 L54.3203633,27.9938001 C54.3042375,28.0188845 54.2934871,28.0462086 54.2934871,28.0780121 L54.2934871,30.17122 C54.2934871,30.2625991 54.3673966,30.3351649 54.4578798,30.3351649 L65.6083665,30.3351649 C65.7001935,30.3351649 65.7736551,30.2625991 65.7736551,30.17122 L65.7736551,27.8262718 C65.7736551,27.7353406 65.7001935,27.6627749 65.6083665,27.6627749 L58.0037462,27.6627749 C57.9410351,27.6627749 57.8841471,27.626492 57.8572709,27.5704999 C57.8303947,27.5162996 57.8380097,27.4504529 57.8742925,27.4016278 L65.7342367,17.1976313 Z" id="Shape" fill="#9013FE"></path>
                        <path d="M44.5804291,14.6452883 C42.4271976,14.6506635 40.8441896,15.1644469 39.681794,16.5104965 C39.6540219,16.5427479 39.5975819,16.5978441 39.5698098,16.6323352 C39.5693619,16.6327832 39.5948943,16.6090425 39.5944464,16.6108343 C39.5859356,16.6175533 39.5769768,16.6229286 39.5698098,16.6323352 C39.5142657,16.704453 39.5285997,16.8074784 39.6002695,16.8621267 L39.6007175,16.8634705 C39.6007175,16.8634705 39.6002695,16.8634705 39.6002695,16.8630226 L41.4394974,18.2677519 L41.5702949,18.3680897 L41.5922438,18.3846633 L41.5707428,18.3680897 C41.6433085,18.4231859 41.746334,18.4092999 41.8009822,18.33763 C42.290129,17.6142123 43.1627096,17.3131989 44.7376548,17.3217097 C45.888852,17.3226056 46.7264935,17.4493716 47.2989565,17.7956267 C47.8790344,18.1423296 48.1522758,18.7300225 48.1473485,19.5098802 L48.1473485,21.1641102 C48.1473485,21.2071121 48.129431,21.2487702 48.0994193,21.2787819 C48.0703034,21.3074499 48.0281973,21.3253674 47.9847475,21.3253674 L43.5833221,21.3253674 C40.2538091,21.335222 38.6062981,23.3966264 38.5950997,25.8495274 C38.6040585,28.5066875 40.5593019,30.5152354 44.0218521,30.5259859 C46.1598536,30.5206106 47.1623358,30.0435581 47.783176,29.012408 C47.8136357,28.9644787 47.8664922,28.934467 47.9233802,28.934467 L47.9847475,28.934467 C48.0286453,28.934467 48.0703034,28.9505927 48.0994193,28.9815003 C48.129431,29.0106162 48.1473485,29.0527223 48.1473485,29.0952762 L48.1473485,30.1730118 C48.1473485,30.2643909 48.221258,30.3369566 48.3117412,30.3369566 L50.8416874,30.3369566 C50.9326185,30.3369566 51.006528,30.2643909 51.006528,30.1730118 L51.006528,19.6980136 C50.9930899,15.8972712 48.4640397,14.6699248 44.5804291,14.6452883 Z M48.1473485,24.9429036 C48.1473485,26.1863757 47.9189008,26.9487639 47.2908936,27.3747516 C46.6691576,27.7904368 45.7558148,27.8468768 44.4263389,27.8513562 C43.3262065,27.8504603 42.5423174,27.6130539 42.0213671,27.2157341 C41.5044482,26.8211019 41.2679376,26.2652126 41.2697294,25.6918537 C41.2683856,25.0741491 41.512511,24.537073 42.0056893,24.1773799 C42.4984196,23.8158951 43.2209414,23.6273137 44.1745985,23.6264179 L47.9842996,23.6264179 C48.0281973,23.6264179 48.0698554,23.6447833 48.0989713,23.674795 C48.1289831,23.703463 48.1469006,23.7451211 48.1469006,23.7885709 L48.1469006,24.9429036 L48.1473485,24.9429036 Z" id="Shape" fill="#9013FE"></path>
                        <path d="M74.0609308,14.6452883 C71.9076994,14.6506635 70.3242434,15.1644469 69.1627437,16.5104965 C69.1345237,16.5427479 69.0785316,16.5978441 69.0503116,16.6323352 C69.0503116,16.6327832 69.075844,16.6090425 69.075396,16.6108343 C69.0664373,16.6175533 69.0574786,16.6229286 69.0503116,16.6323352 C68.9952154,16.704453 69.0099973,16.8074784 69.0807713,16.8621267 L69.0816672,16.8634705 C69.0816672,16.8634705 69.0816672,16.8634705 69.0816672,16.8630226 L70.9199991,18.2677519 L71.0507966,18.3680897 L71.0727455,18.3846633 L71.0512446,18.3680897 C71.1233623,18.4231859 71.2268357,18.4092999 71.2819319,18.33763 C71.7710787,17.6142123 72.6436593,17.3131989 74.2181566,17.3217097 C75.3693537,17.3226056 76.2065473,17.4493716 76.7794582,17.7956267 C77.3604321,18.1423296 77.6327775,18.7300225 77.6278502,19.5098802 L77.6278502,21.1641102 C77.6278502,21.2071121 77.6103807,21.2487702 77.579921,21.2787819 C77.5512531,21.3074499 77.509147,21.3253674 77.4656972,21.3253674 L73.0638239,21.3253674 C69.7347588,21.335222 68.0867999,23.3966264 68.0751535,25.8495274 C68.0845602,28.5066875 70.0393557,30.5152354 73.5019059,30.5259859 C75.6399074,30.5206106 76.6428376,30.0435581 77.2636778,29.012408 C77.2932416,28.9644787 77.3460981,28.934467 77.403434,28.934467 L77.4652492,28.934467 C77.5086991,28.934467 77.5503572,28.9505927 77.5794731,28.9815003 C77.6099328,29.0106162 77.6274023,29.0527223 77.6274023,29.0952762 L77.6274023,30.1730118 C77.6274023,30.2643909 77.7017598,30.3369566 77.792243,30.3369566 L80.3217412,30.3369566 C80.4126723,30.3369566 80.4861339,30.2643909 80.4861339,30.1730118 L80.4861339,19.6980136 C80.4735917,15.8972712 77.9445414,14.6699248 74.0609308,14.6452883 Z M77.6278502,24.9429036 C77.6278502,26.1863757 77.3994026,26.9487639 76.7713954,27.3747516 C76.1501073,27.7904368 75.2367645,27.8468768 73.9068406,27.8513562 C72.8071562,27.8504603 72.023267,27.6130539 71.5023167,27.2157341 C70.9853979,26.8211019 70.7484394,26.2652126 70.7502311,25.6918537 C70.7484394,25.0741491 70.9934607,24.537073 71.486191,24.1773799 C71.9789213,23.8158951 72.7018911,23.6273137 73.6551002,23.6264179 L77.4656972,23.6264179 C77.509147,23.6264179 77.5508051,23.6447833 77.579921,23.674795 C77.6103807,23.703463 77.6278502,23.7451211 77.6278502,23.7885709 L77.6278502,24.9429036 Z" id="Shape" fill="#9013FE"></path>
                        <path d="M104.292174,14.6452883 C101.303541,14.661414 97.9444643,16.549019 97.9283386,22.6337903 C97.9493916,29.0504826 101.592012,30.5026932 104.79028,30.5255379 C106.728502,30.524642 108.568625,29.8912596 110.04592,28.3821611 C110.078172,28.3490138 110.10908,28.3158665 110.140435,28.2809274 C110.147602,28.2760001 110.155217,28.2719687 110.161488,28.2648017 C110.165967,28.2607703 110.166863,28.2553951 110.169999,28.2513636 C110.218376,28.1823814 110.208969,28.0892106 110.142675,28.0327705 L108.322708,26.4824618 L108.311958,26.4735031 C108.243423,26.4134796 108.139502,26.4215425 108.080374,26.4900768 L108.092917,26.4752949 C107.145979,27.3456357 105.902507,27.8486686 104.728017,27.8500124 C103.604144,27.8509083 102.614652,27.5113723 101.907808,26.8246854 C101.200516,26.1379986 100.788862,25.1144634 100.788862,23.7872271 C100.788862,23.7446731 100.806331,23.703015 100.837687,23.6743471 C100.866803,23.6434394 100.908013,23.6259699 100.951911,23.6259699 L110.490274,23.6259699 C110.580757,23.6259699 110.654218,23.5534042 110.654218,23.4615772 L110.654218,21.1641102 C110.650187,17.1631401 107.706347,14.6515594 104.292174,14.6452883 Z M107.748006,21.2756464 C107.717546,21.3074499 107.67544,21.3249194 107.631542,21.3249194 L100.952359,21.3249194 C100.907117,21.3249194 100.867699,21.3074499 100.835447,21.2769902 C100.805884,21.2451867 100.788862,21.2044245 100.788862,21.1600787 C100.840375,18.6941876 102.337379,17.3105113 104.291726,17.3217097 C106.244282,17.3109592 107.712619,18.6946355 107.790559,21.1578391 C107.793695,21.2017368 107.778465,21.2442908 107.748006,21.2756464 Z" id="Shape" fill="#9013FE"></path>
                        <path d="M118.997486,14.6452883 C116.844255,14.6506635 115.260799,15.1644469 114.099747,16.5104965 C114.071527,16.5427479 114.015535,16.5978441 113.987315,16.6323352 C113.987315,16.6327832 114.013295,16.6090425 114.011503,16.6108343 C114.003441,16.6175533 113.994034,16.6229286 113.987315,16.6323352 C113.931771,16.704453 113.946553,16.8074784 114.018223,16.8621267 L114.01867,16.8634705 C114.01867,16.8634705 114.01867,16.8634705 114.01867,16.8630226 L115.857002,18.2677519 L115.987352,18.3680897 L116.010197,18.3846633 L115.988248,18.3680897 C116.060366,18.4231859 116.163391,18.4092999 116.218487,18.33763 C116.70853,17.6142123 117.580663,17.3131989 119.155608,17.3217097 C120.305909,17.3226056 121.143999,17.4493716 121.716462,17.7956267 C122.296539,18.1423296 122.570229,18.7300225 122.564854,19.5098802 L122.564854,21.1641102 C122.564854,21.2071121 122.547384,21.2487702 122.517372,21.2787819 C122.487808,21.3074499 122.445702,21.3253674 122.4027,21.3253674 L118.000379,21.3253674 C114.671314,21.335222 113.023803,23.3966264 113.012157,25.8495274 C113.021564,28.5066875 114.976807,30.5152354 118.438461,30.5259859 C120.576463,30.5206106 121.579393,30.0435581 122.200233,29.012408 C122.230693,28.9644787 122.283549,28.934467 122.339989,28.934467 L122.402253,28.934467 C122.445254,28.934467 122.486913,28.9505927 122.516924,28.9815003 C122.546936,29.0106162 122.564406,29.0527223 122.564406,29.0952762 L122.564406,30.1730118 C122.564406,30.2643909 122.637419,30.3369566 122.729246,30.3369566 L125.259192,30.3369566 C125.350124,30.3369566 125.423137,30.2643909 125.423137,30.1730118 L125.423137,19.6980136 C125.410147,15.8972712 122.880649,14.6699248 118.997486,14.6452883 Z M122.564406,24.9429036 C122.564406,26.1863757 122.335958,26.9487639 121.708399,27.3747516 C121.086663,27.7904368 120.172872,27.8468768 118.843396,27.8513562 C117.743264,27.8504603 116.959822,27.6130539 116.438872,27.2157341 C115.921953,26.8211019 115.685443,26.2652126 115.686339,25.6918537 C115.685443,25.0741491 115.929568,24.537073 116.422746,24.1773799 C116.915925,23.8158951 117.638446,23.6273137 118.592104,23.6264179 L122.402253,23.6264179 C122.445254,23.6264179 122.486913,23.6447833 122.516924,23.674795 C122.546936,23.703463 122.564406,23.7451211 122.564406,23.7885709 L122.564406,24.9429036 Z" id="Shape" fill="#9013FE"></path>
                    </g>
                </g>
            </g>
        </g>
    </g>
</svg>