<?xml version="1.0" encoding="UTF-8"?>
<svg width="193px" height="86px" viewBox="0 0 193 86" version="1.1" xmlns="http://www.w3.org/2000/svg" xmlns:xlink="http://www.w3.org/1999/xlink">
    <!-- Generator: Sketch 49.3 (51167) - http://www.bohemiancoding.com/sketch -->
    <title>Group 12</title>
    <desc>Created with Sketch.</desc>
    <defs>
        <rect id="path-1" x="0" y="0" width="193" height="86"></rect>
    </defs>
    <g id="__Wireframes" stroke="none" stroke-width="1" fill="none" fill-rule="evenodd">
        <g id="Brand-Guidelines-&gt;-Design-&gt;-Logo" transform="translate(-281.000000, -3224.000000)">
            <g id="Group-6" transform="translate(281.000000, 3219.000000)">
                <g id="Group-12" transform="translate(0.000000, 5.000000)">
                    <g id="Bitmap-Copy-3">
                        <mask id="mask-2" fill="white">
                            <use xlink:href="#path-1"></use>
                        </mask>
                        <use id="Mask" fill="#FFFFFF" xlink:href="#path-1"></use>
                    </g>
                    <g id="azavea_rgb_solo-copy-3" transform="translate(26.000000, 17.000000)" fill-rule="nonzero">
                        <path d="M25.179275,31.1079444 C23.6326007,31.1079444 22.1144947,31.6364775 20.9099756,32.5957157 C20.4043831,32.9968755 19.9459616,33.5989436 19.5705875,33.9889419 C18.9434137,34.6080806 18.1488164,35.030907 17.3090414,35.2961584 C16.1762752,35.6533285 15.1252276,35.4983797 14.0449473,35.0085839 C12.5713547,34.3415161 11.8352228,32.8944517 10.4626158,32.0750614 C7.93398929,30.5636539 4.61342304,30.8768343 2.41100665,32.8156642 C0.302932074,34.6711106 -0.45246685,37.7103397 0.570012433,40.3155808 C1.58053289,42.8886503 4.1556659,44.6324811 6.94871523,44.6324811 C8.49073889,44.6305114 10.0068518,44.1013218 11.2107065,43.1499623 C11.7913738,42.6903684 12.1674123,42.0686034 12.7075524,41.588656 C13.3593082,41.0089111 14.1612137,40.6215391 14.99966,40.3818937 C16.1729533,40.045077 17.3422603,40.3306818 18.4059311,40.8992651 C19.7439904,41.6168882 20.4362733,42.9812257 21.794264,43.7467779 C24.3667395,45.1951554 27.6786688,44.809753 29.8418869,42.817085 C31.8675784,40.9511336 32.5585326,37.9815001 31.5546559,35.4287841 C30.5434711,32.8544014 27.9749819,31.1072879 25.179275,31.1079444" id="Shape" fill="#1E5073"></path>
                        <path d="M19.2370692,3.31892484 C18.3660684,4.80603954 18.1056318,6.58926404 18.5115674,8.25955975 C18.7108811,9.07763697 19.0510431,9.64819002 19.1075153,10.474146 C19.1586725,11.2140922 19.1161523,12.3000471 18.7301481,12.957923 C18.0910155,14.0445344 17.2386172,14.8862479 16.0314406,15.3799831 C15.3424795,15.6629616 14.5797724,15.6688707 13.8702157,15.9019505 C13.1314262,16.1448787 12.4344926,16.5118973 11.8206064,16.9852791 C9.4966087,18.7770389 8.61099149,21.9403584 9.64077894,24.6631242 C10.6473131,27.3254863 13.3154592,29.1231551 16.193549,29.0581554 C19.1653163,28.9918426 21.8228323,26.9722555 22.628724,24.1391871 C22.8499623,23.3598471 22.9270302,22.5417699 22.856606,21.7341976 C22.7775449,20.8255148 22.3636368,20.0717807 22.1796038,19.2031481 C21.8839552,17.8151744 22.2028571,16.5007357 22.8997907,15.3071046 C23.2127132,14.7687231 23.971434,14.2769576 24.4976222,13.9690297 C25.2224597,13.5429204 25.8376746,13.4706985 26.6216418,13.3019619 C28.1058645,12.9822158 29.4631908,12.168078 30.4318554,11.0105578 C32.2794934,8.80647654 32.5033891,5.60310675 30.9912625,3.16397603 C28.3370684,-1.12206579 21.7716751,-1.03736919 19.2370692,3.31892484" id="Shape" fill="#4CA4DB"></path>
                        <path d="M28.3204589,25.6519077 C29.0937961,26.9768514 30.3155891,28.0129075 31.7586203,28.5631071 C32.3651983,28.7955303 33.1112959,28.8835097 33.6494429,29.0135092 C34.4586565,29.2288618 35.1901378,29.6595669 35.8173116,30.2032009 C36.7560791,31.0153691 37.1872611,31.9877385 37.3061849,33.2181372 C37.3972049,34.1622745 37.1666654,34.8936854 36.8736742,35.7675705 C36.5999501,36.5876174 36.4843481,37.4582196 36.5381628,38.3215997 C36.729504,41.3608288 39.0515086,43.9365245 42.0671249,44.5090473 C44.8900712,45.0441459 47.8339346,43.7283941 49.2769658,41.2682534 C50.7312914,38.7903855 50.4263415,35.5883288 48.5162518,33.4295504 C47.5176902,32.3015756 46.1417613,31.527488 44.6528879,31.2431964 C43.2736371,30.9805712 41.7561955,30.3824426 41.0041185,29.0982058 C40.2427401,27.8001811 40.0394402,26.1810973 40.6134636,24.7694874 C41.2506031,23.2035851 41.2532606,21.4256131 40.6373813,19.8524887 C39.5790255,17.152046 36.8298252,15.3767003 33.8999138,15.5204875 C28.8871742,15.7680117 25.8077776,21.3632397 28.3204589,25.6519077" id="Shape" fill="#3873A0"></path>
                    </g>
                    <path d="M93.3816217,36.412519 L94.2276385,36.412519 C95.3066217,38.750316 96.8310714,42.4286128 98.8010332,47.4475197 C99.70836,49.7526203 100.33367,51.1483296 100.676983,51.6346894 C101.020296,52.1210493 101.563867,52.4173565 102.307711,52.52362 C102.552935,52.5563165 102.675545,52.6625784 102.675545,52.8424089 C102.675545,53.0958065 102.516152,53.2225034 102.197361,53.2225034 C102.025705,53.2225034 101.580222,53.1938944 100.8609,53.1366756 C100.010792,53.0631086 99.2955676,53.0263256 98.7152054,53.0263256 C98.1511914,53.0263256 97.4155321,53.0590216 96.5082053,53.1244145 C95.8297537,53.1734592 95.3842711,53.1979812 95.1717441,53.1979812 C94.7957348,53.1979812 94.6077329,53.0794583 94.6077329,52.8424089 C94.6077329,52.6625784 94.7385168,52.5604035 95.0000885,52.5358812 C96.0055047,52.4459659 96.5082053,52.0536142 96.5082053,51.3588144 C96.5082053,51.0318498 96.3610734,50.4290178 96.0668052,49.5503004 C95.7725371,48.671583 95.4578384,47.8725752 95.1226996,47.153253 C94.5913821,47.1450789 94.1785955,47.1409919 93.8843273,47.1409919 C92.2413301,47.1409919 90.9621002,47.1450789 90.0465993,47.153253 C89.3354512,49.0905184 88.9798825,50.3738353 88.9798825,51.0032422 C88.9798825,51.4528185 89.1556234,51.8022567 89.5071104,52.0515672 C89.8585973,52.3008778 90.238688,52.4459661 90.6473938,52.4868367 C90.9580102,52.5195332 91.113316,52.6462301 91.113316,52.8669312 C91.113316,53.0876323 90.9457492,53.1979812 90.6106104,53.1979812 C90.4798246,53.1979812 90.1365169,53.1775462 89.580677,53.1366756 C88.8613549,53.0794568 88.3382193,53.0508479 88.0112547,53.0508479 C87.3654996,53.0508479 86.7524501,53.0917178 86.1720879,53.173459 C86.0249538,53.1979813 85.9023439,53.2102423 85.8042546,53.2102423 C85.5018123,53.2102423 85.3505934,53.0876324 85.3505934,52.8424089 C85.3505934,52.6625784 85.4486813,52.5440555 85.6448601,52.4868367 C86.135307,52.3478767 86.5194847,52.1762229 86.7974046,51.97187 C87.0753246,51.7675171 87.3757188,51.3751655 87.6985964,50.7948033 C88.0214739,50.2144411 88.4076951,49.2866929 88.8572714,48.0115309 C89.8708617,45.1505904 91.3789634,41.2842918 93.3816217,36.412519 Z M92.5233439,40.691647 L90.4144326,46.160103 L94.730344,46.0987974 C94.5014688,45.4612164 94.1499871,44.5865991 93.6758884,43.4749194 C93.1609191,42.2651503 92.7767415,41.3374022 92.5233439,40.691647 Z M112.864529,53.0385867 L104.551495,53.0385867 C104.093744,53.0385867 103.813785,53.0242823 103.711609,52.9956728 C103.609432,52.9670634 103.558345,52.899628 103.558345,52.7933645 C103.558345,52.7116233 103.599215,52.6053614 103.680956,52.4745756 C103.770871,52.3519639 103.873046,52.188484 103.987484,51.9841311 C104.036528,51.8942158 104.110094,51.7756929 104.208184,51.6285589 L106.108656,48.6736309 C107.530952,46.4666197 108.589484,44.6438193 109.284284,43.205175 C108.385131,43.205175 107.643341,43.2746539 107.058892,43.4136139 C106.474443,43.5525738 106.043265,43.7283147 105.765345,43.9408417 C105.487425,44.1533687 105.05829,44.6438083 104.477928,45.4121751 C104.298097,45.6573986 104.138705,45.7800085 103.999745,45.7800085 C103.754521,45.7800085 103.631911,45.6573986 103.631911,45.4121751 C103.631911,45.3222599 103.66052,45.207824 103.717739,45.068864 C103.913918,44.5538947 104.146877,43.6997125 104.416622,42.5062916 L111.270584,42.5062916 C112.079821,42.5062916 112.558,42.5287701 112.705134,42.5737277 C112.852268,42.6186854 112.925834,42.6942948 112.925834,42.8005583 C112.925834,42.8741253 112.79505,43.1356931 112.533479,43.5852694 L111.55259,45.2405196 L107.163112,52.2661367 C108.757064,52.2416143 109.772683,52.2007444 110.209998,52.1435256 C110.647313,52.0863068 111.033534,51.9228269 111.368673,51.6530811 C111.703812,51.3833353 112.10025,50.8888087 112.558001,50.1694865 C112.835921,49.7362584 113.052532,49.5196476 113.20784,49.5196476 C113.436715,49.5196476 113.551151,49.6422575 113.551151,49.887481 C113.551151,50.0182668 113.477585,50.3615745 113.330451,50.9174144 C113.15062,51.5713436 112.995314,52.278394 112.864529,53.0385867 Z M121.030429,51.86152 C120.523634,52.3437928 120.012759,52.705492 119.49779,52.9466284 C118.982821,53.1877648 118.463772,53.3083312 117.940629,53.3083312 C117.106869,53.3083312 116.463167,53.0569809 116.009504,52.5542728 C115.55584,52.0515647 115.329012,51.4405587 115.329012,50.7212366 C115.329012,50.1653967 115.465926,49.6688267 115.739759,49.2315115 C116.013592,48.7941963 116.352813,48.4549756 116.757432,48.2138392 C117.16205,47.9727028 117.830274,47.6845695 118.762123,47.3494308 C119.546838,47.0715109 120.072018,46.8528566 120.337676,46.6934613 C120.603335,46.5340661 120.826076,46.3011073 121.005907,45.9945779 C121.185737,45.6880486 121.275651,45.2895665 121.275651,44.7991195 C121.275651,44.2596279 121.14078,43.8284498 120.871035,43.5055722 C120.601289,43.1826947 120.229372,43.0212583 119.755273,43.0212583 C119.346568,43.0212583 119.056391,43.1234332 118.884735,43.3277861 C118.713078,43.5403131 118.582294,43.8795338 118.492379,44.3454584 C118.304374,45.2773076 117.801674,45.7432251 116.984262,45.7432251 C116.649123,45.7432251 116.363034,45.6451372 116.125984,45.4489585 C115.888935,45.2527797 115.770412,44.9707769 115.770412,44.6029417 C115.770412,43.8182267 116.197503,43.2317427 117.051698,42.8434722 C117.905893,42.4552017 118.925599,42.2610694 120.110846,42.2610694 C121.13261,42.2610694 121.964314,42.4163752 122.605982,42.7269916 C123.24765,43.037608 123.658393,43.3972637 123.838224,43.8059695 C124.018054,44.2146752 124.107968,44.8522467 124.107968,45.7187029 L124.083446,48.6245864 C124.083446,50.153146 124.134533,51.1340252 124.23671,51.5672533 C124.338886,52.0004814 124.557541,52.2170922 124.892679,52.2170922 C124.941724,52.2170922 125.007116,52.2130052 125.088857,52.2048311 C125.252339,52.1884829 125.362688,52.1803089 125.419907,52.1803089 C125.755046,52.1803089 125.922613,52.2743098 125.922613,52.4623145 C125.922613,52.5849262 125.853134,52.6891446 125.714174,52.7749728 C125.575214,52.860801 125.156297,52.9691065 124.45741,53.0998923 C123.758523,53.2306781 123.127082,53.2960701 122.563068,53.2960701 C121.999054,53.2960701 121.612833,53.1877647 121.404393,52.9711506 C121.195953,52.7545366 121.0713,52.3846634 121.030429,51.86152 Z M121.189824,46.9570752 C120.993645,47.1941246 120.52364,47.5088233 119.779796,47.9011808 C119.101344,48.2608419 118.647688,48.5796276 118.418812,48.8575476 C118.189937,49.1436416 118.075501,49.5564283 118.075501,50.0959199 C118.075501,50.668108 118.196068,51.1033731 118.437204,51.4017283 C118.67834,51.7000835 118.974648,51.8492589 119.326135,51.8492589 C119.800233,51.8492589 120.241629,51.6306046 120.650335,51.1932894 C121.05904,50.7559742 121.26339,49.9855754 121.26339,48.8820698 C121.26339,48.5387569 121.238868,47.8970985 121.189824,46.9570752 Z M133.83103,49.777131 C134.362347,48.6409289 134.856874,47.4454825 135.314624,46.1907557 C135.772375,44.936029 136.001247,44.1574562 136.001247,43.8550139 C136.001247,43.5280493 135.813245,43.3155255 135.437236,43.2174361 C135.077575,43.1193467 134.897747,42.9844758 134.897747,42.8128194 C134.897747,42.6084665 135.044879,42.5062916 135.339147,42.5062916 C135.486281,42.5062916 135.788719,42.5267266 136.246469,42.5675972 C136.663349,42.6002936 136.953526,42.6166416 137.117008,42.6166416 C137.476669,42.6166416 137.811803,42.5921196 138.122419,42.5430749 C138.294076,42.5185526 138.428946,42.5062916 138.527036,42.5062916 C138.780433,42.5062916 138.90713,42.6207275 138.90713,42.8496027 C138.90713,43.0212592 138.735476,43.1356951 138.392164,43.1929139 C137.615623,43.3155256 136.969877,44.034837 136.454908,45.3508696 C135.866372,46.8467327 135.30441,48.2322245 134.769005,49.5073865 C134.2336,50.7825485 133.822857,51.7041662 133.536763,52.2722672 C133.250669,52.8403683 133.076972,53.146893 133.015666,53.1918506 C132.95436,53.2368083 132.878751,53.2592868 132.788835,53.2592868 C132.682572,53.2592868 132.580397,53.1816338 132.482308,53.0263256 C132.384218,52.8710174 131.963258,52.0495311 131.219413,50.5618421 L128.387096,44.9217306 C127.97839,44.1124932 127.667779,43.6281841 127.455252,43.4687889 C127.242725,43.3093936 127.05881,43.2092622 126.903502,43.1683916 C126.584711,43.0948246 126.425318,42.9803887 126.425318,42.8250805 C126.425318,42.5962053 126.580624,42.4817694 126.891241,42.4817694 C127.022026,42.4817694 127.226376,42.4940304 127.504296,42.5185527 C128.1664,42.5839456 128.812145,42.6166416 129.441552,42.6166416 C129.694949,42.6166416 129.981039,42.6043806 130.29983,42.5798583 C130.880192,42.5226395 131.227587,42.4940305 131.342024,42.4940305 C131.881516,42.4940305 132.151258,42.5880314 132.151258,42.7760361 C132.151258,43.0049113 132.000039,43.1356952 131.697596,43.1683916 C131.272542,43.2092622 131.060019,43.409525 131.060019,43.7691861 C131.060019,43.9817131 131.403326,44.8236344 132.089952,46.2949752 C132.776578,47.766316 133.356931,48.927023 133.83103,49.777131 Z M143.198519,47.4475197 C143.190345,47.6845691 143.186258,47.8562229 143.186258,47.9624864 C143.186258,49.1232108 143.470305,50.1061334 144.038406,50.9112838 C144.606507,51.7164342 145.372818,52.1190033 146.337364,52.1190033 C147.326432,52.1190033 148.299137,51.6898687 149.255509,50.8315866 C149.451688,50.6599302 149.590645,50.5741032 149.672387,50.5741032 C149.884914,50.5741032 149.991175,50.6885391 149.991175,50.9174144 C149.991175,51.0972449 149.745956,51.4201176 149.255509,51.8860422 C148.765062,52.3519668 148.164273,52.7034485 147.453125,52.9404978 C146.741977,53.1775472 146.006318,53.2960701 145.246125,53.2960701 C143.578606,53.2960701 142.27281,52.787239 141.3287,51.7695617 C140.38459,50.7518843 139.912541,49.5523508 139.912541,48.1709253 C139.912541,46.5115799 140.454068,45.1199576 141.537139,43.9960167 C142.620209,42.8720758 143.970961,42.3101138 145.589436,42.3101138 C147.109822,42.3101138 148.268485,42.8209884 149.065462,43.8427528 C149.862438,44.8645172 150.26092,45.8372224 150.26092,46.7608974 C150.26092,47.0551656 150.183267,47.2309064 150.027959,47.2881252 C149.872651,47.3453441 149.36995,47.373953 148.519842,47.373953 L143.198519,47.4475197 Z M143.272086,46.5524585 C144.481855,46.5688068 145.180732,46.5769808 145.368736,46.5769808 C146.292411,46.5769808 146.85846,46.5115888 147.0669,46.380803 C147.27534,46.2500171 147.379559,45.9843624 147.379559,45.5838307 C147.379559,44.9135532 147.18747,44.3209387 146.803286,43.8059695 C146.419103,43.2910002 145.961359,43.0335194 145.430042,43.0335194 C144.171228,43.0335194 143.451917,44.2064874 143.272086,46.5524585 Z M157.642109,51.86152 C157.135314,52.3437928 156.62444,52.705492 156.10947,52.9466284 C155.594501,53.1877648 155.075452,53.3083312 154.552309,53.3083312 C153.718549,53.3083312 153.074847,53.0569809 152.621184,52.5542728 C152.167521,52.0515647 151.940692,51.4405587 151.940692,50.7212366 C151.940692,50.1653967 152.077607,49.6688267 152.35144,49.2315115 C152.625272,48.7941963 152.964493,48.4549756 153.369112,48.2138392 C153.773731,47.9727028 154.441954,47.6845695 155.373804,47.3494308 C156.158519,47.0715109 156.683698,46.8528566 156.949356,46.6934613 C157.215015,46.5340661 157.437757,46.3011073 157.617587,45.9945779 C157.797418,45.6880486 157.887332,45.2895665 157.887332,44.7991195 C157.887332,44.2596279 157.752461,43.8284498 157.482715,43.5055722 C157.212969,43.1826947 156.841052,43.0212583 156.366954,43.0212583 C155.958248,43.0212583 155.668071,43.1234332 155.496415,43.3277861 C155.324758,43.5403131 155.193974,43.8795338 155.104059,44.3454584 C154.916054,45.2773076 154.413354,45.7432251 153.595942,45.7432251 C153.260804,45.7432251 152.974714,45.6451372 152.737665,45.4489585 C152.500615,45.2527797 152.382092,44.9707769 152.382092,44.6029417 C152.382092,43.8182267 152.809183,43.2317427 153.663378,42.8434722 C154.517574,42.4552017 155.537279,42.2610694 156.722526,42.2610694 C157.74429,42.2610694 158.575994,42.4163752 159.217662,42.7269916 C159.85933,43.037608 160.270073,43.3972637 160.449904,43.8059695 C160.629734,44.2146752 160.719648,44.8522467 160.719648,45.7187029 L160.695126,48.6245864 C160.695126,50.153146 160.746214,51.1340252 160.84839,51.5672533 C160.950567,52.0004814 161.169221,52.2170922 161.50436,52.2170922 C161.553404,52.2170922 161.618796,52.2130052 161.700537,52.2048311 C161.86402,52.1884829 161.974369,52.1803089 162.031587,52.1803089 C162.366726,52.1803089 162.534293,52.2743098 162.534293,52.4623145 C162.534293,52.5849262 162.464814,52.6891446 162.325854,52.7749728 C162.186894,52.860801 161.767977,52.9691065 161.06909,53.0998923 C160.370203,53.2306781 159.738762,53.2960701 159.174748,53.2960701 C158.610734,53.2960701 158.224513,53.1877647 158.016073,52.9711506 C157.807633,52.7545366 157.68298,52.3846634 157.642109,51.86152 Z M157.801504,46.9570752 C157.605325,47.1941246 157.13532,47.5088233 156.391476,47.9011808 C155.713024,48.2608419 155.259368,48.5796276 155.030492,48.8575476 C154.801617,49.1436416 154.687181,49.5564283 154.687181,50.0959199 C154.687181,50.668108 154.807748,51.1033731 155.048884,51.4017283 C155.290021,51.7000835 155.586328,51.8492589 155.937815,51.8492589 C156.411913,51.8492589 156.853309,51.6306046 157.262015,51.1932894 C157.670721,50.7559742 157.87507,49.9855754 157.87507,48.8820698 C157.87507,48.5387569 157.850548,47.8970985 157.801504,46.9570752 Z" id="Azavea" fill="#315A7B"></path>
                </g>
            </g>
        </g>
    </g>
</svg>