<?xml version="1.0" encoding="UTF-8"?>
<svg width="193px" height="86px" viewBox="0 0 193 86" version="1.1" xmlns="http://www.w3.org/2000/svg" xmlns:xlink="http://www.w3.org/1999/xlink">
    <!-- Generator: Sketch 49.3 (51167) - http://www.bohemiancoding.com/sketch -->
    <title>Bitmap Copy</title>
    <desc>Created with Sketch.</desc>
    <defs>
        <rect id="path-1" x="0" y="0" width="193" height="86"></rect>
    </defs>
    <g id="__Wireframes" stroke="none" stroke-width="1" fill="none" fill-rule="evenodd">
        <g id="Brand-Guidelines-&gt;-Design-&gt;-Logo" transform="translate(-281.000000, -3013.000000)">
            <g id="Group-8" transform="translate(281.000000, 3011.000000)">
                <g id="Bitmap-Copy" transform="translate(0.000000, 2.000000)">
                    <mask id="mask-2" fill="white">
                        <use xlink:href="#path-1"></use>
                    </mask>
                    <use id="Mask" fill="#9B9B9B" xlink:href="#path-1"></use>
                    <g id="azavea_rgb_solo" transform="translate(25.000000, 22.000000)" fill-rule="nonzero">
                        <path d="M19.6451006,24.0000002 C18.4326742,24.0000002 17.2426423,24.4298754 16.2984289,25.2100589 C15.9020988,25.5363368 15.5427456,26.0260208 15.2484927,26.3432207 C14.7568559,26.8467888 14.133977,27.190689 13.4756837,27.4064276 C12.5877168,27.6969271 11.7638085,27.5709016 10.916985,27.1725328 C9.7618468,26.6299822 9.18479852,25.4530318 8.10882222,24.7865917 C6.12665096,23.5573088 3.52368409,23.8120299 1.79722647,25.3889511 C0.144722694,26.8980534 -0.447428833,29.3699695 0.354084975,31.4889073 C1.14622435,33.5816787 3.16485172,35 5.35430205,35 C6.56308278,34.998398 7.75155225,34.5679887 8.69524492,33.7942133 C9.15042561,33.4204088 9.44519937,32.9147046 9.86861114,32.5243459 C10.3795176,32.0528181 11.0081253,31.7377543 11.665377,31.5428419 C12.5851128,31.2688966 13.5017238,31.5011894 14.3355273,31.9636391 C15.3844219,32.5473082 15.9270973,33.6569737 16.9916159,34.2796252 C19.0081601,35.4576436 21.6043565,35.1441818 23.3000869,33.523472 C24.8880112,32.0058256 25.429645,29.5905142 24.6427136,27.5142969 C23.8500535,25.4204574 21.8366341,23.9994661 19.6451006,24.0000002" id="Shape" fill="#1E5073"></path>
                        <path d="M14.920999,2.51265099 C14.2325452,3.63848114 14.0266917,4.98848321 14.3475501,6.25299177 C14.505091,6.87232262 14.7739608,7.30426363 14.8185974,7.92955914 C14.8590329,8.48974041 14.8254242,9.3118698 14.5203199,9.80991916 C14.0151387,10.6325456 13.3413888,11.2697704 12.3872159,11.643556 C11.8426495,11.8577868 11.2397929,11.8622603 10.6789473,12.0387149 C10.0949956,12.2226254 9.54412755,12.5004792 9.05890153,12.8588561 C7.22197446,14.2153199 6.52196766,16.6101321 7.33592906,18.6714202 C8.13151068,20.6869793 10.2404584,22.0479165 12.5153492,21.9987081 C14.8642843,21.9485055 16.9648298,20.4195635 17.6018202,18.2747701 C17.7766907,17.6847655 17.8376065,17.0654347 17.781942,16.4540567 C17.7194508,15.7661323 17.3922908,15.1955128 17.2468281,14.5379087 C17.0131424,13.4871339 17.2652078,12.4920293 17.8160759,11.5883829 C18.0634151,11.1807975 18.6631209,10.8085032 19.0790289,10.5753842 C19.6519527,10.2527954 20.138229,10.1981193 20.7578899,10.0703761 C21.9310446,9.8283102 23.0038982,9.21196169 23.7695471,8.33565328 C25.2299514,6.6670388 25.4069223,4.24190622 24.2117119,2.39534595 C22.1137921,-0.84943074 16.9243943,-0.785310612 14.920999,2.51265099" id="Shape" fill="#4CA4DB"></path>
                        <path d="M21.6673953,20.6617062 C22.2449431,21.6628676 23.1574092,22.4457381 24.2351016,22.861483 C24.6881095,23.037108 25.2453141,23.1035875 25.647216,23.2018184 C26.2515573,23.3645443 26.7978461,23.6899962 27.2662354,24.1007799 C27.9673309,24.714475 28.2893486,25.4492223 28.3781639,26.3789431 C28.4461399,27.0923574 28.2739671,27.6450303 28.0551539,28.3053602 C27.8507297,28.9250087 27.7643953,29.582858 27.8045855,30.2352501 C27.9474839,32.5317696 29.681616,34.4780313 31.9337549,34.9106442 C34.042003,35.3149784 36.240555,34.3207626 37.3182474,32.4618172 C38.4043748,30.5894767 38.1766304,28.1699206 36.7501269,26.5386923 C36.0043757,25.6863656 34.976797,25.1014452 33.8648685,24.8866272 C32.8348089,24.6881809 31.7015449,24.2362195 31.1398747,23.2658173 C30.571258,22.2849966 30.4194284,21.0615754 30.8481237,19.9949267 C31.3239557,18.8116908 31.3259404,17.4682096 30.865986,16.2795165 C30.075579,14.2389928 28.0224063,12.897496 25.834274,13.0061453 C22.0906327,13.1931809 19.7908609,17.4210786 21.6673953,20.6617062" id="Shape" fill="#3873A0"></path>
                        <path d="M108.818125,17 L105.879539,17 C105.779483,17 105.698157,17.0842618 105.698157,17.1908895 L105.698157,17.1570807 L101.702823,29.7401813 C101.677685,29.8135203 101.610653,29.8676143 101.533763,29.8676143 L101.464759,29.8676143 C101.388361,29.8676143 101.317879,29.8135203 101.294713,29.7401813 L97.3018434,17.1596814 L97.3018434,17.1919297 C97.3018434,17.0853021 97.2205172,17.0010403 97.1209542,17.0010403 L94.1803963,17.0010403 C94.0803404,17.0010403 94,17.0853021 94,17.1919297 L94,17.2168962 L94.0103506,17.2491446 L94.0197154,17.274111 L94.0581605,17.3828192 L100.139388,34.8744317 C100.173397,34.9727372 100.234515,35.0055057 100.340486,34.9992641 L102.662472,34.9992641 L102.631913,34.9878211 C102.725561,35.0237104 102.829067,34.9732573 102.863569,34.8744317 L108.946275,17.3817789 L109,17.2246982 L109,17.1903693 C108.999507,17.0842618 108.918674,17 108.818125,17 Z" id="Shape" fill="#1E5073"></path>
                        <path d="M74.9546344,19.7443433 L74.9612281,19.7349805 C74.990139,19.6964889 75.0018048,19.6512354 74.999776,19.6075423 L74.999776,17.1908973 C74.999776,17.0842653 74.9165937,17 74.8126157,17 L62.683211,17 C62.5807547,17 62.4970652,17.0842653 62.4970652,17.1908973 L62.4970652,19.6970091 C62.4970652,19.8026008 62.5807547,19.8879064 62.683211,19.8879064 L70.7955176,19.8879064 C70.8660197,19.8879064 70.927392,19.9274382 70.9593462,19.9914174 C70.990286,20.0548765 70.9821706,20.1318596 70.9410867,20.1895969 L62.0563002,32.2421326 C62.053257,32.2462939 62.0512281,32.2509753 62.0481849,32.2530559 L62.0263749,32.2837451 L62.0304326,32.2811443 C62.012173,32.3102731 62,32.3420026 62,32.3789337 L62,34.8096229 C62,34.9157347 62.0836895,35 62.1861458,35 L74.8121085,35 C74.9160865,35 74.9992688,34.9157347 74.9992688,34.8096229 L74.9992688,32.086606 C74.9992688,31.9810143 74.9160865,31.896749 74.8121085,31.896749 L66.2012152,31.896749 C66.1302059,31.896749 66.0657903,31.8546164 66.0353577,31.7895969 C66.0049251,31.726658 66.0135477,31.6501951 66.0546317,31.593498 L74.9546344,19.7443433 Z" id="Shape" fill="#1E5073"></path>
                        <path d="M49.7514075,17 C47.3225783,17.0060926 45.5369568,17.588441 44.2257832,19.1141229 C44.1944565,19.1506784 44.1307926,19.2131272 44.0994659,19.2522213 C44.0989606,19.252729 44.1277609,19.2258201 44.1272557,19.227851 C44.1176556,19.2354667 44.1075502,19.2415592 44.0994659,19.2522213 C44.0368125,19.3339633 44.0529811,19.4507376 44.1338242,19.5126788 L44.1343294,19.5142019 C44.1343294,19.5142019 44.1338242,19.5142019 44.1338242,19.5136942 L46.2084597,21.1058867 L46.3559983,21.2196147 L46.3807565,21.2384001 L46.3565035,21.2196147 C46.4383572,21.2820636 46.5545691,21.2663244 46.6162119,21.1850901 C47.1679659,20.3651313 48.1522304,20.0239472 49.928757,20.0335938 C51.227299,20.0346092 52.1721524,20.1782924 52.8178865,20.5707556 C53.4722102,20.9637266 53.7804244,21.629848 53.7748665,22.5137788 L53.7748665,24.3887682 C53.7748665,24.4375088 53.7546557,24.4847263 53.7208027,24.5187431 C53.6879602,24.5512368 53.6404648,24.5715454 53.5914537,24.5715454 L48.6266782,24.5715454 C44.871012,24.5827151 43.0126317,26.919217 43,29.6994613 C43.0101054,32.7112233 45.2156056,34.9878149 49.1213368,35 C51.5329869,34.9939074 52.6637794,34.4531915 53.3640826,33.2844329 C53.3984409,33.2301075 53.4580627,33.1960906 53.5222318,33.1960906 L53.5914537,33.1960906 C53.6409701,33.1960906 53.6879602,33.2143683 53.7208027,33.2494006 C53.7546557,33.2824021 53.7748665,33.3301272 53.7748665,33.3783601 L53.7748665,34.599921 C53.7748665,34.7034948 53.8582359,34.7857445 53.9603003,34.7857445 L56.8140609,34.7857445 C56.9166306,34.7857445 57,34.7034948 57,34.599921 L57,22.7270189 C56.9848419,18.4190619 54.1320918,17.0279243 49.7514075,17 Z M53.7748665,28.6718472 C53.7748665,30.0812625 53.5171792,30.9453925 52.8087917,31.4282289 C52.107478,31.8993879 51.077234,31.9633599 49.5775949,31.9684371 C48.3366537,31.9674217 47.4524325,31.698333 46.8648044,31.2479903 C46.2817237,30.8006939 46.0149415,30.1706203 46.0169626,29.5207458 C46.0154468,28.8206076 46.2908185,28.211858 46.84712,27.8041633 C47.4029161,27.3944377 48.2179154,27.1806899 49.2936336,27.1796745 L53.5909485,27.1796745 C53.6404648,27.1796745 53.6874549,27.2004908 53.7202974,27.2345077 C53.7541504,27.2670014 53.7743612,27.3142188 53.7743612,27.3634671 L53.7743612,28.6718472 L53.7748665,28.6718472 Z" id="Shape" fill="#1E5073"></path>
                        <path d="M83.7521565,17 C81.3232396,17.0060926 79.5370484,17.588441 78.226838,19.1141229 C78.1950049,19.1506784 78.1318439,19.2131272 78.1000108,19.2522213 C78.1000108,19.252729 78.1288122,19.2258201 78.1283069,19.227851 C78.1182012,19.2354667 78.1080954,19.2415592 78.1000108,19.2522213 C78.0378605,19.3339633 78.054535,19.4507376 78.1343704,19.5126788 L78.135381,19.5142019 C78.135381,19.5142019 78.135381,19.5142019 78.135381,19.5136942 L80.2090807,21.1058867 L80.3566247,21.2196147 L80.3813838,21.2384001 L80.35713,21.2196147 C80.4384813,21.2820636 80.5552027,21.2663244 80.617353,21.1850901 C81.1691269,20.3651313 82.1534269,20.0239472 83.9295124,20.0335938 C85.2281012,20.0346092 86.1724835,20.1782924 86.8187462,20.5707556 C87.474104,20.9637266 87.7813188,21.629848 87.7757606,22.5137788 L87.7757606,24.3887682 C87.7757606,24.4375088 87.7560544,24.4847263 87.7216949,24.5187431 C87.6893565,24.5512368 87.6418595,24.5715454 87.5928466,24.5715454 L82.6273866,24.5715454 C78.8720901,24.5827151 77.0131375,26.919217 77,29.6994613 C77.010611,32.7112233 79.2156856,34.9878149 83.1215577,35 C85.5332948,34.9939074 86.6646335,34.4531915 87.3649619,33.2844329 C87.3983109,33.2301075 87.4579348,33.1960906 87.5226116,33.1960906 L87.5923413,33.1960906 C87.6413542,33.1960906 87.6883459,33.2143683 87.7211896,33.2494006 C87.7555491,33.2824021 87.7752554,33.3301272 87.7752554,33.3783601 L87.7752554,34.599921 C87.7752554,34.7034948 87.8591331,34.7857445 87.9612011,34.7857445 L90.8145595,34.7857445 C90.9171329,34.7857445 91,34.7034948 91,34.599921 L91,22.7270189 C90.985852,18.4190619 88.1329989,17.0279243 83.7521565,17 Z M87.7757606,28.6718472 C87.7757606,30.0812625 87.518064,30.9453925 86.809651,31.4282289 C86.1088173,31.8993879 85.0785361,31.9633599 83.5783376,31.9684371 C82.3378569,31.9674217 81.4536038,31.698333 80.8659545,31.2479903 C80.2828527,30.8006939 80.0155556,30.1706203 80.0175768,29.5207458 C80.0155556,28.8206076 80.2919479,28.211858 80.8477641,27.8041633 C81.4035803,27.3944377 82.2191143,27.1806899 83.294366,27.1796745 L87.5928466,27.1796745 C87.6418595,27.1796745 87.6888512,27.2004908 87.7216949,27.2345077 C87.7560544,27.2670014 87.7757606,27.3142188 87.7757606,27.3634671 L87.7757606,28.6718472 Z" id="Shape" fill="#1E5073"></path>
                        <path d="M119.000986,17 C115.713129,17.0182782 112.01774,19.1578472 112,26.0548347 C112.023161,33.3280492 116.030482,34.9741058 119.548962,35 C121.681239,34.9989845 123.705597,34.2810561 125.330799,32.5705179 C125.366279,32.532946 125.400282,32.495374 125.434776,32.4557712 C125.442661,32.4501862 125.451038,32.4456166 125.457937,32.4374929 C125.462865,32.4329234 125.463851,32.4268306 125.4673,32.4222611 C125.520521,32.3440709 125.510172,32.2384633 125.43724,32.1744895 L123.435058,30.4172402 L123.423231,30.4070856 C123.347835,30.33905 123.233509,30.3481891 123.168462,30.4258716 L123.18226,30.4091166 C122.140514,31.3956335 120.772545,31.9658129 119.480465,31.9673361 C118.244069,31.9683516 117.155509,31.5834932 116.377895,30.805145 C115.599789,30.0267968 115.14692,28.8666366 115.14692,27.3622363 C115.14692,27.314002 115.166139,27.2667833 115.200634,27.2342886 C115.232665,27.1992553 115.278001,27.1794539 115.326294,27.1794539 L125.819641,27.1794539 C125.919183,27.1794539 126,27.0972019 126,26.9931175 L126,24.3889766 C125.995565,19.8539434 122.756987,17.0071082 119.000986,17 Z M122.802816,24.5154011 C122.769307,24.5514498 122.722985,24.5712513 122.674692,24.5712513 L115.326786,24.5712513 C115.277015,24.5712513 115.23365,24.5514498 115.19817,24.5169243 C115.165646,24.4808756 115.14692,24.4346722 115.14692,24.3844071 C115.20359,21.5893603 116.850475,20.0209861 119.000493,20.0336793 C121.148539,20.0214939 122.763886,21.589868 122.84963,24.3818684 C122.85308,24.4316259 122.836325,24.4798601 122.802816,24.5154011 Z" id="Shape" fill="#1E5073"></path>
                        <path d="M135.751651,17 C133.322734,17.0060926 131.536543,17.588441 130.226838,19.1141229 C130.195005,19.1506784 130.131844,19.2131272 130.100011,19.2522213 C130.100011,19.252729 130.129318,19.2258201 130.127296,19.227851 C130.118201,19.2354667 130.10759,19.2415592 130.100011,19.2522213 C130.037355,19.3339633 130.05403,19.4507376 130.134876,19.5126788 L130.135381,19.5142019 C130.135381,19.5142019 130.135381,19.5142019 130.135381,19.5136942 L132.209081,21.1058867 L132.356119,21.2196147 L132.381889,21.2384001 L132.35713,21.2196147 C132.438481,21.2820636 132.554697,21.2663244 132.616848,21.1850901 C133.169632,20.3651313 134.153427,20.0239472 135.930018,20.0335938 C137.227596,20.0346092 138.172989,20.1782924 138.818746,20.5707556 C139.473093,20.9637266 139.781824,21.629848 139.775761,22.5137788 L139.775761,24.3887682 C139.775761,24.4375088 139.756054,24.4847263 139.7222,24.5187431 C139.688851,24.5512368 139.641354,24.5715454 139.592847,24.5715454 L134.626881,24.5715454 C130.871585,24.5827151 129.013137,26.919217 129,29.6994613 C129.010611,32.7112233 131.216191,34.9878149 135.121052,35 C137.53279,34.9939074 138.664128,34.4531915 139.364457,33.2844329 C139.398816,33.2301075 139.45844,33.1960906 139.522106,33.1960906 L139.592341,33.1960906 C139.640849,33.1960906 139.687841,33.2143683 139.721695,33.2494006 C139.755549,33.2824021 139.775255,33.3301272 139.775255,33.3783601 L139.775255,34.599921 C139.775255,34.7034948 139.857617,34.7857445 139.961201,34.7857445 L142.815065,34.7857445 C142.917638,34.7857445 143,34.7034948 143,34.599921 L143,22.7270189 C142.985347,18.4190619 140.131988,17.0279243 135.751651,17 Z M139.775255,28.6718472 C139.775255,30.0812625 139.517559,30.9453925 138.809651,31.4282289 C138.108312,31.8993879 137.077526,31.9633599 135.577832,31.9684371 C134.336846,31.9674217 133.453098,31.698333 132.865449,31.2479903 C132.282347,30.8006939 132.015556,30.1706203 132.016566,29.5207458 C132.015556,28.8206076 132.290937,28.211858 132.847259,27.8041633 C133.40358,27.3944377 134.218609,27.1806899 135.294366,27.1796745 L139.592341,27.1796745 C139.640849,27.1796745 139.687841,27.2004908 139.721695,27.2345077 C139.755549,27.2670014 139.775255,27.3142188 139.775255,27.3634671 L139.775255,28.6718472 Z" id="Shape" fill="#1E5073"></path>
                    </g>
                </g>
            </g>
        </g>
    </g>
</svg>