<?xml version="1.0" encoding="UTF-8"?>
<svg width="193px" height="86px" viewBox="0 0 193 86" version="1.1" xmlns="http://www.w3.org/2000/svg" xmlns:xlink="http://www.w3.org/1999/xlink">
    <!-- Generator: Sketch 49.3 (51167) - http://www.bohemiancoding.com/sketch -->
    <title>Bitmap Copy 2</title>
    <desc>Created with Sketch.</desc>
    <defs>
        <rect id="path-1" x="0" y="0" width="193" height="86"></rect>
    </defs>
    <g id="__Wireframes" stroke="none" stroke-width="1" fill="none" fill-rule="evenodd">
        <g id="Brand-Guidelines-&gt;-Design-&gt;-Logo" transform="translate(-281.000000, -3119.000000)">
            <g id="Group-7" transform="translate(281.000000, 3114.000000)">
                <g id="Bitmap-Copy-2" transform="translate(0.000000, 5.000000)">
                    <mask id="mask-2" fill="white">
                        <use xlink:href="#path-1"></use>
                    </mask>
                    <use id="Mask" fill="#FFFFFF" xlink:href="#path-1"></use>
                    <g id="azavea_rgb_solo" transform="translate(44.000000, 15.000000)" fill-rule="nonzero">
                        <path d="M48.0747488,36.0000002 C46.2803578,36.0000002 44.5191107,36.6252733 43.1216747,37.7600856 C42.5351062,38.2346718 42.0032635,38.9469394 41.5677691,39.408321 C40.8401467,40.1407837 39.918286,40.6410021 38.9440119,40.9548038 C37.6298209,41.3773486 36.4104366,41.1940387 35.1571377,40.6145931 C33.4475333,39.8254286 32.5935018,38.1135008 31.0010569,37.1441334 C28.0674434,35.3560855 24.2150525,35.7265889 21.6598952,38.0202924 C19.2141896,40.2153504 18.3378053,43.8108647 19.5240458,46.892956 C20.696412,49.9369873 23.6839806,52 26.924367,52 C28.7133625,51.9976698 30.4722973,51.37162 31.8689625,50.2461285 C32.5426299,49.7024128 32.9788951,48.9668431 33.6055445,48.3990485 C34.3616861,47.71319 35.2920254,47.2549154 36.2647579,46.9714064 C37.6259669,46.5729405 38.9825512,46.910821 40.2165804,47.583475 C41.7689444,48.4324482 42.5721039,50.0465071 44.1475916,50.9521822 C47.1320769,52.6656634 50.9744477,52.2097189 53.4841286,49.852323 C55.8342566,47.6448372 56.6358746,44.131657 55.4712162,41.1117046 C54.2980791,38.0661199 51.3182185,35.9992235 48.0747488,36.0000002" id="Shape" fill-opacity="0.209999993" fill="#1E5073"></path>
                        <path d="M41.8814985,3.76897649 C40.8488178,5.45772171 40.5400376,7.48272481 41.0213251,9.37948765 C41.2576365,10.3084839 41.6609412,10.9563954 41.7278961,11.8943387 C41.7885494,12.7346106 41.7381363,13.9678047 41.2804799,14.7148787 C40.5227081,15.9488184 39.5120831,16.9046557 38.0808239,17.465334 C37.2639743,17.7866802 36.3596894,17.7933904 35.5184209,18.0580724 C34.6424934,18.333938 33.8161913,18.7507189 33.0883523,19.2882841 C30.3329617,21.3229798 29.2829515,24.9151981 30.5038936,28.0071303 C31.697266,31.0304689 34.8606876,33.0718748 38.2730238,32.9980621 C41.7964264,32.9227582 44.9472447,30.6293453 45.9027304,27.4121552 C46.165036,26.5271483 46.2564097,25.598152 46.172913,24.6810851 C46.0791762,23.6491984 45.5884362,22.7932692 45.3702421,21.8068631 C45.0197135,20.2307009 45.3978117,18.738044 46.2241138,17.3825743 C46.5951227,16.7711963 47.4946813,16.2127547 48.1185433,15.8630764 C48.977929,15.3791931 49.7073435,15.297179 50.6368349,15.1055642 C52.3965669,14.7424653 54.0058474,13.8179425 55.1543206,12.5034799 C57.3449271,10.0005582 57.6103835,6.36285932 55.8175679,3.59301893 C52.6706881,-1.27414611 44.8865915,-1.17796592 41.8814985,3.76897649" id="Shape" fill-opacity="0.209999993" fill="#4CA4DB"></path>
                        <path d="M51.9814636,30.4925592 C52.8307987,31.9943013 54.1726606,33.1686071 55.7575023,33.7922245 C56.4236904,34.0556619 57.243109,34.1553812 57.8341412,34.3027275 C58.7228784,34.5468164 59.5262443,35.0349943 60.2150521,35.6511699 C61.2460749,36.5717125 61.7196302,37.6738335 61.850241,39.0684146 C61.9502057,40.1385361 61.6970105,40.9675454 61.3752263,41.9580403 C61.0746026,42.887513 60.9476401,43.8742871 61.0067433,44.8528752 C61.2168881,48.2976543 63.7670823,51.217047 67.0790513,51.8659663 C70.1794162,52.4724677 73.4125809,50.981144 74.9974227,48.1927259 C76.5946688,45.3842151 76.2597506,41.7548809 74.1619513,39.3080385 C73.0652583,38.0295484 71.5541132,37.1521679 69.9189243,36.8299407 C68.4041308,36.5322713 66.7375661,35.8543293 65.9115804,34.3987259 C65.0753794,32.9274949 64.8521006,31.0923631 65.4825349,29.49239 C66.1822877,27.7175363 66.1852064,25.7023144 65.508803,23.9192747 C64.3464397,20.8584891 61.3270681,18.846244 58.1092265,19.009218 C52.6038716,19.2897714 49.2218543,25.6316179 51.9814636,30.4925592" id="Shape" fill-opacity="0.209999993" fill="#3873A0"></path>
                        <path d="M69.8060001,22 L66.6715079,22 C66.5647817,22 66.4780337,22.088943 66.4780337,22.2014944 L66.4780337,22.1658074 L62.2163441,35.4479692 C62.1895311,35.5253825 62.1180298,35.5824818 62.0360135,35.5824818 L61.9624092,35.5824818 C61.8809187,35.5824818 61.8057372,35.5253825 61.7810272,35.4479692 L57.5219663,22.1685526 L57.5219663,22.2025925 C57.5219663,22.0900411 57.4352183,22.0010981 57.3290178,22.0010981 L54.1924227,22.0010981 C54.0856964,22.0010981 54,22.0900411 54,22.2025925 L54,22.228946 L54.0110406,22.2629859 L54.0210298,22.2893394 L54.0620379,22.4040869 L60.5486807,40.8674557 C60.5849571,40.9712226 60.6501495,41.0058116 60.7631847,40.9992232 L63.2399698,40.9992232 L63.2073736,40.9871445 C63.3072651,41.0250276 63.4176716,40.9717716 63.4544738,40.8674557 L69.9426938,22.4029889 L70,22.2371815 L70,22.2009454 C69.9994743,22.088943 69.9132521,22 69.8060001,22 Z" id="Shape" fill="#1E5073"></path>
                        <path d="M31.9546344,24.8968068 L31.9612281,24.8869239 C31.990139,24.8462939 32.0018048,24.7985262 31.999776,24.7524057 L31.999776,22.2015027 C31.999776,22.0889467 31.9165937,22 31.8126157,22 L19.683211,22 C19.5807547,22 19.4970652,22.0889467 19.4970652,22.2015027 L19.4970652,24.8468429 C19.4970652,24.9583008 19.5807547,25.0483456 19.683211,25.0483456 L27.7955176,25.0483456 C27.8660197,25.0483456 27.927392,25.0900737 27.9593462,25.1576073 C27.990286,25.2245918 27.9821706,25.3058518 27.9410867,25.3667967 L19.0563002,38.0889178 C19.053257,38.0933102 19.0512281,38.0982517 19.0481849,38.1004479 L19.0263749,38.1328421 L19.0304326,38.1300968 C19.012173,38.1608438 19,38.1943361 19,38.2333189 L19,40.7990464 C19,40.9110533 19.0836895,41 19.1861458,41 L31.8121085,41 C31.9160865,41 31.9992688,40.9110533 31.9992688,40.7990464 L31.9992688,37.9247508 C31.9992688,37.8132929 31.9160865,37.7243462 31.8121085,37.7243462 L23.2012152,37.7243462 C23.1302059,37.7243462 23.0657903,37.6798729 23.0353577,37.6112412 C23.0049251,37.5448057 23.0135477,37.4640948 23.0546317,37.4042479 L31.9546344,24.8968068 Z" id="Shape" fill="#1E5073"></path>
                        <path d="M7.23365093,22 C4.63133391,22.006431 2.71816804,22.6211322 1.31333911,24.2315742 C1.27977479,24.2701605 1.21156345,24.3360788 1.17799913,24.3773447 C1.17745777,24.3778806 1.20831529,24.3494768 1.20777393,24.3516205 C1.19748809,24.3596593 1.18666089,24.3660903 1.17799913,24.3773447 C1.11087051,24.4636279 1.12819402,24.5868897 1.21481161,24.652272 L1.21535297,24.6538798 C1.21535297,24.6538798 1.21481161,24.6538798 1.21481161,24.6533439 L3.43763534,26.3339915 L3.59571243,26.4540377 L3.62223906,26.4738668 L3.59625379,26.4540377 C3.68395409,26.519956 3.80846687,26.5033425 3.87451278,26.4175951 C4.46567778,25.552083 5.52024686,25.1919443 7.42366825,25.2021268 C8.81496319,25.2031986 9.82730619,25.3548642 10.5191641,25.769131 C11.2202252,26.1839337 11.5504547,26.8870617 11.5444998,27.8200999 L11.5444998,29.7992554 C11.5444998,29.8507037 11.5228454,29.9005444 11.4865743,29.9364511 C11.4513859,29.97075 11.4004981,29.9921868 11.3479861,29.9921868 L6.0285838,29.9921868 C2.0046557,30.0039771 0.0135339974,32.4702846 0,35.4049869 C0.0108271979,38.584069 2.37386314,40.9871379 6.55857514,41 C9.14248592,40.993569 10.3540494,40.4228133 11.1043742,39.1891236 C11.1411867,39.1317801 11.2050671,39.0958734 11.2738198,39.0958734 L11.3479861,39.0958734 C11.4010394,39.0958734 11.4513859,39.1151666 11.4865743,39.1521451 C11.5228454,39.1869799 11.5444998,39.2373565 11.5444998,39.288269 L11.5444998,40.5776944 C11.5444998,40.6870223 11.6338242,40.7738414 11.7431789,40.7738414 L14.8007796,40.7738414 C14.9106756,40.7738414 15,40.6870223 15,40.5776944 L15,28.0451866 C14.9837592,23.4978986 11.9272412,22.0294756 7.23365093,22 Z M11.5444998,34.3202832 C11.5444998,35.8079993 11.2684062,36.7201365 10.5094197,37.2297972 C9.75801213,37.7271317 8.6541793,37.7946577 7.04742313,37.8000169 C5.71784322,37.7989451 4.7704634,37.5149071 4.14086184,37.0395453 C3.51613252,36.5673991 3.2302945,35.9023214 3.23245994,35.2163428 C3.23083586,34.477308 3.525877,33.834739 4.12191425,33.4043946 C4.71741013,32.9719065 5.59062365,32.7462838 6.74317887,32.745212 L11.3474448,32.745212 C11.4004981,32.745212 11.4508445,32.7671847 11.4860329,32.8030914 C11.522304,32.8373903 11.5439584,32.887231 11.5439584,32.9392153 L11.5439584,34.3202832 L11.5444998,34.3202832 Z" id="Shape" fill="#1E5073"></path>
                        <path d="M43.2344534,22 C40.6320424,22.006431 38.7182661,22.6211322 37.3144693,24.2315742 C37.2803624,24.2701605 37.2126899,24.3360788 37.178583,24.3773447 C37.178583,24.3778806 37.2094417,24.3494768 37.2089003,24.3516205 C37.1980727,24.3596593 37.1872451,24.3660903 37.178583,24.3773447 C37.1119934,24.4636279 37.1298589,24.5868897 37.2153968,24.652272 L37.2164796,24.6538798 C37.2164796,24.6538798 37.2164796,24.6538798 37.2164796,24.6533439 L39.4383008,26.3339915 L39.5963836,26.4540377 L39.6229112,26.4738668 L39.596925,26.4540377 C39.6840871,26.519956 39.8091457,26.5033425 39.8757354,26.4175951 C40.4669217,25.552083 41.5215289,25.1919443 43.4244776,25.2021268 C44.8158227,25.2031986 45.8276609,25.3548642 46.5200852,25.769131 C47.2222543,26.1839337 47.551413,26.8870617 47.5454578,27.8200999 L47.5454578,29.7992554 C47.5454578,29.8507037 47.524344,29.9005444 47.4875302,29.9364511 C47.4528819,29.97075 47.4019923,29.9921868 47.3494785,29.9921868 L42.0293428,29.9921868 C38.0058108,30.0039771 36.0140759,32.4702846 36,35.4049869 C36.011369,38.584069 38.3739488,40.9871379 42.5588119,41 C45.1428159,40.993569 46.3549644,40.4228133 47.1053163,39.1891236 C47.1410474,39.1317801 47.2049302,39.0958734 47.2742267,39.0958734 L47.3489371,39.0958734 C47.4014509,39.0958734 47.4517992,39.1151666 47.4869888,39.1521451 C47.5238026,39.1869799 47.5449164,39.2373565 47.5449164,39.288269 L47.5449164,40.5776944 C47.5449164,40.6870223 47.6347854,40.7738414 47.7441441,40.7738414 L50.8013137,40.7738414 C50.9112138,40.7738414 51,40.6870223 51,40.5776944 L51,28.0451866 C50.9848414,23.4978986 47.9282131,22.0294756 43.2344534,22 Z M47.5454578,34.3202832 C47.5454578,35.8079993 47.2693543,36.7201365 46.5103403,37.2297972 C45.7594471,37.7271317 44.6555744,37.7946577 43.0482189,37.8000169 C41.7191323,37.7989451 40.7717183,37.5149071 40.1420941,37.0395453 C39.5173422,36.5673991 39.2309525,35.9023214 39.233118,35.2163428 C39.2309525,34.477308 39.527087,33.834739 40.1226044,33.4043946 C40.7181218,32.9719065 41.5919082,32.7462838 42.7439636,32.745212 L47.3494785,32.745212 C47.4019923,32.745212 47.4523406,32.7671847 47.4875302,32.8030914 C47.524344,32.8373903 47.5454578,32.887231 47.5454578,32.9392153 L47.5454578,34.3202832 Z" id="Shape" fill="#1E5073"></path>
                        <path d="M80.501056,22 C76.9783527,22.0192937 73.0190074,24.2777276 73,31.5578811 C73.0248152,39.235163 77.3183738,40.9726673 81.0881732,41 C83.3727561,40.9989281 85.5417107,40.2411147 87.2829989,38.4355467 C87.3210137,38.3958874 87.3574446,38.3562281 87.3944034,38.3144251 C87.4028511,38.3085298 87.4118268,38.3037064 87.4192186,38.2951314 C87.4244984,38.290308 87.4255544,38.2838768 87.4292503,38.2790534 C87.4862724,38.1965192 87.4751848,38.0850446 87.3970433,38.0175166 L85.2518479,36.1626424 L85.2391763,36.1519237 C85.1583949,36.0801083 85.0359029,36.0897552 84.9662091,36.1717534 L84.9809926,36.1540675 C83.8648363,37.195391 82.3991552,37.797247 81.0147835,37.7988548 C79.6900739,37.7999267 78.5237592,37.3936872 77.6906019,36.5720975 C76.8569166,35.7505077 76.3717001,34.5258942 76.3717001,32.9379161 C76.3717001,32.8870021 76.3922914,32.8371601 76.4292503,32.8028602 C76.4635692,32.7658806 76.5121436,32.7449791 76.563886,32.7449791 L87.8067582,32.7449791 C87.9134108,32.7449791 88,32.6581575 88,32.5482906 L88,29.7994753 C87.9952482,25.0124958 84.5253432,22.0075031 80.501056,22 Z M84.5744456,29.9329234 C84.5385428,29.9709748 84.4889124,29.9918763 84.43717,29.9918763 L76.5644139,29.9918763 C76.5110876,29.9918763 76.4646251,29.9709748 76.4266103,29.9345312 C76.3917635,29.8964797 76.3717001,29.8477096 76.3717001,29.7946519 C76.4324182,26.8443247 78.1969377,25.1888187 80.500528,25.2022171 C82.8020063,25.1893546 84.532735,26.8448607 84.624604,29.7919722 C84.6282999,29.844494 84.6103485,29.8954079 84.5744456,29.9329234 Z" id="Shape" fill="#1E5073"></path>
                        <path d="M98.233912,22 C95.6315011,22.006431 93.7177248,22.6211322 92.3144693,24.2315742 C92.2803624,24.2701605 92.2126899,24.3360788 92.178583,24.3773447 C92.178583,24.3778806 92.209983,24.3494768 92.2078175,24.3516205 C92.1980727,24.3596593 92.1867037,24.3660903 92.178583,24.3773447 C92.111452,24.4636279 92.1293175,24.5868897 92.2159382,24.652272 L92.2164796,24.6538798 C92.2164796,24.6538798 92.2164796,24.6538798 92.2164796,24.6533439 L94.4383008,26.3339915 L94.5958422,26.4540377 L94.6234526,26.4738668 L94.596925,26.4540377 C94.6840871,26.519956 94.8086043,26.5033425 94.875194,26.4175951 C95.4674631,25.552083 96.5215289,25.1919443 98.4250189,25.2021268 C99.8152813,25.2031986 100.828202,25.3548642 101.520085,25.769131 C102.221172,26.1839337 102.551954,26.8870617 102.545458,27.8200999 L102.545458,29.7992554 C102.545458,29.8507037 102.524344,29.9005444 102.488072,29.9364511 C102.452341,29.97075 102.401451,29.9921868 102.349478,29.9921868 L97.0288014,29.9921868 C93.0052694,30.0039771 91.0140759,32.4702846 91,35.4049869 C91.011369,38.584069 93.3744902,40.9871379 97.5582705,41 C100.142275,40.993569 101.354423,40.4228133 102.104775,39.1891236 C102.141589,39.1317801 102.205472,39.0958734 102.273685,39.0958734 L102.348937,39.0958734 C102.40091,39.0958734 102.451258,39.1151666 102.48753,39.1521451 C102.523803,39.1869799 102.544916,39.2373565 102.544916,39.288269 L102.544916,40.5776944 C102.544916,40.6870223 102.633161,40.7738414 102.744144,40.7738414 L105.801855,40.7738414 C105.911755,40.7738414 106,40.6870223 106,40.5776944 L106,28.0451866 C105.9843,23.4978986 102.92713,22.0294756 98.233912,22 Z M102.544916,34.3202832 C102.544916,35.8079993 102.268813,36.7201365 101.51034,37.2297972 C100.758906,37.7271317 99.6544916,37.7946577 98.0476775,37.8000169 C96.7180496,37.7989451 95.771177,37.5149071 95.1415527,37.0395453 C94.5168008,36.5673991 94.2309525,35.9023214 94.2320352,35.2163428 C94.2309525,34.477308 94.5260043,33.834739 95.122063,33.4043946 C95.7181218,32.9719065 96.5913668,32.7462838 97.7439636,32.745212 L102.348937,32.745212 C102.40091,32.745212 102.451258,32.7671847 102.48753,32.8030914 C102.523803,32.8373903 102.544916,32.887231 102.544916,32.9392153 L102.544916,34.3202832 Z" id="Shape" fill="#1E5073"></path>
                    </g>
                </g>
            </g>
        </g>
    </g>
</svg>