<?xml version="1.0" encoding="UTF-8"?>
<svg width="64px" height="45px" viewBox="0 0 64 45" version="1.1" xmlns="http://www.w3.org/2000/svg" xmlns:xlink="http://www.w3.org/1999/xlink">
    <!-- Generator: Sketch 49.3 (51167) - http://www.bohemiancoding.com/sketch -->
    <title>Color Logo</title>
    <desc>Created with Sketch.</desc>
    <defs></defs>
    <g id="__Wireframes" stroke="none" stroke-width="1" fill="none" fill-rule="evenodd">
        <g id="Brand-Guidelines-&gt;-Design-&gt;-Logo" transform="translate(-278.000000, -2137.000000)">
            <g id="Color-Logo" transform="translate(278.000000, 2137.000000)">
                <path d="M0.8984375,38.9677734 C0.8984375,37.555006 1.19709988,36.5035842 1.79443359,35.8134766 C2.39176731,35.1233689 3.28612686,34.7783203 4.47753906,34.7783203 C4.88444214,34.7783203 5.20344937,34.8027341 5.43457031,34.8515625 L5.43457031,36.0576172 C5.14485532,35.9925127 4.85839985,35.9599609 4.57519531,35.9599609 C4.0576146,35.9599609 3.63525554,36.0380852 3.30810547,36.1943359 C2.9809554,36.3505867 2.73600342,36.5817042 2.57324219,36.8876953 C2.41048096,37.1936864 2.31445327,37.6282524 2.28515625,38.1914062 L2.34863281,38.1914062 C2.67090005,37.6380181 3.18684541,37.3613281 3.89648437,37.3613281 C4.5345084,37.3613281 5.03417788,37.5615214 5.39550781,37.9619141 C5.75683774,38.3623067 5.9375,38.9156866 5.9375,39.6220703 C5.9375,40.3837929 5.7226584,40.9868142 5.29296875,41.4311523 C4.8632791,41.8754905 4.26758193,42.0976562 3.50585937,42.0976562 C2.97851299,42.0976562 2.51871941,41.9755872 2.12646484,41.7314453 C1.73421028,41.4873035 1.43147893,41.1308617 1.21826172,40.6621094 C1.00504451,40.193357 0.8984375,39.628584 0.8984375,38.9677734 Z M3.4765625,40.8916016 C3.79882974,40.8916016 4.0462231,40.783367 4.21875,40.5668945 C4.3912769,40.3504221 4.47753906,40.0419942 4.47753906,39.6416016 C4.47753906,39.2932925 4.39697346,39.019044 4.23583984,38.8188477 C4.07470623,38.6186513 3.83138184,38.5185547 3.50585938,38.5185547 C3.19986826,38.5185547 2.93864041,38.6178375 2.72216797,38.8164062 C2.50569553,39.014975 2.39746094,39.2460924 2.39746094,39.5097656 C2.39746094,39.8971374 2.49918518,40.2242825 2.70263672,40.4912109 C2.90608826,40.7581394 3.16406094,40.8916016 3.4765625,40.8916016 Z M11.6064453,38.4306641 C11.6064453,39.6774151 11.402183,40.6002574 10.9936523,41.1992188 C10.5851217,41.7981801 9.95605894,42.0976562 9.10644531,42.0976562 C8.28287349,42.0976562 7.66194871,41.7884146 7.24365234,41.1699219 C6.82535598,40.5514292 6.61621094,39.6383524 6.61621094,38.4306641 C6.61621094,37.1708921 6.81965942,36.2423532 7.2265625,35.6450195 C7.63346558,35.0476858 8.26008691,34.7490234 9.10644531,34.7490234 C9.93001714,34.7490234 10.5525695,35.0615203 10.9741211,35.6865234 C11.3956727,36.3115266 11.6064453,37.226231 11.6064453,38.4306641 Z M8.11523438,38.4306641 C8.11523438,39.3063195 8.19091721,39.9337546 8.34228516,40.3129883 C8.4936531,40.6922219 8.74837061,40.8818359 9.10644531,40.8818359 C9.45800957,40.8818359 9.71191328,40.6897806 9.86816406,40.3056641 C10.0244148,39.9215476 10.1025391,39.2965538 10.1025391,38.4306641 C10.1025391,37.5550086 10.023601,36.9259459 9.86572266,36.543457 C9.70784426,36.1609681 9.45475435,35.9697266 9.10644531,35.9697266 C8.75162583,35.9697266 8.49772212,36.1609681 8.34472656,36.543457 C8.19173101,36.9259459 8.11523438,37.5550086 8.11523438,38.4306641 Z M15.7421875,42.0976562 C15.1009083,42.0976562 14.5979836,41.8649112 14.2333984,41.3994141 L14.1552734,41.3994141 C14.207357,41.8551455 14.2333984,42.1188147 14.2333984,42.1904297 L14.2333984,44.4023438 L12.7441406,44.4023438 L12.7441406,36.5410156 L13.9550781,36.5410156 L14.1650391,37.2490234 L14.2333984,37.2490234 C14.5817075,36.7086562 15.0976528,36.4384766 15.78125,36.4384766 C16.4257845,36.4384766 16.9303367,36.6874975 17.2949219,37.1855469 C17.659507,37.6835962 17.8417969,38.3753211 17.8417969,39.2607422 C17.8417969,39.8434274 17.7563485,40.3496072 17.5854492,40.7792969 C17.4145499,41.2089865 17.1712255,41.5361317 16.8554688,41.7607422 C16.539712,41.9853527 16.1686219,42.0976562 15.7421875,42.0976562 Z M15.3027344,37.6298828 C14.934894,37.6298828 14.666342,37.7430002 14.4970703,37.9692383 C14.3277986,38.1954764 14.2399089,38.5690078 14.2333984,39.0898438 L14.2333984,39.2509766 C14.2333984,39.836917 14.3204744,40.2568347 14.4946289,40.5107422 C14.6687834,40.7646497 14.9446596,40.8916016 15.3222656,40.8916016 C15.9895867,40.8916016 16.3232422,40.3414769 16.3232422,39.2412109 C16.3232422,38.7040989 16.241049,38.3012709 16.0766602,38.0327148 C15.9122713,37.7641588 15.6542986,37.6298828 15.3027344,37.6298828 Z M20.1904297,39.2119141 L18.4326172,36.5410156 L20.1220703,36.5410156 L21.1816406,38.2792969 L22.2509766,36.5410156 L23.9404297,36.5410156 L22.1630859,39.2119141 L24.0234375,42 L22.3291016,42 L21.1816406,40.1298828 L20.0292969,42 L18.3398438,42 L20.1904297,39.2119141 Z M30.7519531,34.8613281 L28.0908203,42 L26.7382812,42 L29.3994141,34.8613281 L30.7519531,34.8613281 Z M37.5292969,42 L36.0205078,42 L36.0205078,37.8691406 L36.0351562,37.1904297 L36.0595703,36.4482422 C35.808918,36.6988945 35.6347661,36.8632809 35.5371094,36.9414062 L34.7167969,37.6005859 L33.9892578,36.6923828 L36.2890625,34.8613281 L37.5292969,34.8613281 L37.5292969,42 Z M39.4580078,38.9677734 C39.4580078,37.555006 39.7566702,36.5035842 40.3540039,35.8134766 C40.9513376,35.1233689 41.8456972,34.7783203 43.0371094,34.7783203 C43.4440125,34.7783203 43.7630197,34.8027341 43.9941406,34.8515625 L43.9941406,36.0576172 C43.7044256,35.9925127 43.4179702,35.9599609 43.1347656,35.9599609 C42.6171849,35.9599609 42.1948259,36.0380852 41.8676758,36.1943359 C41.5405257,36.3505867 41.2955737,36.5817042 41.1328125,36.8876953 C40.9700513,37.1936864 40.8740236,37.6282524 40.8447266,38.1914062 L40.9082031,38.1914062 C41.2304704,37.6380181 41.7464157,37.3613281 42.4560547,37.3613281 C43.0940787,37.3613281 43.5937482,37.5615214 43.9550781,37.9619141 C44.3164081,38.3623067 44.4970703,38.9156866 44.4970703,39.6220703 C44.4970703,40.3837929 44.2822287,40.9868142 43.8525391,41.4311523 C43.4228494,41.8754905 42.8271522,42.0976562 42.0654297,42.0976562 C41.5380833,42.0976562 41.0782897,41.9755872 40.6860352,41.7314453 C40.2937806,41.4873035 39.9910492,41.1308617 39.777832,40.6621094 C39.5646148,40.193357 39.4580078,39.628584 39.4580078,38.9677734 Z M42.0361328,40.8916016 C42.3584,40.8916016 42.6057934,40.783367 42.7783203,40.5668945 C42.9508472,40.3504221 43.0371094,40.0419942 43.0371094,39.6416016 C43.0371094,39.2932925 42.9565438,39.019044 42.7954102,38.8188477 C42.6342765,38.6186513 42.3909521,38.5185547 42.0654297,38.5185547 C41.7594386,38.5185547 41.4982107,38.6178375 41.2817383,38.8164062 C41.0652658,39.014975 40.9570312,39.2460924 40.9570312,39.5097656 C40.9570312,39.8971374 41.0587555,40.2242825 41.262207,40.4912109 C41.4656586,40.7581394 41.7236312,40.8916016 42.0361328,40.8916016 Z M50.4833984,42 L48.9941406,42 L48.9941406,38.8115234 C48.9941406,38.4176413 48.9282233,38.1222341 48.7963867,37.925293 C48.6645501,37.7283519 48.4570327,37.6298828 48.1738281,37.6298828 C47.7929668,37.6298828 47.5162769,37.7698554 47.34375,38.0498047 C47.1712231,38.329754 47.0849609,38.7903614 47.0849609,39.4316406 L47.0849609,42 L45.5957031,42 L45.5957031,36.5410156 L46.7333984,36.5410156 L46.9335937,37.2392578 L47.0166016,37.2392578 C47.1630867,36.9886055 47.3746731,36.7924812 47.6513672,36.6508789 C47.9280613,36.5092766 48.2454409,36.4384766 48.6035156,36.4384766 C49.420577,36.4384766 49.9739569,36.705401 50.2636719,37.2392578 L50.3955078,37.2392578 C50.5419929,36.9853503 50.7576483,36.7884122 51.0424805,36.6484375 C51.3273126,36.5084628 51.6487612,36.4384766 52.0068359,36.4384766 C52.6253286,36.4384766 53.0932601,36.5971664 53.4106445,36.9145508 C53.7280289,37.2319352 53.8867187,37.7405564 53.8867187,38.4404297 L53.8867187,42 L52.3925781,42 L52.3925781,38.8115234 C52.3925781,38.4176413 52.3266608,38.1222341 52.1948242,37.925293 C52.0629876,37.7283519 51.8554702,37.6298828 51.5722656,37.6298828 C51.2076805,37.6298828 50.9350595,37.7600898 50.7543945,38.0205078 C50.5737296,38.2809258 50.4833984,38.6943331 50.4833984,39.2607422 L50.4833984,42 Z M60.3027344,42 L58.8134766,42 L58.8134766,38.8115234 C58.8134766,38.4176413 58.7475593,38.1222341 58.6157227,37.925293 C58.4838861,37.7283519 58.2763686,37.6298828 57.9931641,37.6298828 C57.6123028,37.6298828 57.3356128,37.7698554 57.1630859,38.0498047 C56.990559,38.329754 56.9042969,38.7903614 56.9042969,39.4316406 L56.9042969,42 L55.4150391,42 L55.4150391,36.5410156 L56.5527344,36.5410156 L56.7529297,37.2392578 L56.8359375,37.2392578 C56.9824226,36.9886055 57.194009,36.7924812 57.4707031,36.6508789 C57.7473972,36.5092766 58.0647769,36.4384766 58.4228516,36.4384766 C59.2399129,36.4384766 59.7932928,36.705401 60.0830078,37.2392578 L60.2148438,37.2392578 C60.3613289,36.9853503 60.5769843,36.7884122 60.8618164,36.6484375 C61.1466486,36.5084628 61.4680972,36.4384766 61.8261719,36.4384766 C62.4446646,36.4384766 62.9125961,36.5971664 63.2299805,36.9145508 C63.5473649,37.2319352 63.7060547,37.7405564 63.7060547,38.4404297 L63.7060547,42 L62.2119141,42 L62.2119141,38.8115234 C62.2119141,38.4176413 62.1459968,38.1222341 62.0141602,37.925293 C61.8823236,37.7283519 61.6748061,37.6298828 61.3916016,37.6298828 C61.0270164,37.6298828 60.7543954,37.7600898 60.5737305,38.0205078 C60.3930655,38.2809258 60.3027344,38.6943331 60.3027344,39.2607422 L60.3027344,42 Z" id="60px-/-16mm" fill="#BD10E0"></path>
                <path d="M3.5,24.5 L60.5087713,24.5" id="Line-2" stroke="#BD10E0" stroke-linecap="square"></path>
                <path id="Line-2-decoration-1" d="M3.5,21.5 L3.5,27.5" stroke="#BD10E0" stroke-linecap="square"></path>
                <path id="Line-2-decoration-2" d="M60.5087713,21.5 L60.5087713,27.5" stroke="#BD10E0" stroke-linecap="square"></path>
                <g id="azavea_rgb_solo" transform="translate(2.000000, 0.000000)" fill-rule="nonzero">
                    <path d="M8.05276643,10.0672959 C7.55811331,10.0672959 7.07259682,10.2383422 6.68737083,10.5487753 C6.52567365,10.6786005 6.37906254,10.8734445 6.25901142,10.9996576 C6.05843043,11.2000261 5.80430451,11.3368631 5.53572997,11.422705 C5.1734518,11.538294 4.83730866,11.4881488 4.4918164,11.3296388 C4.02053606,11.1137593 3.78510837,10.6454536 3.34612497,10.3802788 C2.53742661,9.89115012 1.47545226,9.99250302 0.771081509,10.6199561 C0.0968829021,11.2204241 -0.144706703,12.2039934 0.182299807,13.0471135 C0.50548168,13.8798221 1.32905363,14.4441686 2.22231898,14.4441686 C2.71548474,14.4435312 3.20036379,14.2722724 3.5853773,13.9643891 C3.7710847,13.8156532 3.8913483,13.6144348 4.06409443,13.459112 C4.27253718,13.2714923 4.52900037,13.1461292 4.79714996,13.068574 C5.1723894,12.9595718 5.54635396,13.0520006 5.88653422,13.2360081 C6.31446867,13.4682486 6.53587268,13.9097818 6.97018152,14.1575333 C7.79290356,14.6262639 8.85211568,14.5015382 9.54395011,13.8566618 C10.1918012,13.252794 10.4127803,12.2917476 10.0917232,11.4656259 C9.76832885,10.6324924 8.94688169,10.0670834 8.05276643,10.0672959" id="Shape" fill="#1E5073"></path>
                    <path d="M6.15234653,1.07408571 C5.87378543,1.5553526 5.79049332,2.13244791 5.92031852,2.67299668 C5.98406248,2.93774659 6.09285217,3.12239159 6.11091296,3.38969126 C6.12727391,3.62915607 6.1136752,3.98059776 5.99022439,4.19350258 C5.78581877,4.54515676 5.5132071,4.81755594 5.12713119,4.9773408 C4.90678957,5.06891962 4.66286269,5.07083194 4.43593419,5.14626229 C4.19965659,5.22487984 3.97676521,5.34365609 3.78043381,5.49685407 C3.03717925,6.07671161 2.75394359,7.1004396 3.08328738,7.98159359 C3.40519438,8.84319944 4.25851351,9.4249693 5.17897628,9.4039338 C6.1293987,9.38247333 6.97931816,8.72888527 7.23705623,7.81203466 C7.30781203,7.55982106 7.33245969,7.29507115 7.30993683,7.03372092 C7.28465172,6.73964879 7.15227677,6.49572191 7.09341985,6.21461105 C6.99886631,5.76542861 7.10085664,5.34004393 7.32374802,4.95375554 C7.42382603,4.77952205 7.66647804,4.62037463 7.83476209,4.52072157 C8.06657762,4.38282214 8.26333397,4.35944936 8.51406021,4.30484203 C8.98874023,4.20136434 9.42283659,3.93788931 9.73263223,3.56328731 C10.3235387,2.84999241 10.3951444,1.81330315 9.91154027,1.02394046 C9.06268322,-0.363128087 6.96295721,-0.335718184 6.15234653,1.07408571" id="Shape" fill="#4CA4DB"></path>
                    <path d="M9.05737122,8.30158826 C9.30469778,8.73037263 9.69544825,9.06566585 10.1569545,9.24372398 C10.3509486,9.31894185 10.5895635,9.34741415 10.7616722,9.38948517 C11.0204727,9.45917856 11.254413,9.59856535 11.454994,9.77449868 C11.755228,10.0373363 11.8931275,10.3520189 11.9311614,10.7502062 C11.9602711,11.0557523 11.8865406,11.2924548 11.792837,11.5752655 C11.7052953,11.8406529 11.6683238,12.1224012 11.6855347,12.4018122 C11.7467289,13.3853815 12.489346,14.21894 13.4537921,14.4042224 C14.356619,14.5773935 15.2981173,14.1515839 15.7596236,13.3554218 C16.224742,12.5535228 16.1272137,11.5172585 15.5163341,10.8186247 C15.1969769,10.4535843 14.7569311,10.2030706 14.2807637,10.1110668 C13.8396555,10.0260748 13.3543515,9.83250568 13.1138243,9.41689507 C12.8703224,8.99682238 12.8053035,8.47284703 12.9888861,8.01601533 C13.1926543,7.50925085 13.1935042,6.93385538 12.9965354,6.42475363 C12.658055,5.55082395 11.7788133,4.9762784 10.8417771,5.02281149 C9.23861655,5.1029164 8.25377238,6.9136698 9.05737122,8.30158826" id="Shape" fill="#3873A0"></path>
                    <path d="M45.6510783,7.03690812 L44.3842733,7.03690812 C44.3411399,7.03690812 44.3060807,7.07132986 44.3060807,7.11488823 L44.3060807,7.10107704 L42.583719,12.2413899 C42.5728825,12.2713496 42.5439852,12.2934475 42.5108384,12.2934475 L42.4810912,12.2934475 C42.4481568,12.2934475 42.4177722,12.2713496 42.4077856,12.2413899 L40.6864863,7.10213944 L40.6864863,7.11531319 C40.6864863,7.07175481 40.6514271,7.03733308 40.6085061,7.03733308 L39.3408513,7.03733308 C39.2977179,7.03733308 39.2630836,7.07175481 39.2630836,7.11531319 L39.2630836,7.12551222 L39.2675457,7.13868597 L39.2715828,7.14888501 L39.2881563,7.1932933 L41.9097328,14.3387786 C41.9243939,14.3789373 41.9507414,14.3923236 41.9964246,14.3897738 L42.9974172,14.3897738 L42.9842435,14.3850992 C43.0246147,14.3997603 43.0692354,14.3791498 43.084109,14.3387786 L45.706323,7.19286834 L45.7294833,7.12869942 L45.7294833,7.11467575 C45.7292709,7.07132986 45.6944242,7.03690812 45.6510783,7.03690812 Z" id="Shape" fill="#1E5073"></path>
                    <path d="M31.1811996,8.1577394 L31.1839618,8.15391476 C31.1960732,8.13819125 31.2009602,8.1197055 31.2001103,8.10185719 L31.2001103,7.11467575 C31.2001103,7.07111738 31.1652636,7.03669564 31.1217052,7.03669564 L26.0404617,7.03669564 C25.9975408,7.03669564 25.9624816,7.07111738 25.9624816,7.11467575 L25.9624816,8.13840373 C25.9624816,8.18153714 25.9975408,8.21638384 26.0404617,8.21638384 L29.4388647,8.21638384 C29.4683994,8.21638384 29.4941094,8.23253231 29.5074957,8.25866733 C29.520457,8.28458988 29.5170573,8.3160369 29.4998464,8.33962216 L25.7778366,13.2629931 C25.7765618,13.2646929 25.7757118,13.2666052 25.774437,13.2674552 L25.7653003,13.2799915 L25.7670002,13.2789291 C25.7593509,13.2908279 25.7542514,13.3037892 25.7542514,13.3188753 L25.7542514,14.3117937 C25.7542514,14.3551396 25.7893105,14.3895613 25.8322315,14.3895613 L31.1214927,14.3895613 C31.1650511,14.3895613 31.1998978,14.3551396 31.1998978,14.3117937 L31.1998978,13.1994616 C31.1998978,13.1563282 31.1650511,13.1219064 31.1214927,13.1219064 L27.5142221,13.1219064 C27.4844749,13.1219064 27.45749,13.1046956 27.4447412,13.0781356 C27.4319924,13.0524255 27.4356045,13.021191 27.4528154,12.9980307 L31.1811996,8.1577394 Z" id="Shape" fill="#1E5073"></path>
                    <path d="M21.146838,6.94702914 C20.1254473,6.94957889 19.3745435,7.1932933 18.8231582,7.83179529 C18.8099845,7.84709384 18.783212,7.87322886 18.7700383,7.88958981 C18.7698258,7.88980229 18.7819371,7.87854086 18.7817247,7.87939078 C18.7776875,7.88257797 18.7734379,7.88512773 18.7700383,7.88958981 C18.7436908,7.92379907 18.7504901,7.97266944 18.7844869,7.99859198 L18.7846994,7.99922942 C18.7846994,7.99922942 18.7844869,7.99922942 18.7844869,7.99901694 L19.6569292,8.66535379 L19.7189733,8.71294928 L19.7293848,8.72081104 L19.7191858,8.71294928 C19.7536075,8.7390843 19.8024779,8.73249743 19.8284005,8.69850065 C20.0604285,8.35534567 20.4743392,8.2125592 21.2214184,8.21659632 C21.7674917,8.21702128 22.164829,8.27715308 22.4363783,8.44140001 C22.7115397,8.60585943 22.8411524,8.88463301 22.8388152,9.25456045 L22.8388152,10.0392486 C22.8388152,10.0596467 22.830316,10.0794073 22.8160798,10.0936434 C22.8022686,10.1072421 22.7822955,10.1157413 22.761685,10.1157413 L20.6738578,10.1157413 C19.094495,10.1204159 18.3129941,11.0982482 18.3076821,12.261788 C18.3119317,13.5222185 19.2394063,14.4749782 20.8818756,14.4800777 C21.896042,14.477528 22.3715719,14.2512369 22.666069,13.7621083 C22.6805177,13.7393729 22.7055903,13.7251368 22.7325752,13.7251368 L22.761685,13.7251368 C22.782508,13.7251368 22.8022686,13.7327861 22.8160798,13.7474472 C22.830316,13.7612584 22.8388152,13.7812315 22.8388152,13.801417 L22.8388152,14.3126436 C22.8388152,14.3559895 22.8738743,14.3904112 22.9167953,14.3904112 L24.1168815,14.3904112 C24.160015,14.3904112 24.1950741,14.3559895 24.1950741,14.3126436 L24.1950741,9.34380199 C24.1886997,7.54091035 22.9890384,6.95871553 21.146838,6.94702914 Z M22.8388152,11.8317287 C22.8388152,12.4215728 22.7304504,12.7832135 22.4325537,12.9852819 C22.1376316,13.1824632 21.7043852,13.2092357 21.0737449,13.2113605 C20.5518944,13.2109355 20.1800546,13.0983212 19.9329406,12.9098515 C19.6877388,12.7226568 19.5755494,12.4589693 19.5763993,12.186995 C19.5757619,11.8939853 19.6915634,11.639222 19.9255038,11.4686006 C20.1592316,11.2971294 20.5019616,11.2076754 20.9543313,11.2072504 L22.7614725,11.2072504 C22.7822955,11.2072504 22.8020561,11.2159621 22.8158673,11.2301982 C22.8301035,11.2437969 22.8386027,11.2635576 22.8386027,11.2841681 L22.8386027,11.8317287 L22.8388152,11.8317287 Z" id="Shape" fill="#1E5073"></path>
                    <path d="M35.1309877,6.94702914 C34.109597,6.94957889 33.3584807,7.1932933 32.8075204,7.83179529 C32.7941342,7.84709384 32.7675742,7.87322886 32.754188,7.88958981 C32.754188,7.88980229 32.7662993,7.87854086 32.7660869,7.87939078 C32.7618373,7.88257797 32.7575877,7.88512773 32.754188,7.88958981 C32.728053,7.92379907 32.7350648,7.97266944 32.7686366,7.99859198 L32.7690616,7.99922942 C32.7690616,7.99922942 32.7690616,7.99922942 32.7690616,7.99901694 L33.6410789,8.66535379 L33.7031231,8.71294928 L33.7135346,8.72081104 L33.7033355,8.71294928 C33.7375448,8.7390843 33.7866276,8.73249743 33.8127627,8.69850065 C34.0447907,8.35534567 34.4587015,8.2125592 35.2055682,8.21659632 C35.7516414,8.21702128 36.1487663,8.27715308 36.420528,8.44140001 C36.6961144,8.60585943 36.8253022,8.88463301 36.8229649,9.25456045 L36.8229649,10.0392486 C36.8229649,10.0596467 36.8146782,10.0794073 36.8002296,10.0936434 C36.7866308,10.1072421 36.7666577,10.1157413 36.7460472,10.1157413 L34.6580076,10.1157413 C33.0788572,10.1204159 32.2971438,11.0982482 32.2916193,12.261788 C32.2960814,13.5222185 33.2233435,14.4749782 34.8658129,14.4800777 C35.8799793,14.477528 36.3557217,14.2512369 36.6502188,13.7621083 C36.6642424,13.7393729 36.6893151,13.7251368 36.7165125,13.7251368 L36.7458347,13.7251368 C36.7664453,13.7251368 36.7862059,13.7327861 36.8000171,13.7474472 C36.8144657,13.7612584 36.8227524,13.7812315 36.8227524,13.801417 L36.8227524,14.3126436 C36.8227524,14.3559895 36.8580241,14.3904112 36.900945,14.3904112 L38.1008188,14.3904112 C38.1439522,14.3904112 38.1787989,14.3559895 38.1787989,14.3126436 L38.1787989,9.34380199 C38.1728495,7.54091035 36.9731882,6.95871553 35.1309877,6.94702914 Z M36.8229649,11.8317287 C36.8229649,12.4215728 36.7146002,12.7832135 36.4167034,12.9852819 C36.1219938,13.1824632 35.6887474,13.2092357 35.0578947,13.2113605 C34.5362566,13.2109355 34.1644168,13.0983212 33.9173028,12.9098515 C33.672101,12.7226568 33.5596992,12.4589693 33.5605491,12.186995 C33.5596992,11.8939853 33.6759256,11.639222 33.9096535,11.4686006 C34.1433813,11.2971294 34.4863238,11.2076754 34.938481,11.2072504 L36.7460472,11.2072504 C36.7666577,11.2072504 36.7864184,11.2159621 36.8002296,11.2301982 C36.8146782,11.2437969 36.8229649,11.2635576 36.8229649,11.2841681 L36.8229649,11.8317287 Z" id="Shape" fill="#1E5073"></path>
                    <path d="M49.4712537,6.94702914 C48.0535881,6.95467841 46.4602016,7.85006855 46.4525523,10.736395 C46.4625389,13.7801691 48.1904251,14.4690288 49.7075313,14.4798653 C50.6269317,14.4794403 51.499799,14.1789938 52.2005576,13.4631491 C52.2158561,13.4474256 52.2305172,13.4317021 52.2453908,13.4151287 C52.2487905,13.4127914 52.2524027,13.4108791 52.2553774,13.4074794 C52.2575022,13.4055671 52.2579271,13.4030173 52.2594145,13.401105 C52.2823623,13.3683831 52.2779002,13.3241873 52.2464532,13.2974148 L51.3831475,12.562022 L51.378048,12.5577724 C51.3455386,12.5293001 51.2962433,12.5331247 51.2681959,12.5656342 L51.2741454,12.5586223 C50.8249629,12.9714707 50.2351188,13.2100856 49.6779966,13.210723 C49.1448847,13.211148 48.6755166,13.0500883 48.3402234,12.7243566 C48.0047177,12.398625 47.8094487,11.9131085 47.8094487,11.2835307 C47.8094487,11.2633451 47.8177354,11.2435845 47.832609,11.2299857 C47.8464202,11.2153246 47.8659684,11.2070379 47.8867914,11.2070379 L52.4113376,11.2070379 C52.4542585,11.2070379 52.4891052,11.1726162 52.4891052,11.1290578 L52.4891052,10.0392486 C52.4871929,8.14137845 51.0907752,6.95000385 49.4712537,6.94702914 Z M51.1105359,10.0921561 C51.0960872,10.1072421 51.0761141,10.1155289 51.0552911,10.1155289 L47.8870039,10.1155289 C47.8655434,10.1155289 47.8468452,10.1072421 47.8315466,10.0927935 C47.817523,10.0777074 47.8094487,10.0583718 47.8094487,10.0373363 C47.8338839,8.86763462 48.5439916,8.21128432 49.4710412,8.21659632 C50.397241,8.2114968 51.09375,8.8678471 51.1307215,10.0362739 C51.1322088,10.0570969 51.1249845,10.0772825 51.1105359,10.0921561 Z" id="Shape" fill="#1E5073"></path>
                    <path d="M56.4467552,6.94702914 C55.4253645,6.94957889 54.6742481,7.1932933 54.1235003,7.83179529 C54.1101141,7.84709384 54.0835541,7.87322886 54.0701679,7.88958981 C54.0701679,7.88980229 54.0824917,7.87854086 54.0816418,7.87939078 C54.0778172,7.88257797 54.0733551,7.88512773 54.0701679,7.88958981 C54.0438204,7.92379907 54.0508322,7.97266944 54.084829,7.99859198 L54.0850415,7.99922942 C54.0850415,7.99922942 54.0850415,7.99922942 54.0850415,7.99901694 L54.9570588,8.66535379 L55.0188905,8.71294928 L55.029727,8.72081104 L55.0193154,8.71294928 C55.0535247,8.7390843 55.1023951,8.73249743 55.1285301,8.69850065 C55.3609831,8.35534567 55.7746814,8.2125592 56.5217606,8.21659632 C57.0674088,8.21702128 57.4649587,8.27715308 57.7365079,8.44140001 C58.0116694,8.60585943 58.1414946,8.88463301 58.1389448,9.25456045 L58.1389448,10.0392486 C58.1389448,10.0596467 58.1306581,10.0794073 58.1164219,10.0936434 C58.1023983,10.1072421 58.0824252,10.1157413 58.0620271,10.1157413 L55.973775,10.1157413 C54.3946246,10.1204159 53.6131237,11.0982482 53.6075992,12.261788 C53.6120613,13.5222185 54.5395359,14.4749782 56.1815803,14.4800777 C57.1957467,14.477528 57.6714891,14.2512369 57.9659862,13.7621083 C57.9804348,13.7393729 58.0055074,13.7251368 58.0322799,13.7251368 L58.0618146,13.7251368 C58.0822127,13.7251368 58.1019733,13.7327861 58.1162095,13.7474472 C58.1304456,13.7612584 58.1387323,13.7812315 58.1387323,13.801417 L58.1387323,14.3126436 C58.1387323,14.3559895 58.1733665,14.3904112 58.2169249,14.3904112 L59.4170112,14.3904112 C59.4601446,14.3904112 59.4947788,14.3559895 59.4947788,14.3126436 L59.4947788,9.34380199 C59.4886169,7.54091035 58.2887431,6.95871553 56.4467552,6.94702914 Z M58.1387323,11.8317287 C58.1387323,12.4215728 58.0303676,12.7832135 57.7326833,12.9852819 C57.4377612,13.1824632 57.0043023,13.2092357 56.3736621,13.2113605 C55.8518115,13.2109355 55.4801843,13.0983212 55.2330702,12.9098515 C54.9878684,12.7226568 54.8756791,12.4589693 54.876104,12.186995 C54.8756791,11.8939853 54.9914806,11.639222 55.2254209,11.4686006 C55.4593612,11.2971294 55.8020913,11.2076754 56.2544609,11.2072504 L58.0618146,11.2072504 C58.0822127,11.2072504 58.1019733,11.2159621 58.1162095,11.2301982 C58.1304456,11.2437969 58.1387323,11.2635576 58.1387323,11.2841681 L58.1387323,11.8317287 Z" id="Shape" fill="#1E5073"></path>
                </g>
            </g>
        </g>
    </g>
</svg>