<?xml version="1.0" encoding="UTF-8"?>
<svg width="193px" height="86px" viewBox="0 0 193 86" version="1.1" xmlns="http://www.w3.org/2000/svg" xmlns:xlink="http://www.w3.org/1999/xlink">
    <!-- Generator: Sketch 49.3 (51167) - http://www.bohemiancoding.com/sketch -->
    <title>Group 3</title>
    <desc>Created with Sketch.</desc>
    <defs>
        <rect id="path-1" x="0" y="0" width="192.47092" height="86" rx="3"></rect>
    </defs>
    <g id="__Wireframes" stroke="none" stroke-width="1" fill="none" fill-rule="evenodd">
        <g id="Brand-Guidelines-&gt;-Design-&gt;-Logo" transform="translate(-281.000000, -2690.000000)">
            <g id="Group-11" transform="translate(281.000000, 2688.000000)">
                <g id="Group-3" transform="translate(0.000000, 2.000000)">
                    <g id="Group">
                        <g id="Rectangle-2-Copy-2">
                            <use fill="#FAFAFA" fill-rule="evenodd" xlink:href="#path-1"></use>
                            <rect stroke="#FFFFFF" stroke-width="1" x="0.5" y="0.5" width="191.47092" height="85" rx="3"></rect>
                        </g>
                        <g id="azavea_rgb_solo-copy-2" transform="translate(96.961895, 36.764762) rotate(-11.000000) translate(-96.961895, -36.764762) translate(15.961895, 21.764762)" fill-rule="nonzero">
                            <path d="M21.8918263,20.7582033 C20.5470884,20.7582033 19.2271888,21.1108912 18.1799338,21.750987 C17.7403523,22.0186793 17.3417831,22.4204368 17.0154185,22.6806811 C16.4701296,23.0938298 15.7792762,23.3759801 15.0491436,23.5529813 C14.0642733,23.7913194 13.1504523,23.6879227 12.2112152,23.361084 C10.9300174,22.9159524 10.2899961,21.9503323 9.09659894,21.4035565 C6.89811422,20.3950005 4.01108672,20.6039845 2.09622154,21.8977577 C0.26338075,23.1358895 -0.393392013,25.1639545 0.495590645,26.9024212 C1.37417584,28.6194199 3.61309513,29.783071 6.04147921,29.783071 C7.38217365,29.7817566 8.70034027,29.4286306 9.74701771,28.7937923 C10.2518721,28.4871072 10.5788143,28.072206 11.0484329,27.7519391 C11.6150943,27.3650777 12.3123016,27.1065859 13.041279,26.9466715 C14.0613851,26.7219151 15.0780255,26.912498 16.0028216,27.2919114 C17.1661816,27.7707783 17.7680789,28.6811951 18.948768,29.1920449 C21.1853768,30.1585412 24.064895,29.9013638 25.9456796,28.5716647 C27.7068935,27.326523 28.3076355,25.3448988 27.4348266,23.6414818 C26.5556638,21.9236069 24.3225209,20.7577652 21.8918263,20.7582033" id="Shape" fill="#1E5073"></path>
                            <path d="M16.7254449,2.21470489 C15.9681634,3.20705041 15.7417299,4.39698878 16.0946658,5.51157024 C16.2679568,6.0574698 16.5637067,6.43819751 16.6128058,6.98935453 C16.6572838,7.48311762 16.6203151,8.20777081 16.2847082,8.6467687 C15.7290219,9.37186001 14.9879142,9.93353195 13.9383485,10.2629994 C13.3393394,10.4518299 12.6762127,10.455773 12.0592968,10.6113061 C11.416965,10.7734111 10.8110242,11.0183211 10.2772881,11.3342068 C8.25671539,12.5298408 7.48672587,14.6407109 8.38206253,16.4576013 C9.25718191,18.2341846 11.5769703,19.4337616 14.0792919,19.3903876 C16.6630602,19.3461373 18.9736064,17.9984751 19.6742795,16.1079802 C19.8666325,15.5879298 19.9336383,15.0420303 19.8724089,14.5031407 C19.8036701,13.8967803 19.4438025,13.3938167 19.2837972,12.8141817 C19.026749,11.8879926 19.3040145,11.0108731 19.9099552,10.2143679 C20.1820221,9.85510818 20.841683,9.52695507 21.2991712,9.32147602 C21.9293726,9.03713508 22.4642641,8.9889417 23.1458752,8.87634444 C24.4363153,8.6629792 25.6164268,8.11970836 26.4586209,7.34729991 C28.0650281,5.87652556 28.2596916,3.73893008 26.9449908,2.11130819 C24.6373328,-0.748749884 18.9291284,-0.692232192 16.7254449,2.21470489" id="Shape" fill="#4CA4DB"></path>
                            <path d="M24.6228919,17.1174125 C25.2952608,18.001542 26.3575345,18.6928979 27.6121611,19.0600438 C28.1395432,19.2151389 28.7882291,19.2738472 29.2561147,19.3605953 C29.959676,19.5042992 30.5956539,19.791707 31.1409428,20.1544717 C31.9571432,20.6964282 32.3320294,21.3452863 32.4354263,22.1663263 C32.5145625,22.7963452 32.3141226,23.2844127 32.0593849,23.8675526 C31.8213986,24.4147665 31.7208899,24.9957158 31.7676784,25.5718458 C31.9340378,27.5999109 33.9528775,29.3186621 36.5747699,29.7007041 C39.0291476,30.0577733 41.5886551,29.1797775 42.8432817,27.5381357 C44.1077282,25.8846646 43.842593,23.7479454 42.1818879,22.3074014 C41.3137001,21.5547085 40.1174148,21.0381631 38.8229313,20.8484564 C37.6237578,20.6732077 36.3044359,20.2740789 35.6505514,19.417113 C34.9885799,18.5509465 34.8118231,17.4705385 35.3109011,16.528577 C35.8648545,15.4836569 35.8671651,14.2972235 35.331696,13.247484 C34.411521,11.4454897 32.0212609,10.2608088 29.4738837,10.3567575 C25.1156159,10.5219293 22.4382704,14.2556019 24.6228919,17.1174125" id="Shape" fill="#3873A0"></path>
                            <path d="M124.104615,14.5097125 L120.660745,14.5097125 C120.543485,14.5097125 120.448175,14.5806882 120.448175,14.6705031 L120.448175,14.6420252 L115.765853,25.241064 C115.736394,25.3028391 115.657835,25.3484038 115.567724,25.3484038 L115.486855,25.3484038 C115.397321,25.3484038 115.314719,25.3028391 115.28757,25.241064 L110.608137,14.6442158 L110.608137,14.6713794 C110.608137,14.5815644 110.512826,14.5105887 110.396144,14.5105887 L106.949964,14.5105887 C106.832704,14.5105887 106.738549,14.5815644 106.738549,14.6713794 L106.738549,14.6924092 L106.75068,14.7195728 L106.761655,14.7406026 L106.80671,14.83217 L113.93359,29.5657627 C113.973447,29.6485677 114.045074,29.6761693 114.169266,29.6709119 L116.890512,29.6709119 L116.854698,29.6612732 C116.964449,29.6915036 117.085753,29.6490058 117.126187,29.5657627 L124.2548,14.8312938 L124.317763,14.698981 L124.317763,14.670065 C124.317185,14.5806882 124.222452,14.5097125 124.104615,14.5097125 Z" id="Shape" fill="#1E5073"></path>
                            <path d="M84.7675652,16.8208041 L84.7750745,16.812918 C84.8079998,16.780497 84.8212854,16.7423804 84.8189749,16.7055782 L84.8189749,14.670065 C84.8189749,14.5802501 84.7242425,14.5092744 84.605827,14.5092744 L70.7922264,14.5092744 C70.6755439,14.5092744 70.5802338,14.5802501 70.5802338,14.670065 L70.5802338,16.7809351 C70.5802338,16.8698738 70.6755439,16.9417257 70.7922264,16.9417257 L80.0309455,16.9417257 C80.111237,16.9417257 80.181131,16.975023 80.2175221,17.0289119 C80.2527579,17.0823628 80.2435158,17.1472048 80.1967272,17.1958363 L70.0782677,27.3475528 C70.0748018,27.3510578 70.0724913,27.3550009 70.0690255,27.3567534 L70.0441871,27.3826025 L70.0488082,27.3804119 C70.0280133,27.4049467 70.01415,27.4316722 70.01415,27.4627788 L70.01415,29.5101212 C70.01415,29.599498 70.10946,29.6704737 70.2261426,29.6704737 L84.6052494,29.6704737 C84.7236649,29.6704737 84.8183973,29.599498 84.8183973,29.5101212 L84.8183973,27.2165544 C84.8183973,27.1276157 84.7236649,27.05664 84.6052494,27.05664 L74.7987136,27.05664 C74.7178445,27.05664 74.6444846,27.0211522 74.6098264,26.966387 C74.5751682,26.9133743 74.5849881,26.8489704 74.6317766,26.8012151 L84.7675652,16.8208041 Z" id="Shape" fill="#1E5073"></path>
                            <path d="M57.488679,14.324387 C54.71198,14.3296445 52.6706124,14.83217 51.1716456,16.1487255 C51.1358321,16.1802703 51.0630499,16.2341593 51.0272365,16.2678946 C51.0266588,16.2683328 51.0595841,16.2451123 51.0590065,16.2468648 C51.0480314,16.2534366 51.0364786,16.2586941 51.0272365,16.2678946 C50.9556095,16.3384322 50.9740939,16.4392002 51.0665157,16.492651 L51.0670934,16.4939654 C51.0670934,16.4939654 51.0665157,16.4939654 51.0665157,16.4935273 L53.4382914,17.8674767 L53.6069613,17.965616 L53.6352655,17.9818265 L53.6075389,17.965616 C53.7011161,18.019505 53.8339725,18.0059232 53.9044441,17.9358237 C54.5352232,17.2282573 55.6604593,16.9338395 57.6914294,16.9421638 C59.1759553,16.9430401 60.2561357,17.0670285 60.9943552,17.4056965 C61.7423945,17.7448027 62.0947528,18.3196183 62.0883988,19.0823881 L62.0883988,20.7003713 C62.0883988,20.7424309 62.0652934,20.7831763 62.0265917,20.8125304 C61.9890453,20.8405702 61.9347475,20.8580951 61.8787168,20.8580951 L56.20286,20.8580951 C51.9092875,20.8677337 49.7847402,22.8839695 49.7702993,25.2831236 C49.781852,27.8820612 52.3032356,29.8465986 56.7683662,29.8571136 C59.5254254,29.8518561 60.8181761,29.3852565 61.6187803,28.3767005 C61.6580596,28.3298215 61.7262207,28.3004674 61.7995806,28.3004674 L61.8787168,28.3004674 C61.9353252,28.3004674 61.9890453,28.3162397 62.0265917,28.3464701 C62.0652934,28.374948 62.0883988,28.4161315 62.0883988,28.457753 L62.0883988,29.5118737 C62.0883988,29.6012505 62.1837089,29.6722262 62.3003915,29.6722262 L65.5628827,29.6722262 C65.6801429,29.6722262 65.775453,29.6012505 65.775453,29.5118737 L65.775453,19.2663991 C65.7581239,15.548937 62.4967879,14.3484837 57.488679,14.324387 Z M62.0883988,24.3963654 C62.0883988,25.6125911 61.7938042,26.3582741 60.9839577,26.7749278 C60.1821982,27.1815047 59.0043973,27.236708 57.289972,27.2410892 C55.8712966,27.240213 54.8604326,27.0080085 54.1886413,26.6193946 C53.5220487,26.2334095 53.2170566,25.6897005 53.2193672,25.1289048 C53.2176343,24.5247351 53.5324462,23.9994272 54.168424,23.6476155 C54.8038242,23.2940514 55.735552,23.1096022 56.9653402,23.1087259 L61.8781391,23.1087259 C61.9347475,23.1087259 61.9884677,23.1266889 62.0260141,23.1560431 C62.0647157,23.1840828 62.0878212,23.2248282 62.0878212,23.267326 L62.0878212,24.3963654 L62.0883988,24.3963654 Z" id="Shape" fill="#1E5073"></path>
                            <path d="M95.5052512,14.324387 C92.7285522,14.3296445 90.686607,14.83217 89.1887954,16.1487255 C89.1524043,16.1802703 89.0801998,16.2341593 89.0438087,16.2678946 C89.0438087,16.2683328 89.0767339,16.2451123 89.0761563,16.2468648 C89.0646036,16.2534366 89.0530508,16.2586941 89.0438087,16.2678946 C88.9727594,16.3384322 88.9918214,16.4392002 89.0830879,16.492651 L89.0842432,16.4939654 C89.0842432,16.4939654 89.0842432,16.4939654 89.0842432,16.4935273 L91.4548636,17.8674767 L91.6235335,17.965616 L91.6518377,17.9818265 L91.6241112,17.965616 C91.7171106,18.019505 91.8505447,18.0059232 91.921594,17.9358237 C92.5523731,17.2282573 93.6776091,16.9338395 95.7080016,16.9421638 C97.1925275,16.9430401 98.2721303,17.0670285 99.0109274,17.4056965 C99.760122,17.7448027 100.111325,18.3196183 100.104971,19.0823881 L100.104971,20.7003713 C100.104971,20.7424309 100.082443,20.7831763 100.043164,20.8125304 C100.006195,20.8405702 99.9518974,20.8580951 99.8958666,20.8580951 L94.2194322,20.8580951 C89.9264373,20.8677337 87.8013124,22.8839695 87.7862939,25.2831236 C87.7984243,27.8820612 90.3192302,29.8465986 94.7843607,29.8571136 C97.54142,29.8518561 98.8347483,29.3852565 99.6353525,28.3767005 C99.6734765,28.3298215 99.7416377,28.3004674 99.8155751,28.3004674 L99.895289,28.3004674 C99.9513197,28.3004674 100.00504,28.3162397 100.042586,28.3464701 C100.081866,28.374948 100.104393,28.4161315 100.104393,28.457753 L100.104393,29.5118737 C100.104393,29.6012505 100.200281,29.6722262 100.316964,29.6722262 L103.578877,29.6722262 C103.696138,29.6722262 103.79087,29.6012505 103.79087,29.5118737 L103.79087,19.2663991 C103.774696,15.548937 100.51336,14.3484837 95.5052512,14.324387 Z M100.104971,24.3963654 C100.104971,25.6125911 99.8103764,26.3582741 99.00053,26.7749278 C98.1993481,27.1815047 97.0215471,27.236708 95.3065442,27.2410892 C93.8884464,27.240213 92.8775825,27.0080085 92.2057912,26.6193946 C91.5391986,26.2334095 91.2336288,25.6897005 91.2359394,25.1289048 C91.2336288,24.5247351 91.549596,23.9994272 92.1849962,23.6476155 C92.8203965,23.2940514 93.7527019,23.1096022 94.9819124,23.1087259 L99.8958666,23.1087259 C99.9518974,23.1087259 100.005618,23.1266889 100.043164,23.1560431 C100.082443,23.1840828 100.104971,23.2248282 100.104971,23.267326 L100.104971,24.3963654 Z" id="Shape" fill="#1E5073"></path>
                            <path d="M134.489942,14.324387 C130.635951,14.3401594 126.304255,16.186404 126.28346,22.1378484 C126.310609,28.4139409 131.007949,29.8343312 135.132274,29.8566754 C137.631707,29.8557992 140.004638,29.2362952 141.909684,27.7602634 C141.951274,27.7278424 141.991131,27.6954214 142.031565,27.6612479 C142.040807,27.6564286 142.050627,27.6524855 142.058714,27.6454755 C142.06449,27.6415324 142.065646,27.636275 142.069689,27.6323319 C142.132074,27.5648611 142.119943,27.4737318 142.034453,27.4185285 L139.687516,25.9021895 L139.673653,25.8934271 C139.585274,25.8347188 139.451263,25.842605 139.375015,25.9096376 L139.391188,25.8951796 C138.170065,26.7464499 136.566546,27.2384605 135.051983,27.2397749 C133.602692,27.2406511 132.326693,26.9085549 131.415183,26.2369144 C130.503095,25.565274 129.972247,24.564166 129.972247,23.2660116 C129.972247,23.22439 129.994775,23.1836447 130.035209,23.1556049 C130.072756,23.1253745 130.125898,23.1082878 130.182506,23.1082878 L142.482699,23.1082878 C142.599382,23.1082878 142.694114,23.0373121 142.694114,22.9474972 L142.694114,20.7003713 C142.688915,16.7870688 138.892688,14.3305207 134.489942,14.324387 Z M138.946408,20.8094636 C138.907129,20.8405702 138.852831,20.8576569 138.796223,20.8576569 L130.183084,20.8576569 C130.124743,20.8576569 130.073911,20.8405702 130.032321,20.8107779 C129.994197,20.7796713 129.972247,20.7398022 129.972247,20.6964282 C130.038675,18.2845685 131.969136,16.9312108 134.489365,16.9421638 C137.007282,16.9316489 138.900775,18.2850067 139.001284,20.6942376 C139.005327,20.7371735 138.985688,20.778795 138.946408,20.8094636 Z" id="Shape" fill="#1E5073"></path>
                            <path d="M153.453173,14.324387 C150.676474,14.3296445 148.634529,14.83217 147.137295,16.1487255 C147.100904,16.1802703 147.028699,16.2341593 146.992308,16.2678946 C146.992308,16.2683328 147.025811,16.2451123 147.0235,16.2468648 C147.013103,16.2534366 147.000972,16.2586941 146.992308,16.2678946 C146.920681,16.3384322 146.939743,16.4392002 147.032165,16.492651 L147.032742,16.4939654 C147.032742,16.4939654 147.032742,16.4939654 147.032742,16.4935273 L149.403363,17.8674767 L149.571455,17.965616 L149.600915,17.9818265 L149.57261,17.965616 C149.66561,18.019505 149.798466,18.0059232 149.869516,17.9358237 C150.50145,17.2282573 151.626108,16.9338395 153.657078,16.9421638 C155.140449,16.9430401 156.221207,17.0670285 156.959427,17.4056965 C157.707466,17.7448027 158.060402,18.3196183 158.05347,19.0823881 L158.05347,20.7003713 C158.05347,20.7424309 158.030942,20.7831763 157.992241,20.8125304 C157.954117,20.8405702 157.899819,20.8580951 157.844366,20.8580951 L152.167354,20.8580951 C147.874359,20.8677337 145.749812,22.8839695 145.734793,25.2831236 C145.746923,27.8820612 148.268307,29.8465986 152.732282,29.8571136 C155.489342,29.8518561 156.78267,29.3852565 157.583274,28.3767005 C157.622553,28.3298215 157.690714,28.3004674 157.763497,28.3004674 L157.843788,28.3004674 C157.899241,28.3004674 157.952961,28.3162397 157.991663,28.3464701 C158.030365,28.374948 158.052893,28.4161315 158.052893,28.457753 L158.052893,29.5118737 C158.052893,29.6012505 158.147047,29.6722262 158.265463,29.6722262 L161.527954,29.6722262 C161.645214,29.6722262 161.739369,29.6012505 161.739369,29.5118737 L161.739369,19.2663991 C161.722618,15.548937 158.460704,14.3484837 153.453173,14.324387 Z M158.052893,24.3963654 C158.052893,25.6125911 157.758298,26.3582741 156.949029,26.7749278 C156.14727,27.1815047 154.968891,27.236708 153.254466,27.2410892 C151.83579,27.240213 150.825504,27.0080085 150.153713,26.6193946 C149.48712,26.2334095 149.182128,25.6897005 149.183283,25.1289048 C149.182128,24.5247351 149.49694,23.9994272 150.132918,23.6476155 C150.768896,23.2940514 151.700623,23.1096022 152.930412,23.1087259 L157.843788,23.1087259 C157.899241,23.1087259 157.952961,23.1266889 157.991663,23.1560431 C158.030365,23.1840828 158.052893,23.2248282 158.052893,23.267326 L158.052893,24.3963654 Z" id="Shape" fill="#1E5073"></path>
                        </g>
                    </g>
                </g>
            </g>
        </g>
    </g>
</svg>