<svg xmlns="http://www.w3.org/2000/svg" viewBox="0 0 317.76 42.11"><defs><style>.cls-1{fill:#2a3644;}.cls-2,.cls-3{fill:#169aa4;}.cls-2{opacity:0.5;}</style></defs><title>rastervision_RGB_lightbg</title><g id="Layer_2" data-name="Layer 2"><g id="Layer_1-2" data-name="Layer 1"><g id="RV_logo_dark"><path class="cls-1" d="M29.17,42.11c-8.39,0-16.78-6-28.73-17.92a1.49,1.49,0,0,1,0-2.12C11.49,11,20.15,4.17,29.17,4.17S46.85,11,57.9,22.07a1.49,1.49,0,0,1,0,2.12C46,36.14,37.56,42.11,29.17,42.11Zm-25.54-19c21.47,21.22,29.62,21.22,51.08,0C43,11.52,36,7.17,29.17,7.17S15.39,11.52,3.63,23.13Z"/><rect class="cls-2" x="26.57" y="10.52" width="5.04" height="5.04" rx="1.44" ry="1.44" transform="translate(-0.05 25.98) rotate(-48.09)"/><rect class="cls-2" x="16.81" y="20.28" width="5.04" height="5.04" rx="1.44" ry="1.44" transform="translate(21.78 -7) rotate(45)"/><rect class="cls-2" x="26.73" y="30.19" width="5.04" height="5.04" rx="1.44" ry="1.44" transform="translate(31.7 -11.1) rotate(45)"/><rect class="cls-3" x="21.77" y="25.23" width="5.04" height="5.04" rx="1.44" ry="1.44" transform="translate(26.74 -9.05) rotate(45)"/><rect class="cls-1" x="26.62" y="20.39" width="5.04" height="5.04" rx="1.44" ry="1.44" transform="translate(24.73 -13.9) rotate(45)"/><rect class="cls-3" x="31.57" y="15.44" width="5.04" height="5.04" rx="1.44" ry="1.44" transform="translate(22.69 -18.84) rotate(45)"/><rect class="cls-3" x="31.58" y="25.35" width="5.04" height="5.04" rx="1.44" ry="1.44" transform="translate(29.69 -15.95) rotate(45)"/><rect class="cls-3" x="21.69" y="15.4" width="5.04" height="5.04" rx="1.44" ry="1.44" transform="translate(19.76 -11.87) rotate(45)"/><rect class="cls-2" x="36.49" y="20.44" width="5.04" height="5.04" rx="1.44" ry="1.44" transform="translate(27.66 -20.86) rotate(45)"/><path class="cls-1" d="M74.19,35.67c0,1-.58,1.57-1.74,1.57s-1.8-.53-1.8-1.57V12.88c0-1.05.52-1.57,1.74-1.57s1.69.58,1.63,1.57v3.59a8.86,8.86,0,0,1,8.46-5.28c1.34,0,1.74.47,1.74,1.63s-.63,1.56-2.08,1.62c-4,.12-6.33,1.68-8,5.34Z"/><path class="cls-1" d="M96,14.15a10.33,10.33,0,0,0-5.63,1.57c-.87.58-1.27,1-1.8,1A1.68,1.68,0,0,1,87.07,15c0-.58.46-1.16,1.68-1.91a13.84,13.84,0,0,1,7.54-2c3.65,0,6.26,1.1,7.71,3.19,1,1.39,1.45,3.42,1.45,6.26V35.67c0,1-.46,1.57-1.68,1.57s-1.62-.41-1.62-1.22v-1.8a10.7,10.7,0,0,1-8.07,3.19c-5.33,0-8.29-2.9-8.29-7.08,0-5.27,4.87-7.88,16.18-8.75v-.93C102,16.36,100.35,14.15,96,14.15Zm-6.38,16c0,2.44,1.68,4.35,5.45,4.35a10.22,10.22,0,0,0,6.9-2.72V24C93.33,24.88,89.62,26.45,89.62,30.1Z"/><path class="cls-1" d="M111.18,18c0-4.12,3.54-6.9,8.88-6.9a12.52,12.52,0,0,1,7,1.91c1.16.76,1.63,1.45,1.63,2.09a1.58,1.58,0,0,1-1.51,1.62c-.46,0-.87-.34-1.91-1a9.91,9.91,0,0,0-5.4-1.57c-3.36,0-5.22,1.57-5.22,3.66,0,5.68,14.39,3.59,14.39,12.29,0,4.41-3.72,7.37-9.28,7.37a13,13,0,0,1-7.6-2.32c-1-.64-1.45-1.28-1.45-1.92a1.64,1.64,0,0,1,1.56-1.62c.47,0,.87.41,1.74.93a10,10,0,0,0,5.8,1.85c3.43,0,5.69-1.62,5.69-4.11C125.51,24.24,111.18,26.39,111.18,18Z"/><path class="cls-1" d="M149.87,34.8c0,.46-.35,1-1.1,1.45A9.78,9.78,0,0,1,144,37.47c-2.78,0-5-1.1-6.15-3.19-1-1.92-1.1-4.12-1.1-6.73V14.85h-3.77a1.36,1.36,0,0,1-1.56-1.51,1.36,1.36,0,0,1,1.56-1.51h3.77V5c0-1.05.58-1.57,1.8-1.57s1.74.52,1.74,1.57v6.84h7.37a1.36,1.36,0,0,1,1.56,1.51,1.36,1.36,0,0,1-1.56,1.51h-7.37v12.7c0,1.74,0,3.71.7,5.05a3.69,3.69,0,0,0,3.48,1.79,7,7,0,0,0,2.84-.69,3.46,3.46,0,0,1,1.27-.52C149.46,33.18,149.87,34.22,149.87,34.8Z"/><path class="cls-1" d="M174,33.12c0,.58-.58,1.27-1.57,2a12.89,12.89,0,0,1-7.83,2.38c-7.65,0-12.18-5-12.18-13.17S156.88,11,163.78,11c6.56,0,10.67,4.76,10.67,11.25,0,2.5-.75,2.79-2.43,2.79H156c.35,5.62,3.19,9.33,8.76,9.33a9.46,9.46,0,0,0,5.8-1.74c.93-.63,1.39-1.16,2-1.16A1.6,1.6,0,0,1,174,33.12ZM156,22.33h14.91c0-5-2.61-8.47-7.2-8.47S156.53,17.17,156,22.33Z"/><path class="cls-1" d="M184,35.67c0,1-.58,1.57-1.74,1.57s-1.8-.53-1.8-1.57V12.88c0-.93.35-1.57,1.8-1.57s1.56.58,1.56,1.28v3.65a7.91,7.91,0,0,1,7.42-5c1,0,1.69.35,1.69,1.63s-.7,1.51-2,1.62c-1.63.12-4.82.18-6.9,5Z"/><path class="cls-3" d="M216.74,13c.52-1.27.93-1.68,2.15-1.68s1.56.41,1.56,1a4.69,4.69,0,0,1-.35,1.45l-9.39,21.69c-.58,1.33-1.05,1.85-2.44,1.85s-1.91-.52-2.43-1.85l-9.17-21.69a3.74,3.74,0,0,1-.4-1.45c0-.58.46-1,1.62-1s1.68.41,2.2,1.68l8.3,19.95Z"/><path class="cls-3" d="M227.11,5a2.41,2.41,0,0,1-2.49-2.5,2.49,2.49,0,1,1,5,0A2.41,2.41,0,0,1,227.11,5Zm1.74,30.68c0,1-.58,1.57-1.74,1.57s-1.8-.53-1.8-1.57V12.88c0-1.05.58-1.57,1.8-1.57s1.74.52,1.74,1.57Z"/><path class="cls-3" d="M234.7,18c0-4.12,3.54-6.9,8.88-6.9a12.52,12.52,0,0,1,7,1.91c1.16.76,1.63,1.45,1.63,2.09a1.58,1.58,0,0,1-1.51,1.62c-.46,0-.87-.34-1.91-1a9.91,9.91,0,0,0-5.4-1.57c-3.36,0-5.22,1.57-5.22,3.66,0,5.68,14.39,3.59,14.39,12.29,0,4.41-3.72,7.37-9.28,7.37a13,13,0,0,1-7.6-2.32c-1-.64-1.45-1.28-1.45-1.92a1.64,1.64,0,0,1,1.56-1.62c.47,0,.87.41,1.74.93a10,10,0,0,0,5.8,1.85c3.43,0,5.69-1.62,5.69-4.11C249,24.24,234.7,26.39,234.7,18Z"/><path class="cls-3" d="M260,5a2.41,2.41,0,0,1-2.49-2.5,2.5,2.5,0,0,1,5,0A2.42,2.42,0,0,1,260,5Zm1.74,30.68c0,1-.58,1.57-1.74,1.57s-1.8-.53-1.8-1.57V12.88c0-1.05.58-1.57,1.8-1.57s1.74.52,1.74,1.57Z"/><path class="cls-3" d="M279.77,11C287.25,11,292,16.18,292,24.24s-4.81,13.29-12.3,13.29-12.29-5.22-12.29-13.23S272.29,11,279.77,11Zm0,23.55c5.22,0,8.53-4,8.53-10.27s-3.36-10.38-8.59-10.38-8.52,4.06-8.52,10.32S274.5,34.57,279.77,34.57Z"/><path class="cls-3" d="M300.13,12.88v2.37c1.51-2.32,4.41-4.11,8.53-4.11,3.13,0,5.85,1,7.42,3.24a12.17,12.17,0,0,1,1.68,6.91V35.67c0,1-.58,1.57-1.74,1.57s-1.8-.53-1.8-1.57V21.81a9,9,0,0,0-1.33-5.28q-1.65-2.27-5.22-2.26a8.41,8.41,0,0,0-7.37,3.88V35.67c0,1-.58,1.57-1.73,1.57s-1.8-.53-1.8-1.57V12.88c0-1.05.52-1.57,1.74-1.57S300.19,11.89,300.13,12.88Z"/></g></g></g></svg>