<svg xmlns="http://www.w3.org/2000/svg" viewBox="0 0 58.34 37.94"><defs><style>.cls-1{fill:#fff;}.cls-2,.cls-3{fill:#a2dbe4;}.cls-2{opacity:0.5;}</style></defs><title>rastervision_RGB_mark_darkbg</title><g id="Layer_2" data-name="Layer 2"><g id="Layer_1-2" data-name="Layer 1"><path class="cls-1" d="M29.17,37.94C20.78,37.94,12.39,32,.44,20a1.49,1.49,0,0,1,0-2.12C11.49,6.85,20.15,0,29.17,0S46.85,6.85,57.9,17.9a1.49,1.49,0,0,1,0,2.12C46,32,37.56,37.94,29.17,37.94ZM3.63,19C25.1,40.18,33.25,40.18,54.71,19,43,7.35,36,3,29.17,3S15.39,7.35,3.63,19Z"/><rect class="cls-2" x="26.57" y="6.35" width="5.04" height="5.04" rx="1.44" ry="1.44" transform="translate(14.79 -17.97) rotate(45)"/><rect class="cls-2" x="16.81" y="16.1" width="5.04" height="5.04" rx="1.44" ry="1.44" transform="translate(18.83 -8.22) rotate(45)"/><rect class="cls-2" x="26.73" y="26.02" width="5.04" height="5.04" rx="1.44" ry="1.44" transform="translate(28.75 -12.32) rotate(45)"/><rect class="cls-3" x="21.77" y="21.06" width="5.04" height="5.04" rx="1.44" ry="1.44" transform="translate(23.79 -10.27) rotate(45)"/><rect class="cls-1" x="26.62" y="16.22" width="5.04" height="5.04" rx="1.44" ry="1.44" transform="translate(21.79 -15.12) rotate(45)"/><rect class="cls-3" x="31.57" y="11.27" width="5.04" height="5.04" rx="1.44" ry="1.44" transform="translate(19.74 -20.06) rotate(45)"/><rect class="cls-3" x="31.58" y="21.18" width="5.04" height="5.04" rx="1.44" ry="1.44" transform="translate(26.74 -17.17) rotate(45)"/><rect class="cls-3" x="21.69" y="11.23" width="5.04" height="5.04" rx="1.44" ry="1.44" transform="translate(16.81 -13.09) rotate(45)"/><rect class="cls-2" x="36.49" y="16.27" width="5.04" height="5.04" rx="1.44" ry="1.44" transform="translate(24.71 -22.08) rotate(45)"/></g></g></svg>