<svg xmlns="http://www.w3.org/2000/svg" viewBox="0 0 444.84 67"><defs><style>.cls-1{isolation:isolate;}.cls-2{fill:#43a5d8;}</style></defs><title>opendatavote_RGB</title><g id="Layer_2" data-name="Layer 2"><g id="Layer_1-2" data-name="Layer 1"><g id="Layer_2-2" data-name="Layer 2"><g id="Layer_1-2-2" data-name="Layer 1-2"><g class="cls-1"><g class="cls-1"><path class="cls-2" d="M99,52.61A18.14,18.14,0,0,1,80.37,34.19,18.68,18.68,0,1,1,99,52.61Zm0-31.17c-7.09,0-12,5.66-12,12.65S92,46.85,99.1,46.85s12-5.67,12-12.66S106.09,21.44,99,21.44Z"/></g><g class="cls-1"><path class="cls-2" d="M139.57,52.56a11,11,0,0,1-9.14-4.74V60.16h-6.17V25.06h6.17v4.49c2-2.81,4.8-5.05,9.14-5.05,6.37,0,12.55,5.05,12.55,14S146,52.56,139.57,52.56Zm-1.43-22.71c-4.19,0-7.86,3.42-7.86,8.68s3.67,8.67,7.86,8.67,7.7-3.31,7.7-8.67S142.32,29.85,138.14,29.85Z"/></g><g class="cls-1"><path class="cls-2" d="M170.36,47.56a9.77,9.77,0,0,0,7.29-3.21l3.63,3.21a13.62,13.62,0,0,1-11,5c-7.81,0-13.83-5.66-13.83-14,0-7.76,5.46-14.08,13.16-14.08,8.57,0,12.91,6.73,12.91,14.54,0,.56-.05,1.07-.1,1.68H162.6C163.32,45.11,166.38,47.56,170.36,47.56Zm6-10.92c-.41-4-2.76-7.09-6.84-7.09-3.77,0-6.43,2.91-7,7.09Z"/></g><g class="cls-1"><path class="cls-2" d="M194.25,52h-6.17V25.06h6.17v4.18a9.71,9.71,0,0,1,8.42-4.74c6.07,0,9.59,4.08,9.59,10.35V52h-6.17V36.69c0-4.18-2.09-6.58-5.77-6.58s-6.07,2.5-6.07,6.68Z"/></g><g class="cls-1"><path class="cls-2" d="M233.46,52H220.14V16.28h13.32c11.23,0,19,7.71,19,17.81S244.69,52,233.46,52Zm0-30h-7V46.28h7c7.5,0,12.4-5.05,12.4-12.09S241,22,233.46,22Z"/></g><g class="cls-1"><path class="cls-2" d="M275,52V48.68a10.87,10.87,0,0,1-8.73,3.88c-5.1,0-9.59-2.91-9.59-8.32v-.1c0-5.81,4.64-8.67,10.92-8.67A22.75,22.75,0,0,1,275,36.59v-.66c0-3.73-2.35-5.77-6.63-5.77a18.64,18.64,0,0,0-7.71,1.69l-1.68-5a23.05,23.05,0,0,1,10.25-2.25c8,0,11.84,4.18,11.84,11.38V52Zm.15-11.43a17.65,17.65,0,0,0-6.17-1.07c-3.88,0-6.18,1.58-6.18,4.34v.1c0,2.55,2.3,4,5.21,4,4.08,0,7.14-2.3,7.14-5.67Z"/></g><g class="cls-1"><path class="cls-2" d="M294.75,43.58c0,2.4,1.22,3.37,3.31,3.37a8.32,8.32,0,0,0,3.83-.92v5a10.76,10.76,0,0,1-5.56,1.38c-4.54,0-7.76-2-7.76-7.91V30.36h-3.41v-5.3h3.41v-7.4h6.18v7.4H302v5.3h-7.24Z"/></g><g class="cls-1"><path class="cls-2" d="M324.2,52V48.68a10.87,10.87,0,0,1-8.73,3.88c-5.1,0-9.59-2.91-9.59-8.32v-.1c0-5.81,4.64-8.67,10.92-8.67a22.75,22.75,0,0,1,7.45,1.12v-.66c0-3.73-2.35-5.77-6.63-5.77a18.64,18.64,0,0,0-7.71,1.69l-1.68-5a23.05,23.05,0,0,1,10.25-2.25c8,0,11.84,4.18,11.84,11.38V52Zm.15-11.43a17.65,17.65,0,0,0-6.17-1.07c-3.88,0-6.18,1.58-6.18,4.34v.1c0,2.55,2.3,4,5.21,4,4.08,0,7.14-2.3,7.14-5.67Z"/></g><g class="cls-1"><path class="cls-2" d="M360.18,16.28H367l-14.85,36h-5.51l-14.85-36h6.94l10.77,27.45Z"/></g><g class="cls-1"><path class="cls-2" d="M381.45,52.61a13.94,13.94,0,0,1-14.29-14,14.37,14.37,0,1,1,14.29,14Zm0-22.7c-4.95,0-8.12,3.87-8.12,8.62s3.42,8.73,8.22,8.73c5,0,8.16-3.88,8.16-8.63S386.29,29.91,381.45,29.91Z"/></g><g class="cls-1"><path class="cls-2" d="M408.25,43.58c0,2.4,1.22,3.37,3.31,3.37a8.32,8.32,0,0,0,3.83-.92v5a10.76,10.76,0,0,1-5.56,1.38c-4.54,0-7.76-2-7.76-7.91V30.36h-3.41v-5.3h3.41v-7.4h6.18v7.4h7.24v5.3h-7.24Z"/></g><g class="cls-1"><path class="cls-2" d="M432.7,47.56a9.81,9.81,0,0,0,7.3-3.21l3.62,3.21a13.62,13.62,0,0,1-11,5c-7.81,0-13.83-5.66-13.83-14,0-7.76,5.46-14.08,13.16-14.08,8.57,0,12.91,6.73,12.91,14.54,0,.56,0,1.07-.1,1.68h-19.8C425.66,45.11,428.72,47.56,432.7,47.56Zm6-10.92c-.41-4-2.76-7.09-6.84-7.09-3.77,0-6.43,2.91-7,7.09Z"/></g></g><path class="cls-2" d="M48.72,0H18.27A18.3,18.3,0,0,0,0,18.28V48.72A18.3,18.3,0,0,0,18.27,67H48.72A18.3,18.3,0,0,0,67,48.72V18.28A18.3,18.3,0,0,0,48.72,0ZM59.45,40H54.13v4.3a10.4,10.4,0,0,1-10.4,10.4H24A10.41,10.41,0,0,1,13.59,44.3V40h-6V18.28A10.75,10.75,0,0,1,18.27,7.55H48.72A10.75,10.75,0,0,1,59.45,18.28Z"/><path class="cls-2" d="M53.36,21.6a2.24,2.24,0,0,1-.68,1.64L35.21,40.71,31.93,44a2.33,2.33,0,0,1-3.28,0l-3.28-3.28L16.64,32a2.33,2.33,0,0,1,0-3.28l3.28-3.28a2.31,2.31,0,0,1,3.28,0l7.09,7.12L46.12,16.68a2.33,2.33,0,0,1,3.28,0L52.68,20A2.25,2.25,0,0,1,53.36,21.6Z"/></g></g></g></g></svg>