<svg xmlns="http://www.w3.org/2000/svg" viewBox="0 0 445.09 67"><defs><style>.cls-1,.cls-2{fill:#fff;}.cls-2{fill-rule:evenodd;}</style></defs><title>opendatavote_white</title><g id="Layer_2" data-name="Layer 2"><g id="Layer_1-2" data-name="Layer 1"><path class="cls-1" d="M99,52.61A18.13,18.13,0,0,1,80.37,34.2,18.67,18.67,0,1,1,99,52.61Zm0-31.16c-7.09,0-12,5.66-12,12.65s5,12.75,12.14,12.75,12-5.66,12-12.65S106.08,21.45,99,21.45Z"/><path class="cls-1" d="M139.65,52.56a11,11,0,0,1-9.13-4.74V60.16h-6.17V25.07h6.17v4.49c2-2.81,4.79-5,9.13-5,6.38,0,12.55,5,12.55,14S146.08,52.56,139.65,52.56Zm-1.43-22.7c-4.18,0-7.85,3.42-7.85,8.67s3.67,8.68,7.85,8.68,7.7-3.32,7.7-8.68S142.4,29.86,138.22,29.86Z"/><path class="cls-1" d="M170.44,47.56a9.77,9.77,0,0,0,7.29-3.21l3.62,3.21a13.62,13.62,0,0,1-11,5c-7.81,0-13.83-5.66-13.83-14,0-7.75,5.46-14.07,13.16-14.07,8.57,0,12.91,6.73,12.91,14.53,0,.56-.05,1.07-.1,1.69H162.69C163.4,45.11,166.46,47.56,170.44,47.56Zm6-10.91c-.41-4-2.76-7.09-6.84-7.09-3.77,0-6.43,2.9-7,7.09Z"/><path class="cls-1" d="M194.46,52h-6.17V25.07h6.17v4.18a9.71,9.71,0,0,1,8.42-4.74c6.07,0,9.59,4.08,9.59,10.35V52H206.3V36.7c0-4.19-2.09-6.58-5.77-6.58s-6.07,2.5-6.07,6.68Z"/><path class="cls-1" d="M233.71,52H220.39V16.29h13.32c11.22,0,19,7.71,19,17.81S244.93,52,233.71,52Zm0-30h-7V46.29h7c7.5,0,12.39-5,12.39-12.09S241.21,22,233.71,22Z"/><path class="cls-1" d="M275.28,52V48.68a10.87,10.87,0,0,1-8.72,3.88c-5.1,0-9.59-2.91-9.59-8.31v-.11c0-5.81,4.64-8.67,10.91-8.67a22.75,22.75,0,0,1,7.45,1.12v-.66c0-3.72-2.35-5.76-6.63-5.76a18.74,18.74,0,0,0-7.7,1.68l-1.69-5a23.21,23.21,0,0,1,10.26-2.24c7.95,0,11.83,4.18,11.83,11.37V52Zm.15-11.43a17.65,17.65,0,0,0-6.17-1.07c-3.88,0-6.17,1.58-6.17,4.34v.1c0,2.55,2.29,4,5.2,4,4.08,0,7.14-2.3,7.14-5.66Z"/><path class="cls-1" d="M295.17,43.58c0,2.4,1.22,3.37,3.31,3.37a8.35,8.35,0,0,0,3.83-.92v5a10.79,10.79,0,0,1-5.56,1.38c-4.54,0-7.76-2-7.76-7.91V30.37h-3.41v-5.3H289v-7.4h6.18v7.4h7.24v5.3h-7.24Z"/><path class="cls-1" d="M324.55,52V48.68a10.87,10.87,0,0,1-8.72,3.88c-5.1,0-9.59-2.91-9.59-8.31v-.11c0-5.81,4.64-8.67,10.91-8.67a22.75,22.75,0,0,1,7.45,1.12v-.66c0-3.72-2.35-5.76-6.63-5.76a18.74,18.74,0,0,0-7.7,1.68l-1.69-5a23.21,23.21,0,0,1,10.26-2.24c8,0,11.83,4.18,11.83,11.37V52Zm.15-11.43a17.65,17.65,0,0,0-6.17-1.07c-3.88,0-6.17,1.58-6.17,4.34v.1c0,2.55,2.29,4,5.2,4,4.08,0,7.14-2.3,7.14-5.66Z"/><path class="cls-1" d="M360.55,16.29h6.78l-14.84,36H347l-14.85-36h6.94l10.76,27.45Z"/><path class="cls-1" d="M381.65,52.61a13.94,13.94,0,0,1-14.29-14,14.36,14.36,0,1,1,14.29,14Zm0-22.7c-4.95,0-8.11,3.88-8.11,8.62s3.41,8.73,8.21,8.73c5,0,8.16-3.88,8.16-8.62S386.49,29.91,381.65,29.91Z"/><path class="cls-1" d="M408.6,43.58c0,2.4,1.23,3.37,3.32,3.37a8.35,8.35,0,0,0,3.83-.92v5a10.79,10.79,0,0,1-5.56,1.38c-4.54,0-7.76-2-7.76-7.91V30.37H399v-5.3h3.42v-7.4h6.17v7.4h7.25v5.3H408.6Z"/><path class="cls-1" d="M433,47.56a9.79,9.79,0,0,0,7.3-3.21l3.62,3.21a13.62,13.62,0,0,1-11,5c-7.8,0-13.82-5.66-13.82-14,0-7.75,5.46-14.07,13.16-14.07,8.57,0,12.9,6.73,12.9,14.53,0,.56,0,1.07-.1,1.69H425.2C425.91,45.11,429,47.56,433,47.56Zm6-10.91c-.41-4-2.75-7.09-6.83-7.09-3.78,0-6.43,2.9-7,7.09Z"/><path class="cls-2" d="M48.72,0H18.27A18.3,18.3,0,0,0,0,18.28V48.72A18.3,18.3,0,0,0,18.27,67H48.72A18.3,18.3,0,0,0,67,48.72V18.28A18.3,18.3,0,0,0,48.72,0ZM59.45,40H54.13v4.3a10.41,10.41,0,0,1-10.41,10.4H24a10.4,10.4,0,0,1-10.4-10.4V40h-6V18.28A10.74,10.74,0,0,1,18.27,7.55H48.72A10.74,10.74,0,0,1,59.45,18.28Z"/><path class="cls-2" d="M53.36,21.6a2.24,2.24,0,0,1-.68,1.64L35.21,40.71,31.93,44a2.34,2.34,0,0,1-3.28,0l-3.28-3.28L16.64,32a2.32,2.32,0,0,1,0-3.28l3.28-3.28a2.32,2.32,0,0,1,3.28,0l7.09,7.12L46.12,16.68a2.32,2.32,0,0,1,3.28,0L52.68,20A2.23,2.23,0,0,1,53.36,21.6Z"/></g></g></svg>