<svg xmlns="http://www.w3.org/2000/svg" viewBox="0 0 61 61"><defs><style>.cls-1{fill:#fff;fill-rule:evenodd;}</style></defs><title>opendatavote_mark_white</title><g id="Layer_2" data-name="Layer 2"><g id="Layer_1-2" data-name="Layer 1"><path class="cls-1" d="M44.36,0H16.64A16.65,16.65,0,0,0,0,16.64V44.36A16.65,16.65,0,0,0,16.64,61H44.36A16.65,16.65,0,0,0,61,44.36V16.64A16.65,16.65,0,0,0,44.36,0Zm9.77,36.44H49.28v3.92a9.47,9.47,0,0,1-9.47,9.47h-18a9.48,9.48,0,0,1-9.48-9.47V36.44H6.87V16.64a9.78,9.78,0,0,1,9.77-9.77H44.36a9.78,9.78,0,0,1,9.77,9.77Z"/><path class="cls-1" d="M46,20.85a1.72,1.72,0,0,1-.52,1.27L32,35.65l-2.55,2.54a1.79,1.79,0,0,1-2.54,0l-2.54-2.54-6.77-6.76a1.82,1.82,0,0,1,0-2.55l2.54-2.54a1.82,1.82,0,0,1,2.55,0l5.49,5.52L40.43,17A1.82,1.82,0,0,1,43,17l2.54,2.55A1.72,1.72,0,0,1,46,20.85Z"/></g></g></svg>