<svg xmlns="http://www.w3.org/2000/svg" viewBox="0 0 1200 192.44"><defs><style>.cls-1{fill:#fff;}.cls-2{fill:#4bbde0;}.cls-3{fill:#87dd6b;}</style></defs><title>cicero_RGB_darkbg_72dpi</title><g id="Layer_2" data-name="Layer 2"><g id="Layer_1-2" data-name="Layer 1"><path class="cls-1" d="M335.24,160.08A64.23,64.23,0,1,1,386.61,57.34l24.78-18.47a95.14,95.14,0,1,0-.6,114.75L386.14,135A64.17,64.17,0,0,1,335.24,160.08Z"/><rect class="cls-1" x="431.02" y="0.94" width="32" height="186"/><path class="cls-1" d="M1104.86,2.15A95.15,95.15,0,1,0,1200,97.29,94.74,94.74,0,0,0,1104.86,2.15Zm0,159.38a64.23,64.23,0,1,1,64.23-64.24A64.33,64.33,0,0,1,1104.86,161.53Z"/><path class="cls-1" d="M583.07,161.53A64.23,64.23,0,1,1,634.45,58.79l24.77-18.48a95.14,95.14,0,1,0-.59,114.76L634,136.42A64.13,64.13,0,0,1,583.07,161.53Z"/><path class="cls-1" d="M849.54,44.44c1.38-1.67,2.72-3.31,4-5l.05-.65-2.21-3-.08,0A95.93,95.93,0,0,0,840,24,95.09,95.09,0,0,0,692.61,139.12c.6,1.12,1.19,2.22,1.82,3.32A95.12,95.12,0,0,0,852.54,152.9l-24.67-18.64a64.13,64.13,0,0,1-95.26,7.25C784.06,111.67,822.5,77.42,849.54,44.44ZM712.74,95.13a64.2,64.2,0,0,1,106.86-48,435.67,435.67,0,0,1-99.66,77.49A63.58,63.58,0,0,1,712.74,95.13Z"/><path class="cls-2" d="M138.66,6.39H0v129.1C29,92.68,73,44.91,138.66,6.39Z"/><path class="cls-3" d="M25.15,185.74h154.2v-152C151,81.79,103.33,140.32,25.15,185.74Z"/><path class="cls-1" d="M972,3.3c-24.07,0-47.81,9-64.58,23.73-.56.5,4.59,1-3.41,1.52V4.94H879v182h25V98.45c0-5,2.44-9.89,3.52-14.57,3-12.91,10.85-24.31,20.34-32.93a65.16,65.16,0,0,1,43.66-16.74A64.51,64.51,0,0,1,999,40.29c.35-.65.81-1.28,1.18-1.92a119.05,119.05,0,0,1,17.64-23.27A94.27,94.27,0,0,0,972,3.3Z"/></g></g></svg>