<svg xmlns="http://www.w3.org/2000/svg" xmlns:xlink="http://www.w3.org/1999/xlink" viewBox="0 0 249.91 56.78"><defs><style>.cls-1,.cls-2{fill:none;}.cls-1{clip-rule:evenodd;}.cls-3{clip-path:url(#clip-path);}.cls-4{fill:#fff;}.cls-5{clip-path:url(#clip-path-2);}.cls-6{clip-path:url(#clip-path-3);}.cls-7{clip-path:url(#clip-path-4);}.cls-8{clip-path:url(#clip-path-5);}.cls-9{isolation:isolate;}.cls-10{clip-path:url(#clip-path-6);}.cls-11{clip-path:url(#clip-path-7);}.cls-12{clip-path:url(#clip-path-8);}.cls-13{clip-path:url(#clip-path-9);}.cls-14{fill:#4bbde1;}.cls-15{clip-path:url(#clip-path-10);}.cls-16{clip-path:url(#clip-path-11);}.cls-17{clip-path:url(#clip-path-12);}</style><clipPath id="clip-path" transform="translate(5.99 5.99)"><polygon class="cls-1" points="50.04 2.98 50.04 43.71 56.17 43.71 56.17 2.86 50.04 2.98"/></clipPath><clipPath id="clip-path-2" transform="translate(5.99 5.99)"><path class="cls-1" d="M100.92,32.66l4.28,3.57A18.75,18.75,0,0,1,102,39.72a21.16,21.16,0,0,1-5.63,3.51,19.2,19.2,0,0,1-7.86,1.51,21.11,21.11,0,0,1-11.08-2.91,20.18,20.18,0,0,1-7.51-7.93,23.63,23.63,0,0,1-2.69-11.34,24.36,24.36,0,0,1,1.54-8.73,21.91,21.91,0,0,1,4.38-7.15,20.23,20.23,0,0,1,6.77-4.86A21.16,21.16,0,0,1,88.65.07a19.93,19.93,0,0,1,7.8,1.37,18.92,18.92,0,0,1,5.4,3.32A21.59,21.59,0,0,1,105.2,8.5l-4.34,3.71a21.86,21.86,0,0,0-2.59-3,13.24,13.24,0,0,0-3.9-2.58,13.53,13.53,0,0,0-5.65-1.06,13.85,13.85,0,0,0-8,2.3A15.24,15.24,0,0,0,75.52,14a19.29,19.29,0,0,0-1.82,8.47,18.89,18.89,0,0,0,1.82,8.37,14.63,14.63,0,0,0,5.14,6A13.9,13.9,0,0,0,88.52,39a14,14,0,0,0,6.27-1.21,13.77,13.77,0,0,0,3.86-2.72c1-1,1.72-1.8,2.27-2.39"/></clipPath><clipPath id="clip-path-3" transform="translate(5.99 5.99)"><polygon class="cls-1" points="116.31 43.71 116.31 1.09 143.15 1.09 143.15 6.52 122.44 6.52 122.44 18.92 138.03 18.92 138.03 24.41 122.44 24.41 122.44 38.22 144.68 38.22 144.68 43.71 116.31 43.71"/></clipPath><clipPath id="clip-path-4" transform="translate(5.99 5.99)"><path class="cls-1" d="M157.32,43.71V1.09h13.61a17.49,17.49,0,0,1,8.69,1.85,11.23,11.23,0,0,1,4.69,4.73,13.13,13.13,0,0,1,1.44,5.94,13.59,13.59,0,0,1-1.91,7.22,11.44,11.44,0,0,1-6,4.67l10,18.21H181l-9.14-17.44h-8.56V43.71Zm5.94-22.62h8.18q4,0,6-2a7.06,7.06,0,0,0,2-5.31,7,7,0,0,0-2.17-5.46,8.68,8.68,0,0,0-6-1.95h-8.05Z"/></clipPath><clipPath id="clip-path-5" transform="translate(5.99 5.99)"><rect class="cls-2" x="194.41" width="43.52" height="44.8"/></clipPath><clipPath id="clip-path-6" transform="translate(5.99 5.99)"><rect class="cls-2" x="194.12" y="-1.2" width="44.34" height="46.73"/></clipPath><clipPath id="clip-path-7" transform="translate(5.99 5.99)"><path class="cls-1" d="M216.14,44.8a21.27,21.27,0,0,1-8.57-1.73,20.86,20.86,0,0,1-6.9-4.82,23,23,0,0,1-4.6-7.16,22.72,22.72,0,0,1-1.66-8.72A23.17,23.17,0,0,1,196,13.64a21.87,21.87,0,0,1,4.6-7.12,21.59,21.59,0,0,1,31,0,22.28,22.28,0,0,1,4.63,7.12,22.8,22.8,0,0,1,1.66,8.73,22.69,22.69,0,0,1-6.29,15.88,21.22,21.22,0,0,1-15.5,6.55m0-5.75a14.3,14.3,0,0,0,8.11-2.3,15.73,15.73,0,0,0,5.37-6.11,18.21,18.21,0,0,0,1.92-8.34,18.61,18.61,0,0,0-1.89-8.4,15.15,15.15,0,0,0-5.33-6.07,15.77,15.77,0,0,0-16.3,0,15.25,15.25,0,0,0-5.34,6.07,18.73,18.73,0,0,0-1.88,8.4,18.57,18.57,0,0,0,1.88,8.34A15.5,15.5,0,0,0,208,36.75a14.33,14.33,0,0,0,8.12,2.3"/></clipPath><clipPath id="clip-path-8" transform="translate(5.99 5.99)"><rect class="cls-2" x="194.12" width="44.34" height="45.54"/></clipPath><clipPath id="clip-path-9" transform="translate(5.99 5.99)"><polygon class="cls-1" points="22.56 30.91 12.11 20.46 16.18 16.38 22.56 22.75 37.44 7.79 37.36 16.03 22.56 30.91"/></clipPath><clipPath id="clip-path-10" transform="translate(5.99 5.99)"><path class="cls-1" d="M33.68,32.66c-.56.59-1.31,1.39-2.27,2.39a14,14,0,0,1-3.87,2.72A14,14,0,0,1,21.28,39a13.88,13.88,0,0,1-7.86-2.2,14.63,14.63,0,0,1-5.14-6,18.89,18.89,0,0,1-1.83-8.37A19.3,19.3,0,0,1,8.28,14a15.29,15.29,0,0,1,5.17-6.1,13.87,13.87,0,0,1,8-2.3A13.16,13.16,0,0,1,31,9.2a21.23,21.23,0,0,1,2.34,2.68l4.07-4.09v0a23.66,23.66,0,0,0-2.85-3,18.72,18.72,0,0,0-5.39-3.32A20,20,0,0,0,21.41.07a21.09,21.09,0,0,0-8.72,1.75A20.37,20.37,0,0,0,5.91,6.68a22.08,22.08,0,0,0-4.38,7.15A24.58,24.58,0,0,0,0,22.56,23.74,23.74,0,0,0,2.68,33.9a20.25,20.25,0,0,0,7.51,7.93,21.14,21.14,0,0,0,11.09,2.91,19.27,19.27,0,0,0,7.86-1.51,21.32,21.32,0,0,0,5.63-3.51A19.49,19.49,0,0,0,38,36.23Z"/></clipPath><clipPath id="clip-path-11" transform="translate(5.99 5.99)"><path class="cls-2" d="M12.69,1.82l.76,6a13.87,13.87,0,0,1,8-2.3,13.75,13.75,0,0,1,5.66,1.05A13.74,13.74,0,0,1,31,9.2a22.06,22.06,0,0,1,2.34,2.68l4.07-4.09h0a23.66,23.66,0,0,0-2.85-3,18.64,18.64,0,0,0-5.4-3.32A19.91,19.91,0,0,0,21.41.06a21.1,21.1,0,0,0-8.72,1.76"/></clipPath><clipPath id="clip-path-12" transform="translate(5.99 5.99)"><rect class="cls-2" x="11.98" width="26.36" height="11.98"/></clipPath></defs><g id="Layer_2" data-name="Layer 2"><g id="Layer_1-2" data-name="Layer 1"><g class="cls-3"><rect class="cls-4" x="50.04" y="2.86" width="18.12" height="52.84"/></g><g class="cls-5"><rect class="cls-4" x="67.24" y="0.07" width="49.94" height="56.65"/></g><g class="cls-6"><rect class="cls-4" x="116.31" y="1.09" width="40.36" height="54.61"/></g><g class="cls-7"><rect class="cls-4" x="157.32" y="1.09" width="42.53" height="54.61"/></g><g class="cls-8"><g class="cls-9"><g class="cls-10"><g class="cls-11"><g class="cls-12"><rect class="cls-4" x="194.41" width="55.5" height="56.78"/></g></g></g></g></g><g class="cls-13"><rect class="cls-14" x="12.11" y="7.79" width="37.32" height="35.1"/></g><g class="cls-15"><rect class="cls-4" y="0.07" width="49.94" height="56.65"/></g></g></g></svg>