<?xml version="1.0" standalone="no"?>
<!DOCTYPE svg PUBLIC "-//W3C//DTD SVG 20010904//EN"
 "http://www.w3.org/TR/2001/REC-SVG-20010904/DTD/svg10.dtd">
<svg version="1.0" xmlns="http://www.w3.org/2000/svg"
 width="1425.000000pt" height="1425.000000pt" viewBox="0 0 1425.000000 1425.000000"
 preserveAspectRatio="xMidYMid meet">
<metadata>
Created by potrace 1.11, written by Peter Selinger 2001-2013
</metadata>
<g transform="translate(0.000000,1425.000000) scale(0.100000,-0.100000)"
fill="#000000" stroke="none">
<path d="M3561 10689 l-3563 -3562 1981 -1981 1981 -1981 1195 1195 c657 657
1195 1199 1195 1203 0 5 -385 394 -855 864 -470 470 -855 858 -855 862 0 5
2245 2254 2284 2289 2 2 391 -385 865 -860 l861 -863 1218 1218 1217 1217
-1981 1981 -1981 1981 -3562 -3563z"/>
<path d="M9991 8669 c-747 -748 -1362 -1359 -1366 -1359 -4 0 -394 387 -867
860 -473 473 -863 860 -867 860 -3 0 -395 -389 -871 -865 l-865 -865 867 -868
867 -867 -1330 -1329 c-731 -730 -1329 -1331 -1329 -1335 0 -3 651 -657 1448
-1454 l1447 -1447 3563 3563 3564 3564 -1451 1450 -1451 1451 -1359 -1359z"/>
</g>
</svg>
