<svg xmlns="http://www.w3.org/2000/svg" viewBox="0 0 134.17 57.33"><defs><style>.cls-1{fill:#1e5073;}.cls-2{fill:#3873a0;}.cls-3{fill:#4ca4db;}.cls-4{fill:#092253;}</style></defs><title>som_RGB</title><g id="Layer_2" data-name="Layer 2"><g id="Layer_1-2" data-name="Layer 1"><path class="cls-1" d="M17.19,21.6a4.69,4.69,0,0,0-2.93,1,10,10,0,0,0-.91,1,3.9,3.9,0,0,1-1.56.91,3,3,0,0,1-2.23-.2c-1-.47-1.52-1.47-2.46-2a4.73,4.73,0,0,0-5.53.51A4.7,4.7,0,0,0,4.69,31a4.76,4.76,0,0,0,2.92-1c.4-.32.66-.75,1-1.08A3.87,3.87,0,0,1,10.21,28a3,3,0,0,1,2.34.36c.92.5,1.39,1.44,2.32,2a4.69,4.69,0,1,0,2.32-8.77"/><path class="cls-2" d="M19.35,17.81a4.63,4.63,0,0,0,2.36,2,12.89,12.89,0,0,0,1.3.32,3.55,3.55,0,0,1,1.48.82,3,3,0,0,1,1,2.09,4.08,4.08,0,0,1-.3,1.77,4.69,4.69,0,1,0,5.34-3.14,3.58,3.58,0,0,1-2.51-1.49,3.48,3.48,0,0,1-.27-3,4.64,4.64,0,0,0,0-3.42,4.69,4.69,0,1,0-8.45,4"/><path class="cls-3" d="M13.12,2.3a4.68,4.68,0,0,0-.5,3.43A8.78,8.78,0,0,1,13,7.27,3.51,3.51,0,0,1,12.77,9a3.79,3.79,0,0,1-1.85,1.68c-.47.2-1,.2-1.48.36A4.67,4.67,0,0,0,8,11.79a4.69,4.69,0,1,0,7.41,5,4.49,4.49,0,0,0,.16-1.67,15.17,15.17,0,0,0-.46-1.76,3.76,3.76,0,0,1,.49-2.7,3.29,3.29,0,0,1,1.1-.93,4.23,4.23,0,0,1,1.45-.46A4.77,4.77,0,0,0,20.8,7.65a4.73,4.73,0,0,0,.38-5.45,4.73,4.73,0,0,0-8.06.11"/><path class="cls-1" d="M124.65,25.38c0,1.27-.24,2-.87,2.48a5.47,5.47,0,0,1-2.92.48,4,4,0,0,1-2.45-.64,1.9,1.9,0,0,1-.76-1.55,1.86,1.86,0,0,1,.75-1.55,3.81,3.81,0,0,1,2.2-.56h3.88a.17.17,0,0,1,.17.17ZM121,14.9c-2.2,0-3.81.53-5,1.9a1.27,1.27,0,0,0-.11.13l0,0,0,0a.16.16,0,0,0,0,.23h0l1.87,1.43.13.1,0,0,0,0a.17.17,0,0,0,.24,0c.5-.74,1.38-1,3-1a5.14,5.14,0,0,1,2.6.48,1.87,1.87,0,0,1,.87,1.74v1.69a.21.21,0,0,1-.05.12.17.17,0,0,1-.12,0H120c-3.39,0-5.06,2.11-5.08,4.61,0,2.7,2,4.74,5.53,4.76,2.17,0,3.19-.5,3.83-1.55a.22.22,0,0,1,.14-.08h.06a.18.18,0,0,1,.17.17h0v1.1a.16.16,0,0,0,.16.16h2.58a.17.17,0,0,0,.17-.16V20.05C127.54,16.18,125,14.93,121,14.9Zm-11.45,6.75a.15.15,0,0,1-.12.05h-6.8a.15.15,0,0,1-.16-.17c.05-2.51,1.57-3.91,3.56-3.9s3.48,1.4,3.56,3.9a.16.16,0,0,1,0,.12Zm-3.52-6.74c-3,0-6.46,1.93-6.47,8.12,0,6.53,3.72,8,7,8a7.26,7.26,0,0,0,5.35-2.19l.09-.1a0,0,0,0,0,0,0s0,0,0,0a.17.17,0,0,0,0-.22L110.16,27h0a.16.16,0,0,0-.23,0v0a5.17,5.17,0,0,1-3.42,1.4,4,4,0,0,1-2.87-1,4.16,4.16,0,0,1-1.14-3.09.18.18,0,0,1,.05-.12.16.16,0,0,1,.11-.05h9.71a.17.17,0,0,0,.17-.16h0V21.54A6.37,6.37,0,0,0,106.05,14.91Zm-8.19.19H95.14a.17.17,0,0,0-.17.16v0l-3.7,11a.15.15,0,0,1-.15.11h-.06a.16.16,0,0,1-.16-.11l-3.69-11v0A.17.17,0,0,0,87,15.1H84.32a.17.17,0,0,0-.17.17v.07l0,.09,5.63,15.33a.15.15,0,0,0,.19.11h2.11a.17.17,0,0,0,.22-.1L98,15.43,98,15.3v0a.17.17,0,0,0-.17-.16ZM78.92,25.38c0,1.27-.23,2-.87,2.48a5.47,5.47,0,0,1-2.92.48,4,4,0,0,1-2.45-.64,1.9,1.9,0,0,1-.76-1.55,1.83,1.83,0,0,1,.75-1.55,3.81,3.81,0,0,1,2.2-.56h3.88a.17.17,0,0,1,.12.05.18.18,0,0,1,0,.12ZM75.29,14.9c-2.2,0-3.81.53-5,1.9l-.11.13,0,0,0,0a.15.15,0,0,0,0,.23h0l1.87,1.43.13.1,0,0,0,0a.17.17,0,0,0,.24,0c.5-.74,1.38-1,3-1a5.14,5.14,0,0,1,2.6.48,1.87,1.87,0,0,1,.87,1.74v1.69a.21.21,0,0,1,0,.12.16.16,0,0,1-.12,0H74.27c-3.39,0-5.06,2.11-5.08,4.61,0,2.7,2,4.74,5.53,4.76,2.17,0,3.19-.5,3.82-1.55a.28.28,0,0,1,.15-.08h.06a.18.18,0,0,1,.17.17v1.1a.16.16,0,0,0,.16.16h2.58a.17.17,0,0,0,.17-.16h0V20.05C81.81,16.18,79.24,14.93,75.29,14.9Zm-8.48,2.6h0a.14.14,0,0,0,0-.11V15.26a.16.16,0,0,0-.16-.16H55.78a.16.16,0,0,0-.16.16v2.2a.17.17,0,0,0,.16.17h7.29a.16.16,0,0,1,.17.16.13.13,0,0,1,0,.1l-8,10.57h0l0,0h0a.11.11,0,0,0,0,.08v2.14a.17.17,0,0,0,.17.16H66.69a.16.16,0,0,0,.16-.16V28.32a.17.17,0,0,0-.16-.17H59a.15.15,0,0,1-.15-.09.15.15,0,0,1,0-.17ZM48.92,25.38c0,1.27-.24,2-.87,2.48a5.47,5.47,0,0,1-2.92.48,4,4,0,0,1-2.45-.64,1.9,1.9,0,0,1-.76-1.55,1.83,1.83,0,0,1,.75-1.55,3.81,3.81,0,0,1,2.2-.56h3.88a.17.17,0,0,1,.17.17ZM45.29,14.9c-2.2,0-3.81.53-5,1.9a1.27,1.27,0,0,0-.11.13l0,0,0,0a.15.15,0,0,0,0,.23h0l1.87,1.43.13.1,0,0,0,0a.17.17,0,0,0,.24,0c.49-.74,1.38-1,3-1a5.14,5.14,0,0,1,2.6.48,1.87,1.87,0,0,1,.87,1.74v1.69a.21.21,0,0,1-.05.12.17.17,0,0,1-.12,0H44.27c-3.39,0-5.06,2.11-5.08,4.61,0,2.7,2,4.74,5.53,4.76,2.17,0,3.19-.5,3.83-1.55a.22.22,0,0,1,.14-.08h.06a.18.18,0,0,1,.17.17v1.1a.16.16,0,0,0,.16.16h2.58a.17.17,0,0,0,.17-.16V20.05C51.81,16.18,49.24,14.93,45.29,14.9Z"/><path class="cls-4" d="M7,40.29a.78.78,0,0,1-.24.27.45.45,0,0,1-.32.09.72.72,0,0,1-.37-.11l-.45-.24A2.87,2.87,0,0,0,5,40.06,2.08,2.08,0,0,0,4.3,40a1.61,1.61,0,0,0-1.06.3,1,1,0,0,0-.35.82.75.75,0,0,0,.21.55,1.84,1.84,0,0,0,.56.38,5,5,0,0,0,.78.28l.89.3a5.92,5.92,0,0,1,.9.38,3.06,3.06,0,0,1,.78.55,2.62,2.62,0,0,1,.55.82,2.91,2.91,0,0,1,.21,1.17,4.1,4.1,0,0,1-.26,1.42,3.44,3.44,0,0,1-.76,1.15,3.69,3.69,0,0,1-1.23.77,4.61,4.61,0,0,1-1.67.28,5.21,5.21,0,0,1-1-.1,6.57,6.57,0,0,1-2-.75,4.3,4.3,0,0,1-.76-.59L.85,46.5a.66.66,0,0,1,.56-.3.79.79,0,0,1,.45.14l.52.31A4.06,4.06,0,0,0,3,47a2.64,2.64,0,0,0,.89.14A1.68,1.68,0,0,0,5,46.81a1.16,1.16,0,0,0,.38-1,.91.91,0,0,0-.21-.62,1.56,1.56,0,0,0-.55-.4,5.41,5.41,0,0,0-.77-.27L3,44.28a7.53,7.53,0,0,1-.89-.36A2.66,2.66,0,0,1,.73,42.49a3.72,3.72,0,0,1-.2-1.29A3.06,3.06,0,0,1,1.5,39a3.42,3.42,0,0,1,1.18-.73A4.19,4.19,0,0,1,4.28,38a6.14,6.14,0,0,1,1,.08,5.21,5.21,0,0,1,1.71.6,3.65,3.65,0,0,1,.66.49L7,40.29ZM13.57,47a2.43,2.43,0,0,0,.92-.17,1.79,1.79,0,0,0,.67-.48,2.14,2.14,0,0,0,.43-.77,3.33,3.33,0,0,0,.14-1V38.07h2.54v6.48a5,5,0,0,1-.33,1.84A4.05,4.05,0,0,1,17,47.84a4.26,4.26,0,0,1-1.48.94,5.27,5.27,0,0,1-2,.34,5.27,5.27,0,0,1-2-.34A4,4,0,0,1,9.2,46.39a5.06,5.06,0,0,1-.32-1.84V38.07h2.53v6.47a3.28,3.28,0,0,0,.15,1,2.28,2.28,0,0,0,.42.77,1.94,1.94,0,0,0,.68.49A2.38,2.38,0,0,0,13.57,47Zm11.94-3c.1.19.19.38.29.59s.18.41.26.63c.17-.43.36-.84.56-1.25l2.81-5.52a1.07,1.07,0,0,1,.15-.22.42.42,0,0,1,.18-.11.59.59,0,0,1,.22-.05H32.2V49H30V42.72c0-.31,0-.64,0-1l-2.89,5.61a.93.93,0,0,1-.36.4,1,1,0,0,1-.53.14h-.34a1,1,0,0,1-.52-.14,1,1,0,0,1-.37-.4l-2.91-5.62a8.26,8.26,0,0,1,.06,1V49H19.92V38.07h2.22a.54.54,0,0,1,.22.05.42.42,0,0,1,.18.11,1.07,1.07,0,0,1,.15.22Zm14.08,0c.1.19.2.38.29.59s.18.41.27.63A11.63,11.63,0,0,1,40.71,44l2.8-5.52a1.12,1.12,0,0,1,.16-.22.45.45,0,0,1,.17-.11.64.64,0,0,1,.23-.05h2.22V49H44.05V42.72c0-.31,0-.64.05-1l-2.9,5.61a.88.88,0,0,1-.36.4,1,1,0,0,1-.52.14H40a1,1,0,0,1-.52-.14.93.93,0,0,1-.36-.4l-2.91-5.62a8.26,8.26,0,0,1,.06,1V49H34V38.07h2.23a.59.59,0,0,1,.22.05.42.42,0,0,1,.18.11,1.07,1.07,0,0,1,.15.22Zm15.53-5.94v2H50.64v2.55h3.43v1.88H50.64v2.6h4.48v2h-7V38.07Zm4,6.89v4H56.56V38.07h3.56a7,7,0,0,1,2,.25,3.82,3.82,0,0,1,1.37.68,2.58,2.58,0,0,1,.76,1,3.44,3.44,0,0,1,.24,1.29,3.33,3.33,0,0,1-.14,1,2.92,2.92,0,0,1-.42.87,3.37,3.37,0,0,1-.69.72,3.86,3.86,0,0,1-.94.52,2.13,2.13,0,0,1,.47.31,1.94,1.94,0,0,1,.39.46L65.5,49H63.21a1,1,0,0,1-.92-.48l-1.81-3.17a.68.68,0,0,0-.28-.3,1,1,0,0,0-.46-.09Zm0-1.75h1a2.55,2.55,0,0,0,.88-.13,1.78,1.78,0,0,0,.6-.36,1.47,1.47,0,0,0,.33-.55A2.09,2.09,0,0,0,62,41.5a1.41,1.41,0,0,0-.47-1.12A2.18,2.18,0,0,0,60.12,40h-1Zm39.08.8a12.3,12.3,0,0,1,.56,1.22A11.63,11.63,0,0,1,99.3,44l2.8-5.52a1.12,1.12,0,0,1,.16-.22.45.45,0,0,1,.17-.11.64.64,0,0,1,.23-.05h2.22V49h-2.24V42.72c0-.31,0-.64,0-1l-2.9,5.61a.88.88,0,0,1-.36.4,1,1,0,0,1-.52.14h-.35a1,1,0,0,1-.52-.14.93.93,0,0,1-.36-.4l-2.91-5.62a8.26,8.26,0,0,1,.06,1V49H92.59V38.07h2.23a.59.59,0,0,1,.22.05.42.42,0,0,1,.18.11,1.07,1.07,0,0,1,.15.22Zm18.67,5h-2a.94.94,0,0,1-.54-.15.85.85,0,0,1-.3-.4l-.64-1.9h-4.16l-.64,1.9a.84.84,0,0,1-.29.38.81.81,0,0,1-.54.17h-2L110,38.07h2.6Zm-7-4.18h3l-1-3-.23-.67c-.09-.28-.18-.56-.26-.84a13.62,13.62,0,0,1-.49,1.53Zm10.44.53V49h-2.54V38.07h3.86a6.1,6.1,0,0,1,2,.28,3.75,3.75,0,0,1,1.37.75,2.94,2.94,0,0,1,.79,1.13,3.88,3.88,0,0,1,.25,1.41,4.05,4.05,0,0,1-.26,1.5,3,3,0,0,1-.8,1.17,3.7,3.7,0,0,1-1.37.76,6.05,6.05,0,0,1-2,.28Zm0-1.91h1.32A1.83,1.83,0,0,0,123,43a1.86,1.86,0,0,0,.44-1.32,2.11,2.11,0,0,0-.11-.68,1.42,1.42,0,0,0-.34-.53,1.7,1.7,0,0,0-.58-.34,2.35,2.35,0,0,0-.83-.12h-1.32Zm13.12-3.15a.87.87,0,0,1-.23.27.48.48,0,0,1-.32.09.7.7,0,0,1-.37-.11L132,40.3a3.23,3.23,0,0,0-.58-.24,2,2,0,0,0-.73-.11,1.58,1.58,0,0,0-1.06.3,1,1,0,0,0-.35.82.75.75,0,0,0,.21.55,1.78,1.78,0,0,0,.55.38,5.85,5.85,0,0,0,.78.28l.9.3a6.26,6.26,0,0,1,.89.38,2.74,2.74,0,0,1,.78.55,2.62,2.62,0,0,1,.55.82,2.91,2.91,0,0,1,.21,1.17,3.68,3.68,0,0,1-.26,1.42,3.3,3.3,0,0,1-.76,1.15,3.5,3.5,0,0,1-1.23.77,4.55,4.55,0,0,1-1.66.28,5.31,5.31,0,0,1-1-.1,6.42,6.42,0,0,1-2-.75,4,4,0,0,1-.76-.59l.75-1.18a.63.63,0,0,1,.55-.3.82.82,0,0,1,.46.14l.52.31a4.06,4.06,0,0,0,.66.32,2.58,2.58,0,0,0,.88.14,1.73,1.73,0,0,0,1.08-.3,1.19,1.19,0,0,0,.38-1,.91.91,0,0,0-.21-.62,1.56,1.56,0,0,0-.55-.4,5.13,5.13,0,0,0-.78-.27l-.89-.27a6.37,6.37,0,0,1-.89-.36,2.62,2.62,0,0,1-1.33-1.43,3.48,3.48,0,0,1-.21-1.29,3.1,3.1,0,0,1,1-2.24,3.52,3.52,0,0,1,1.18-.73,4.23,4.23,0,0,1,1.6-.28,6.37,6.37,0,0,1,1,.08,5.15,5.15,0,0,1,1.7.6,3.33,3.33,0,0,1,.66.49l-.63,1.17Z"/><path class="cls-4" d="M74.56,44.81h.11l1.58-2.73c1.32-2.27-.77-3.3-2.29-.69l-1,1.78-1.65,2.88c-1.3,2.27,1.19,2.61,2.21.84l0,0a1.37,1.37,0,0,1-.21-.73A1.29,1.29,0,0,1,74.56,44.81Zm.63,2.74c-2.92,3.72-8.16,2-5.42-2.76l.93-1.62,1.07-1.87C73,39.12,74.31,38.44,76,38.44c2,0,3.25,2.17,1.94,4.46l-2,3.55a4.63,4.63,0,0,0,3.27-1.62l.15-.16a1.89,1.89,0,0,1,.81.75,6.53,6.53,0,0,1-4.44,2.13Z"/><path class="cls-4" d="M79.12,48.2a10.42,10.42,0,0,0,4.2-4.41l3.45-6.14c1.09-2-.44-2.14-1.64,0Zm-.7,1.6h-.19l-2.52,4.41c-.91,1.59,0,2,.77.63l1.86-3.34C78.78,50.65,78.78,50,78.42,49.8Zm8.29-4.61a1.92,1.92,0,0,1,.83.79,10.27,10.27,0,0,1-7.63,3.77,2.9,2.9,0,0,1-.25,2.3L78,55c-2.36,4.26-5.77,1.83-4.07-1.2l9.17-16.32c2.9-5.15,7.69-3.69,5.13.85l-3.56,6.32a11.07,11.07,0,0,1-4.47,4.08,9,9,0,0,0,6.37-3.41l.15-.17Z"/></g></g></svg>