<?xml version="1.0" standalone="no"?>
<!DOCTYPE svg PUBLIC "-//W3C//DTD SVG 20010904//EN"
 "http://www.w3.org/TR/2001/REC-SVG-20010904/DTD/svg10.dtd">
<svg version="1.0" xmlns="http://www.w3.org/2000/svg"
 width="270.000000pt" height="270.000000pt" viewBox="0 0 270.000000 270.000000"
 preserveAspectRatio="xMidYMid meet">
<metadata>
Created by potrace 1.11, written by Peter Selinger 2001-2013
</metadata>
<g transform="translate(0.000000,270.000000) scale(0.100000,-0.100000)"
fill="#000000" stroke="none">
<path d="M1205 2186 c-298 -58 -618 -267 -1042 -681 -104 -101 -123 -125 -123
-150 0 -25 19 -49 123 -150 394 -385 698 -591 981 -668 115 -30 307 -30 422 0
283 77 587 283 981 668 104 101 123 125 123 150 0 25 -19 49 -123 150 -392
382 -699 592 -976 666 -98 26 -272 33 -366 15z m340 -171 c207 -57 483 -244
813 -552 l113 -106 -33 -34 c-59 -62 -280 -258 -383 -339 -182 -144 -371 -251
-515 -290 -89 -25 -281 -25 -370 0 -215 59 -508 259 -834 568 l-99 94 114 106
c361 338 625 510 859 563 80 18 250 13 335 -10z"/>
<path d="M1256 1703 l-89 -85 89 -84 c49 -46 94 -83 99 -84 6 0 49 39 95 86
l85 86 -89 84 c-50 46 -92 84 -95 84 -3 -1 -46 -39 -95 -87z"/>
<path d="M997 1452 l-87 -87 94 -87 93 -87 89 91 89 90 -89 84 c-49 46 -91 84
-95 84 -4 0 -46 -39 -94 -88z"/>
<path d="M1521 1453 l-93 -88 91 -88 90 -89 91 84 c49 45 89 88 89 93 -1 6
-41 47 -88 93 l-87 82 -93 -87z"/>
<path d="M1265 1200 l-90 -90 90 -90 90 -90 90 90 90 90 -90 90 -90 90 -90
-90z"/>
</g>
</svg>
