<svg xmlns="http://www.w3.org/2000/svg" xmlns:xlink="http://www.w3.org/1999/xlink" viewBox="0 0 1335.97 908.25"><defs><style>.cls-1{fill:none;}.cls-2{clip-path:url(#clip-path);}.cls-3{clip-path:url(#clip-path-2);}.cls-4{fill:#4b3b40;}.cls-5{clip-path:url(#clip-path-3);}.cls-6{clip-path:url(#clip-path-5);}.cls-7{isolation:isolate;}.cls-8{clip-path:url(#clip-path-7);}.cls-9{clip-path:url(#clip-path-8);}.cls-10{fill:#f68d11;}.cls-11{clip-path:url(#clip-path-9);}.cls-12{fill:#fde987;}.cls-13{clip-path:url(#clip-path-11);}.cls-14{clip-path:url(#clip-path-13);}.cls-15{clip-path:url(#clip-path-15);}.cls-16{clip-path:url(#clip-path-17);}</style><clipPath id="clip-path" transform="translate(5 5)"><path class="cls-1" d="M1191.57,898.25a65.38,65.38,0,0,0,20-2.8,47.63,47.63,0,0,0,16.09-8.93,62.91,62.91,0,0,0,13.31-15.92,156.71,156.71,0,0,0,11.54-24.15L1326,656.4h-44.09l-48,137.2-52.5-137.2h-45.15l77,184.8q-5.25,12.25-11.21,16.8t-15,4.55a42.14,42.14,0,0,1-12.78-1.93,71.33,71.33,0,0,1-12.07-5.07l-14.36,31.5a102.9,102.9,0,0,0,20.13,8.22A85.19,85.19,0,0,0,1191.57,898.25Zm-132.73-57V770.85q0-18.2,4.55-32a61.68,61.68,0,0,1,12.95-22.92,53.41,53.41,0,0,1,20-13.65,69.19,69.19,0,0,1,25.55-4.55h2.45V652.9q-24.51-1-40.6,11.55t-24.85,33.6V656.4h-42.35V841.2Zm-175.44-28q-15,0-25.37-7T847.7,785.9v-.7q0-13.31,11.2-21t31.15-7.7a124.35,124.35,0,0,1,23.28,2.1,108.64,108.64,0,0,1,19.07,5.25v10.5a34.4,34.4,0,0,1-3.68,15.92,35.64,35.64,0,0,1-10.32,12.25,50,50,0,0,1-15.57,7.88A64.53,64.53,0,0,1,883.4,813.2Zm-11.9,31.85q21,0,35.7-7.7a79,79,0,0,0,24.15-18.9V841.2h42V731.65q0-37.1-20-57.58T892.15,653.6q-22.75,0-38.85,4.2A194.8,194.8,0,0,0,821.8,669l11.55,34a183.27,183.27,0,0,1,24.85-8.4,112.84,112.84,0,0,1,28-3.15q22,0,33.77,10.15T931.7,731v3.5a172.86,172.86,0,0,0-22.58-5.6,164.79,164.79,0,0,0-28.52-2.1,116.27,116.27,0,0,0-29.93,3.67,68.21,68.21,0,0,0-23.79,11.2,52.15,52.15,0,0,0-15.58,18.9q-5.59,11.38-5.6,26.78v.7q0,14,5.42,24.67a54,54,0,0,0,14.35,17.85,62,62,0,0,0,20.83,10.85A84.9,84.9,0,0,0,871.5,845.05ZM650.91,841.2V736.9q0-21.71,11.55-33.78t30.1-12.07q18.9,0,29.23,11.72t10.32,33.43v105h42.35V723.6q0-32.55-17.15-51.8t-48.65-19.25a66.27,66.27,0,0,0-19.42,2.62,65.16,65.16,0,0,0-28.35,17.5,104,104,0,0,0-10,12.43V656.4H608.56V841.2Zm-175.43-28q-15.06,0-25.38-7t-10.33-20.3v-.7q0-13.31,11.21-21t31.14-7.7a124.28,124.28,0,0,1,23.28,2.1,108.15,108.15,0,0,1,19.07,5.25v10.5a34.39,34.39,0,0,1-3.67,15.92,35.75,35.75,0,0,1-10.32,12.25,50.2,50.2,0,0,1-15.58,7.88A64.46,64.46,0,0,1,475.48,813.2Zm-11.9,31.85q21,0,35.69-7.7a78.92,78.92,0,0,0,24.15-18.9V841.2h42V731.65q0-37.1-19.95-57.58T484.23,653.6q-22.75,0-38.85,4.2a194.12,194.12,0,0,0-31.5,11.2l11.54,34a184.21,184.21,0,0,1,24.85-8.4,112.84,112.84,0,0,1,28-3.15q22.07,0,33.78,10.15T523.78,731v3.5a173.26,173.26,0,0,0-22.58-5.6,164.91,164.91,0,0,0-28.53-2.1,116.19,116.19,0,0,0-29.92,3.67,68.18,68.18,0,0,0-23.8,11.2,52.22,52.22,0,0,0-15.57,18.9q-5.61,11.38-5.61,26.78v.7q0,14,5.43,24.67a53.88,53.88,0,0,0,14.35,17.85,61.93,61.93,0,0,0,20.83,10.85A84.9,84.9,0,0,0,463.58,845.05ZM315.44,841.2V770.85q0-18.2,4.55-32a61.68,61.68,0,0,1,12.95-22.92,53.41,53.41,0,0,1,19.95-13.65,69.19,69.19,0,0,1,25.55-4.55h2.45V652.9q-24.51-1-40.6,11.55t-24.85,33.6V656.4H273.09V841.2Zm-188.39,4.2a154.51,154.51,0,0,0,30.8-3A150.39,150.39,0,0,0,209.12,822a183,183,0,0,0,20.13-14.7V704.35H125V741.8H187.6v45.85a92.37,92.37,0,0,1-26.42,13.47,102.73,102.73,0,0,1-32.73,5.08q-18.9,0-34.13-6.65a80.42,80.42,0,0,1-26.25-18.2,79.37,79.37,0,0,1-17-27.65,100.12,100.12,0,0,1-6-35V718a90.78,90.78,0,0,1,6.13-33.25,87.52,87.52,0,0,1,16.79-27.48,81.85,81.85,0,0,1,25.21-18.72,71.13,71.13,0,0,1,31.32-7,108.34,108.34,0,0,1,21.17,1.92,96.15,96.15,0,0,1,17.68,5.25,88.78,88.78,0,0,1,15.4,8.23A154.88,154.88,0,0,1,193.2,657.8l27.3-32.55a155,155,0,0,0-19.43-14.18,122.38,122.38,0,0,0-21.17-10.32,135.11,135.11,0,0,0-24.33-6.48A172.53,172.53,0,0,0,126.35,592q-27.64,0-50.92,10.15a122.58,122.58,0,0,0-66.16,67.9A129.42,129.42,0,0,0,0,718.7v.7a133.86,133.86,0,0,0,9.1,49.87,119,119,0,0,0,25.73,39.9,117.91,117.91,0,0,0,40.07,26.6Q98.35,845.4,127.05,845.4Z"/></clipPath><clipPath id="clip-path-2" transform="translate(5 5)"><rect class="cls-1" x="-646" y="-185" width="2599" height="1267"/></clipPath><clipPath id="clip-path-3" transform="translate(5 5)"><path class="cls-1" d="M636,7.37,441.74,119.52a55,55,0,0,0-27.5,47.64V391.47a55,55,0,0,0,27.5,47.63L636,551.26a55,55,0,0,0,55,0L885.26,439.1a55,55,0,0,0,27.5-47.63V167.16a55,55,0,0,0-27.5-47.64L691,7.37A55,55,0,0,0,636,7.37Z"/></clipPath><clipPath id="clip-path-5" transform="translate(5 5)"><path class="cls-1" d="M675.76,33.35,870,145.51a25,25,0,0,1,12.5,21.65V391.47A25,25,0,0,1,870,413.12L675.76,525.27a25,25,0,0,1-25,0L456.5,413.12A25,25,0,0,1,444,391.47V167.16a25,25,0,0,1,12.5-21.65L650.76,33.35A25,25,0,0,1,675.76,33.35Z"/></clipPath><clipPath id="clip-path-7" transform="translate(5 5)"><rect class="cls-1" x="439" y="25" width="449" height="509"/></clipPath><clipPath id="clip-path-8" transform="translate(5 5)"><rect class="cls-1" x="444" y="28" width="439" height="502"/></clipPath><clipPath id="clip-path-9" transform="translate(5 5)"><path class="cls-1" d="M444,272.45,667.5,297.5l215-24.1V391.47A25,25,0,0,1,870,413.12L675.76,525.27a25,25,0,0,1-25,0L456.5,413.12A25,25,0,0,1,444,391.47Z"/></clipPath><clipPath id="clip-path-11" transform="translate(5 5)"><path class="cls-1" d="M671,141.77c19.94,18.13,32.36,38.5,33.4,58.11l0,.59v.2a56.2,56.2,0,0,1-4.2,18.66l-.3.75-.14.33.51-.06c1.12-.11,2.24-.19,3.35-.23l.83,0h26.18a10.94,10.94,0,0,1,10.93,10.63V256.2A52,52,0,0,1,738.06,275,394.65,394.65,0,0,1,863,254.81q9.82,0,19.52.48v30q-9.69-.52-19.52-.52a363.48,363.48,0,0,0-171,42.43,396.72,396.72,0,0,1,42.8,35.05,393,393,0,0,1,147.68-37v30.05a362.78,362.78,0,0,0-125.34,29.73,396.08,396.08,0,0,1,48,65.46l-26,15C715.81,357.44,598.38,284.81,464,284.81q-10.06,0-20,.54v-30q9.93-.5,20-.5a394.59,394.59,0,0,1,123.69,19.76,52,52,0,0,1-3.38-17.23l0-.67V230.9A10.93,10.93,0,0,1,594.92,220h26c1.28,0,2.57.06,3.91.19l.92.09-.07-.18a56.23,56.23,0,0,1-3.79-18.2v-1.5c.69-18.77,31.19-56.78,33-58.45A12,12,0,0,1,671,141.77Zm71.83,344.79-26.15,15.1C653.84,417.52,555.58,361.38,444,355.35v-30C566.68,331.43,674.62,393.52,742.81,486.56Z"/></clipPath><clipPath id="clip-path-13" transform="translate(5 5)"><path class="cls-1" d="M663.42,164.64l.25.26c11.69,12.41,18.57,25.14,19.41,35.77l0,.3,0,.37c-.84,11.74-8.06,23.95-19.23,35.65l-.44.45-.15-.15c-11.59-11.83-19.13-24.63-19.17-35.95.41-11.65,7.44-24,18.61-35.93Z"/></clipPath><clipPath id="clip-path-15" transform="translate(5 5)"><path class="cls-1" d="M606.25,241.58h15.29a31.19,31.19,0,0,1,30.72,30.26V272l0,.12a2.71,2.71,0,0,0-.08.59V287.1H637.55a31.27,31.27,0,0,1-31.3-31.3Z"/></clipPath><clipPath id="clip-path-17" transform="translate(5 5)"><path class="cls-1" d="M720.07,241.9l0,14.33v.52a31.23,31.23,0,0,1-31.34,30.82l-14.49,0,0-14.33a31.23,31.23,0,0,1,31.34-31.34Z"/></clipPath></defs><g id="Layer_2" data-name="Layer 2"><g id="Layer_1-2" data-name="Layer 1"><g id="granary"><g class="cls-2"><g class="cls-3"><rect class="cls-4" y="592" width="1335.97" height="316.25"/></g></g><g class="cls-5"><g class="cls-3"><rect class="cls-4" x="414.24" width="508.52" height="568.62"/></g></g><g class="cls-6"><g class="cls-3"><g class="cls-7"><g class="cls-8"><g class="cls-9"><rect class="cls-10" x="444" y="30" width="448.52" height="508.62"/></g><g class="cls-11"><g class="cls-9"><rect class="cls-12" x="444" y="272.45" width="448.52" height="266.18"/></g></g><g class="cls-13"><g class="cls-9"><rect class="cls-4" x="444" y="138.73" width="448.52" height="372.93"/></g></g><g class="cls-14"><g class="cls-9"><rect class="cls-12" x="632.68" y="170.3" width="61.49" height="61.47" transform="translate(57.16 532.99) rotate(-45)"/></g></g><g class="cls-15"><g class="cls-9"><rect class="cls-12" x="604.81" y="226.97" width="48.87" height="74.65" transform="translate(2.42 527.36) rotate(-45)"/></g></g><g class="cls-16"><g class="cls-9"><rect class="cls-12" x="659.84" y="240.28" width="74.66" height="48.87" transform="translate(22.01 575.51) rotate(-45)"/></g></g></g></g></g></g></g></g></g></svg>