<svg xmlns="http://www.w3.org/2000/svg" xmlns:xlink="http://www.w3.org/1999/xlink" viewBox="0 0 1895.8 568.62"><defs><style>.cls-1{fill:none;}.cls-2{clip-path:url(#clip-path);}.cls-3{clip-path:url(#clip-path-2);}.cls-4{fill:#4b3b40;}.cls-5{clip-path:url(#clip-path-3);}.cls-6{clip-path:url(#clip-path-5);}.cls-7{isolation:isolate;}.cls-8{clip-path:url(#clip-path-7);}.cls-9{clip-path:url(#clip-path-8);}.cls-10{fill:#f68d11;}.cls-11{clip-path:url(#clip-path-9);}.cls-12{fill:#fde987;}.cls-13{clip-path:url(#clip-path-11);}.cls-14{clip-path:url(#clip-path-13);}.cls-15{clip-path:url(#clip-path-15);}.cls-16{clip-path:url(#clip-path-17);}</style><clipPath id="clip-path" transform="translate(5 5)"><path class="cls-1" d="M1751.4,458.05a65.27,65.27,0,0,0,19.95-2.8,47.57,47.57,0,0,0,16.1-8.93,62.88,62.88,0,0,0,13.3-15.92,155.75,155.75,0,0,0,11.55-24.15l73.5-190h-44.1l-48,137.2-52.5-137.2H1696.1l77,184.8q-5.25,12.25-11.2,16.8t-15.05,4.55a42.12,42.12,0,0,1-12.77-1.93,71.43,71.43,0,0,1-12.08-5.07l-14.35,31.5a102.65,102.65,0,0,0,20.13,8.22A85.19,85.19,0,0,0,1751.4,458.05ZM1618.67,401V330.65q0-18.19,4.55-32a61.68,61.68,0,0,1,13-22.92,53.41,53.41,0,0,1,19.95-13.65,69.19,69.19,0,0,1,25.55-4.55h2.45V212.7q-24.51-1-40.6,11.55t-24.85,33.6V216.2h-42.35V401Zm-175.44-28q-15.06,0-25.38-7t-10.32-20.3V345q0-13.31,11.2-21t31.15-7.7a124.25,124.25,0,0,1,23.27,2.1,108.52,108.52,0,0,1,19.08,5.25v10.5a34.4,34.4,0,0,1-3.68,15.92,35.75,35.75,0,0,1-10.32,12.25,50.2,50.2,0,0,1-15.58,7.88A64.46,64.46,0,0,1,1443.23,373Zm-11.9,31.85q21,0,35.7-7.7a79,79,0,0,0,24.15-18.9V401h42V291.45q0-37.09-20-57.58T1452,213.4q-22.76,0-38.85,4.2a194.12,194.12,0,0,0-31.5,11.2l11.55,33.95a183.27,183.27,0,0,1,24.85-8.4,112.78,112.78,0,0,1,28-3.15q22,0,33.77,10.15t11.73,29.4v3.5a173.26,173.26,0,0,0-22.58-5.6,164.79,164.79,0,0,0-28.52-2.1,116.21,116.21,0,0,0-29.93,3.67,68.26,68.26,0,0,0-23.8,11.2,52.22,52.22,0,0,0-15.57,18.9q-5.61,11.39-5.6,26.78v.7q0,14,5.42,24.67a53.88,53.88,0,0,0,14.35,17.85,61.93,61.93,0,0,0,20.83,10.85A84.9,84.9,0,0,0,1431.33,404.85ZM1210.74,401V296.7q0-21.7,11.55-33.78t30.1-12.07q18.9,0,29.23,11.72T1291.94,296V401h42.35V283.4q0-32.55-17.15-51.8t-48.65-19.25a66.27,66.27,0,0,0-19.42,2.62,65.16,65.16,0,0,0-28.35,17.5,103,103,0,0,0-10,12.43V216.2h-42.35V401ZM1035.3,373q-15,0-25.37-7T999.6,345.7V345q0-13.31,11.2-21t31.15-7.7a124.28,124.28,0,0,1,23.28,2.1,108.15,108.15,0,0,1,19.07,5.25v10.5a34.39,34.39,0,0,1-3.67,15.92,35.67,35.67,0,0,1-10.33,12.25,50,50,0,0,1-15.57,7.88A64.53,64.53,0,0,1,1035.3,373Zm-11.9,31.85q21,0,35.7-7.7a79,79,0,0,0,24.15-18.9V401h42V291.45q0-37.09-20-57.58t-61.25-20.47q-22.74,0-38.85,4.2a194.8,194.8,0,0,0-31.5,11.2l11.55,33.95a183.74,183.74,0,0,1,24.85-8.4,112.84,112.84,0,0,1,28-3.15q22.05,0,33.78,10.15t11.72,29.4v3.5a173.11,173.11,0,0,0-22.57-5.6,165,165,0,0,0-28.53-2.1,116.13,116.13,0,0,0-29.92,3.67,68.18,68.18,0,0,0-23.8,11.2,52.35,52.35,0,0,0-15.58,18.9q-5.6,11.39-5.6,26.78v.7q0,14,5.43,24.67a53.88,53.88,0,0,0,14.35,17.85,62,62,0,0,0,20.82,10.85A85,85,0,0,0,1023.4,404.85ZM875.27,401V330.65q0-18.19,4.55-32a61.68,61.68,0,0,1,12.95-22.92,53.41,53.41,0,0,1,20-13.65,69.19,69.19,0,0,1,25.55-4.55h2.45V212.7q-24.51-1-40.6,11.55t-24.85,33.6V216.2H832.92V401Zm-188.39,4.2a154.51,154.51,0,0,0,30.8-3A150.39,150.39,0,0,0,769,381.75a184,184,0,0,0,20.13-14.7V264.15H684.78V301.6h62.65v45.85A92.3,92.3,0,0,1,721,360.92,102.62,102.62,0,0,1,688.28,366q-18.9,0-34.13-6.65a80.21,80.21,0,0,1-26.25-18.2,79.37,79.37,0,0,1-17-27.65,100.12,100.12,0,0,1-5.95-35v-.7a91,91,0,0,1,6.12-33.25,87.73,87.73,0,0,1,16.8-27.48,81.92,81.92,0,0,1,25.2-18.72,71.2,71.2,0,0,1,31.33-7,108.34,108.34,0,0,1,21.17,1.92,96.15,96.15,0,0,1,17.68,5.25,88.78,88.78,0,0,1,15.4,8.23A154.88,154.88,0,0,1,753,217.6l27.3-32.55a155.7,155.7,0,0,0-19.43-14.18,122.73,122.73,0,0,0-21.17-10.32,135.11,135.11,0,0,0-24.33-6.48,172.53,172.53,0,0,0-29.22-2.27q-27.64,0-50.93,10.15a122.6,122.6,0,0,0-66.15,67.9,129.42,129.42,0,0,0-9.27,48.65v.7a133.86,133.86,0,0,0,9.1,49.87,116.73,116.73,0,0,0,65.8,66.5Q658.18,405.2,686.88,405.2Z"/></clipPath><clipPath id="clip-path-2" transform="translate(5 5)"><rect class="cls-1" x="-355.24" y="-354" width="2599" height="1267"/></clipPath><clipPath id="clip-path-3" transform="translate(5 5)"><path class="cls-1" d="M221.76,7.37,27.5,119.52A55,55,0,0,0,0,167.16V391.47A55,55,0,0,0,27.5,439.1L221.76,551.26a55,55,0,0,0,55,0L471,439.1a55,55,0,0,0,27.5-47.63V167.16A55,55,0,0,0,471,119.52L276.76,7.37A55,55,0,0,0,221.76,7.37Z"/></clipPath><clipPath id="clip-path-5" transform="translate(5 5)"><path class="cls-1" d="M261.52,33.35,455.78,145.51a25,25,0,0,1,12.5,21.65V391.47a25,25,0,0,1-12.5,21.65L261.52,525.27a25,25,0,0,1-25,0L42.26,413.12a25,25,0,0,1-12.5-21.65V167.16a25,25,0,0,1,12.5-21.65L236.52,33.35A25,25,0,0,1,261.52,33.35Z"/></clipPath><clipPath id="clip-path-7" transform="translate(5 5)"><rect class="cls-1" x="24.76" y="25" width="449" height="509"/></clipPath><clipPath id="clip-path-8" transform="translate(5 5)"><rect class="cls-1" x="29.76" y="28" width="439" height="502"/></clipPath><clipPath id="clip-path-9" transform="translate(5 5)"><path class="cls-1" d="M29.76,272.45l223.5,25.05,215-24.1V391.47a25,25,0,0,1-12.5,21.65L261.52,525.27a25,25,0,0,1-25,0L42.26,413.12a25,25,0,0,1-12.5-21.65Z"/></clipPath><clipPath id="clip-path-11" transform="translate(5 5)"><path class="cls-1" d="M256.74,141.77c19.94,18.13,32.36,38.5,33.4,58.11l0,.59v.2a56.2,56.2,0,0,1-4.2,18.66l-.3.75-.14.33.51-.06c1.12-.11,2.24-.19,3.35-.23l.83,0H316.4a10.94,10.94,0,0,1,10.93,10.63V256.2A52,52,0,0,1,323.82,275a394.6,394.6,0,0,1,124.94-20.17q9.83,0,19.52.48v30q-9.69-.52-19.52-.52a363.48,363.48,0,0,0-171,42.43,396.72,396.72,0,0,1,42.8,35.05,393,393,0,0,1,147.68-37v30.05a362.78,362.78,0,0,0-125.34,29.73,396.08,396.08,0,0,1,48,65.46l-26,15C301.57,357.44,184.14,284.81,49.76,284.81q-10.07,0-20,.54v-30q9.93-.5,20-.5a394.59,394.59,0,0,1,123.69,19.76,52,52,0,0,1-3.38-17.23l0-.67V230.9A10.93,10.93,0,0,1,180.68,220h26c1.28,0,2.57.06,3.91.19l.92.09-.07-.18a56.23,56.23,0,0,1-3.79-18.2v-1.5c.69-18.77,31.19-56.78,33-58.45A12,12,0,0,1,256.74,141.77Zm71.83,344.79-26.15,15.1C239.6,417.52,141.34,361.38,29.76,355.35v-30C152.44,331.43,260.38,393.52,328.57,486.56Z"/></clipPath><clipPath id="clip-path-13" transform="translate(5 5)"><path class="cls-1" d="M249.18,164.64l.25.26C261.12,177.31,268,190,268.84,200.67l0,.3,0,.37c-.84,11.74-8.06,23.95-19.23,35.65l-.44.45-.15-.15c-11.59-11.83-19.13-24.63-19.17-35.95.41-11.65,7.44-24,18.6-35.93Z"/></clipPath><clipPath id="clip-path-15" transform="translate(5 5)"><path class="cls-1" d="M192,241.58H207.3A31.19,31.19,0,0,1,238,271.83V272l0,.12a2.71,2.71,0,0,0-.08.59V287.1H223.31A31.27,31.27,0,0,1,192,255.8Z"/></clipPath><clipPath id="clip-path-17" transform="translate(5 5)"><path class="cls-1" d="M305.83,241.9l0,14.33v.52a31.24,31.24,0,0,1-31.34,30.82l-14.49,0,0-14.33a31.23,31.23,0,0,1,31.34-31.34Z"/></clipPath></defs><g id="Layer_2" data-name="Layer 2"><g id="Layer_1-2" data-name="Layer 1"><g id="granary-leftaligned"><g class="cls-2"><g class="cls-3"><rect class="cls-4" x="559.83" y="151.8" width="1335.98" height="316.25"/></g></g><g class="cls-5"><g class="cls-3"><rect class="cls-4" width="508.52" height="568.62"/></g></g><g class="cls-6"><g class="cls-3"><g class="cls-7"><g class="cls-8"><g class="cls-9"><rect class="cls-10" x="29.76" y="30" width="448.52" height="508.62"/></g><g class="cls-11"><g class="cls-9"><rect class="cls-12" x="29.76" y="272.45" width="448.52" height="266.18"/></g></g><g class="cls-13"><g class="cls-9"><rect class="cls-4" x="29.76" y="138.73" width="448.52" height="372.93"/></g></g><g class="cls-14"><g class="cls-9"><rect class="cls-12" x="218.44" y="170.3" width="61.49" height="61.47" transform="translate(-64.17 240.08) rotate(-45)"/></g></g><g class="cls-15"><g class="cls-9"><rect class="cls-12" x="190.57" y="226.97" width="48.87" height="74.65" transform="translate(-118.91 234.44) rotate(-45)"/></g></g><g class="cls-16"><g class="cls-9"><rect class="cls-12" x="245.6" y="240.28" width="74.66" height="48.87" transform="translate(-99.32 282.6) rotate(-45)"/></g></g></g></g></g></g></g></g></g></svg>