<svg xmlns="http://www.w3.org/2000/svg" xmlns:xlink="http://www.w3.org/1999/xlink" viewBox="0 0 1866.05 508.62"><defs><style>.cls-1{fill:none;}.cls-2{clip-path:url(#clip-path);}.cls-3{clip-path:url(#clip-path-2);}.cls-4{fill:#fff;}</style><clipPath id="clip-path" transform="translate(5 5)"><path class="cls-1" d="M219.42,134.64l.25.26.53.56c11.2,12,17.85,24.35,18.84,34.72l0,.49,0,.3,0,.37,0,.55c-1,11.38-8,23.2-18.68,34.56l-.51.54-.43.45-.64-.65c-11.32-11.68-18.65-24.29-18.69-35.45.41-11.48,7.23-23.64,18.11-35.4l.5-.53ZM231.76,3.35,426,115.51a25,25,0,0,1,12.5,21.65v88.13q-9.7-.48-19.52-.48A394.69,394.69,0,0,0,294.06,245a52,52,0,0,0,3.5-18V200.71a10.93,10.93,0,0,0-10.64-10.62H260.46l-.83,0c-.83,0-1.67.08-2.51.15l-.84.08-.51.06.14-.33.3-.75a56.89,56.89,0,0,0,4.17-17.94l0-.72v-.2l0-.59c-1-19.61-13.46-40-33.4-58.11a12,12,0,0,0-16.1.13l-.14.15c-2.84,3-31.6,39.16-32.84,57.73l0,.57v1.5a55.7,55.7,0,0,0,3.51,17.44l.35.94-.92-.09c-1.07-.1-2.11-.16-3.14-.18H150.92a10.93,10.93,0,0,0-10.61,10.64v26.73a51.72,51.72,0,0,0,3.39,17.23A394.65,394.65,0,0,0,20,224.81q-10.07,0-20,.5V137.16a25,25,0,0,1,12.5-21.65L206.76,3.35A25,25,0,0,1,231.76,3.35ZM177,211.57h.51l.5,0a31.16,31.16,0,0,1,30.2,29.74l0,.5V242l0,.12,0,.14a2.89,2.89,0,0,0,0,.29V257.1H193a31.26,31.26,0,0,1-30.77-30.78V211.58Zm84.55.3,14.5,0,0,14.33v1a31.24,31.24,0,0,1-30.82,30.31h-.5l-14.5,0,0-14.33v-.52A31.21,31.21,0,0,1,261.58,211.87ZM419,254.81q9.83,0,19.52.52v40a392.93,392.93,0,0,0-147.67,37A397.81,397.81,0,0,0,248,297.24,363.48,363.48,0,0,1,419,254.81ZM1420.12,286.3q-19.95,0-31.15,7.7-11,7.56-11.2,20.53v1.65q.2,12.94,10.33,19.82,10.32,7,25.37,7a64.53,64.53,0,0,0,19.43-2.8,50.24,50.24,0,0,0,15.57-7.87,36,36,0,0,0,10.33-12.25,34.4,34.4,0,0,0,3.67-15.28V293.65l-.71-.27a110,110,0,0,0-18.36-5A124.28,124.28,0,0,0,1420.12,286.3Zm-407.92,0q-20,0-31.16,7.7-11,7.56-11.19,20.53v1.65Q970,329.13,980.17,336q10.32,7,25.38,7a64.46,64.46,0,0,0,19.42-2.8,50.4,50.4,0,0,0,15.58-7.87,35.94,35.94,0,0,0,10.32-12.25,34.27,34.27,0,0,0,3.67-15.28V293.65l-.71-.27a110.43,110.43,0,0,0-18.37-5A124.25,124.25,0,0,0,1012.2,286.3Zm601.56-92.05q15.84-12.41,39.83-11.58l.77,0v44.8H1651a68.73,68.73,0,0,0-24.65,4.55,53.41,53.41,0,0,0-19.95,13.65,61.65,61.65,0,0,0-13,22.93q-4.43,13.42-4.55,31V371h-42.35V186.2h42.35v41.65l.33-.79Q1598,206.62,1613.76,194.25Zm-375-11.9q31.5,0,48.65,19.25,16.93,19,17.15,51V371h-42.35V265.28q-.17-21.18-10.32-32.7-10.33-11.73-29.23-11.73-18.54,0-30.1,12.08Q1181.18,244.8,1181,266V371h-42.35V186.2H1181v28.7l.71-1a102.44,102.44,0,0,1,9.27-11.4,64.91,64.91,0,0,1,28.35-17.5A66.26,66.26,0,0,1,1238.73,182.35Zm-368.37,11.9q15.84-12.41,39.83-11.58l.77,0v44.8h-3.35A68.73,68.73,0,0,0,883,232.05a53.41,53.41,0,0,0-20,13.65,61.65,61.65,0,0,0-13,22.93q-4.42,13.42-4.55,31V371H803.16V186.2h42.35v41.65l.33-.79Q854.56,206.62,870.36,194.25Zm551.86-10.85q41.29,0,61.25,20.48,19.72,20.25,20,56.76V371h-42V348.25l-.54.64a79.62,79.62,0,0,1-23.61,18.26q-14.7,7.69-35.7,7.7a84.9,84.9,0,0,1-25.2-3.67,62.16,62.16,0,0,1-20.82-10.85,52.7,52.7,0,0,1-19.78-41.73v-2.33q.15-14.88,5.6-25.94a52.08,52.08,0,0,1,15.58-18.9,68,68,0,0,1,23.8-11.2,116.13,116.13,0,0,1,29.92-3.68,165,165,0,0,1,28.53,2.1,174.13,174.13,0,0,1,21.12,5.14l1.45.46v-4.13q-.19-18.78-11.72-28.77-11.73-10.15-33.78-10.15a112.84,112.84,0,0,0-28,3.15,182.11,182.11,0,0,0-23.45,7.82l-1.4.58-11.55-33.95,1.4-.63a194.57,194.57,0,0,1,30.1-10.57Q1399.47,183.4,1422.22,183.4Zm-407.92,0q41.29,0,61.25,20.48,19.73,20.25,19.94,56.76V371h-42V348.25l-.55.64a79.57,79.57,0,0,1-23.6,18.26q-14.7,7.69-35.71,7.7a85,85,0,0,1-25.2-3.67,62.16,62.16,0,0,1-20.82-10.85,54.08,54.08,0,0,1-14.35-17.85,53.43,53.43,0,0,1-5.42-23.88v-2.33q.15-14.88,5.59-25.94A52.18,52.18,0,0,1,949,271.43a68,68,0,0,1,23.8-11.2,116.2,116.2,0,0,1,29.93-3.68,164.87,164.87,0,0,1,28.52,2.1,173.22,173.22,0,0,1,21.12,5.14l1.46.46v-4.13q-.18-18.78-11.72-28.77-11.73-10.15-33.77-10.15a112.87,112.87,0,0,0-28,3.15,182.11,182.11,0,0,0-23.45,7.82l-1.4.58L943.94,198.8l1.41-.63a194.83,194.83,0,0,1,30.09-10.57Q991.55,183.4,1014.3,183.4ZM656.42,121.8a171.45,171.45,0,0,1,29.22,2.28A134.28,134.28,0,0,1,710,130.55a122,122,0,0,1,21.17,10.33,154.13,154.13,0,0,1,18.32,13.23l1.11.94-27.3,32.55-1.17-1a150.69,150.69,0,0,0-13.18-9.87,88.05,88.05,0,0,0-15.4-8.22,94.62,94.62,0,0,0-17.68-5.25,107.54,107.54,0,0,0-21.17-1.93,71.2,71.2,0,0,0-31.33,7,81.79,81.79,0,0,0-25.2,18.73,87.56,87.56,0,0,0-16.8,27.47,91,91,0,0,0-6.12,32.25v2.75a99.76,99.76,0,0,0,5.95,33.95,79.37,79.37,0,0,0,17,27.65,80.21,80.21,0,0,0,26.25,18.2Q639.62,336,658.52,336a102.9,102.9,0,0,0,32.72-5.07A93,93,0,0,0,716.94,318l.73-.54V271.6H655V234.15h104.3v102.9l-1.08.9a182.92,182.92,0,0,1-19,13.8,150.67,150.67,0,0,1-51.27,20.48,155.26,155.26,0,0,1-30.8,3q-28.7,0-52.15-9.62a116.73,116.73,0,0,1-65.8-66.5,133.68,133.68,0,0,1-9.1-48.78v-2.89a129.25,129.25,0,0,1,9.27-47.56A122.69,122.69,0,0,1,605.49,132Q628.77,121.8,656.42,121.8ZM438.52,325.38v36.09A25,25,0,0,1,426,383.12l-64.87,37.45a396.71,396.71,0,0,0-48-65.46A362.84,362.84,0,0,1,438.52,325.38Zm1273-139.18L1764,323.4l48-137.2h44.1l-73.5,190.05-.39,1A154.05,154.05,0,0,1,1771,400.4a63.32,63.32,0,0,1-13.3,15.93,47.81,47.81,0,0,1-16.1,8.92,65.36,65.36,0,0,1-19.95,2.8,85.61,85.61,0,0,1-23.63-3,102.72,102.72,0,0,1-19.09-7.68l-1-.55,14.35-31.5.91.48a72,72,0,0,0,11.16,4.6,42.44,42.44,0,0,0,12.78,1.92q9.09,0,15.05-4.55,5.8-4.44,10.94-16.21l.26-.59-77-184.8ZM20,254.81c134.38,0,251.81,72.63,315.16,180.77l-36.35,21C230.62,363.52,122.68,301.43,0,295.31v-40Q9.93,254.81,20,254.81ZM0,325.35c111.58,6,209.84,62.17,272.66,146.31l-40.9,23.61a25,25,0,0,1-25,0L12.5,383.12A25,25,0,0,1,0,361.47Z"/></clipPath><clipPath id="clip-path-2" transform="translate(5 5)"><rect class="cls-1" x="-385" y="-384" width="2599" height="1267"/></clipPath></defs><g id="Layer_2" data-name="Layer 2"><g id="Layer_1-2" data-name="Layer 1"><g id="granary-leftaligned"><g class="cls-2"><g class="cls-3"><rect class="cls-4" width="1866.05" height="508.62"/></g></g></g></g></g></svg>