<svg xmlns="http://www.w3.org/2000/svg" xmlns:xlink="http://www.w3.org/1999/xlink" viewBox="0 0 1335.97 878.25"><defs><style>.cls-1{fill:none;}.cls-2{clip-path:url(#clip-path);}.cls-3{clip-path:url(#clip-path-2);}.cls-4{fill:#fde987;}.cls-5{clip-path:url(#clip-path-3);}.cls-6{clip-path:url(#clip-path-5);}.cls-7{fill:#f68d11;}</style><clipPath id="clip-path" transform="translate(5 5)"><path class="cls-1" d="M1191.57,868.25a65.38,65.38,0,0,0,20-2.8,47.77,47.77,0,0,0,16.09-8.92,63.14,63.14,0,0,0,13.31-15.93,156.71,156.71,0,0,0,11.54-24.15L1326,626.4h-44.09l-48,137.2-52.5-137.2h-45.15l77,184.8q-5.25,12.25-11.21,16.8t-15,4.55a42.44,42.44,0,0,1-12.78-1.92,72.21,72.21,0,0,1-12.07-5.08l-14.36,31.5a103.56,103.56,0,0,0,20.13,8.23A85.59,85.59,0,0,0,1191.57,868.25Zm-132.73-57V740.85q0-18.2,4.55-32a61.65,61.65,0,0,1,12.95-22.93,53.41,53.41,0,0,1,20-13.65,69.19,69.19,0,0,1,25.55-4.55h2.45V622.9q-24.51-1-40.6,11.55t-24.85,33.6V626.4h-42.35V811.2Zm-175.44-28q-15,0-25.37-7T847.7,755.9v-.7q0-13.31,11.2-21t31.15-7.7a124.35,124.35,0,0,1,23.28,2.1,108.64,108.64,0,0,1,19.07,5.25v10.5a34.47,34.47,0,0,1-3.68,15.93,35.83,35.83,0,0,1-10.32,12.25,50.24,50.24,0,0,1-15.57,7.87A64.53,64.53,0,0,1,883.4,783.2Zm-11.9,31.85q21,0,35.7-7.7a79,79,0,0,0,24.15-18.9V811.2h42V701.65q0-37.1-20-57.57T892.15,623.6q-22.75,0-38.85,4.2A194.8,194.8,0,0,0,821.8,639l11.55,34a183.27,183.27,0,0,1,24.85-8.4,112.84,112.84,0,0,1,28-3.15q22,0,33.77,10.15T931.7,701v3.5a172.86,172.86,0,0,0-22.58-5.6,164.79,164.79,0,0,0-28.52-2.1,116.26,116.26,0,0,0-29.93,3.68,68,68,0,0,0-23.79,11.2,52,52,0,0,0-15.58,18.9q-5.59,11.37-5.6,26.77v.7q0,14,5.42,24.68a54.21,54.21,0,0,0,14.35,17.85,62.21,62.21,0,0,0,20.83,10.85A84.9,84.9,0,0,0,871.5,815.05ZM650.91,811.2V706.9q0-21.71,11.55-33.77t30.1-12.08q18.9,0,29.23,11.73t10.32,33.42v105h42.35V693.6q0-32.55-17.15-51.8t-48.65-19.25a66.26,66.26,0,0,0-19.42,2.63,64.91,64.91,0,0,0-28.35,17.5,103.92,103.92,0,0,0-10,12.42V626.4H608.56V811.2Zm-175.43-28q-15.06,0-25.38-7t-10.33-20.3v-.7q0-13.31,11.21-21t31.14-7.7a124.28,124.28,0,0,1,23.28,2.1,108.15,108.15,0,0,1,19.07,5.25v10.5a34.46,34.46,0,0,1-3.67,15.93,35.94,35.94,0,0,1-10.32,12.25,50.4,50.4,0,0,1-15.58,7.87A64.46,64.46,0,0,1,475.48,783.2Zm-11.9,31.85q21,0,35.69-7.7a78.92,78.92,0,0,0,24.15-18.9V811.2h42V701.65q0-37.1-19.95-57.57T484.23,623.6q-22.75,0-38.85,4.2a194.12,194.12,0,0,0-31.5,11.2l11.54,34a184.21,184.21,0,0,1,24.85-8.4,112.84,112.84,0,0,1,28-3.15q22.07,0,33.78,10.15T523.78,701v3.5a173.26,173.26,0,0,0-22.58-5.6,164.91,164.91,0,0,0-28.53-2.1,116.18,116.18,0,0,0-29.92,3.68,68,68,0,0,0-23.8,11.2,52.06,52.06,0,0,0-15.57,18.9q-5.61,11.37-5.61,26.77v.7q0,14,5.43,24.68a54.08,54.08,0,0,0,14.35,17.85,62.11,62.11,0,0,0,20.83,10.85A84.9,84.9,0,0,0,463.58,815.05ZM315.44,811.2V740.85q0-18.2,4.55-32a61.65,61.65,0,0,1,12.95-22.93,53.41,53.41,0,0,1,19.95-13.65,69.19,69.19,0,0,1,25.55-4.55h2.45V622.9q-24.51-1-40.6,11.55t-24.85,33.6V626.4H273.09V811.2Zm-188.39,4.2a155.26,155.26,0,0,0,30.8-3A150.67,150.67,0,0,0,209.12,792a183,183,0,0,0,20.13-14.7V674.35H125V711.8H187.6v45.85a92.64,92.64,0,0,1-26.42,13.48,103,103,0,0,1-32.73,5.07q-18.9,0-34.13-6.65a80.42,80.42,0,0,1-26.25-18.2,79.37,79.37,0,0,1-17-27.65,100.12,100.12,0,0,1-6-35V688a90.78,90.78,0,0,1,6.13-33.25,87.36,87.36,0,0,1,16.79-27.47,81.72,81.72,0,0,1,25.21-18.73,71.13,71.13,0,0,1,31.32-7,107.54,107.54,0,0,1,21.17,1.93,94.62,94.62,0,0,1,17.68,5.25,88.05,88.05,0,0,1,15.4,8.22A154.88,154.88,0,0,1,193.2,627.8l27.3-32.55a153.88,153.88,0,0,0-19.43-14.17,121.7,121.7,0,0,0-21.17-10.33,134.28,134.28,0,0,0-24.33-6.47A171.45,171.45,0,0,0,126.35,562q-27.64,0-50.92,10.15a122.66,122.66,0,0,0-66.16,67.9A129.42,129.42,0,0,0,0,688.7v.7a134,134,0,0,0,9.1,49.88,119.23,119.23,0,0,0,25.73,39.9,118.2,118.2,0,0,0,40.07,26.6Q98.35,815.4,127.05,815.4Z"/></clipPath><clipPath id="clip-path-2" transform="translate(5 5)"><rect class="cls-1" x="-646" y="-215" width="2599" height="1267"/></clipPath><clipPath id="clip-path-3" transform="translate(5 5)"><path class="cls-1" d="M663.42,134.64l.25.26.53.56c11.2,12,17.85,24.35,18.84,34.72l0,.49,0,.3,0,.37,0,.55c-1,11.38-8,23.2-18.68,34.56l-.51.54-.43.45-.64-.65c-11.32-11.68-18.65-24.29-18.69-35.45.41-11.48,7.23-23.64,18.11-35.4l.5-.53ZM621,211.57h.51l.5,0a31.16,31.16,0,0,1,30.2,29.74l0,.5V242l0,.12,0,.14a2.89,2.89,0,0,0,0,.29V257.1H637a31.26,31.26,0,0,1-30.77-30.78V211.58Zm84.55.3,14.5,0,0,14.33v1a31.24,31.24,0,0,1-30.82,30.31h-.5l-14.5,0,0-14.33v-.52A31.21,31.21,0,0,1,705.58,211.87ZM863,254.81q9.82,0,19.52.52v40a392.93,392.93,0,0,0-147.67,37A397.81,397.81,0,0,0,692,297.24,363.48,363.48,0,0,1,863,254.81Zm19.52,70.57v36.09A25,25,0,0,1,870,383.12l-64.87,37.45a396.71,396.71,0,0,0-48-65.46A362.84,362.84,0,0,1,882.52,325.38ZM464,254.81c134.38,0,251.81,72.63,315.16,180.77l-36.35,21c-68.19-93-176.13-155.13-298.81-161.25v-40Q453.93,254.81,464,254.81Zm-20,70.54c111.58,6,209.84,62.17,272.66,146.31l-40.9,23.61a25,25,0,0,1-25,0L456.5,383.12A25,25,0,0,1,444,361.47Z"/></clipPath><clipPath id="clip-path-5" transform="translate(5 5)"><path class="cls-1" d="M675.76,3.35,870,115.51a25,25,0,0,1,12.5,21.65v88.13q-9.71-.48-19.52-.48A394.69,394.69,0,0,0,738.06,245a52,52,0,0,0,3.5-18V200.71a10.93,10.93,0,0,0-10.64-10.62H704.46l-.83,0c-.83,0-1.67.08-2.51.15l-.84.08-.51.06.14-.33.3-.75a56.89,56.89,0,0,0,4.17-17.94l0-.72v-.2l0-.59c-1-19.61-13.46-40-33.4-58.11a12,12,0,0,0-16.1.13l-.14.15c-2.84,3-31.6,39.16-32.84,57.73l0,.57v1.5a55.7,55.7,0,0,0,3.51,17.44l.35.94-.92-.09c-1.07-.1-2.11-.16-3.14-.18H594.92a10.93,10.93,0,0,0-10.61,10.64v26.73a51.72,51.72,0,0,0,3.39,17.23A394.65,394.65,0,0,0,464,224.81q-10.06,0-20,.5V137.16a25,25,0,0,1,12.5-21.65L650.76,3.35A25,25,0,0,1,675.76,3.35Z"/></clipPath></defs><g id="Layer_2" data-name="Layer 2"><g id="Layer_1-2" data-name="Layer 1"><g id="granary"><g class="cls-2"><g class="cls-3"><rect class="cls-4" y="562" width="1335.97" height="316.25"/></g></g><g class="cls-5"><g class="cls-3"><rect class="cls-4" x="444" y="134.64" width="448.52" height="373.99"/></g></g><g class="cls-6"><g class="cls-3"><rect class="cls-7" x="444" width="448.52" height="254.98"/></g></g></g></g></g></svg>