<svg xmlns="http://www.w3.org/2000/svg" xmlns:xlink="http://www.w3.org/1999/xlink" viewBox="0 0 1335.98 878.05"><defs><style>.cls-1{fill:none;}.cls-2{clip-path:url(#clip-path);}.cls-3{clip-path:url(#clip-path-2);}.cls-4{fill:#fff;}</style><clipPath id="clip-path" transform="translate(5 5)"><path class="cls-1" d="M654.35,134.64l.25.26.53.56c11.2,12,17.85,24.35,18.84,34.72l0,.49,0,.3,0,.37,0,.55c-1,11.38-8,23.2-18.68,34.56l-.51.54-.43.45-.64-.65c-11.32-11.68-18.65-24.29-18.69-35.45.41-11.48,7.23-23.64,18.11-35.4l.5-.53ZM666.69,3.35,861,115.51a25,25,0,0,1,12.5,21.65v88.13q-9.71-.48-19.52-.48A394.69,394.69,0,0,0,729,245a52,52,0,0,0,3.5-18V200.71a10.93,10.93,0,0,0-10.64-10.62H695.39l-.83,0c-.83,0-1.67.08-2.51.15l-.84.08-.51.06.14-.33.3-.75a56.89,56.89,0,0,0,4.17-17.94l0-.72v-.2l0-.59c-1-19.61-13.46-40-33.4-58.11a12,12,0,0,0-16.1.13l-.14.15c-2.84,3-31.6,39.16-32.84,57.73l0,.57v1.5a55.7,55.7,0,0,0,3.51,17.44l.35.94-.92-.09c-1.07-.1-2.11-.16-3.14-.18H585.85a10.93,10.93,0,0,0-10.61,10.64v26.73a51.72,51.72,0,0,0,3.39,17.23,394.65,394.65,0,0,0-123.7-19.76q-10.06,0-20,.5V137.16a25,25,0,0,1,12.5-21.65L641.69,3.35A25,25,0,0,1,666.69,3.35ZM612,211.57h.51l.5,0a31.16,31.16,0,0,1,30.2,29.74l0,.5V242l0,.12,0,.14a2.89,2.89,0,0,0,0,.29V257.1H628a31.26,31.26,0,0,1-30.77-30.78V211.58Zm84.55.3,14.5,0,0,14.33v1a31.24,31.24,0,0,1-30.82,30.31h-.5l-14.5,0,0-14.33v-.52A31.21,31.21,0,0,1,696.51,211.87Zm157.42,42.94q9.83,0,19.52.52v40a392.93,392.93,0,0,0-147.67,37A397.81,397.81,0,0,0,683,297.24,363.48,363.48,0,0,1,853.93,254.81Zm19.52,70.57v36.09A25,25,0,0,1,861,383.12l-64.87,37.45a396.71,396.71,0,0,0-48-65.46A362.84,362.84,0,0,1,873.45,325.38ZM454.93,254.81c134.38,0,251.81,72.63,315.16,180.77l-36.35,21c-68.19-93-176.13-155.13-298.81-161.25v-40Q444.86,254.81,454.93,254.81Zm-20,70.54c111.58,6,209.84,62.17,272.66,146.31l-40.9,23.61a25,25,0,0,1-25,0L447.43,383.12a25,25,0,0,1-12.5-21.65Zm47.2,400.95q-20,0-31.15,7.7-11,7.56-11.2,20.53v1.65Q440,769.13,450.1,776q10.32,7,25.38,7a64.46,64.46,0,0,0,19.42-2.8,50.4,50.4,0,0,0,15.58-7.87,35.94,35.94,0,0,0,10.32-12.25,34.27,34.27,0,0,0,3.67-15.28V733.65l-.71-.27a110.43,110.43,0,0,0-18.37-5A124.25,124.25,0,0,0,482.13,726.3Zm407.92,0q-19.95,0-31.15,7.7-11,7.56-11.2,20.53v1.65Q847.9,769.13,858,776q10.32,7,25.37,7a64.53,64.53,0,0,0,19.43-2.8,50.24,50.24,0,0,0,15.57-7.87,36,36,0,0,0,10.33-12.25,34.26,34.26,0,0,0,3.66-15.28V733.65l-.71-.27a110,110,0,0,0-18.36-5A124.28,124.28,0,0,0,890.05,726.3Zm193.64-92q15.84-12.4,39.83-11.58l.77,0v44.8h-3.35a68.73,68.73,0,0,0-24.65,4.55,53.41,53.41,0,0,0-20,13.65,61.65,61.65,0,0,0-12.95,22.93q-4.42,13.43-4.55,31V811h-42.35V626.2h42.35v41.65l.33-.79Q1067.89,646.62,1083.69,634.25Zm-375-11.9q31.5,0,48.65,19.25,16.94,19,17.15,51V811H732.11V705.28q-.17-21.18-10.32-32.7-10.34-11.73-29.23-11.73-18.54,0-30.1,12.08Q651.11,684.8,650.92,706V811H608.56V626.2h42.35v28.7l.71-1a102.44,102.44,0,0,1,9.27-11.4A64.91,64.91,0,0,1,689.24,625,66.26,66.26,0,0,1,708.66,622.35Zm-368.37,11.9q15.84-12.4,39.83-11.58l.77,0v44.8h-3.35a68.73,68.73,0,0,0-24.65,4.55,53.41,53.41,0,0,0-19.95,13.65A61.65,61.65,0,0,0,320,708.63q-4.42,13.43-4.55,31V811H273.09V626.2h42.35v41.65l.33-.79Q324.49,646.62,340.29,634.25ZM892.15,623.4q41.29,0,61.25,20.48,19.73,20.25,20,56.76V811h-42V788.25l-.54.64a79.62,79.62,0,0,1-23.61,18.26q-14.7,7.7-35.7,7.7a84.9,84.9,0,0,1-25.2-3.67,62.16,62.16,0,0,1-20.82-10.85,54,54,0,0,1-14.35-17.85,53.3,53.3,0,0,1-5.43-23.88v-2.33q.15-14.88,5.6-25.94a52.08,52.08,0,0,1,15.58-18.9,68,68,0,0,1,23.8-11.2,116.13,116.13,0,0,1,29.92-3.68,165,165,0,0,1,28.53,2.1,174.13,174.13,0,0,1,21.12,5.14l1.45.46v-4.13q-.19-18.78-11.72-28.77Q908.25,661.2,886.2,661.2a112.84,112.84,0,0,0-28,3.15,182.11,182.11,0,0,0-23.45,7.82l-1.4.58-11.55-34,1.4-.63a194.57,194.57,0,0,1,30.1-10.57Q869.4,623.4,892.15,623.4Zm-407.92,0q41.29,0,61.25,20.48,19.72,20.25,19.94,56.76V811h-42V788.25l-.55.64a79.57,79.57,0,0,1-23.6,18.26q-14.7,7.7-35.7,7.7a84.9,84.9,0,0,1-25.2-3.67,62.11,62.11,0,0,1-20.83-10.85,54.08,54.08,0,0,1-14.35-17.85,53.43,53.43,0,0,1-5.42-23.88v-2.33q.15-14.88,5.6-25.94A52.06,52.06,0,0,1,419,711.43a68,68,0,0,1,23.8-11.2,116.2,116.2,0,0,1,29.93-3.68,164.87,164.87,0,0,1,28.52,2.1,173.22,173.22,0,0,1,21.12,5.14l1.46.46v-4.13q-.18-18.78-11.72-28.77-11.73-10.15-33.77-10.15a112.78,112.78,0,0,0-28,3.15,182.24,182.24,0,0,0-23.46,7.82l-1.39.58-11.55-34,1.4-.63a194.57,194.57,0,0,1,30.1-10.57Q461.48,623.4,484.23,623.4ZM126.35,561.8a171.57,171.57,0,0,1,29.23,2.28,134.17,134.17,0,0,1,24.32,6.47,122.15,122.15,0,0,1,21.18,10.33,154.85,154.85,0,0,1,18.31,13.23l1.11.94L193.2,627.6l-1.17-1a150.69,150.69,0,0,0-13.18-9.87,88.05,88.05,0,0,0-15.4-8.22,94.74,94.74,0,0,0-17.67-5.25,107.71,107.71,0,0,0-21.18-1.93,71.2,71.2,0,0,0-31.33,7,81.63,81.63,0,0,0-25.19,18.73,87.4,87.4,0,0,0-16.81,27.47,90.81,90.81,0,0,0-6.11,32.25v2.75a99.76,99.76,0,0,0,6,34,79.39,79.39,0,0,0,17,27.65,80.21,80.21,0,0,0,26.25,18.2Q109.56,776,128.45,776a103,103,0,0,0,32.73-5.07A93.07,93.07,0,0,0,186.87,758l.73-.54V711.6H125V674.15h104.3v102.9l-1.08.9a183.83,183.83,0,0,1-19,13.8,150.61,150.61,0,0,1-51.28,20.48,155.26,155.26,0,0,1-30.8,3q-28.69,0-52.15-9.62A118.34,118.34,0,0,1,34.82,779,119.36,119.36,0,0,1,9.1,739.08,133.89,133.89,0,0,1,0,690.3v-2.89a129.25,129.25,0,0,1,9.27-47.56A122.66,122.66,0,0,1,75.43,572Q98.7,561.79,126.35,561.8Zm1055.08,64.4,52.5,137.2,48-137.2H1326l-73.5,190-.39,1a154.05,154.05,0,0,1-11.16,23.17,63.32,63.32,0,0,1-13.3,15.93,47.81,47.81,0,0,1-16.1,8.92,65.36,65.36,0,0,1-20,2.8,85.61,85.61,0,0,1-23.63-3,102.72,102.72,0,0,1-19.09-7.68l-1-.55,14.35-31.5.91.48a72,72,0,0,0,11.16,4.6,42.44,42.44,0,0,0,12.78,1.92q9.09,0,15-4.55,5.81-4.44,10.94-16.21l.26-.59-77-184.8Z"/></clipPath><clipPath id="clip-path-2" transform="translate(5 5)"><rect class="cls-1" x="-646.07" y="-215" width="2599" height="1267"/></clipPath></defs><g id="Layer_2" data-name="Layer 2"><g id="Layer_1-2" data-name="Layer 1"><g id="granary"><g class="cls-2"><g class="cls-3"><rect class="cls-4" width="1335.98" height="878.05"/></g></g></g></g></g></svg>