<svg xmlns="http://www.w3.org/2000/svg" xmlns:xlink="http://www.w3.org/1999/xlink" viewBox="0 0 1866.04 508.62"><defs><style>.cls-1{fill:none;}.cls-2{clip-path:url(#clip-path);}.cls-3{clip-path:url(#clip-path-2);}.cls-4{fill:#fde987;}.cls-5{clip-path:url(#clip-path-3);}.cls-6{clip-path:url(#clip-path-5);}.cls-7{fill:#f68d11;}</style><clipPath id="clip-path" transform="translate(5 5)"><path class="cls-1" d="M1721.64,428.05a65.27,65.27,0,0,0,19.95-2.8,47.72,47.72,0,0,0,16.1-8.92A63.11,63.11,0,0,0,1771,400.4a155.75,155.75,0,0,0,11.55-24.15l73.5-190h-44.1l-48,137.2-52.5-137.2h-45.15l77,184.8q-5.25,12.25-11.2,16.8t-15.05,4.55a42.42,42.42,0,0,1-12.77-1.92,72.31,72.31,0,0,1-12.08-5.08l-14.35,31.5a103.56,103.56,0,0,0,20.13,8.23A85.59,85.59,0,0,0,1721.64,428.05ZM1588.91,371V300.65q0-18.19,4.55-32a61.65,61.65,0,0,1,13-22.93,53.41,53.41,0,0,1,19.95-13.65,69.19,69.19,0,0,1,25.55-4.55h2.45V182.7q-24.51-1-40.6,11.55t-24.85,33.6V186.2h-42.35V371Zm-175.44-28q-15,0-25.38-7t-10.32-20.3V315q0-13.31,11.2-21t31.15-7.7a124.17,124.17,0,0,1,23.27,2.1,108.52,108.52,0,0,1,19.08,5.25v10.5a34.47,34.47,0,0,1-3.68,15.93,35.94,35.94,0,0,1-10.32,12.25,50.29,50.29,0,0,1-15.58,7.87A64.46,64.46,0,0,1,1413.47,343Zm-11.9,31.85q21,0,35.7-7.7a79,79,0,0,0,24.15-18.9V371h42V261.45q0-37.09-20-57.57t-61.25-20.48q-22.76,0-38.85,4.2a194.8,194.8,0,0,0-31.5,11.2l11.55,33.95a183.27,183.27,0,0,1,24.85-8.4,112.84,112.84,0,0,1,28-3.15q22.05,0,33.77,10.15t11.73,29.4v3.5a172.86,172.86,0,0,0-22.58-5.6,164.79,164.79,0,0,0-28.52-2.1,116.26,116.26,0,0,0-29.93,3.68,68.08,68.08,0,0,0-23.8,11.2,52.06,52.06,0,0,0-15.57,18.9q-5.59,11.37-5.6,26.77v.7q0,14,5.42,24.68a54.08,54.08,0,0,0,14.35,17.85,62.21,62.21,0,0,0,20.83,10.85A84.9,84.9,0,0,0,1401.57,374.85ZM1181,371V266.7q0-21.7,11.55-33.77t30.1-12.08q18.9,0,29.23,11.73T1262.18,266V371h42.35V253.4q0-32.55-17.15-51.8t-48.65-19.25a66.26,66.26,0,0,0-19.42,2.63,64.91,64.91,0,0,0-28.35,17.5,103.92,103.92,0,0,0-10,12.42V186.2h-42.35V371Zm-175.44-28q-15,0-25.37-7t-10.33-20.3V315q0-13.31,11.2-21t31.15-7.7a124.28,124.28,0,0,1,23.28,2.1,108.15,108.15,0,0,1,19.07,5.25v10.5a34.46,34.46,0,0,1-3.67,15.93,35.86,35.86,0,0,1-10.33,12.25A50.24,50.24,0,0,1,1025,340.2,64.53,64.53,0,0,1,1005.54,343Zm-11.9,31.85q21,0,35.7-7.7a79,79,0,0,0,24.15-18.9V371h42V261.45q0-37.09-20-57.57t-61.25-20.48q-22.74,0-38.85,4.2a194.8,194.8,0,0,0-31.5,11.2l11.55,33.95a183.74,183.74,0,0,1,24.85-8.4,112.84,112.84,0,0,1,28-3.15q22,0,33.78,10.15t11.72,29.4v3.5a173.11,173.11,0,0,0-22.57-5.6,165,165,0,0,0-28.53-2.1,116.18,116.18,0,0,0-29.92,3.68,68,68,0,0,0-23.8,11.2,52.18,52.18,0,0,0-15.58,18.9q-5.6,11.37-5.6,26.77v.7q0,14,5.43,24.68a54.08,54.08,0,0,0,14.35,17.85,62.16,62.16,0,0,0,20.82,10.85A85,85,0,0,0,993.64,374.85ZM845.51,371V300.65q0-18.19,4.55-32a61.65,61.65,0,0,1,13-22.93,53.41,53.41,0,0,1,20-13.65,69.19,69.19,0,0,1,25.55-4.55H911V182.7q-24.51-1-40.6,11.55t-24.85,33.6V186.2H803.16V371Zm-188.39,4.2a155.26,155.26,0,0,0,30.8-3,150.67,150.67,0,0,0,51.27-20.48,184,184,0,0,0,20.13-14.7V234.15H655V271.6h62.65v45.85a92.57,92.57,0,0,1-26.43,13.48A102.9,102.9,0,0,1,658.52,336q-18.9,0-34.13-6.65a80.21,80.21,0,0,1-26.25-18.2,79.37,79.37,0,0,1-17-27.65,100.12,100.12,0,0,1-5.95-35v-.7a91,91,0,0,1,6.12-33.25,87.56,87.56,0,0,1,16.8-27.47,81.79,81.79,0,0,1,25.2-18.73,71.2,71.2,0,0,1,31.33-7,107.54,107.54,0,0,1,21.17,1.93,94.62,94.62,0,0,1,17.68,5.25,88.05,88.05,0,0,1,15.4,8.22,154.88,154.88,0,0,1,14.35,10.85l27.3-32.55a154.6,154.6,0,0,0-19.43-14.17A122,122,0,0,0,710,130.55a134.28,134.28,0,0,0-24.33-6.47,171.45,171.45,0,0,0-29.22-2.28q-27.64,0-50.93,10.15a122.69,122.69,0,0,0-66.15,67.9,129.42,129.42,0,0,0-9.27,48.65v.7a134,134,0,0,0,9.1,49.88,116.73,116.73,0,0,0,65.8,66.5Q628.42,375.2,657.12,375.2Z"/></clipPath><clipPath id="clip-path-2" transform="translate(5 5)"><rect class="cls-1" x="-385" y="-384" width="2599" height="1267"/></clipPath><clipPath id="clip-path-3" transform="translate(5 5)"><path class="cls-1" d="M219.42,134.64l.25.26.53.56c11.2,12,17.85,24.35,18.84,34.72l0,.49,0,.3,0,.37,0,.55c-1,11.38-8,23.2-18.68,34.56l-.51.54-.43.45-.64-.65c-11.32-11.68-18.65-24.29-18.69-35.45.41-11.48,7.23-23.64,18.11-35.4l.5-.53ZM177,211.57h.51l.5,0a31.16,31.16,0,0,1,30.2,29.74l0,.5V242l0,.12,0,.14a2.89,2.89,0,0,0,0,.29V257.1H193a31.26,31.26,0,0,1-30.77-30.78V211.58Zm84.55.3,14.5,0,0,14.33v1a31.24,31.24,0,0,1-30.82,30.31h-.51l-14.49,0,0-14.33v-.52A31.21,31.21,0,0,1,261.58,211.87ZM419,254.81q9.83,0,19.52.52v40a392.93,392.93,0,0,0-147.67,37A397.81,397.81,0,0,0,248,297.24,363.48,363.48,0,0,1,419,254.81Zm19.52,70.57v36.09A25,25,0,0,1,426,383.12l-64.87,37.45a396.71,396.71,0,0,0-48-65.46A362.84,362.84,0,0,1,438.52,325.38ZM20,254.81c134.38,0,251.81,72.63,315.16,180.77l-36.35,21C230.62,363.52,122.68,301.43,0,295.31v-40Q9.93,254.81,20,254.81ZM0,325.35c111.58,6,209.84,62.17,272.66,146.31l-40.9,23.61a25,25,0,0,1-25,0L12.5,383.12A25,25,0,0,1,0,361.47Z"/></clipPath><clipPath id="clip-path-5" transform="translate(5 5)"><path class="cls-1" d="M231.76,3.35,426,115.51a25,25,0,0,1,12.5,21.65v88.13q-9.7-.48-19.52-.48A394.69,394.69,0,0,0,294.06,245a52,52,0,0,0,3.5-18V200.71a10.93,10.93,0,0,0-10.64-10.62H260.46l-.83,0c-.83,0-1.67.08-2.51.15l-.84.08-.51.06.14-.33.3-.75a56.89,56.89,0,0,0,4.17-17.94l0-.72v-.2l0-.59c-1-19.61-13.46-40-33.4-58.11a12,12,0,0,0-16.1.13l-.14.15c-2.84,3-31.6,39.16-32.84,57.73l0,.57v1.5a55.7,55.7,0,0,0,3.51,17.44l.35.94-.92-.09c-1.07-.1-2.11-.16-3.14-.18H150.92a10.93,10.93,0,0,0-10.61,10.64v26.73a51.72,51.72,0,0,0,3.39,17.23A394.65,394.65,0,0,0,20,224.81q-10.07,0-20,.5V137.16a25,25,0,0,1,12.5-21.65L206.76,3.35A25,25,0,0,1,231.76,3.35Z"/></clipPath></defs><g id="Layer_2" data-name="Layer 2"><g id="Layer_1-2" data-name="Layer 1"><g id="granary-leftaligned"><g class="cls-2"><g class="cls-3"><rect class="cls-4" x="530.07" y="121.8" width="1335.98" height="316.25"/></g></g><g class="cls-5"><g class="cls-3"><rect class="cls-4" y="134.64" width="448.52" height="373.99"/></g></g><g class="cls-6"><g class="cls-3"><rect class="cls-7" width="448.52" height="254.98"/></g></g></g></g></g></svg>