<svg xmlns="http://www.w3.org/2000/svg" xmlns:xlink="http://www.w3.org/1999/xlink" viewBox="0 0 508.52 568.62"><defs><style>.cls-1{fill:none;}.cls-2{clip-path:url(#clip-path);}.cls-3{clip-path:url(#clip-path-2);}.cls-4{fill:#4b3b40;}.cls-5{clip-path:url(#clip-path-3);}.cls-6{isolation:isolate;}.cls-7{clip-path:url(#clip-path-5);}.cls-8{clip-path:url(#clip-path-6);}.cls-9{fill:#f68d11;}.cls-10{clip-path:url(#clip-path-7);}.cls-11{fill:#fde987;}.cls-12{clip-path:url(#clip-path-9);}.cls-13{clip-path:url(#clip-path-11);}.cls-14{clip-path:url(#clip-path-13);}.cls-15{clip-path:url(#clip-path-15);}</style><clipPath id="clip-path" transform="translate(5 5)"><path class="cls-1" d="M221.76,7.37,27.5,119.52A55,55,0,0,0,0,167.16V391.47A55,55,0,0,0,27.5,439.1L221.76,551.26a55,55,0,0,0,55,0L471,439.1a55,55,0,0,0,27.5-47.63V167.16A55,55,0,0,0,471,119.52L276.76,7.37A55,55,0,0,0,221.76,7.37Z"/></clipPath><clipPath id="clip-path-2" transform="translate(5 5)"><rect class="cls-1" x="-1060.24" y="-185" width="2599" height="1267"/></clipPath><clipPath id="clip-path-3" transform="translate(5 5)"><path class="cls-1" d="M261.52,33.35,455.78,145.51a25,25,0,0,1,12.5,21.65V391.47a25,25,0,0,1-12.5,21.65L261.52,525.27a25,25,0,0,1-25,0L42.26,413.12a25,25,0,0,1-12.5-21.65V167.16a25,25,0,0,1,12.5-21.65L236.52,33.35A25,25,0,0,1,261.52,33.35Z"/></clipPath><clipPath id="clip-path-5" transform="translate(5 5)"><rect class="cls-1" x="24.76" y="25" width="449" height="509"/></clipPath><clipPath id="clip-path-6" transform="translate(5 5)"><rect class="cls-1" x="29.76" y="28" width="439" height="502"/></clipPath><clipPath id="clip-path-7" transform="translate(5 5)"><path class="cls-1" d="M29.76,272.45l223.5,25.05,215-24.1V391.47a25,25,0,0,1-12.5,21.65L261.52,525.27a25,25,0,0,1-25,0L42.26,413.12a25,25,0,0,1-12.5-21.65Z"/></clipPath><clipPath id="clip-path-9" transform="translate(5 5)"><path class="cls-1" d="M256.74,141.77c19.94,18.13,32.36,38.5,33.4,58.11l0,.59v.2a56.2,56.2,0,0,1-4.2,18.66l-.3.75-.14.33.51-.06c1.12-.11,2.24-.19,3.35-.23l.83,0H316.4a10.94,10.94,0,0,1,10.93,10.63V256.2A52,52,0,0,1,323.82,275a394.6,394.6,0,0,1,124.94-20.17q9.83,0,19.52.48v30q-9.69-.52-19.52-.52a363.48,363.48,0,0,0-171,42.43,396.72,396.72,0,0,1,42.8,35.05,393,393,0,0,1,147.68-37v30.05a362.78,362.78,0,0,0-125.34,29.73,396.08,396.08,0,0,1,48,65.46l-26,15C301.57,357.44,184.14,284.81,49.76,284.81q-10.07,0-20,.54v-30q9.93-.5,20-.5a394.59,394.59,0,0,1,123.69,19.76,52,52,0,0,1-3.38-17.23l0-.67V230.9A10.93,10.93,0,0,1,180.68,220h26c1.28,0,2.57.06,3.91.19l.92.09-.07-.18a56.23,56.23,0,0,1-3.79-18.2v-1.5c.69-18.77,31.19-56.78,33-58.45A12,12,0,0,1,256.74,141.77Zm71.83,344.79-26.15,15.1C239.6,417.52,141.34,361.38,29.76,355.35v-30C152.44,331.43,260.38,393.52,328.57,486.56Z"/></clipPath><clipPath id="clip-path-11" transform="translate(5 5)"><path class="cls-1" d="M249.18,164.64l.25.26C261.12,177.31,268,190,268.84,200.67l0,.3,0,.37c-.84,11.74-8.06,23.95-19.23,35.65l-.44.45-.15-.15c-11.59-11.83-19.13-24.63-19.17-35.95.41-11.65,7.44-24,18.6-35.93Z"/></clipPath><clipPath id="clip-path-13" transform="translate(5 5)"><path class="cls-1" d="M192,241.58H207.3A31.19,31.19,0,0,1,238,271.83V272l0,.12a2.71,2.71,0,0,0-.08.59V287.1H223.31A31.27,31.27,0,0,1,192,255.8Z"/></clipPath><clipPath id="clip-path-15" transform="translate(5 5)"><path class="cls-1" d="M305.83,241.9l0,14.33v.52a31.24,31.24,0,0,1-31.34,30.82l-14.49,0,0-14.33a31.23,31.23,0,0,1,31.34-31.34Z"/></clipPath></defs><g id="Layer_2" data-name="Layer 2"><g id="Layer_1-2" data-name="Layer 1"><g id="granary-mark"><g class="cls-2"><g class="cls-3"><rect class="cls-4" width="508.52" height="568.62"/></g></g><g class="cls-5"><g class="cls-3"><g class="cls-6"><g class="cls-7"><g class="cls-8"><rect class="cls-9" x="29.76" y="30" width="448.52" height="508.62"/></g><g class="cls-10"><g class="cls-8"><rect class="cls-11" x="29.76" y="272.45" width="448.52" height="266.18"/></g></g><g class="cls-12"><g class="cls-8"><rect class="cls-4" x="29.76" y="138.73" width="448.52" height="372.93"/></g></g><g class="cls-13"><g class="cls-8"><rect class="cls-11" x="218.44" y="170.3" width="61.49" height="61.47" transform="translate(-64.17 240.08) rotate(-45)"/></g></g><g class="cls-14"><g class="cls-8"><rect class="cls-11" x="190.57" y="226.97" width="48.87" height="74.65" transform="translate(-118.91 234.44) rotate(-45)"/></g></g><g class="cls-15"><g class="cls-8"><rect class="cls-11" x="245.6" y="240.28" width="74.66" height="48.87" transform="translate(-99.32 282.6) rotate(-45)"/></g></g></g></g></g></g></g></g></g></svg>