<svg xmlns="http://www.w3.org/2000/svg" xmlns:xlink="http://www.w3.org/1999/xlink" viewBox="0 0 448.52 508.62"><defs><style>.cls-1{fill:none;}.cls-2{clip-path:url(#clip-path);}.cls-3{clip-path:url(#clip-path-2);}.cls-4{fill:#fde987;}.cls-5{clip-path:url(#clip-path-3);}.cls-6{fill:#f68d11;}</style><clipPath id="clip-path" transform="translate(5 5)"><path class="cls-1" d="M219.42,134.64l.25.26.53.56c11.2,12,17.85,24.35,18.84,34.72l0,.49,0,.3,0,.37,0,.55c-1,11.38-8,23.2-18.68,34.56l-.51.54-.43.45-.64-.65c-11.32-11.68-18.65-24.29-18.69-35.45.41-11.48,7.23-23.64,18.11-35.4l.5-.53ZM177,211.57h.51l.5,0a31.16,31.16,0,0,1,30.2,29.74l0,.5V242l0,.12,0,.14a2.89,2.89,0,0,0,0,.29V257.1H193a31.26,31.26,0,0,1-30.77-30.78V211.58Zm84.55.3,14.5,0,0,14.33v1a31.24,31.24,0,0,1-30.82,30.31h-.5l-14.5,0,0-14.33v-.52A31.21,31.21,0,0,1,261.58,211.87ZM419,254.81q9.83,0,19.52.52v40a392.93,392.93,0,0,0-147.67,37A397.81,397.81,0,0,0,248,297.24,363.48,363.48,0,0,1,419,254.81Zm19.52,70.57v36.09A25,25,0,0,1,426,383.12l-64.87,37.45a396.71,396.71,0,0,0-48-65.46A362.84,362.84,0,0,1,438.52,325.38ZM20,254.81c134.38,0,251.81,72.63,315.16,180.77l-36.35,21C230.62,363.52,122.68,301.43,0,295.31v-40Q9.93,254.81,20,254.81ZM0,325.35c111.58,6,209.84,62.17,272.66,146.31l-40.9,23.61a25,25,0,0,1-25,0L12.5,383.12A25,25,0,0,1,0,361.47Z"/></clipPath><clipPath id="clip-path-2" transform="translate(5 5)"><rect class="cls-1" x="-1090" y="-215" width="2599" height="1267"/></clipPath><clipPath id="clip-path-3" transform="translate(5 5)"><path class="cls-1" d="M231.76,3.35,426,115.51a25,25,0,0,1,12.5,21.65v88.13q-9.7-.48-19.52-.48A394.69,394.69,0,0,0,294.06,245a52,52,0,0,0,3.5-18V200.71a10.93,10.93,0,0,0-10.64-10.62H260.46l-.83,0c-.83,0-1.67.08-2.51.15l-.84.08-.51.06.14-.33.3-.75a56.89,56.89,0,0,0,4.17-17.94l0-.72v-.2l0-.59c-1-19.61-13.46-40-33.4-58.11a12,12,0,0,0-16.1.13l-.14.15c-2.84,3-31.6,39.16-32.84,57.73l0,.57v1.5a55.7,55.7,0,0,0,3.51,17.44l.35.94-.92-.09c-1.07-.1-2.11-.16-3.14-.18H150.92a10.93,10.93,0,0,0-10.61,10.64v26.73a51.72,51.72,0,0,0,3.39,17.23A394.65,394.65,0,0,0,20,224.81q-10.07,0-20,.5V137.16a25,25,0,0,1,12.5-21.65L206.76,3.35A25,25,0,0,1,231.76,3.35Z"/></clipPath></defs><g id="Layer_2" data-name="Layer 2"><g id="Layer_1-2" data-name="Layer 1"><g id="granary-mark"><g class="cls-2"><g class="cls-3"><rect class="cls-4" y="134.64" width="448.52" height="373.99"/></g></g><g class="cls-5"><g class="cls-3"><rect class="cls-6" width="448.52" height="254.98"/></g></g></g></g></g></svg>